<svg xmlns="http://www.w3.org/2000/svg" viewBox="0 0 28.17 50"><defs><style>.a{fill:#005add;}</style></defs><rect class="a" x="4.12" y="36.55" width="19.85" height="2"/><path class="a" d="M-2.5,42H9.23a0,0,0,0,1,0,0v1.66a0,0,0,0,1,0,0H-2.5a.83.83,0,0,1-.83-.83v0A.83.83,0,0,1-2.5,42Z" transform="translate(-38.64 32.29) rotate(-71.86)"/><path class="a" d="M18.87,42H30.59a.83.83,0,0,1,.83.83v0a.83.83,0,0,1-.83.83H18.87a0,0,0,0,1,0,0V42A0,0,0,0,1,18.87,42Z" transform="translate(58 5.59) rotate(71.86)"/><circle class="a" cx="14.56" cy="44.47" r="4.53"/><rect class="a" x="7.73" y="29.65" width="13.67" height="2.53" transform="translate(-16.35 45.48) rotate(-90)"/><path class="a" d="M1.33,10.73H20.41A1.26,1.26,0,0,1,21.67,12v0a1.26,1.26,0,0,1-1.26,1.26H1.33a0,0,0,0,1,0,0V10.73a0,0,0,0,1,0,0Z" transform="translate(-0.5 23.5) rotate(-90)"/><rect class="a" x="10.3" y="22.01" width="5.36" height="2.53" transform="translate(4.56 48.56) rotate(-132.43)"/><path class="a" d="M12.83,20.83h12a0,0,0,0,1,0,0v0a2.53,2.53,0,0,1-2.53,2.53H12.83a0,0,0,0,1,0,0V20.83A0,0,0,0,1,12.83,20.83Z" transform="translate(-10.19 21.87) rotate(-49.1)"/><path class="a" d="M9.79,13.17H24.69a0,0,0,0,1,0,0V15.7a0,0,0,0,1,0,0H12.31a2.53,2.53,0,0,1-2.53-2.53v0A0,0,0,0,1,9.79,13.17Z" transform="matrix(-0.76, -0.65, 0.65, -0.76, 20.82, 36.63)"/></svg>