<svg xmlns="http://www.w3.org/2000/svg" viewBox="0 0 43.62 50"><defs><style>.a{fill:#005add;}</style></defs><circle class="a" cx="20.78" cy="5.65" r="4.53"/><rect class="a" x="0.16" y="11.69" width="43" height="2.53" rx="1.26"/><rect class="a" x="13.95" y="18.1" width="13.67" height="2.53" transform="translate(1.41 40.15) rotate(-90)"/><path class="a" d="M17.81,24.06h.43a2.53,2.53,0,0,1,2.53,2.53v0a0,0,0,0,1,0,0h-3a0,0,0,0,1,0,0V24.06A0,0,0,0,1,17.81,24.06Z" transform="translate(-6.03 44.61) rotate(-90)"/><path class="a" d="M9.4,36.7H30.45a0,0,0,0,1,0,0v2.53a0,0,0,0,1,0,0H9.4A1.26,1.26,0,0,1,8.13,38v0A1.26,1.26,0,0,1,9.4,36.7Z" transform="translate(-18.67 57.25) rotate(-90)"/><path class="a" d="M19.66,27.35H30.42a0,0,0,0,1,0,0v2.53a0,0,0,0,1,0,0H22.18a2.53,2.53,0,0,1-2.53-2.53v0A0,0,0,0,1,19.66,27.35Z" transform="translate(25.04 66.63) rotate(-138.82)"/><path class="a" d="M16.51,34.75h15a0,0,0,0,1,0,0v0A2.53,2.53,0,0,1,29,37.28H16.51a0,0,0,0,1,0,0V34.75A0,0,0,0,1,16.51,34.75Z" transform="translate(-18.9 30.38) rotate(-48.82)"/></svg>