<svg xmlns="http://www.w3.org/2000/svg" viewBox="0 0 43.06 50"><defs><style>.a{fill:#005add;}</style></defs><circle class="a" cx="7.32" cy="45.09" r="4.53"/><rect class="a" x="13.35" y="45.82" width="29.29" height="2.53" rx="1.26"/><path class="a" d="M15.51,37H31.23a1.26,1.26,0,0,1,1.26,1.26v0a1.26,1.26,0,0,1-1.26,1.26H15.51a0,0,0,0,1,0,0V37a0,0,0,0,1,0,0Z" transform="translate(-14.3 62.3) rotate(-90)"/><path class="a" d="M12.73,41.86h9.05A1.26,1.26,0,0,1,23,43.12v0a1.26,1.26,0,0,1-1.26,1.26H12.73a0,0,0,0,1,0,0V41.86a0,0,0,0,1,0,0Z" transform="translate(-26.87 29.85) rotate(-50.95)"/></svg>