<svg xmlns="http://www.w3.org/2000/svg" viewBox="0 0 35.32 50"><defs><style>.a{fill:#005add;}</style></defs><circle class="a" cx="30.3" cy="24.68" r="4.53"/><path class="a" d="M-11.16,34h27a2.53,2.53,0,0,1,2.53,2.53v0a0,0,0,0,1,0,0H-11.16a0,0,0,0,1,0,0V34A0,0,0,0,1-11.16,34Z" transform="translate(-31.63 38.84) rotate(-90)"/><path class="a" d="M4.87,20.47H22.43A2.53,2.53,0,0,1,25,23v0a0,0,0,0,1,0,0H2.34a0,0,0,0,1,0,0v0a2.53,2.53,0,0,1,2.53-2.53Z"/><path class="a" d="M14.59,29.57H34.05a0,0,0,0,1,0,0v0a2.53,2.53,0,0,1-2.53,2.53H14.59a1.26,1.26,0,0,1-1.26-1.26v0a1.26,1.26,0,0,1,1.26-1.26Z" transform="translate(-7.14 54.52) rotate(-90)"/></svg>