<svg xmlns="http://www.w3.org/2000/svg" xmlns:xlink="http://www.w3.org/1999/xlink" width="206" height="102" viewBox="0 0 206 102">
  <defs>
    <clipPath id="clip-accenture">
      <rect width="206" height="102"/>
    </clipPath>
  </defs>
  <g id="accenture" clip-path="url(#clip-accenture)">
    <rect width="206" height="102" fill="#fff"/>
    <g id="accenture-2" data-name="accenture" transform="translate(27.075 26.165)">
      <path id="Path_30" data-name="Path 30" d="M77.476,396.709a1.006,1.006,0,0,0-.082.076,5.953,5.953,0,0,1-5.687,2.149,6.636,6.636,0,0,1-1.894-.484A4.438,4.438,0,0,1,67,394.573a6.733,6.733,0,0,1,.1-2.155,4.7,4.7,0,0,1,2.165-3.053,8.582,8.582,0,0,1,3.187-1.13,25.257,25.257,0,0,1,4.36-.22c.527,0,.527,0,.527-.527a6.024,6.024,0,0,0-.08-1.2,2.062,2.062,0,0,0-1.714-1.78,3.712,3.712,0,0,0-1.788.052,2.1,2.1,0,0,0-1.558,1.756c-.061.316-.056.319-.363.319H67.824a.4.4,0,0,1-.291-.053,5.716,5.716,0,0,1,2.14-4.09,6.946,6.946,0,0,1,3.089-1.349,11.292,11.292,0,0,1,5.666.28,5.157,5.157,0,0,1,3.378,3.028,6.255,6.255,0,0,1,.427,1.948c.015.227.015.455.015.682V398.2c0,.48.064.435-.418.436H77.815c-.288-.008-.292-.008-.294-.285,0-.414,0-.829,0-1.243A.875.875,0,0,0,77.476,396.709Zm-1.893-5.455a8.576,8.576,0,0,0-1.977.167,2.034,2.034,0,0,0-1.817,2.362,1.8,1.8,0,0,0,1.377,1.753,3.657,3.657,0,0,0,3.028-.484,2.326,2.326,0,0,0,1.109-1.685,16.009,16.009,0,0,0,.038-1.959c0-.165-.117-.148-.222-.148C76.665,391.253,76.21,391.254,75.584,391.254Z" transform="translate(-66.99 -359.996)" fill="#020202"/>
      <path id="Path_31" data-name="Path 31" d="M2311.919,391.837a7.014,7.014,0,0,1-4.532,5.119,10.22,10.22,0,0,1-4.542.52,8.821,8.821,0,0,1-2.826-.7,7.133,7.133,0,0,1-4.1-4.845,13.254,13.254,0,0,1-.357-4.612,9.568,9.568,0,0,1,.739-3.144,7.541,7.541,0,0,1,6.242-4.715,9.58,9.58,0,0,1,4.091.278,6.721,6.721,0,0,1,4.853,5.021,9.331,9.331,0,0,1,.318,2.177c.021.828,0,1.658.019,2.487,0,.211-.058.283-.27.274-.348-.015-.7,0-1.043,0h-9.55c-.517,0-.441,0-.4.424a6.2,6.2,0,0,0,.495,2.012,3.006,3.006,0,0,0,2.716,1.873,4.538,4.538,0,0,0,1.237-.068,2.961,2.961,0,0,0,2.273-1.877c.072-.177.147-.246.34-.242,1.364.008,2.728,0,4.093.005A1.089,1.089,0,0,1,2311.919,391.837Zm-4.912-5.4a5.645,5.645,0,0,0-.333-1.8,2.689,2.689,0,0,0-1.125-1.415,3.253,3.253,0,0,0-3.857.424,4.948,4.948,0,0,0-1.25,2.793Z" transform="translate(-2158.952 -358.532)" fill="#020101"/>
      <path id="Path_32" data-name="Path 32" d="M979.628,391.783a6.579,6.579,0,0,1-4.2,5.038,10.145,10.145,0,0,1-4.767.612,8.9,8.9,0,0,1-2.68-.632,7.122,7.122,0,0,1-4.256-4.9,13.211,13.211,0,0,1-.355-4.692,9.459,9.459,0,0,1,.992-3.648,7.457,7.457,0,0,1,5.45-4.065,9.629,9.629,0,0,1,4.682.213,6.7,6.7,0,0,1,4.8,5.022,9.947,9.947,0,0,1,.325,2.457c.007.736,0,1.471.009,2.206,0,.194-.061.27-.252.25a2.685,2.685,0,0,0-.28,0H968.579c-.363,0-.363,0-.325.349a6.741,6.741,0,0,0,.445,1.945,3.037,3.037,0,0,0,2.824,2.018,4.509,4.509,0,0,0,1.236-.079,2.93,2.93,0,0,0,2.213-1.839.362.362,0,0,1,.4-.278c1.324.012,2.648.005,3.973.007C979.425,391.768,979.5,391.776,979.628,391.783Zm-11.294-5.374h6.158c.314,0,.322,0,.3-.3a5.709,5.709,0,0,0-.279-1.411,2.734,2.734,0,0,0-1.1-1.484,3.177,3.177,0,0,0-4.3.87A5.317,5.317,0,0,0,968.334,386.41Z" transform="translate(-908.404 -358.486)" fill="#020101"/>
      <path id="Path_33" data-name="Path 33" d="M1286.438,383.663c.03-.043.061-.085.089-.131a5.322,5.322,0,0,1,3.849-2.547,6.406,6.406,0,0,1,3.363.242,4.536,4.536,0,0,1,2.806,3.036,7.859,7.859,0,0,1,.38,2.447c.013,3.864.009,7.729.01,11.594,0,.279-.007.283-.334.284h-4.254c-.325,0-.329,0-.33-.329V387.952a6.3,6.3,0,0,0-.108-1.356,2.094,2.094,0,0,0-1.891-1.792,3.542,3.542,0,0,0-1.472.061,2.717,2.717,0,0,0-2.1,2.315,5.237,5.237,0,0,0-.076,1q0,4.954,0,9.909a1.744,1.744,0,0,0,0,.242c.03.22-.077.266-.277.266q-2.187-.009-4.374,0c-.223,0-.285-.082-.26-.283a1.956,1.956,0,0,0,0-.242V381.7c0-.494-.074-.451.445-.451h4.134c.324,0,.327,0,.328.328v2.071Z" transform="translate(-1207.048 -359.955)" fill="#020202"/>
      <path id="Path_34" data-name="Path 34" d="M1799.928,401.981c-.072.1-.105.141-.131.185a5.283,5.283,0,0,1-4.322,2.6,6.329,6.329,0,0,1-2.537-.26,4.792,4.792,0,0,1-3.27-3.592,7.615,7.615,0,0,1-.248-1.943V387.413c0-.327,0-.332.325-.332h4.214c.4,0,.369-.024.369.367V398.2a4.93,4.93,0,0,0,.145,1.191,2.045,2.045,0,0,0,1.86,1.676,3.5,3.5,0,0,0,1.432-.094,2.866,2.866,0,0,0,2.087-2.57c.024-.266.027-.534.027-.8V387.529c0-.477-.067-.449.453-.449h4.013c.08,0,.161,0,.242,0,.147-.007.229.045.217.206-.006.08,0,.16,0,.242v16.446c0,.478.061.446-.456.446h-4.053c-.3,0-.309,0-.311-.3v-1.684A1.271,1.271,0,0,0,1799.928,401.981Z" transform="translate(-1683.887 -365.789)" fill="#030303"/>
      <path id="Path_35" data-name="Path 35" d="M675.171,390.556h4.406a6.677,6.677,0,0,1-4.506,6.313,9.976,9.976,0,0,1-4.274.435,8.483,8.483,0,0,1-2.921-.8,7.237,7.237,0,0,1-3.873-4.76,13.155,13.155,0,0,1-.352-4.81,9.4,9.4,0,0,1,.818-3.164A7.472,7.472,0,0,1,670,379.395a9.368,9.368,0,0,1,5.063.3,6.26,6.26,0,0,1,4.275,4.837,9.6,9.6,0,0,1,.156.948c.03.252.018.259-.251.26h-3.13c-.322,0-.643-.008-.964,0-.19.007-.291-.038-.317-.253a2.969,2.969,0,0,0-.229-.766,2.689,2.689,0,0,0-3.138-1.7,3.013,3.013,0,0,0-2.245,1.642,5.745,5.745,0,0,0-.666,2.373,12.5,12.5,0,0,0,.186,3.829,4.581,4.581,0,0,0,.506,1.3,2.925,2.925,0,0,0,2.422,1.485,3.122,3.122,0,0,0,3.41-2.665C675.11,390.852,675.139,390.709,675.171,390.556Z" transform="translate(-627.044 -358.37)" fill="#020101"/>
      <path id="Path_36" data-name="Path 36" d="M375.517,390.566h4.409a5.175,5.175,0,0,1-.186,1.42,6.642,6.642,0,0,1-5.536,5.225,10.317,10.317,0,0,1-4.689-.192,7.214,7.214,0,0,1-5.155-5.182,10.953,10.953,0,0,1-.429-2.926,12.282,12.282,0,0,1,.424-3.889,7.6,7.6,0,0,1,6.346-5.673,9.185,9.185,0,0,1,4.9.439,6.267,6.267,0,0,1,4.088,4.816c.065.3.1.606.153.908.036.193-.029.278-.229.252a1.292,1.292,0,0,0-.16,0H375.6c-.355,0-.351,0-.442-.335a6.152,6.152,0,0,0-.206-.648,2.69,2.69,0,0,0-3.155-1.731,2.972,2.972,0,0,0-2.1,1.406,4.844,4.844,0,0,0-.732,2.018,12.432,12.432,0,0,0,.121,4.464,4.468,4.468,0,0,0,.459,1.192,2.932,2.932,0,0,0,2.508,1.552,3.067,3.067,0,0,0,3.291-2.408C375.412,391.044,375.459,390.808,375.517,390.566Z" transform="translate(-345.974 -358.387)" fill="#020101"/>
      <path id="Path_37" data-name="Path 37" d="M1577.414,301.1a.893.893,0,0,1,.027.382q0,2.246,0,4.491c0,.322,0,.325.329.326h2.688c.3,0,.307.005.308.308q0,1.5,0,3.007c0,.272-.005.276-.291.277h-2.688c-.339,0-.345,0-.345.314v7.9a2.834,2.834,0,0,0,.108.872,1.38,1.38,0,0,0,1.133,1.006,4.25,4.25,0,0,0,1.865-.121.766.766,0,0,1,.269-.057.269.269,0,0,1,.037.192v3.248c0,.187-.006.314-.245.369a9.869,9.869,0,0,1-4.878-.007,4.064,4.064,0,0,1-3.084-3.466,9.7,9.7,0,0,1-.132-1.756v-8.061c0-.495.025-.433-.424-.435s-.908-.008-1.364,0c-.2.005-.248-.061-.247-.253.008-1.03.01-2.059,0-3.089,0-.23.1-.262.286-.259.495.008.99-.006,1.484.007.21.005.273-.064.271-.273-.01-.868,0-1.737,0-2.6,0-.347,0-.348.331-.484q2.163-.9,4.327-1.789C1577.249,301.124,1577.318,301.072,1577.414,301.1Z" transform="translate(-1478.404 -285.009)" fill="#030202"/>
      <path id="Path_38" data-name="Path 38" d="M1530.21,33.413l-5.39-2.054c-1.01-.385-2.02-.772-3.032-1.151a.343.343,0,0,1-.279-.368c.011-1.363.006-2.725.007-4.09a.581.581,0,0,1,.022-.113.816.816,0,0,1,.424.121q6.987,2.8,13.972,5.614c.61.246.5.1.5.732.007.936,0,1.871,0,2.807,0,.354.076.32-.329.484l-11.93,4.794q-1.226.494-2.455.981c-.048.019-.1.033-.171.057a.731.731,0,0,1-.037-.354v-3.85c0-.449-.021-.368.353-.508q3.922-1.461,7.847-2.907C1529.855,33.554,1529.989,33.5,1530.21,33.413Z" transform="translate(-1432.4 -25.63)" fill="#a201ff"/>
      <path id="Path_39" data-name="Path 39" d="M2107.861,387.211c.087-.159.173-.317.26-.475a4.968,4.968,0,0,1,4.1-2.7c.227-.021.453-.036.679-.054.121-.01.172.048.171.163v4.292c0,.343,0,.343-.347.35a9,9,0,0,0-2.336.316,3.254,3.254,0,0,0-2.586,3.368c-.02,1.564-.006,3.129-.006,4.693V401.3c0,.3-.005.309-.308.309-1.444,0-2.889,0-4.334.005-.208,0-.3-.056-.274-.269a2,2,0,0,0,0-.242V384.655c0-.562-.07-.484.492-.484,1.311,0,2.622,0,3.932,0,.081,0,.161.007.242,0,.189-.019.259.051.254.249-.012.521,0,1.043,0,1.564V387.2Z" transform="translate(-1977.981 -362.88)" fill="#020202"/>
    </g>
  </g>
</svg>
