<svg xmlns="http://www.w3.org/2000/svg" xmlns:xlink="http://www.w3.org/1999/xlink" width="206" height="102" viewBox="0 0 206 102">
  <defs>
    <clipPath id="clip-cms">
      <rect width="206" height="102"/>
    </clipPath>
  </defs>
  <g id="cms" clip-path="url(#clip-cms)">
    <rect width="206" height="102" fill="#fff"/>
    <g id="Group_1" data-name="Group 1" transform="translate(42 14.062)">
      <g id="cms-2" data-name="cms" transform="translate(1.414 17.535)" style="isolation: isolate">
        <path id="Path_433" data-name="Path 433" d="M33.164,86s-3.771,2.781,1.556,4.761l-9.286,5.751s1.414-3.064-2.734-4.525Z" transform="translate(-15.441 -80.155)" fill="#f36f2a"/>
        <path id="Path_434" data-name="Path 434" d="M45.661,73.6l16.5,9.427s1.838,1.885.9,3.724c0,0-1.32,2.4-3.63,1.556L44.2,78.549S46.133,75.863,45.661,73.6Z" transform="translate(-26.807 -73.6)" fill="#f06b43"/>
        <path id="Path_435" data-name="Path 435" d="M26.451,74.3s-1.32,2.922,2.451,4.384L15.138,87.545A6.419,6.419,0,0,0,10,84.01Z" transform="translate(-8.727 -73.97)" fill="#f06b43"/>
        <path id="Path_436" data-name="Path 436" d="M44.119,92.2l9.616,5.751.283.141c.754.283,3.865,1.226,4.478-2.215a1.807,1.807,0,0,0-.848-1.885l-10.794-6.6a1.778,1.778,0,0,0-2.545.707l-.848,1.65A1.867,1.867,0,0,0,44.119,92.2Z" transform="translate(-26.301 -80.743)" fill="#0e9cd6"/>
        <path id="Path_437" data-name="Path 437" d="M20.3,132.2l9.993,5.656s4.242,1.791,4.148-2.97L22.468,128Z" transform="translate(-14.172 -102.358)" fill="#0e9cd6"/>
        <path id="Path_438" data-name="Path 438" d="M7.3,99.2v18.148h4.761v-14.9L11.5,99.86Z" transform="translate(-7.3 -87.133)" fill="#377751"/>
        <rect id="Rectangle_5" data-name="Rectangle 5" width="1.131" height="14.471" transform="translate(4.337 13.481)" fill="#10361b"/>
        <rect id="Rectangle_6" data-name="Rectangle 6" width="4.855" height="12.067" transform="translate(4.902 15.885)" fill="#377752"/>
        <path id="Path_439" data-name="Path 439" d="M13.5,139.142l13.952,8.107,2.4-4.384L15.385,134.9Z" transform="translate(-10.578 -106.005)" fill="#0e9cd6"/>
        <path id="Path_440" data-name="Path 440" d="M46.4,132.875l10.417-6.6s4.478-1.084,4.007,3.535l-13.1,8.626-1.32-5.562" transform="translate(-27.97 -101.388)" fill="#f36f2a"/>
        <path id="Path_441" data-name="Path 441" d="M46.58,141.255l13.1-7.683a.164.164,0,0,0,.094-.047c.519-.283,4.667-2.121,4.007,2.451a1.65,1.65,0,0,1-.8,1.178L48.7,145.308a1.65,1.65,0,0,1-2.31-.8l-.519-1.226a1.65,1.65,0,0,1,.707-2.027Z" transform="translate(-27.631 -104.959)" fill="#0b9bd9"/>
        <circle id="Ellipse_3" data-name="Ellipse 3" cx="2.922" cy="2.922" r="2.922" transform="translate(15.508)" fill="#62402c"/>
        <circle id="Ellipse_4" data-name="Ellipse 4" cx="2.922" cy="2.922" r="2.922" transform="translate(15.508 5.845)" fill="#62402c"/>
        <circle id="Ellipse_5" data-name="Ellipse 5" cx="2.922" cy="2.922" r="2.922" transform="translate(4.667 12.02)" fill="#62402c"/>
        <circle id="Ellipse_6" data-name="Ellipse 6" cx="2.922" cy="2.922" r="2.922" transform="translate(0 9.144)" fill="#62402c"/>
        <circle id="Ellipse_7" data-name="Ellipse 7" cx="2.922" cy="2.922" r="2.922" transform="translate(0 27.292)" fill="#62402c"/>
        <circle id="Ellipse_8" data-name="Ellipse 8" cx="2.922" cy="2.922" r="2.922" transform="translate(4.761 24.37)" fill="#62402c"/>
        <circle id="Ellipse_9" data-name="Ellipse 9" cx="2.922" cy="2.922" r="2.922" transform="translate(15.508 30.544)" fill="#62402c"/>
        <circle id="Ellipse_10" data-name="Ellipse 10" cx="2.922" cy="2.922" r="2.922" transform="translate(15.508 36.389)" fill="#62402c"/>
        <g id="Group_24" data-name="Group 24" transform="translate(42.093 27.193)">
          <path id="Path_442" data-name="Path 442" d="M97.118,131.4v4.148H96.6V131.4Z" transform="translate(-96.6 -131.348)" fill="#7f7f7f"/>
          <path id="Path_443" data-name="Path 443" d="M106.673,131.871H105.4V131.4h3.064v.471h-1.273v3.677h-.519v-3.677Z" transform="translate(-101.252 -131.348)" fill="#7f7f7f"/>
          <path id="Path_444" data-name="Path 444" d="M128.883,134.834a1.858,1.858,0,0,0,.943.283c.566,0,.848-.283.848-.707,0-.377-.236-.613-.8-.8-.66-.236-1.084-.566-1.084-1.178a1.173,1.173,0,0,1,1.32-1.131,1.952,1.952,0,0,1,.9.189l-.141.424a1.523,1.523,0,0,0-.8-.189c-.566,0-.8.33-.8.613,0,.377.236.566.8.8.707.283,1.037.613,1.037,1.226,0,.66-.471,1.178-1.461,1.178a1.694,1.694,0,0,1-1.037-.283Z" transform="translate(-113.516 -131.294)" fill="#7f7f7f"/>
          <path id="Path_445" data-name="Path 445" d="M144.821,133.615h-1.6v1.508h1.791v.424H142.7V131.4h2.215v.424h-1.7v1.32h1.6Z" transform="translate(-120.97 -131.348)" fill="#7f7f7f"/>
          <path id="Path_446" data-name="Path 446" d="M155.9,131.482a6.5,6.5,0,0,1,1.037-.094,1.6,1.6,0,0,1,1.178.33,1.137,1.137,0,0,1,.33.8,1.023,1.023,0,0,1-.8,1.037h0a1.015,1.015,0,0,1,.613.848,5.859,5.859,0,0,0,.33,1.131h-.566c-.047-.094-.141-.471-.283-.99-.141-.566-.33-.8-.848-.8h-.471v1.791H155.9Zm.518,1.885h.566a.837.837,0,0,0,.943-.8c0-.518-.377-.754-.943-.754-.236,0-.424.047-.519.047v1.508Z" transform="translate(-127.948 -131.335)" fill="#7f7f7f"/>
          <path id="Path_447" data-name="Path 447" d="M170.367,135.548,169,131.4h.566l.66,2.027a11.036,11.036,0,0,1,.424,1.556h0a13.974,13.974,0,0,1,.471-1.556l.707-2.027h.566l-1.461,4.148Z" transform="translate(-134.873 -131.348)" fill="#7f7f7f"/>
          <path id="Path_448" data-name="Path 448" d="M184.618,131.4v4.148H184.1V131.4Z" transform="translate(-142.855 -131.348)" fill="#7f7f7f"/>
          <path id="Path_449" data-name="Path 449" d="M196.6,135.348a2.613,2.613,0,0,1-1.084.189,1.918,1.918,0,0,1-2.027-2.074,2.079,2.079,0,0,1,2.168-2.168,1.967,1.967,0,0,1,.99.189l-.141.424a1.882,1.882,0,0,0-.848-.189,1.514,1.514,0,0,0-1.6,1.7,1.676,1.676,0,0,0,2.451,1.461Z" transform="translate(-147.817 -131.29)" fill="#7f7f7f"/>
          <path id="Path_450" data-name="Path 450" d="M210.521,133.615h-1.6v1.508h1.791v.424H208.4V131.4h2.215v.424h-1.7v1.32h1.6Z" transform="translate(-155.701 -131.348)" fill="#7f7f7f"/>
          <path id="Path_451" data-name="Path 451" d="M221.183,134.834a1.858,1.858,0,0,0,.943.283c.566,0,.848-.283.848-.707,0-.377-.236-.613-.8-.8-.66-.236-1.084-.566-1.084-1.178a1.173,1.173,0,0,1,1.32-1.131,1.951,1.951,0,0,1,.9.189l-.141.424a1.523,1.523,0,0,0-.8-.189c-.566,0-.8.33-.8.613,0,.377.236.566.8.8.707.283,1.037.613,1.037,1.226,0,.66-.471,1.178-1.461,1.178a1.694,1.694,0,0,1-1.037-.283Z" transform="translate(-162.309 -131.294)" fill="#7f7f7f"/>
        </g>
        <g id="Group_25" data-name="Group 25" transform="translate(41.716 34.033)">
          <path id="Path_452" data-name="Path 452" d="M95.847,146.442a2.686,2.686,0,0,1,.613-.047,1.2,1.2,0,0,1,.754.189.546.546,0,0,1,.189.471.666.666,0,0,1-.471.66h0a.582.582,0,0,1,.377.518,5.979,5.979,0,0,0,.189.707h-.33a5.212,5.212,0,0,1-.189-.613c-.094-.33-.189-.471-.519-.471h-.33v1.084H95.8v-2.5Zm.33,1.178h.33c.33,0,.566-.189.566-.471,0-.33-.236-.471-.566-.471-.141,0-.283,0-.33.047Z" transform="translate(-95.8 -146.112)" fill="#ff6d00"/>
          <path id="Path_453" data-name="Path 453" d="M102.323,148.784a.546.546,0,0,0,.613.613,1.455,1.455,0,0,0,.518-.094l.047.236a1.638,1.638,0,0,1-.613.094.855.855,0,0,1-.9-.943.885.885,0,0,1,.848-.99.757.757,0,0,1,.754.848v.141h-1.273Zm.99-.236a.475.475,0,0,0-.471-.519c-.33,0-.471.33-.519.519Z" transform="translate(-99.071 -146.804)" fill="#ff6d00"/>
          <path id="Path_454" data-name="Path 454" d="M108.4,146.2h.33v2.687h-.33Z" transform="translate(-102.461 -146.011)" fill="#ff6d00"/>
          <path id="Path_455" data-name="Path 455" d="M112.677,146.675a.189.189,0,1,1-.189-.189C112.583,146.439,112.677,146.533,112.677,146.675Zm-.377,2.31v-1.791h.33v1.838h-.33Z" transform="translate(-104.522 -146.156)" fill="#ff6d00"/>
          <path id="Path_456" data-name="Path 456" d="M117.078,149.737l-.047-.236h0a.663.663,0,0,1-.566.283.534.534,0,0,1-.566-.519c0-.424.377-.66,1.084-.66v-.047a.387.387,0,0,0-.424-.424.8.8,0,0,0-.471.141l-.094-.236a1.178,1.178,0,0,1,.613-.141c.566,0,.707.377.707.754v.66a1.171,1.171,0,0,0,.047.424Zm-.047-.9c-.377,0-.754.047-.754.424a.3.3,0,0,0,.33.33.428.428,0,0,0,.424-.283Z" transform="translate(-106.426 -146.909)" fill="#ff6d00"/>
          <path id="Path_457" data-name="Path 457" d="M122.1,148.787V146.1h.33v1.131h0a.676.676,0,0,1,.613-.33c.471,0,.754.377.754.943a.882.882,0,0,1-.8.99.64.64,0,0,1-.613-.33h0v.283H122.1Zm.33-.707v.141a.477.477,0,0,0,.519.377c.33,0,.566-.283.566-.707,0-.377-.189-.66-.566-.66a.541.541,0,0,0-.518.424Z" transform="translate(-109.703 -145.959)" fill="#ff6d00"/>
          <path id="Path_458" data-name="Path 458" d="M128.8,146.2h.33v2.687h-.33Z" transform="translate(-113.245 -146.011)" fill="#ff6d00"/>
          <path id="Path_459" data-name="Path 459" d="M132.723,148.784a.546.546,0,0,0,.613.613,1.455,1.455,0,0,0,.518-.094l.047.236a1.638,1.638,0,0,1-.613.094.855.855,0,0,1-.9-.943.885.885,0,0,1,.848-.99.757.757,0,0,1,.754.848v.141h-1.273Zm.99-.236a.475.475,0,0,0-.471-.519c-.33,0-.471.33-.519.519Z" transform="translate(-115.141 -146.804)" fill="#ff6d00"/>
          <path id="Path_460" data-name="Path 460" d="M142.936,145.8v3.771H142.7V145.8Z" transform="translate(-120.593 -145.8)" fill="#ff6d00"/>
          <path id="Path_461" data-name="Path 461" d="M150.3,146.442a2.686,2.686,0,0,1,.613-.047,1.2,1.2,0,0,1,.754.189.546.546,0,0,1,.189.471.666.666,0,0,1-.471.66h0a.582.582,0,0,1,.377.518,5.982,5.982,0,0,0,.189.707h-.377a5.209,5.209,0,0,1-.189-.613c-.094-.33-.189-.471-.519-.471h-.236v1.084h-.33Zm.33,1.178h.33c.33,0,.566-.189.566-.471,0-.33-.236-.471-.566-.471-.141,0-.283,0-.33.047Z" transform="translate(-124.611 -146.112)" fill="#ff6d00"/>
          <path id="Path_462" data-name="Path 462" d="M158.086,148.841a.919.919,0,0,1-.9.99.906.906,0,0,1-.9-.943.9.9,0,0,1,.9-.99.855.855,0,0,1,.9.943Zm-1.414,0a.644.644,0,0,0,.566.707c.33,0,.566-.283.566-.707,0-.33-.141-.707-.566-.707S156.672,148.511,156.672,148.841Z" transform="translate(-127.777 -146.909)" fill="#ff6d00"/>
          <path id="Path_463" data-name="Path 463" d="M163,148.787V146.1h.33v1.131h0a.676.676,0,0,1,.613-.33c.471,0,.754.377.754.943a.882.882,0,0,1-.8.99.64.64,0,0,1-.613-.33h0v.283H163Zm.377-.707v.141a.477.477,0,0,0,.518.377c.33,0,.566-.283.566-.707,0-.377-.189-.66-.566-.66a.541.541,0,0,0-.518.424Z" transform="translate(-131.324 -145.959)" fill="#ff6d00"/>
          <path id="Path_464" data-name="Path 464" d="M171.208,149.32v.518h-.283v-.283h0a.714.714,0,0,1-.613.33c-.283,0-.613-.141-.613-.8V148h.33v.99c0,.33.094.566.424.566a.428.428,0,0,0,.424-.283c0-.047.047-.094.047-.189V148h.33v1.32Z" transform="translate(-134.866 -146.963)" fill="#ff6d00"/>
          <path id="Path_465" data-name="Path 465" d="M176.047,149.4a1.127,1.127,0,0,0,.424.141c.236,0,.377-.141.377-.283s-.094-.236-.33-.33c-.33-.094-.471-.283-.471-.518a.551.551,0,0,1,.613-.519,1.4,1.4,0,0,1,.471.094l-.094.236a.73.73,0,0,0-.377-.094c-.189,0-.283.094-.283.236s.094.236.33.33c.33.141.471.283.471.566,0,.33-.236.566-.66.566a.95.95,0,0,1-.519-.141Z" transform="translate(-138.196 -146.906)" fill="#ff6d00"/>
          <path id="Path_466" data-name="Path 466" d="M181.46,146.8v.519h.471v.236h-.471v.99c0,.236.047.377.236.377h.189v.236c-.047.047-.189.047-.283.047a.535.535,0,0,1-.377-.141.7.7,0,0,1-.141-.471v-.99H180.8v-.236h.283v-.471Z" transform="translate(-140.734 -146.329)" fill="#ff6d00"/>
          <path id="Path_467" data-name="Path 467" d="M190.236,145.8v3.771H190V145.8Z" transform="translate(-145.597 -145.8)" fill="#ff6d00"/>
          <path id="Path_468" data-name="Path 468" d="M193.594,148.562a1.155,1.155,0,0,0,.566.189c.33,0,.519-.189.519-.424s-.141-.377-.471-.519c-.424-.141-.66-.377-.66-.707a.749.749,0,0,1,.8-.707.819.819,0,0,1,.566.141l-.094.283a.926.926,0,0,0-.471-.141c-.33,0-.471.189-.471.377,0,.236.141.377.518.471.424.189.66.377.66.754a.788.788,0,0,1-.9.754,2.3,2.3,0,0,1-.66-.141Z" transform="translate(-147.448 -146.111)" fill="#ff6d00"/>
          <path id="Path_469" data-name="Path 469" d="M199.823,148.784a.546.546,0,0,0,.613.613,1.455,1.455,0,0,0,.519-.094l.047.236a1.638,1.638,0,0,1-.613.094.855.855,0,0,1-.9-.943.885.885,0,0,1,.848-.99.757.757,0,0,1,.754.848v.141h-1.273Zm.99-.236a.475.475,0,0,0-.471-.519c-.33,0-.471.33-.519.519Z" transform="translate(-150.612 -146.804)" fill="#ff6d00"/>
          <path id="Path_470" data-name="Path 470" d="M207.109,149.637a1.261,1.261,0,0,1-.518.094.855.855,0,0,1-.9-.943.94.94,0,0,1,.99-.99,1.183,1.183,0,0,1,.471.094l-.094.236a.73.73,0,0,0-.377-.094.656.656,0,0,0-.66.707.607.607,0,0,0,.613.66.943.943,0,0,0,.424-.094Z" transform="translate(-153.892 -146.856)" fill="#ff6d00"/>
          <path id="Path_471" data-name="Path 471" d="M213.108,149.32v.518h-.283v-.283h0a.714.714,0,0,1-.613.33c-.283,0-.613-.141-.613-.8V148h.33v.99c0,.33.094.566.424.566a.428.428,0,0,0,.424-.283c0-.047.047-.094.047-.189V148h.33v1.32Z" transform="translate(-157.016 -146.963)" fill="#ff6d00"/>
          <path id="Path_472" data-name="Path 472" d="M218,148.566V148h.283v.377h0A.551.551,0,0,1,218.8,148h.094v.33H218.8c-.236,0-.377.189-.424.424v1.131H218Z" transform="translate(-160.399 -146.963)" fill="#ff6d00"/>
          <path id="Path_473" data-name="Path 473" d="M222.623,148.784a.546.546,0,0,0,.613.613,1.455,1.455,0,0,0,.519-.094l.047.236a1.638,1.638,0,0,1-.613.094.855.855,0,0,1-.9-.943.885.885,0,0,1,.848-.99.757.757,0,0,1,.754.848v.141h-1.273Zm.99-.236a.475.475,0,0,0-.471-.519c-.33,0-.471.33-.518.519Z" transform="translate(-162.665 -146.804)" fill="#ff6d00"/>
        </g>
        <g id="Layer_3" transform="translate(41.716 2.875)">
          <g id="Group_26" data-name="Group 26">
            <path id="Path_474" data-name="Path 474" d="M113.193,84.6a1.2,1.2,0,0,1,.094.566,1.171,1.171,0,0,1-.848,1.084,1.6,1.6,0,0,1-.66.094,1.155,1.155,0,0,1-1.131-.707,5.162,5.162,0,0,0-5.326-3.582c-4.1,0-6.788,3.3-6.788,8.673,0,5.279,2.687,8.673,6.788,8.673a5.47,5.47,0,0,0,5.562-4.148,1.235,1.235,0,0,1,1.226-.848,2.821,2.821,0,0,1,.566.094,1.159,1.159,0,0,1,.943,1.084,2.074,2.074,0,0,1-.094.471,8.138,8.138,0,0,1-8.107,5.751c-5.892,0-9.616-4.289-9.616-11.077,0-6.646,3.724-11.03,9.427-11.03C110.082,79.7,112.251,82.2,113.193,84.6Z" transform="translate(-95.8 -79.7)" fill="#5c5f5e"/>
            <path id="Path_475" data-name="Path 475" d="M153.5,100.556a1.831,1.831,0,0,1-3.488,0l-4.148-10.37c-.8-1.98-2.121-5.939-2.64-7.636.094,1.791.424,6.741.424,10.559V100.7c0,.754-.518,1.084-1.273,1.084S141.1,101.4,141.1,100.7V81.8a1.575,1.575,0,0,1,1.744-1.6,1.957,1.957,0,0,1,2.168,1.461l5.044,12.633a35.783,35.783,0,0,1,1.7,5.091,39,39,0,0,1,1.744-5.138L158.446,81.7a2.114,2.114,0,0,1,2.263-1.508,1.6,1.6,0,0,1,1.744,1.6v18.9c0,.754-.566,1.084-1.273,1.084-.754,0-1.273-.377-1.273-1.084V93.108c0-3.865.33-8.767.424-10.653-.518,1.744-1.838,5.656-2.592,7.495Z" transform="translate(-119.747 -79.957)" fill="#5c5f5e"/>
            <path id="Path_476" data-name="Path 476" d="M203.59,89.363c4.242.9,6.6,2.357,6.6,6.316,0,3.535-2.687,6.175-7.589,6.175-6.222,0-7.542-3.205-8.155-5.421a1.037,1.037,0,0,1-.047-.377,1.205,1.205,0,0,1,1.037-1.131,1.453,1.453,0,0,1,.471-.047,1.215,1.215,0,0,1,1.226.8c.471,1.838,1.414,3.865,5.374,3.865,3.111,0,5.044-1.508,5.044-3.865,0-2.263-1.226-3.205-4.478-3.865l-2.168-.471c-4.1-.848-5.939-2.4-5.939-5.986,0-2.875,2.121-5.656,7.259-5.656,4.9,0,6.6,2.64,7.212,4.572a1.376,1.376,0,0,1,.094.424,1.157,1.157,0,0,1-.99,1.084,1.453,1.453,0,0,1-.471.047,1.3,1.3,0,0,1-1.226-.8c-.424-1.556-1.6-3.111-4.619-3.111-3.158,0-4.619,1.6-4.619,3.394,0,1.98.943,2.97,4.007,3.582Z" transform="translate(-147.921 -79.7)" fill="#5c5f5e"/>
          </g>
        </g>
      </g>
    </g>
  </g>
</svg>
