<svg xmlns="http://www.w3.org/2000/svg" xmlns:xlink="http://www.w3.org/1999/xlink" width="206" height="102" viewBox="0 0 206 102">
  <defs>
    <clipPath id="clip-exl">
      <rect width="206" height="102"/>
    </clipPath>
  </defs>
  <g id="exl" clip-path="url(#clip-exl)">
    <rect width="206" height="102" fill="#fff"/>
    <g id="exl-2" data-name="exl" transform="translate(43.599 16.81)">
      <path id="Path_143" data-name="Path 143" d="M246.807,218.984q0,1.758.008,3.508a.4.4,0,0,1-.043.221H232.08c-.09,0-.179.008-.267.013h-.16a.941.941,0,0,0-.459-.072,2.85,2.85,0,0,1-1.507-.647,4.084,4.084,0,0,1-1.149-1.347,3.7,3.7,0,0,1-.388-1.856V205.137a3.677,3.677,0,0,1,.229-1.517,3.741,3.741,0,0,1,2.815-2.31.479.479,0,0,0,.308-.056l.23-.014c.16,0,.305.016.459.016h14.575a.454.454,0,0,1,.043.259v3.131a.6.6,0,0,1-.042.3H231.981c-.046,0-.061.038-.074.074,0,.817-.014,1.633-.014,2.45,0,.842,0,1.685.008,2.527a.1.1,0,0,0,.1.128c.1.008.2,0,.307,0h14.116a1.173,1.173,0,0,0,.38-.024q0,1.758.008,3.505a.4.4,0,0,1-.043.221H232.245a2.466,2.466,0,0,0-.267.01c-.046,0-.059.04-.072.075,0,.919-.011,1.838-.013,2.757,0,.742,0,1.482.01,2.222a.1.1,0,0,0,.105.126h14.418A1.088,1.088,0,0,0,246.807,218.984Z" transform="translate(-195.85 -172.694)" fill="#0295ff"/>
      <path id="Path_144" data-name="Path 144" d="M374.247,201.174a17.287,17.287,0,0,1-1.01,1.565q-2.934,4.411-5.885,8.811a.484.484,0,0,0-.019.639q3.045,4.542,6.058,9.11a11.394,11.394,0,0,1,.857,1.339l-4.295.013a5.087,5.087,0,0,1-.758-1.02c-.941-1.41-1.867-2.832-2.8-4.247-.416-.63-.841-1.255-1.261-1.88a1.07,1.07,0,0,0-.11-.16c-.088-.09-.147-.1-.23.034-.32.505-.654,1-.985,1.494l-3.574,5.383c-.083.126-.16.253-.251.379h-4.295c-.022-.187.118-.3.2-.435q3.356-5.054,6.713-10.1a.358.358,0,0,0,0-.459q-2.407-3.591-4.806-7.192-1-1.5-2.007-3a.609.609,0,0,1-.1-.281l4.295-.008,4.915,7.391a2.017,2.017,0,0,0,.513-.659c.671-1,1.317-2.027,1.983-3.037.761-1.152,1.533-2.3,2.3-3.443.067-.1.109-.233.251-.265.139,0,.278.014.417.014Z" transform="translate(-303.001 -172.619)" fill="#0395ff"/>
      <path id="Path_145" data-name="Path 145" d="M501.651,218.453a.561.561,0,0,1,.04.261v3.858a1.507,1.507,0,0,1-.032.224h-11.4c-.19,0-.382,0-.572.01h0c-.126-.043-.253-.107-.382,0-.227-.1-.471-.133-.7-.214a3.789,3.789,0,0,1-1.854-1.506,3.037,3.037,0,0,1-.523-1.184,5.537,5.537,0,0,1-.074-1.017V201.805c0-.152.011-.305.018-.457l4.288-.008a1.018,1.018,0,0,1,.043.489q0,8.078,0,16.156a.831.831,0,0,0,.043.449c.128.09.273.046.409.046h10.277C501.372,218.471,501.512,218.459,501.651,218.453Z" transform="translate(-412.617 -172.778)" fill="#0194ff"/>
      <path id="Path_146" data-name="Path 146" d="M338.39,43.333l.024,0-.016,0Z" transform="translate(-284.313 -36.405)" fill="#ff6806"/>
      <path id="Path_147" data-name="Path 147" d="M137.109,118.58s-9.027,3.048-11.057,12.265a18.06,18.06,0,0,0,.392,8.217s1.974,7.9,9.449,15.9c0,0,6.406,7.192,7.485,7.672,0,0-8.492-10.51-10.64-16.277a34.639,34.639,0,0,1-3.216-12.2,17.343,17.343,0,0,1,2.907-10.728A21.119,21.119,0,0,1,137.109,118.58Z" transform="translate(-109.812 -103.246)" fill="#ff6806"/>
      <path id="Path_148" data-name="Path 148" d="M26,22.64s8.608,7.635,13.291,17.9A32.775,32.775,0,0,1,42.029,57s-1.064,8.4-4.51,11.877c-.074.169-3.419,5.516-5.011,6.209,0,0,5.081-7.247,6.131-19.18A39.868,39.868,0,0,0,33.8,34.028C33.8,34.045,28.811,24.889,26,22.64Z" transform="translate(-26.01 -22.64)" fill="#0495ff"/>
      <ellipse id="Ellipse_1" data-name="Ellipse 1" cx="3.224" cy="2.437" rx="3.224" ry="2.437" transform="translate(14.165 20.034) rotate(-71.68)" fill="#0495ff"/>
    </g>
  </g>
</svg>
