<svg xmlns="http://www.w3.org/2000/svg" xmlns:xlink="http://www.w3.org/1999/xlink" width="206" height="102" viewBox="0 0 206 102">
  <defs>
    <clipPath id="clip-flsmidth">
      <rect width="206" height="102"/>
    </clipPath>
  </defs>
  <g id="flsmidth" clip-path="url(#clip-flsmidth)">
    <rect width="206" height="102" fill="#fff"/>
    <g id="flsmidth-2" data-name="flsmidth" transform="translate(22.43 34.65)">
      <path id="Path_149" data-name="Path 149" d="M43.585,34.22H84.359c.522,0,.674.117.669.659-.024,4.066,0,8.132,0,12.2v.7a7.259,7.259,0,0,1,1.206-1.533A8.553,8.553,0,0,1,90.627,44.5a27.248,27.248,0,0,1,8.494.249c.3.049.488.132.488.513-.034.932-.024,1.865,0,2.8,0,.327-.034.43-.415.322a17.134,17.134,0,0,0-5.784-.61,3.842,3.842,0,0,0-1.791.488,1.567,1.567,0,0,0,.049,2.821,11.977,11.977,0,0,0,3.31.9,17.944,17.944,0,0,1,2.475.659,5.233,5.233,0,0,1,1.879,8.63,8.858,8.858,0,0,1-5.213,2.387,25.93,25.93,0,0,1-7.913-.283l-1.157-.166V58.759c.225.063.449.117.669.185a15.132,15.132,0,0,0,6.317.869,4.047,4.047,0,0,0,2.026-.654,1.513,1.513,0,0,0,.034-2.524,3.236,3.236,0,0,0-.874-.454,34.373,34.373,0,0,0-3.344-.81c-1.879-.459-3.69-1.03-4.711-2.89h-.1v6.3c-.234,0-.464-.029-.7-.029H75.578c-.591,0-.693-.176-.688-.718V45.423c0-.488-.142-.605-.615-.6-1.621.029-3.241.034-4.881,0-.488,0-.566.146-.566.586V62.459c0,.6.146.727.732.727H85V75.565H43.58Zm5.858,21.058V62.63c0,.415.122.522.527.517,1.655,0,3.314-.029,4.969,0,.488,0,.542-.151.537-.566V56.748c0-.552.161-.669.679-.664H63.76c.41,0,.537-.117.522-.527-.029-.757-.039-1.518,0-2.27.029-.488-.127-.62-.615-.615H56.008c-.405,0-.537-.1-.527-.517,0-1.147.034-2.294,0-3.441,0-.488.142-.576.586-.571h8.015c.376,0,.488-.093.488-.488-.029-.8-.039-1.6,0-2.392,0-.459-.142-.532-.556-.532H52.9a3.146,3.146,0,0,0-3.417,3.417Z" transform="translate(-43.427 -34.17)" fill="#01447a"/>
      <path id="Path_150" data-name="Path 150" d="M43.437,34.2V75.511c-.244-.127-.107-.351-.107-.522V34.18Z" transform="translate(-43.28 -34.15)" fill="#115082"/>
      <path id="Path_151" data-name="Path 151" d="M179.09,62.893h9.182a6.673,6.673,0,0,1,3.778,1.025,5.716,5.716,0,0,1,2.265,3.934,11.969,11.969,0,0,1,.2,2.206v7.234c0,.371-.078.488-.488.488h-4.5c-.386,0-.488-.1-.488-.488V69.243a5.306,5.306,0,0,0-.3-1.718,2.333,2.333,0,0,0-2.236-1.66c-.527-.029-1.054,0-1.582-.034-.425-.029-.488.132-.488.532,0,3.6,0,7.2.024,10.793,0,.542-.156.639-.654.625q-1.987-.049-3.978,0c-.488,0-.62-.093-.615-.6v-7.7a6.1,6.1,0,0,0-.3-1.894,2.319,2.319,0,0,0-2.245-1.723c-.527-.029-1.054,0-1.582-.034-.425-.029-.488.132-.488.527v9.978c0,1.435,0,1.435-1.42,1.435H169.9c-.347,0-.488-.044-.488-.488v-14c0-.4.137-.488.488-.488h9.24Z" transform="translate(-107.835 -48.794)" fill="#03467b"/>
      <path id="Path_152" data-name="Path 152" d="M253.385,70.459V63.513c0-.268-.063-.542.381-.537,3.022.024,6.048-.059,9.065.073,3.417.151,5.086,1.7,5.677,5.062a12.277,12.277,0,0,1-.107,5.042,5.751,5.751,0,0,1-5.287,4.608,55.519,55.519,0,0,1-5.555.107c-1.186.024-2.377,0-3.568,0-.488,0-.625-.093-.62-.6C253.4,75.014,253.385,72.749,253.385,70.459Zm5.2-.181v3.847c0,.42.127.532.527.488s.932,0,1.4,0a2.362,2.362,0,0,0,2.494-1.953,10.031,10.031,0,0,0-.054-4.881,2.338,2.338,0,0,0-2.441-1.811c-.488,0-.976.024-1.464,0-.371,0-.488.083-.488.488.039,1.259.024,2.538.024,3.822Z" transform="translate(-150.811 -48.888)" fill="#03467b"/>
      <path id="Path_153" data-name="Path 153" d="M341.017,70.478v6.888c0,.444-.117.547-.552.537-1.381-.029-2.768,0-4.149,0-.376,0-.488-.088-.488-.488.024-1.538,0-3.075,0-4.613,0-.351-.049-.522-.488-.488h-3.568c-.361,0-.488.112-.488.464V77.39c0,.391-.073.537-.488.527-1.425-.029-2.846,0-4.271,0-.356,0-.459-.083-.454-.449V63.459c0-.366.112-.454.464-.449H330.8c.386,0,.488.1.488.488-.024,1.464,0,2.929,0,4.393,0,.391.117.488.488.488,1.172,0,2.343-.029,3.51,0,.434,0,.488-.146.488-.537V63.527c0-.376.083-.488.488-.488,1.386.024,2.773.029,4.154,0,.43,0,.561.093.556.542C341,65.851,341.017,68.165,341.017,70.478Z" transform="translate(-188.023 -48.907)" fill="#01457a"/>
      <path id="Path_154" data-name="Path 154" d="M296.95,63h6.38c.361,0,.517.063.488.488q-.044,1.464,0,2.929c0,.42-.083.571-.537.556-1.054-.039-2.109,0-3.158-.029-.576-.029-.659.186-.659.688.024,3.231,0,6.463.024,9.69,0,.488-.117.62-.605.605-1.367-.034-2.729,0-4.1,0-.405,0-.522-.1-.517-.488,0-3.266,0-6.536.024-9.807,0-.556-.166-.679-.688-.659-1.049.039-2.1,0-3.158,0-.347,0-.488-.078-.488-.449.029-.976.029-1.987,0-2.978,0-.405.107-.527.522-.527C292.659,63,294.807,63,296.95,63Z" transform="translate(-169.54 -48.902)" fill="#02467b"/>
      <path id="Path_155" data-name="Path 155" d="M236.769,70.409V77.35c0,.4-.083.537-.488.527-1.406-.029-2.812,0-4.213,0-.381,0-.488-.1-.488-.488V63.5c0-.386.083-.542.488-.537,1.4.024,2.807.024,4.208,0,.4,0,.488.122.488.488C236.759,65.776,236.769,68.1,236.769,70.409Z" transform="translate(-139.657 -48.881)" fill="#03467b"/>
      <path id="Path_156" data-name="Path 156" d="M55.574,66.375V59.317A3.155,3.155,0,0,1,58.991,55.9H70.1c.415,0,.581.073.556.532-.044.8-.034,1.6,0,2.392,0,.391-.112.488-.488.488H62.154c-.444,0-.6.1-.586.571.039,1.147.029,2.294,0,3.441,0,.415.122.522.527.517h7.659c.488,0,.644.122.615.615-.039.752-.029,1.513,0,2.27,0,.41-.112.532-.522.527H62.242c-.517,0-.688.112-.679.664.034,1.953,0,3.905,0,5.833,0,.415-.073.576-.537.566-1.655-.029-3.314,0-4.969,0-.405,0-.527-.1-.527-.517C55.584,71.276,55.574,68.826,55.574,66.375Z" transform="translate(-49.544 -45.268)" fill="#fbfcfd"/>
      <path id="Path_157" data-name="Path 157" d="M111.487,69.817v4.452H96.042c-.586,0-.737-.127-.732-.727q.039-8.523,0-17.046c0-.439.083-.6.566-.586,1.616.034,3.236.029,4.881,0,.488,0,.615.1.615.6V69.114c0,.542.1.722.688.718,2.929-.034,5.858,0,8.787,0a5.376,5.376,0,0,1,.7.029Z" transform="translate(-69.906 -45.272)" fill="#fdfdfd"/>
    </g>
  </g>
</svg>
