<svg xmlns="http://www.w3.org/2000/svg" xmlns:xlink="http://www.w3.org/1999/xlink" width="206" height="102" viewBox="0 0 206 102">
  <defs>
    <clipPath id="clip-wipro">
      <rect width="206" height="102"/>
    </clipPath>
  </defs>
  <g id="wipro" clip-path="url(#clip-wipro)">
    <rect width="206" height="102" fill="#fff"/>
    <g id="wipro-2" data-name="wipro" transform="translate(59.999 14.263)">
      <path id="Path_40" data-name="Path 40" d="M202.827,298.657c0-2.657.011-5.312-.007-7.968,0-.772.307-.895.884-.867.172.008.346,0,.52,0a.643.643,0,0,1,.671.489c.068.22.159.433.244.648.052.136.136.144.243.056l.292-.246a5.26,5.26,0,0,1,7.83,1.1,6.262,6.262,0,0,1,.152,7.237,5.146,5.146,0,0,1-4.208,2.567,8.629,8.629,0,0,1-2.908-.323c-.424-.115-.455-.1-.455.349v4.85a2.8,2.8,0,0,1-.016.407.47.47,0,0,1-.487.448q-1.124.019-2.251,0a.462.462,0,0,1-.491-.477c-.014-.136-.009-.271-.009-.415Zm3.258-2.734c0,.612.015,1.222,0,1.835a.56.56,0,0,0,.4.6,5.632,5.632,0,0,0,1.671.414,2.753,2.753,0,0,0,2.348-.863,3.328,3.328,0,0,0,.5-3.947,2.773,2.773,0,0,0-4.685-.471.929.929,0,0,0-.231.63c0,.6,0,1.2,0,1.8Z" transform="translate(-177.826 -258.693)" fill="#351952"/>
      <path id="Path_41" data-name="Path 41" d="M23.5,295.622a3.619,3.619,0,0,0,.464-.79c.8-1.533,1.6-3.072,2.393-4.615.031-.061.061-.124.1-.185a.775.775,0,0,1,.98-.436.687.687,0,0,1,.44.407q.639,1.245,1.276,2.466.729,1.4,1.459,2.794a.861.861,0,0,0,.223.337c.136-.083.147-.221.185-.335q.774-2.388,1.541-4.778c.159-.491.282-.6.789-.6h1.732c.529.015.668.2.513.7-.164.528-.334,1.056-.5,1.583l-2.674,8.27c-.092.286-.176.574-.271.857a.749.749,0,0,1-1.283.219,1.629,1.629,0,0,1-.183-.293l-1.967-3.783-1.347-2.579a1.151,1.151,0,0,0-.088-.148c-.065-.086-.136-.079-.2,0a1.314,1.314,0,0,0-.1.179q-1.025,1.966-2.048,3.937c-.443.842-.889,1.694-1.329,2.547a.76.76,0,0,1-.779.4.632.632,0,0,1-.615-.51q-.8-2.488-1.61-4.974-.851-2.636-1.7-5.274a5.551,5.551,0,0,1-.175-.6c-.065-.315.067-.512.386-.52.7-.018,1.408-.015,2.111,0a.573.573,0,0,1,.543.461q.7,2.209,1.419,4.421A3.165,3.165,0,0,0,23.5,295.622Z" transform="translate(-18.7 -258.75)" fill="#351952"/>
      <path id="Path_42" data-name="Path 42" d="M382.323,295.693a5.945,5.945,0,0,1-3.778,5.688,5.618,5.618,0,0,1-6.034-1.106,5.927,5.927,0,0,1-2-4.025,6.058,6.058,0,0,1,4.292-6.421,5.842,5.842,0,0,1,7.034,3.4A5.527,5.527,0,0,1,382.323,295.693Zm-2.891-.018a3.246,3.246,0,0,0-.561-1.826,2.9,2.9,0,0,0-4.322-.649,3.278,3.278,0,0,0,.03,5.013,2.741,2.741,0,0,0,1.884.672A3.115,3.115,0,0,0,379.432,295.675Z" transform="translate(-322.733 -258.786)" fill="#351952"/>
      <path id="Path_43" data-name="Path 43" d="M640.83,311.615a4.068,4.068,0,1,1,4.079-4.063A3.988,3.988,0,0,1,640.83,311.615Z" transform="translate(-552.868 -270.781)" fill="#4e5c97"/>
      <path id="Path_44" data-name="Path 44" d="M310.971,297.479v3.533a.528.528,0,0,1-.52.543,1.193,1.193,0,0,1-.136.007c-.635,0-1.271.007-1.9,0-.489-.007-.664-.186-.665-.679V290.7c0-.483.185-.665.671-.679.254-.008.508,0,.762,0a.6.6,0,0,1,.6.43c.062.174.136.348.2.52.136.358.157.361.418.1a4.573,4.573,0,0,1,1.622-1.1,4.8,4.8,0,0,1,2.993-.072,1.12,1.12,0,0,1,.428.221.6.6,0,0,1,.213.74c-.232.566-.479,1.127-.737,1.681a.528.528,0,0,1-.669.289c-.2-.043-.4-.117-.6-.152a2.643,2.643,0,0,0-2.4.724.853.853,0,0,0-.284.669c.011,1.132,0,2.264,0,3.394Z" transform="translate(-268.512 -258.873)" fill="#351952"/>
      <path id="Path_45" data-name="Path 45" d="M634.28,378.9a3.727,3.727,0,1,1,3.843-3.607,3.706,3.706,0,0,1-3.843,3.607Z" transform="translate(-547.532 -329.522)" fill="#6a71aa"/>
      <path id="Path_46" data-name="Path 46" d="M634.3,248.09a3.682,3.682,0,0,1-3.7-3.726,3.732,3.732,0,0,1,7.465.027,3.665,3.665,0,0,1-3.763,3.7Z" transform="translate(-547.537 -216.479)" fill="#2a4380"/>
      <path id="Path_47" data-name="Path 47" d="M161.636,297.71c0,1.663-.014,3.324,0,4.987.008.662-.258.8-.8.791s-1.086,0-1.629,0a2.172,2.172,0,0,1-.311-.014.5.5,0,0,1-.466-.51c-.008-.114,0-.231,0-.346v-9.977c-.031-.471.148-.7.707-.7h1.811a1,1,0,0,1,.373.06.456.456,0,0,1,.316.414c.008.126.008.254.008.381Z" transform="translate(-139.456 -260.804)" fill="#351952"/>
      <path id="Path_48" data-name="Path 48" d="M614.517,438.139a3.346,3.346,0,0,1-3.422,3.379,3.394,3.394,0,1,1,3.422-3.379Z" transform="translate(-527.772 -384.215)" fill="#9b548e"/>
      <path id="Path_49" data-name="Path 49" d="M614.527,185.644a3.394,3.394,0,1,1-3.394-3.4A3.355,3.355,0,0,1,614.527,185.644Z" transform="translate(-527.78 -165.999)" fill="#0d3470"/>
      <path id="Path_50" data-name="Path 50" d="M573.1,495.648a3.044,3.044,0,1,1,.038-6.088,3.044,3.044,0,1,1-.038,6.088Z" transform="translate(-495.216 -431.601)" fill="#b80a67"/>
      <path id="Path_51" data-name="Path 51" d="M580.224,314.906a2.92,2.92,0,0,1-5.837.043,2.919,2.919,0,1,1,5.837-.043Z" transform="translate(-498.954 -278.143)" fill="#4e5c97"/>
      <path id="Path_52" data-name="Path 52" d="M521.742,536.54a2.883,2.883,0,1,1,.468-5.745,2.882,2.882,0,1,1-.468,5.745Z" transform="translate(-451.113 -467.225)" fill="#b80a67"/>
      <path id="Path_53" data-name="Path 53" d="M521.86,93.691a2.881,2.881,0,1,1-2.92,2.87A2.844,2.844,0,0,1,521.86,93.691Z" transform="translate(-451.034 -89.467)" fill="#3971af"/>
      <path id="Path_54" data-name="Path 54" d="M462.111,75.14a2.715,2.715,0,1,1,2.7-2.726A2.715,2.715,0,0,1,462.111,75.14Z" transform="translate(-399.563 -68.744)" fill="#518fcb"/>
      <path id="Path_55" data-name="Path 55" d="M462,562.6a2.663,2.663,0,0,1-2.724-2.7,2.72,2.72,0,1,1,5.441-.014A2.671,2.671,0,0,1,462,562.6Z" transform="translate(-399.473 -490.034)" fill="#d65151"/>
      <path id="Path_56" data-name="Path 56" d="M395.241,569.54a2.547,2.547,0,0,1,2.552-2.54,2.592,2.592,0,0,1,2.541,2.568,2.538,2.538,0,0,1-2.566,2.541,2.484,2.484,0,0,1-2.528-2.57Z" transform="translate(-344.125 -498.529)" fill="#d65151"/>
      <path id="Path_57" data-name="Path 57" d="M397.807,62.548a2.51,2.51,0,0,1,2.545,2.532,2.544,2.544,0,1,1-5.088,0A2.5,2.5,0,0,1,397.807,62.548Z" transform="translate(-344.147 -62.55)" fill="#3598b6"/>
      <path id="Path_58" data-name="Path 58" d="M575.924,270.335a2.552,2.552,0,0,1-4.362,1.73,2.545,2.545,0,1,1,4.362-1.73Z" transform="translate(-495.898 -239.892)" fill="#2a4380"/>
      <path id="Path_59" data-name="Path 59" d="M573.366,366.5a2.493,2.493,0,0,1-2.543-2.506,2.548,2.548,0,1,1,2.543,2.506Z" transform="translate(-495.874 -320.817)" fill="#6a71aa"/>
      <path id="Path_60" data-name="Path 60" d="M333.46,564.338a2.379,2.379,0,1,1,0-4.758,2.335,2.335,0,0,1,2.381,2.4,2.365,2.365,0,0,1-2.382,2.358Z" transform="translate(-288.675 -492.116)" fill="#ee8d14"/>
      <path id="Path_61" data-name="Path 61" d="M553.97,409.187a2.372,2.372,0,1,1,2.338,2.361A2.342,2.342,0,0,1,553.97,409.187Z" transform="translate(-481.305 -360.066)" fill="#9b548e"/>
      <path id="Path_62" data-name="Path 62" d="M331.128,74.765a2.377,2.377,0,1,1,.669,1.693,2.38,2.38,0,0,1-.669-1.693Z" transform="translate(-288.716 -71.088)" fill="#189d95"/>
      <path id="Path_63" data-name="Path 63" d="M553.978,227.525a2.308,2.308,0,0,1,2.366-2.37,2.348,2.348,0,0,1,2.37,2.374,2.374,2.374,0,0,1-2.361,2.389A2.335,2.335,0,0,1,553.978,227.525Z" transform="translate(-481.313 -203.088)" fill="#0d3470"/>
      <path id="Path_64" data-name="Path 64" d="M571.248,137.806a2.681,2.681,0,0,1-1.086-1.746,3.051,3.051,0,0,1,4.208-3.425,2.443,2.443,0,0,1,1.174.93,1.45,1.45,0,0,1-.159.181c-.665.543-1.208,1.2-1.83,1.776-.219.2-.384.456-.605.66-.345.318-.669.658-1,1A2.434,2.434,0,0,1,571.248,137.806Z" transform="translate(-495.246 -122.894)" fill="#2a4380"/>
      <path id="Path_65" data-name="Path 65" d="M273.673,539.915a2.192,2.192,0,1,1,1.573-.644A2.213,2.213,0,0,1,273.673,539.915Z" transform="translate(-237.149 -471.297)" fill="#ee8d14"/>
      <path id="Path_66" data-name="Path 66" d="M528.331,449.98a2.162,2.162,0,0,1-2.194-2.2,2.21,2.21,0,1,1,2.194,2.2Z" transform="translate(-457.254 -393.574)" fill="#b80a67"/>
      <path id="Path_67" data-name="Path 67" d="M275.792,101.126a2.215,2.215,0,1,1-2.158-2.251A2.215,2.215,0,0,1,275.792,101.126Z" transform="translate(-237.064 -93.95)" fill="#03a26a"/>
      <path id="Path_68" data-name="Path 68" d="M222.439,496.627a2.012,2.012,0,0,1,2.036,2.036,2.046,2.046,0,1,1-4.09-.011,2.01,2.01,0,0,1,2.054-2.025Z" transform="translate(-193.006 -437.709)" fill="#ee8d14"/>
      <path id="Path_69" data-name="Path 69" d="M491.855,475.67a2.024,2.024,0,1,1-2.065,2.054A2.009,2.009,0,0,1,491.855,475.67Z" transform="translate(-425.841 -419.595)" fill="#b80a67"/>
      <path id="Path_70" data-name="Path 70" d="M493.82,163.28a2.036,2.036,0,1,1-2.016-2.031,2.009,2.009,0,0,1,2.016,2.031Z" transform="translate(-425.805 -147.857)" fill="#3971af"/>
      <path id="Path_71" data-name="Path 71" d="M223.554,142.4a2,2,0,0,1-2.016,2.036,2.036,2.036,0,1,1,0-4.059,2,2,0,0,1,2.016,2.023Z" transform="translate(-192.1 -129.812)" fill="#03a26a"/>
      <path id="Path_72" data-name="Path 72" d="M527.842,322.809a1.956,1.956,0,0,1-2-1.975,2.008,2.008,0,0,1,2-2,1.985,1.985,0,0,1,0,3.971Z" transform="translate(-456.997 -284.054)" fill="#4e5c97"/>
      <path id="Path_73" data-name="Path 73" d="M578.58,145.425a2.554,2.554,0,0,0,.715-.634c.328-.337.653-.679,1-1,.221-.2.387-.455.605-.66.622-.58,1.165-1.239,1.83-1.776a1.45,1.45,0,0,0,.159-.181,3.031,3.031,0,0,1-1.947,4.887A2.842,2.842,0,0,1,578.58,145.425Z" transform="translate(-502.578 -130.512)" fill="#0d3470"/>
      <path id="Path_74" data-name="Path 74" d="M185.426,447.3a1.85,1.85,0,0,1-1.846,1.884,1.88,1.88,0,1,1,0-3.76,1.842,1.842,0,0,1,1.846,1.876Z" transform="translate(-159.573 -393.453)" fill="#ee8d14"/>
      <path id="Path_75" data-name="Path 75" d="M447.291,146.278a1.864,1.864,0,0,1,3.729-.007,1.865,1.865,0,1,1-3.729.007Z" transform="translate(-389.107 -133.32)" fill="#518fcb"/>
      <path id="Path_76" data-name="Path 76" d="M447.29,496.825a1.821,1.821,0,0,1,1.88-1.876,1.843,1.843,0,0,1,1.85,1.89,1.871,1.871,0,0,1-1.881,1.858A1.844,1.844,0,0,1,447.29,496.825Z" transform="translate(-389.106 -436.259)" fill="#d65151"/>
      <path id="Path_77" data-name="Path 77" d="M524.206,352.522a1.824,1.824,0,0,1,1.861,1.888,1.873,1.873,0,1,1-3.745-.054A1.837,1.837,0,0,1,524.206,352.522Z" transform="translate(-453.956 -313.162)" fill="#6a71aa"/>
      <path id="Path_78" data-name="Path 78" d="M184.857,195.382a1.822,1.822,0,0,1-1.876,1.85,1.867,1.867,0,0,1,.03-3.733A1.834,1.834,0,0,1,184.857,195.382Z" transform="translate(-159.08 -175.73)" fill="#74b94e"/>
      <path id="Path_79" data-name="Path 79" d="M522.36,288.948a1.873,1.873,0,1,1,1.875,1.866A1.878,1.878,0,0,1,522.36,288.948Z" transform="translate(-453.988 -256.596)" fill="#2a4380"/>
      <path id="Path_80" data-name="Path 80" d="M158.985,255.481a1.785,1.785,0,1,1,1.805-1.793,1.748,1.748,0,0,1-1.805,1.793Z" transform="translate(-138.416 -226.212)" fill="#74b94e"/>
      <path id="Path_81" data-name="Path 81" d="M527.231,192.906a2.186,2.186,0,0,1-.664-3.178,2.217,2.217,0,0,1,3.569-.038,1.232,1.232,0,0,1,.084.149,23.452,23.452,0,0,1-1.956,1.88A4.85,4.85,0,0,0,527.231,192.906Z" transform="translate(-457.265 -171.675)" fill="#2a4380"/>
      <path id="Path_82" data-name="Path 82" d="M404.781,503.972a1.71,1.71,0,1,1-1.662-1.757A1.71,1.71,0,0,1,404.781,503.972Z" transform="translate(-349.415 -442.539)" fill="#d65151"/>
      <path id="Path_83" data-name="Path 83" d="M512.535,387.591a1.7,1.7,0,1,1,.015-3.391,1.645,1.645,0,0,1,1.7,1.678,1.69,1.69,0,0,1-1.717,1.713Z" transform="translate(-444.025 -340.544)" fill="#9b548e"/>
      <path id="Path_84" data-name="Path 84" d="M403.1,139.652a1.657,1.657,0,0,1,1.723,1.694,1.706,1.706,0,0,1-3.411,0,1.663,1.663,0,0,1,1.689-1.694Z" transform="translate(-349.457 -129.191)" fill="#3598b6"/>
      <path id="Path_85" data-name="Path 85" d="M514.272,259.209a1.717,1.717,0,0,1-1.7,1.7,1.687,1.687,0,0,1-1.72-1.716,1.713,1.713,0,1,1,3.425.015Z" transform="translate(-444.039 -230.995)" fill="#0d3470"/>
      <path id="Path_86" data-name="Path 86" d="M357.15,500.357a1.527,1.527,0,0,1-1.522-1.554,1.5,1.5,0,0,1,1.557-1.519,1.482,1.482,0,0,1,1.526,1.519A1.525,1.525,0,0,1,357.15,500.357Z" transform="translate(-309.891 -438.276)" fill="#ee8d14"/>
      <path id="Path_87" data-name="Path 87" d="M495.021,412.995a1.522,1.522,0,1,1-.439-1.093,1.509,1.509,0,0,1,.439,1.093Z" transform="translate(-427.702 -364.094)" fill="#b80a67"/>
      <path id="Path_88" data-name="Path 88" d="M357.191,150.1a1.543,1.543,0,1,1,1.546-1.541A1.543,1.543,0,0,1,357.191,150.1Z" transform="translate(-309.91 -135.551)" fill="#189d95"/>
      <path id="Path_89" data-name="Path 89" d="M493.619,233.083a1.525,1.525,0,1,1-1.567,1.486,1.522,1.522,0,0,1,1.567-1.486Z" transform="translate(-427.796 -209.939)" fill="#2a4380"/>
      <path id="Path_90" data-name="Path 90" d="M315.928,481.654a1.328,1.328,0,0,1-1.347,1.357,1.371,1.371,0,1,1,.019-2.742A1.328,1.328,0,0,1,315.928,481.654Z" transform="translate(-273.24 -423.572)" fill="#ee8d14"/>
      <path id="Path_91" data-name="Path 91" d="M467.212,433.993a1.327,1.327,0,0,1,1.333-1.374,1.378,1.378,0,0,1,1.383,1.348,1.422,1.422,0,0,1-1.372,1.391A1.347,1.347,0,0,1,467.212,433.993Z" transform="translate(-406.324 -382.39)" fill="#b80a67"/>
      <path id="Path_92" data-name="Path 92" d="M315.853,167.855a1.318,1.318,0,0,1-1.338,1.367,1.336,1.336,0,0,1-1.378-1.336,1.357,1.357,0,0,1,1.366-1.4,1.33,1.33,0,0,1,1.351,1.366Z" transform="translate(-273.167 -152.386)" fill="#03a26a"/>
      <path id="Path_93" data-name="Path 93" d="M467.189,215.555a1.284,1.284,0,0,1,1.3-1.326,1.317,1.317,0,0,1,1.4,1.351,1.37,1.37,0,0,1-1.393,1.37A1.329,1.329,0,0,1,467.189,215.555Z" transform="translate(-406.305 -193.645)" fill="#3971af"/>
      <path id="Path_94" data-name="Path 94" d="M534.12,199.476a4.9,4.9,0,0,1,1.033-1.186,24.123,24.123,0,0,0,1.956-1.88,2.206,2.206,0,0,1-.291,2.757A2.181,2.181,0,0,1,534.12,199.476Z" transform="translate(-464.154 -178.245)" fill="#0d3470"/>
      <path id="Path_95" data-name="Path 95" d="M489.267,326.58a1.233,1.233,0,0,1-1.3-1.284A1.277,1.277,0,0,1,489.3,324a1.289,1.289,0,1,1-.035,2.578Z" transform="translate(-424.267 -288.516)" fill="#4e5c97"/>
      <path id="Path_96" data-name="Path 96" d="M437.28,203.5a1.265,1.265,0,0,1,1.3-1.277,1.29,1.29,0,1,1-.026,2.579A1.26,1.26,0,0,1,437.28,203.5Z" transform="translate(-380.459 -183.272)" fill="#518fcb"/>
      <path id="Path_97" data-name="Path 97" d="M438.536,445.924a1.252,1.252,0,0,1,1.3,1.238,1.3,1.3,0,0,1-1.272,1.322,1.279,1.279,0,0,1-1.287-1.258A1.226,1.226,0,0,1,438.536,445.924Z" transform="translate(-380.459 -393.888)" fill="#d65151"/>
      <path id="Path_98" data-name="Path 98" d="M405.12,451.8a1.2,1.2,0,1,1,1.2,1.207A1.2,1.2,0,0,1,405.12,451.8Z" transform="translate(-352.665 -397.934)" fill="#d65151"/>
      <path id="Path_99" data-name="Path 99" d="M407.54,199.831a1.2,1.2,0,1,1-.357-.859A1.2,1.2,0,0,1,407.54,199.831Z" transform="translate(-352.682 -180.162)" fill="#3598b6"/>
      <path id="Path_100" data-name="Path 100" d="M279.2,453.838a1.155,1.155,0,0,1-1.2,1.2,1.176,1.176,0,0,1-1.185-1.222,1.188,1.188,0,0,1,1.188-1.18,1.169,1.169,0,0,1,1.2,1.2Z" transform="translate(-241.775 -399.691)" fill="#ee8d14"/>
      <path id="Path_101" data-name="Path 101" d="M487.027,346.395a1.155,1.155,0,0,1,1.188,1.167,1.176,1.176,0,0,1-1.2,1.2,1.193,1.193,0,0,1-1.195-1.222A1.128,1.128,0,0,1,487.027,346.395Z" transform="translate(-422.408 -307.866)" fill="#6a71aa"/>
      <path id="Path_102" data-name="Path 102" d="M487.018,303.148a1.162,1.162,0,0,1,1.192,1.173,1.192,1.192,0,0,1-1.192,1.222,1.222,1.222,0,0,1-1.2-1.188,1.181,1.181,0,0,1,1.2-1.207Z" transform="translate(-422.408 -270.493)" fill="#2a4380"/>
      <path id="Path_103" data-name="Path 103" d="M279.351,198.1a1.138,1.138,0,0,1-1.2,1.163,1.151,1.151,0,0,1-1.148-1.249,1.173,1.173,0,1,1,2.344.086Z" transform="translate(-241.942 -178.684)" fill="#03a26a"/>
      <path id="Path_104" data-name="Path 104" d="M374.131,449.165A1.106,1.106,0,0,1,373,448.057a1.123,1.123,0,0,1,1.138-1.108,1.11,1.11,0,0,1,1.112,1.132,1.086,1.086,0,0,1-1.119,1.083Z" transform="translate(-324.905 -394.775)" fill="#ee8d14"/>
      <path id="Path_105" data-name="Path 105" d="M480.33,368.128a1.063,1.063,0,0,1-1.113,1.1,1.1,1.1,0,1,1,1.113-1.1Z" transform="translate(-415.755 -325.696)" fill="#9b548e"/>
      <path id="Path_106" data-name="Path 106" d="M374.171,205.848a1.074,1.074,0,0,1-1.112-1.086,1.119,1.119,0,1,1,2.237-.018A1.061,1.061,0,0,1,374.171,205.848Z" transform="translate(-324.956 -184.489)" fill="#189d95"/>
      <path id="Path_107" data-name="Path 107" d="M480.33,284.825a1.106,1.106,0,0,1-2.211-.011,1.093,1.093,0,0,1,1.114-1.116,1.077,1.077,0,0,1,1.1,1.127Z" transform="translate(-415.754 -253.685)" fill="#0d3470"/>
      <path id="Path_108" data-name="Path 108" d="M251.341,417.3a.953.953,0,0,1-1.006,1.022,1.018,1.018,0,0,1-.014-2.036A.96.96,0,0,1,251.341,417.3Z" transform="translate(-218.005 -368.277)" fill="#ee8d14"/>
      <path id="Path_109" data-name="Path 109" d="M344.394,436.915a1.023,1.023,0,1,1,.731-.3,1.028,1.028,0,0,1-.731.3Z" transform="translate(-299.297 -384.327)" fill="#ee8d14"/>
      <path id="Path_110" data-name="Path 110" d="M467.4,385.953a.995.995,0,0,1-1.053,1,1.044,1.044,0,0,1-.992-1.078,1,1,0,0,1,1.086-.968A.969.969,0,0,1,467.4,385.953Z" transform="translate(-404.724 -341.154)" fill="#b80a67"/>
      <path id="Path_111" data-name="Path 111" d="M344.366,219a1.03,1.03,0,0,1,.018-2.061,1.047,1.047,0,0,1,1.015,1.026A1.017,1.017,0,0,1,344.366,219Z" transform="translate(-299.275 -195.988)" fill="#03a26a"/>
      <path id="Path_112" data-name="Path 112" d="M467.425,268.026a.991.991,0,0,1-1.011,1.036,1.017,1.017,0,0,1-1.044-1.015A1.048,1.048,0,0,1,466.395,267a1.009,1.009,0,0,1,1.03,1.028Z" transform="translate(-404.736 -239.251)" fill="#2a4380"/>
      <path id="Path_113" data-name="Path 113" d="M251.23,236.722a.981.981,0,0,1-1.023,1.019,1.024,1.024,0,0,1,.014-2.047.972.972,0,0,1,1.01,1.028Z" transform="translate(-217.901 -212.197)" fill="#74b94e"/>
      <path id="Path_114" data-name="Path 114" d="M319.7,416.089a.895.895,0,0,1-.922.939.909.909,0,0,1-.95-.957.935.935,0,1,1,1.869.018Z" transform="translate(-277.224 -367.258)" fill="#ee8d14"/>
      <path id="Path_115" data-name="Path 115" d="M449.816,400.487a.935.935,0,0,1-.031-1.869.931.931,0,0,1,.957.926.9.9,0,0,1-.926.943Z" transform="translate(-390.479 -353.004)" fill="#b80a67"/>
      <path id="Path_116" data-name="Path 116" d="M319.867,238.708a.877.877,0,0,1-.892.939.926.926,0,1,1-.031-1.852.888.888,0,0,1,.923.912Z" transform="translate(-277.4 -214.012)" fill="#03a26a"/>
      <path id="Path_117" data-name="Path 117" d="M448.829,255.5a.868.868,0,0,1,.9-.923c.589.049.941.315.958.922a.914.914,0,0,1-.934.95.895.895,0,0,1-.927-.949Z" transform="translate(-390.439 -228.51)" fill="#3971af"/>
      <path id="Path_118" data-name="Path 118" d="M430.865,247.728a.862.862,0,0,1-.863.855.886.886,0,0,1-.862-.867.862.862,0,0,1,.858-.861.834.834,0,0,1,.867.873Z" transform="translate(-373.424 -221.842)" fill="#518fcb"/>
      <path id="Path_119" data-name="Path 119" d="M299.322,389.788a.846.846,0,0,1,.839.866.855.855,0,1,1-1.709-.03.846.846,0,0,1,.87-.836Z" transform="translate(-260.476 -345.372)" fill="#ee8d14"/>
      <path id="Path_120" data-name="Path 120" d="M430.033,409.177a.853.853,0,0,1-.893-.848.873.873,0,0,1,.862-.859.848.848,0,0,1,.863.844.828.828,0,0,1-.832.863Z" transform="translate(-373.424 -360.654)" fill="#d65151"/>
      <path id="Path_121" data-name="Path 121" d="M299.328,266.116a.814.814,0,0,1-.852-.842.851.851,0,1,1,1.7,0,.806.806,0,0,1-.848.842Z" transform="translate(-260.496 -236.996)" fill="#74b94e"/>
      <path id="Path_122" data-name="Path 122" d="M408.955,410.867a.772.772,0,0,1,.776.767.785.785,0,1,1-1.568-.018.764.764,0,0,1,.791-.749Z" transform="translate(-355.294 -363.59)" fill="#d65151"/>
      <path id="Path_123" data-name="Path 123" d="M408.992,244.818a.744.744,0,0,1,.8.734.781.781,0,0,1-1.561.031.741.741,0,0,1,.764-.766Z" transform="translate(-355.35 -220.08)" fill="#3598b6"/>
      <path id="Path_124" data-name="Path 124" d="M388,408.674a.654.654,0,0,1,.69.66.687.687,0,0,1-.679.719.709.709,0,0,1-.7-.711A.679.679,0,0,1,388,408.674Z" transform="translate(-337.272 -361.694)" fill="#ee8d14"/>
      <path id="Path_125" data-name="Path 125" d="M388.683,249.045a.679.679,0,0,1-.66.7.694.694,0,0,1-.714-.656.657.657,0,0,1,.679-.7.646.646,0,0,1,.7.657Z" transform="translate(-337.27 -223.166)" fill="#189d95"/>
      <path id="Path_126" data-name="Path 126" d="M368.469,401.928a.578.578,0,0,1-.6-.616.635.635,0,0,1,.6-.6.647.647,0,0,1,.623.619.592.592,0,0,1-.623.6Z" transform="translate(-320.472 -354.812)" fill="#ee8d14"/>
      <path id="Path_127" data-name="Path 127" d="M368.665,258.484a.605.605,0,1,1,.546-.3A.605.605,0,0,1,368.665,258.484Z" transform="translate(-320.657 -230.847)" fill="#03a26a"/>
      <path id="Path_128" data-name="Path 128" d="M351.874,388.251a.5.5,0,0,1,.543.5.543.543,0,0,1-.523.543.5.5,0,0,1-.51-.533A.451.451,0,0,1,351.874,388.251Z" transform="translate(-306.223 -344.043)" fill="#ee8d14"/>
      <path id="Path_129" data-name="Path 129" d="M352.01,272.289a.489.489,0,0,1-.478-.523.478.478,0,0,1,.5-.491.508.508,0,1,1-.027,1.014Z" transform="translate(-306.35 -242.947)" fill="#03a26a"/>
    </g>
  </g>
</svg>
