<svg id="Layer_1" data-name="Layer 1" xmlns="http://www.w3.org/2000/svg" viewBox="0 0 27.37 18" height="18" width="27.16"><defs><style>.cls-1{fill:#f5f5f5;}.cls-2{fill:#ff4b55;}</style></defs><title>NVArtboard 2 copy</title><path class="cls-1" d="M23.92,17.81H3.45a2.94,2.94,0,0,1-2.91-3V3.24a2.94,2.94,0,0,1,2.91-3H23.92a2.94,2.94,0,0,1,2.91,3V14.86A2.93,2.93,0,0,1,23.92,17.81Z"/><rect class="cls-1" x="6.43" y="0.29" width="14.5" height="17.52"/><path class="cls-2" d="M3.45.28a2.94,2.94,0,0,0-2.91,3V14.85a2.94,2.94,0,0,0,2.91,3h3V.29Z"/><path class="cls-2" d="M23.92.29h-3V17.81h3a2.93,2.93,0,0,0,2.91-2.95V3.25A2.94,2.94,0,0,0,23.92.29Z"/><path class="cls-2" d="M16.44,11.07l2.69-1.56-.62-.31a.49.49,0,0,1-.25-.48l.2-1.53-1.14.34a.44.44,0,0,1-.56-.34l-.11-.51L15.58,8a.22.22,0,0,1-.39-.19l.45-2.7-.7.19A.45.45,0,0,1,14.42,5l-.73-1.41h0L13,5a.44.44,0,0,1-.52.22l-.7-.19.46,2.7A.23.23,0,0,1,11.8,8L10.73,6.68l-.11.5a.46.46,0,0,1-.57.35L8.91,7.19l.2,1.53a.44.44,0,0,1-.25.47l-.61.32,2.69,1.56a.67.67,0,0,1,.28.81l-.23.63,2.31-.2a.21.21,0,0,1,.23.22L13.46,15h.45l-.07-2.51a.21.21,0,0,1,.23-.22l2.31.2-.23-.62A.67.67,0,0,1,16.44,11.07Z"/></svg>