<svg xmlns="http://www.w3.org/2000/svg" xmlns:xlink="http://www.w3.org/1999/xlink" width="206" height="102" viewBox="0 0 206 102">
  <defs>
    <clipPath id="clip-classedge">
      <rect width="206" height="102"/>
    </clipPath>
  </defs>
  <g id="classedge" clip-path="url(#clip-classedge)">
    <rect width="206" height="102" fill="#fff"/>
    <g id="classedge-2" data-name="classedge" transform="translate(74.11 27.174)">
      <path id="Path_338" data-name="Path 338" d="M462.432,514.65a5.047,5.047,0,0,1-1.759,1.228,4.916,4.916,0,0,1-6.322-2.92,5.793,5.793,0,0,1,.991-5.929,4.49,4.49,0,0,1,3.733-1.562,4.689,4.689,0,0,1,3.244,1.414,2.513,2.513,0,0,0,.046-.868c0-.2.058-.277.27-.276q2.137.012,4.276,0c.222,0,.261.085.261.281-.008,3.038.022,6.076-.027,9.109A5.654,5.654,0,0,1,466.1,518.5a5.266,5.266,0,0,1-3.6,2.017,14.283,14.283,0,0,1-8-1.035c-.334-.145-.441-.273-.233-.635.415-.712.776-1.458,1.134-2.2.115-.24.205-.256.44-.142a8.729,8.729,0,0,0,4.237.933A2.385,2.385,0,0,0,462.432,514.65Zm-1.856-2a1.82,1.82,0,1,0-.032-3.633,1.819,1.819,0,0,0-1.919,1.857,1.792,1.792,0,0,0,1.948,1.778Z" transform="translate(-422.124 -472.208)" fill="#265f9a"/>
      <path id="Path_339" data-name="Path 339" d="M282.635,432.768a5.543,5.543,0,0,1-2.061,1.453,4.793,4.793,0,0,1-4.811-1.342,7.368,7.368,0,0,1,.046-9.022,4.544,4.544,0,0,1,6.509-.285l.32.3v-1.286c0-.826,0-1.652,0-2.478a.539.539,0,0,1,.16-.426q2.233-2.232,4.457-4.473a1.116,1.116,0,0,1,.122-.094c.106.114.057.24.057.349q0,9.131.01,18.263c0,.32-.063.429-.407.423q-2-.034-4,0c-.345.006-.437-.1-.406-.423C282.657,433.442,282.635,433.147,282.635,432.768Zm.1-4.38a1.929,1.929,0,1,0-3.846-.01,1.978,1.978,0,0,0,1.944,2.091A1.952,1.952,0,0,0,282.734,428.388Z" transform="translate(-256.78 -389.087)" fill="#265f9a"/>
      <path id="Path_340" data-name="Path 340" d="M119.546,512.636h-3.316c-.389,0-.414.049-.22.4a2.411,2.411,0,0,0,3.278.812,3.847,3.847,0,0,0,.9-.664c.137-.145.233-.16.4-.03.712.581,1.426,1.158,2.159,1.716.221.169.16.281.022.442a5.768,5.768,0,0,1-2.286,1.7,7.157,7.157,0,0,1-6.727-.584,5.183,5.183,0,0,1-2.314-3.763,6.229,6.229,0,0,1,1.575-5.437,5.41,5.41,0,0,1,3.4-1.69,6.386,6.386,0,0,1,4.369.879,5.586,5.586,0,0,1,2.387,3.9,9.355,9.355,0,0,1,.129,1.989c-.007.245-.08.338-.348.334C121.811,512.628,120.678,512.636,119.546,512.636Zm-2.217-2.111c.439,0,.879-.008,1.317,0,.245.006.293-.08.24-.313a2.227,2.227,0,0,0-.506-.981,1.5,1.5,0,0,0-1.584-.345,2.1,2.1,0,0,0-.987,1.471c.006.193.129.168.244.169.425,0,.851,0,1.277,0Z" transform="translate(-106.904 -472.222)" fill="#26609a"/>
      <path id="Path_341" data-name="Path 341" d="M638.261,512.446a2.173,2.173,0,0,0,1.519,1.445,2.806,2.806,0,0,0,2.737-.822c.24-.225.373-.219.612-.016.64.541,1.3,1.067,1.969,1.565.281.207.235.349.038.56a6.177,6.177,0,0,1-3.8,2.089,7.682,7.682,0,0,1-4.185-.489,5.379,5.379,0,0,1-3.323-4.536,6.211,6.211,0,0,1,1.331-4.9,5.42,5.42,0,0,1,3.074-1.879,6.548,6.548,0,0,1,4.292.4,5.371,5.371,0,0,1,3.027,4.1,10.309,10.309,0,0,1,.165,2.144c0,.289-.107.348-.373.347-2.2-.01-4.4-.006-6.591-.006Zm1.489-2.111c.439,0,.879-.009,1.317,0,.219.006.3-.08.245-.281a1.833,1.833,0,0,0-.8-1.238,1.354,1.354,0,0,0-1.439-.035,1.946,1.946,0,0,0-.844,1.388c-.04.193.134.16.244.16.427.01.852.008,1.278.008Z" transform="translate(-587.565 -472.031)" fill="#26609a"/>
      <path id="Path_342" data-name="Path 342" d="M597.669,324.83a10.883,10.883,0,0,1-5.245-1.337c-.534-.288-.529-.3-.227-.8.395-.662.8-1.322,1.182-1.989.111-.193.177-.252.412-.118a8.383,8.383,0,0,0,3.827,1.138,2.57,2.57,0,0,0,.554-.05c.177-.03.3-.1.328-.29a.356.356,0,0,0-.24-.377,3.952,3.952,0,0,0-.9-.32,18.124,18.124,0,0,1-2.776-.869,3.148,3.148,0,0,1-2.167-3.084,3.523,3.523,0,0,1,2.212-3.438,8.135,8.135,0,0,1,4.592-.4,10.245,10.245,0,0,1,3.067.975c.26.127.344.24.18.532-.422.739-.819,1.493-1.2,2.252-.122.24-.224.236-.445.129a7.78,7.78,0,0,0-3.2-.9c-.315-.008-.767-.137-.837.3-.064.4.389.449.675.541.835.269,1.7.431,2.526.737.24.088.476.172.707.273a3.32,3.32,0,0,1,1.983,4.317,3.829,3.829,0,0,1-3.18,2.623A10.559,10.559,0,0,1,597.669,324.83Z" transform="translate(-549.125 -294.902)" fill="#1c1b1b"/>
      <path id="Path_343" data-name="Path 343" d="M455.078,324.82a11.128,11.128,0,0,1-4.783-1.112c-.264-.126-.512-.282-.769-.421-.16-.086-.192-.179-.088-.349q.709-1.156,1.389-2.329c.106-.185.189-.146.34-.06a8.5,8.5,0,0,0,3.783,1.145,2.479,2.479,0,0,0,.595-.038c.186-.036.337-.1.368-.3s-.121-.306-.28-.389a3.931,3.931,0,0,0-.864-.3,15.947,15.947,0,0,1-2.993-.968,3.039,3.039,0,0,1-1.892-2.31,3.627,3.627,0,0,1,2.116-4.1,8.168,8.168,0,0,1,4.627-.417,10.145,10.145,0,0,1,3.068.976c.26.127.348.24.176.533-.413.712-.793,1.446-1.166,2.181-.129.256-.225.332-.52.185a7.466,7.466,0,0,0-3.163-.886c-.314-.007-.764-.139-.836.3-.067.408.391.45.674.541.86.277,1.753.444,2.6.763.3.113.6.224.885.364a3.514,3.514,0,0,1,1.016,5.517,4.726,4.726,0,0,1-3.089,1.4C455.878,324.792,455.477,324.8,455.078,324.82Z" transform="translate(-417.914 -294.879)" fill="#1c1b1b"/>
      <path id="Path_344" data-name="Path 344" d="M297.472,318.863a1.484,1.484,0,0,0-1.359-1.759,7.457,7.457,0,0,0-3.6.473c-.229.086-.33.1-.4-.193-.2-.865-.442-1.724-.687-2.579-.071-.249-.01-.343.232-.424a13.493,13.493,0,0,1,7.128-.448,4.246,4.246,0,0,1,3.518,4.253,2.314,2.314,0,0,1-.782,2.056c-1.444,1.339-2.8,2.776-4.189,4.171a4.6,4.6,0,0,1-5.5.606,3.308,3.308,0,0,1-1.4-3.39,3.427,3.427,0,0,1,3.336-3.08A9.491,9.491,0,0,1,297.472,318.863Zm-.974,1.587a1.734,1.734,0,0,0-.915.206,1.291,1.291,0,0,0-.53,1.529,1.091,1.091,0,0,0,1.332.665,1.484,1.484,0,0,0,1.139-1.287c.207-.879.1-1.021-.782-1.093Z" transform="translate(-271.639 -295.726)" fill="#1c1b1b"/>
      <path id="Path_345" data-name="Path 345" d="M62.214,313.1a5.668,5.668,0,0,1,5.094,2.63c.341.51.32.523-.2.815-.892.5-1.785,1-2.674,1.513-.189.109-.3.166-.458-.086a1.705,1.705,0,0,0-2.016-.829,1.924,1.924,0,0,0-1.279,1.672,2.414,2.414,0,0,0,.2,1.325,1.688,1.688,0,0,0,2.834.51c.189-.181.254-.56.555-.531a2.171,2.171,0,0,1,.7.372c.8.454,1.587.923,2.4,1.354.281.151.271.273.122.512a6.212,6.212,0,0,1-11.406-3.777,6.049,6.049,0,0,1,4.691-5.313A8.652,8.652,0,0,1,62.214,313.1Z" transform="translate(-56.04 -295.222)" fill="#1c1b1b"/>
      <path id="Path_346" data-name="Path 346" d="M213.767,275.057c0-2.436.006-4.872-.007-7.307,0-.328.08-.426.413-.421,1.344.019,2.689.014,4.033,0,.269,0,.366.058.365.349q-.014,7.368,0,14.736c0,.281-.08.358-.357.355-1.371-.014-2.742-.016-4.113,0-.3,0-.34-.108-.339-.368C213.771,279.957,213.767,277.508,213.767,275.057Z" transform="translate(-201.133 -253.111)" fill="#1c1b1b"/>
      <path id="Path_347" data-name="Path 347" d="M440.671,93.837c-.605,1.788-1.2,3.535-1.788,5.284-.273.807-.274.807-1.131.806-.906,0-1.811-.007-2.718.006-.256,0-.328-.04-.229-.305q1.808-4.9,3.6-9.805a.387.387,0,0,1,.438-.292c1.238.009,2.478.011,3.714,0a.423.423,0,0,1,.47.309q1.905,4.863,3.838,9.716c.116.291.094.386-.253.381-1.078-.02-2.159-.018-3.235,0a.452.452,0,0,1-.513-.356c-.646-1.787-1.312-3.567-1.972-5.349A.755.755,0,0,0,440.671,93.837Z" transform="translate(-404.465 -89.527)" fill="#27609a"/>
      <path id="Path_348" data-name="Path 348" d="M185.9,93.852c-.575,1.747-1.119,3.386-1.654,5.026-.344,1.049-.342,1.05-1.431,1.049-.825,0-1.651-.007-2.478,0-.273,0-.314-.08-.224-.326q1.8-4.9,3.591-9.812a.342.342,0,0,1,.377-.263q1.878.013,3.758,0a.324.324,0,0,1,.354.24q1.936,4.939,3.891,9.871c.1.24.04.293-.2.292-1.1-.009-2.211-.014-3.316,0-.272,0-.332-.144-.407-.337q-1.028-2.638-2.061-5.277C186.049,94.2,186,94.084,185.9,93.852Z" transform="translate(-170.136 -89.527)" fill="#27609a"/>
      <path id="Path_349" data-name="Path 349" d="M70.97,89.506c1.531,0,3.062.006,4.592-.006.281,0,.364.08.357.36-.017.8-.014,1.6,0,2.4,0,.24-.069.324-.32.32-.692-.015-1.386.017-2.079-.014-.372-.016-.491.067-.487.468.023,2.159,0,4.313.02,6.469,0,.343-.1.417-.424.411q-1.7-.031-3.395,0c-.331.006-.395-.107-.393-.408.011-2.143,0-4.286.014-6.429,0-.384-.062-.54-.492-.513-.676.042-1.359,0-2.036.018-.269.007-.337-.086-.333-.342.014-.8.017-1.6,0-2.4-.006-.266.08-.339.337-.337C67.881,89.511,69.426,89.506,70.97,89.506Z" transform="translate(-65.184 -89.5)" fill="#27619b"/>
      <path id="Path_350" data-name="Path 350" d="M327.019,90.9c1.5,0,3.01.01,4.515-.008.32,0,.406.093.4.4-.022.732-.017,1.465,0,2.2.006.273-.069.374-.356.366-.692-.018-1.386.008-2.079-.013-.287-.008-.351.086-.349.36.01,2.184,0,4.368.014,6.556,0,.325-.072.43-.412.424q-1.679-.034-3.358,0c-.329.006-.427-.08-.424-.417.015-2.1,0-4.209.015-6.316,0-.32-.064-.442-.411-.429-.705.028-1.412-.006-2.117.015-.289.009-.356-.087-.35-.361.017-.811.018-1.625,0-2.437-.007-.289.09-.35.361-.348C323.981,90.9,325.5,90.9,327.019,90.9Z" transform="translate(-300.816 -90.778)" fill="#265f9a"/>
    </g>
  </g>
</svg>
