<svg xmlns="http://www.w3.org/2000/svg" width="132.515" height="42.834" viewBox="0 0 132.515 42.834">
  <g id="Group_953" data-name="Group 953" transform="translate(-149.451 -139.608)">
    <path id="Path_840" data-name="Path 840" d="M179.929,157.272l-6.609-9.548-5.617-8.116v6.823a13.5,13.5,0,0,0,2.417,7.689l4.527,6.541a9.739,9.739,0,0,1,.576,10.321,10.1,10.1,0,0,1-8.739,5.341q-.184,0-.369,0t-.369,0a10.105,10.105,0,0,1-8.74-5.341,9.74,9.74,0,0,1,.576-10.321l4.528-6.541a13.5,13.5,0,0,0,2.417-7.689v-6.823l-5.617,8.116-6.608,9.547c-7.267,10.5.166,24.8,13.261,25.163q.275.008.553.008t.569-.008C179.771,182.059,187.192,167.766,179.929,157.272Z" transform="translate(0)" fill="#34206d"/>
    <g id="Group_951" data-name="Group 951" transform="translate(189.345 139.626)">
      <g id="Group_949" data-name="Group 949" transform="translate(0 0)">
        <path id="Path_841" data-name="Path 841" d="M238.736,180.238q-3.005-3.048-3-8.574a14.291,14.291,0,0,1,1.14-5.746,9.769,9.769,0,0,1,3.509-4.254,10.083,10.083,0,0,1,5.833-1.622,10.2,10.2,0,0,1,5.614,1.513,9.79,9.79,0,0,1,3.6,4.035,12.415,12.415,0,0,1,1.228,5.5,1.916,1.916,0,0,1-2.017,1.974H239.767a7.205,7.205,0,0,0,2.281,4.78,7.854,7.854,0,0,0,5.395,1.711,13.158,13.158,0,0,0,3.224-.351,13.336,13.336,0,0,0,2.7-1.009,1.827,1.827,0,0,1,2.018.307,1.594,1.594,0,0,1,.526,1.228,1.9,1.9,0,0,1-1.14,1.623,13.7,13.7,0,0,1-7.675,1.93Q241.74,183.286,238.736,180.238Zm13.969-10.416a7.027,7.027,0,0,0-1.118-3.6,6.041,6.041,0,0,0-2.434-2.127,6.691,6.691,0,0,0-5.877,0,5.888,5.888,0,0,0-2.412,2.127,7.156,7.156,0,0,0-1.1,3.6Z" transform="translate(-235.732 -152.248)" fill="#040505"/>
        <path id="Path_842" data-name="Path 842" d="M292.932,169.923a1.763,1.763,0,0,1-.571-1.333V141.562a1.832,1.832,0,0,1,.571-1.354,1.919,1.919,0,0,1,1.4-.562,2.021,2.021,0,0,1,1.447.542,1.815,1.815,0,0,1,.57,1.374V168.59a1.734,1.734,0,0,1-.592,1.333,2.038,2.038,0,0,1-1.425.541A1.959,1.959,0,0,1,292.932,169.923Z" transform="translate(-267.056 -139.646)" fill="#040505"/>
        <path id="Path_843" data-name="Path 843" d="M316.55,182.751a1.906,1.906,0,0,1-.57-1.4V162.532a1.981,1.981,0,0,1,.57-1.425,1.872,1.872,0,0,1,1.4-.592,1.951,1.951,0,0,1,2.017,2.017v18.816a1.87,1.87,0,0,1-.592,1.4,1.981,1.981,0,0,1-1.425.57A1.908,1.908,0,0,1,316.55,182.751Z" transform="translate(-280.121 -152.503)" fill="#040505"/>
        <path id="Path_844" data-name="Path 844" d="M337.4,182.774a2.082,2.082,0,0,1-.5-1.469,1.975,1.975,0,0,1,.439-1.228l6.8-8.026-6.8-8.289a2.035,2.035,0,0,1-.482-1.272,1.887,1.887,0,0,1,.57-1.425,1.947,1.947,0,0,1,1.4-.548,1.805,1.805,0,0,1,1.579.746l6.14,7.588,6.1-7.588a1.761,1.761,0,0,1,1.535-.746,2,2,0,0,1,1.447.548,1.787,1.787,0,0,1,.571,1.338,1.979,1.979,0,0,1-.439,1.228l-6.93,8.158,6.842,8.245a1.818,1.818,0,0,1,.483,1.272,2.072,2.072,0,0,1-.527,1.425,1.891,1.891,0,0,1-1.491.592,1.8,1.8,0,0,1-1.535-.789l-6.228-7.456-5.877,7.368a2.042,2.042,0,0,1-1.711.877A1.782,1.782,0,0,1,337.4,182.774Z" transform="translate(-291.979 -152.503)" fill="#040505"/>
        <path id="Path_845" data-name="Path 845" d="M391.485,182.751a1.9,1.9,0,0,1-.57-1.4V162.532a1.979,1.979,0,0,1,.57-1.425,1.87,1.87,0,0,1,1.4-.592,1.951,1.951,0,0,1,2.018,2.017v18.816a1.87,1.87,0,0,1-.592,1.4,1.982,1.982,0,0,1-1.425.57A1.906,1.906,0,0,1,391.485,182.751Z" transform="translate(-321.571 -152.503)" fill="#040505"/>
        <path id="Path_846" data-name="Path 846" d="M415.1,182.5a1.9,1.9,0,0,1-.571-1.4V162.277a1.98,1.98,0,0,1,.571-1.425,1.87,1.87,0,0,1,1.4-.592,2.022,2.022,0,0,1,2.018,2.017v1.886q3.069-4.122,6.886-4.123h.22a1.838,1.838,0,0,1,1.381.57,1.949,1.949,0,0,1,.548,1.4,1.768,1.768,0,0,1-.57,1.36,2.054,2.054,0,0,1-1.448.526h-.219a7.483,7.483,0,0,0-3.859,1.031,8.892,8.892,0,0,0-2.938,2.829v13.333a1.87,1.87,0,0,1-.592,1.4,1.982,1.982,0,0,1-1.426.57A1.906,1.906,0,0,1,415.1,182.5Z" transform="translate(-334.938 -152.248)" fill="#040505"/>
      </g>
      <g id="Group_950" data-name="Group 950" transform="translate(0 36.322)">
        <path id="Path_847" data-name="Path 847" d="M235.849,228.133a.394.394,0,0,1-.117-.289v-5.488a.41.41,0,0,1,.117-.294.386.386,0,0,1,.289-.122h1.818a3.2,3.2,0,0,1,1.75.456,2.946,2.946,0,0,1,1.081,1.18,3.372,3.372,0,0,1,0,3.038,2.946,2.946,0,0,1-1.081,1.18,3.2,3.2,0,0,1-1.75.456h-1.818A.394.394,0,0,1,235.849,228.133Zm2.008-.651a2.7,2.7,0,0,0,1.3-.3,2.159,2.159,0,0,0,.868-.841,2.668,2.668,0,0,0,0-2.487,2.162,2.162,0,0,0-.868-.841,2.7,2.7,0,0,0-1.3-.3h-1.3v4.774Z" transform="translate(-235.732 -221.848)" fill="#040505"/>
        <path id="Path_848" data-name="Path 848" d="M257.966,228.125a.394.394,0,0,1-.117-.289v-5.579a.409.409,0,0,1,.117-.294.387.387,0,0,1,.289-.123.418.418,0,0,1,.416.416v5.579a.386.386,0,0,1-.122.289.409.409,0,0,1-.294.117A.394.394,0,0,1,257.966,228.125Z" transform="translate(-247.623 -221.795)" fill="#040505"/>
        <path id="Path_849" data-name="Path 849" d="M270.047,228.125a.4.4,0,0,1-.113-.289.5.5,0,0,1,.045-.181l2.305-5.444a.7.7,0,0,1,.2-.267.5.5,0,0,1,.321-.1h.09a.5.5,0,0,1,.321.1.7.7,0,0,1,.2.267l2.306,5.444a.5.5,0,0,1,.045.181.4.4,0,0,1-.113.289.391.391,0,0,1-.294.117.41.41,0,0,1-.23-.068.426.426,0,0,1-.159-.185l-.588-1.41h-3.074l-.588,1.41a.428.428,0,0,1-.158.185.412.412,0,0,1-.231.068A.389.389,0,0,1,270.047,228.125Zm1.587-2.3h2.441l-1.221-2.939Z" transform="translate(-254.662 -221.795)" fill="#040505"/>
        <path id="Path_850" data-name="Path 850" d="M293.3,227.824a2.851,2.851,0,0,1-1.121-1.149,3.465,3.465,0,0,1-.4-1.677,3.421,3.421,0,0,1,.416-1.7,2.949,2.949,0,0,1,1.135-1.148,3.181,3.181,0,0,1,1.6-.407,4.015,4.015,0,0,1,1.235.172,4.556,4.556,0,0,1,1.017.479.318.318,0,0,1,.126.127.379.379,0,0,1,.054.2.363.363,0,0,1-.38.371.423.423,0,0,1-.19-.045,3.738,3.738,0,0,0-.85-.38,3.21,3.21,0,0,0-.922-.127,2.626,2.626,0,0,0-1.239.289,2.081,2.081,0,0,0-.864.845,2.915,2.915,0,0,0-.018,2.586,2.16,2.16,0,0,0,.85.877,2.585,2.585,0,0,0,1.315.321,3.257,3.257,0,0,0,1.583-.4v-1.636h-1.492a.371.371,0,1,1,0-.741h1.781a.431.431,0,0,1,.434.434v2.052a.619.619,0,0,1-.095.339.592.592,0,0,1-.249.221,4.582,4.582,0,0,1-2.071.506A3.289,3.289,0,0,1,293.3,227.824Z" transform="translate(-266.749 -221.743)" fill="#040505"/>
        <path id="Path_851" data-name="Path 851" d="M314.951,228.125a.393.393,0,0,1-.118-.289v-5.4a.581.581,0,0,1,.172-.42.56.56,0,0,1,.416-.177h.117a.612.612,0,0,1,.5.271l3.481,5.027v-4.883a.409.409,0,0,1,.117-.294.387.387,0,0,1,.289-.123.418.418,0,0,1,.416.416v5.4a.557.557,0,0,1-.177.416.581.581,0,0,1-.42.172h-.109a.564.564,0,0,1-.271-.068.618.618,0,0,1-.208-.176l-3.5-5.054v4.891a.386.386,0,0,1-.122.289.409.409,0,0,1-.294.117A.394.394,0,0,1,314.951,228.125Z" transform="translate(-279.507 -221.795)" fill="#040505"/>
        <path id="Path_852" data-name="Path 852" d="M338.656,227.819a2.844,2.844,0,0,1-1.1-1.148,3.679,3.679,0,0,1,0-3.364,2.848,2.848,0,0,1,1.1-1.149,3.529,3.529,0,0,1,3.323,0,2.882,2.882,0,0,1,1.1,1.153,3.624,3.624,0,0,1,0,3.355,2.876,2.876,0,0,1-1.1,1.153,3.525,3.525,0,0,1-3.323,0Zm2.921-.678a2.135,2.135,0,0,0,.814-.886,3,3,0,0,0,0-2.532,2.137,2.137,0,0,0-.814-.886,2.6,2.6,0,0,0-2.518,0,2.142,2.142,0,0,0-.809.886,3,3,0,0,0,0,2.532,2.139,2.139,0,0,0,.809.886,2.595,2.595,0,0,0,2.518,0Z" transform="translate(-291.87 -221.743)" fill="#040505"/>
        <path id="Path_853" data-name="Path 853" d="M360.631,227.8a.41.41,0,0,1-.181-.149.386.386,0,0,1,.032-.488.347.347,0,0,1,.267-.113.418.418,0,0,1,.172.036,4.321,4.321,0,0,0,1.781.371q1.583,0,1.582-1.04a.58.58,0,0,0-.2-.452,1.5,1.5,0,0,0-.5-.285q-.3-.1-.85-.249a10.845,10.845,0,0,1-1.185-.366,2.068,2.068,0,0,1-.777-.529,1.331,1.331,0,0,1-.326-.94,1.69,1.69,0,0,1,.271-.936,1.866,1.866,0,0,1,.8-.669,2.962,2.962,0,0,1,1.27-.249,5.15,5.15,0,0,1,1.8.3.352.352,0,0,1,.253.362.4.4,0,0,1-.1.262.328.328,0,0,1-.263.117.42.42,0,0,1-.145-.036,4.407,4.407,0,0,0-1.456-.245,2.218,2.218,0,0,0-1.162.271.846.846,0,0,0-.448.76.7.7,0,0,0,.213.529,1.461,1.461,0,0,0,.533.316,8.432,8.432,0,0,0,.873.24,9.046,9.046,0,0,1,1.153.344,1.892,1.892,0,0,1,.75.533,1.445,1.445,0,0,1,.312.977,1.518,1.518,0,0,1-.289.909,1.9,1.9,0,0,1-.814.628,3.038,3.038,0,0,1-1.212.226A5.362,5.362,0,0,1,360.631,227.8Z" transform="translate(-304.695 -221.743)" fill="#040505"/>
        <path id="Path_854" data-name="Path 854" d="M380.731,228.178a.393.393,0,0,1-.118-.289v-5.181h-1.844a.371.371,0,0,1-.38-.38.384.384,0,0,1,.108-.276.361.361,0,0,1,.271-.113h4.5a.386.386,0,0,1,.389.388.361.361,0,0,1-.113.271.385.385,0,0,1-.276.109h-1.835v5.181a.386.386,0,0,1-.122.289.409.409,0,0,1-.294.117A.393.393,0,0,1,380.731,228.178Z" transform="translate(-314.674 -221.848)" fill="#040505"/>
        <path id="Path_855" data-name="Path 855" d="M399.489,228.125a.393.393,0,0,1-.118-.289v-5.579a.408.408,0,0,1,.118-.294.386.386,0,0,1,.289-.123.418.418,0,0,1,.416.416v5.579a.386.386,0,0,1-.122.289.409.409,0,0,1-.294.117A.393.393,0,0,1,399.489,228.125Z" transform="translate(-326.164 -221.795)" fill="#040505"/>
        <path id="Path_856" data-name="Path 856" d="M413.1,227.842a2.833,2.833,0,0,1-1.13-1.13,3.811,3.811,0,0,1,0-3.445,2.833,2.833,0,0,1,1.13-1.13,3.322,3.322,0,0,1,1.623-.393,3.826,3.826,0,0,1,1.1.145,4.659,4.659,0,0,1,.963.416.364.364,0,0,1,.2.344.336.336,0,0,1-.1.24.345.345,0,0,1-.262.1.361.361,0,0,1-.163-.036,4.159,4.159,0,0,0-.777-.316,3.2,3.2,0,0,0-.878-.109,2.574,2.574,0,0,0-1.325.321,2.062,2.062,0,0,0-.823.877,3.025,3.025,0,0,0,0,2.523,2.061,2.061,0,0,0,.823.877,2.574,2.574,0,0,0,1.325.321,3.216,3.216,0,0,0,.878-.108,4.162,4.162,0,0,0,.777-.317.361.361,0,0,1,.163-.036.354.354,0,0,1,.262.1.331.331,0,0,1,.1.244.365.365,0,0,1-.2.344,4.708,4.708,0,0,1-.963.416,3.842,3.842,0,0,1-1.1.145A3.327,3.327,0,0,1,413.1,227.842Z" transform="translate(-333.337 -221.743)" fill="#040505"/>
        <path id="Path_857" data-name="Path 857" d="M432.751,227.8a.413.413,0,0,1-.181-.149.386.386,0,0,1,.032-.488.347.347,0,0,1,.267-.113.418.418,0,0,1,.172.036,4.323,4.323,0,0,0,1.782.371q1.582,0,1.582-1.04a.581.581,0,0,0-.2-.452,1.486,1.486,0,0,0-.5-.285q-.3-.1-.85-.249a10.8,10.8,0,0,1-1.184-.366,2.07,2.07,0,0,1-.778-.529,1.333,1.333,0,0,1-.326-.94,1.69,1.69,0,0,1,.271-.936,1.872,1.872,0,0,1,.8-.669,2.964,2.964,0,0,1,1.271-.249,5.145,5.145,0,0,1,1.8.3.353.353,0,0,1,.253.362.4.4,0,0,1-.1.262.328.328,0,0,1-.262.117.415.415,0,0,1-.145-.036,4.41,4.41,0,0,0-1.456-.245,2.219,2.219,0,0,0-1.162.271.846.846,0,0,0-.448.76.7.7,0,0,0,.213.529,1.459,1.459,0,0,0,.534.316,8.381,8.381,0,0,0,.873.24,9.048,9.048,0,0,1,1.153.344,1.888,1.888,0,0,1,.75.533,1.445,1.445,0,0,1,.312.977,1.518,1.518,0,0,1-.289.909,1.9,1.9,0,0,1-.814.628,3.038,3.038,0,0,1-1.211.226A5.362,5.362,0,0,1,432.751,227.8Z" transform="translate(-344.597 -221.743)" fill="#040505"/>
      </g>
    </g>
    <g id="Group_952" data-name="Group 952" transform="translate(223.021 140.284)">
      <path id="Path_858" data-name="Path 858" d="M315.879,145.06a2.152,2.152,0,0,1-.658-1.579v-.175a2.247,2.247,0,0,1,2.237-2.237h.263a2.246,2.246,0,0,1,2.237,2.237v.175a2.246,2.246,0,0,1-2.237,2.237h-.263A2.153,2.153,0,0,1,315.879,145.06Z" transform="translate(-315.221 -141.069)" fill="#e0bb08"/>
      <path id="Path_859" data-name="Path 859" d="M390.814,145.06a2.152,2.152,0,0,1-.658-1.579v-.175a2.246,2.246,0,0,1,2.237-2.237h.263a2.246,2.246,0,0,1,2.237,2.237v.175a2.246,2.246,0,0,1-2.237,2.237h-.263A2.152,2.152,0,0,1,390.814,145.06Z" transform="translate(-355.508 -141.069)" fill="#e0bb08"/>
    </g>
  </g>
</svg>
