<svg id="Layer_1" data-name="Layer 1" xmlns="http://www.w3.org/2000/svg" viewBox="0 0 27.37 18" height="18" width="27.16"><defs><style>.cls-1{fill:#359846;}.cls-2{fill:#ea8634;}.cls-3{fill:#fff;}.cls-4{fill:#7d7dbc;}.cls-5{fill:#6060b2;}</style></defs><title>NVArtboard 2</title><path class="cls-1" d="M.53,11.94v3.44a2.44,2.44,0,0,0,2.54,2.44H24.29a2.44,2.44,0,0,0,2.54-2.44V11.94Z"/><path class="cls-2" d="M24.29.18H3.07A2.44,2.44,0,0,0,.53,2.62V6.06h26.3V2.62A2.44,2.44,0,0,0,24.29.18Z"/><rect class="cls-3" x="0.53" y="6.06" width="26.31" height="5.88"/><path class="cls-4" d="M13.69,6.36A2.64,2.64,0,1,0,16.33,9,2.63,2.63,0,0,0,13.69,6.36Zm2.18,2.93c0,.05,0,.13.08.13s0,.25-.08.38c0,0-.13,0-.17,0s0,.13,0,.17-.12.21-.17.33c0,0-.12,0-.16.05a.1.1,0,0,0,0,.16l-.13.13-.92-1L14,9.34l0-.05.38.3,1.22.63-1.09-.84-.42-.17s0,0,0-.08l.42.16,1.34.3-1.3-.42-.46-.09V9l.46,0L16,9l-1.38-.09-.46.05V8.83l.46-.08,1.3-.42-1.34.29-.42.17s0,0,0-.08l.42-.17,1.17-.76-1.22.63-.37.3,0-.05.38-.29.92-1,.13.13a.12.12,0,0,0,0,.16s.13,0,.17,0a1,1,0,0,1,.17.33.13.13,0,0,0-.05.17c.05,0,.09.08.17,0a1.31,1.31,0,0,1,.09.38s-.09.08-.09.13.09.12.13.08v.34C15.91,9.17,15.87,9.21,15.87,9.29Zm-3.65-2a.12.12,0,0,0,.16,0,.24.24,0,0,0,0-.17.86.86,0,0,1,.33-.17s.09.09.17,0,.08-.08,0-.16a1.05,1.05,0,0,1,.38-.09s.08.09.13.09.12-.09.08-.13h.34s0,.13.08.13.13,0,.13-.09.25,0,.37.09c0,0,0,.12,0,.16s.12,0,.16,0,.21.13.34.17a.11.11,0,0,0,0,.17.14.14,0,0,0,.17,0l.12.12-1,.93-.3.37,0,0,.29-.38L14.9,7l-.84,1.13-.16.42c-.05,0-.05,0-.09,0L14,8.12l.29-1.34-.42,1.3-.08.46h-.08l0-.46,0-1.39L13.6,8.08l0,.46h-.08l-.08-.46-.42-1.3.29,1.34.17.42s0,0-.09,0l-.16-.42L12.51,7l.63,1.21.29.38,0,0-.29-.38-1-.92S12.13,7.28,12.22,7.24Zm-.17,3.4-.13-.13a.14.14,0,0,0,0-.17.25.25,0,0,0-.17,0,.85.85,0,0,1-.16-.33c0-.05.08-.09,0-.17s-.08-.09-.17,0a1.36,1.36,0,0,1-.08-.38s.08-.09.08-.13-.08-.12-.12-.08V8.83s.12,0,.12-.08,0-.13-.08-.13,0-.25.08-.38c0,0,.13,0,.17,0s0-.12,0-.17.12-.21.16-.33a.11.11,0,0,0,.17,0c0-.09,0-.13,0-.17l.13-.13.92,1,.38.3,0,0-.38-.3-1.22-.63,1.18.76.42.17s0,0,0,.08l-.42-.17L11.5,8.37l1.3.42.47.08V9l-.47,0L11.38,9l1.38.08.46,0v.09l-.46.08-1.3.42,1.34-.29.42-.17s0,0,0,.08l-.42.17-1.18.76,1.22-.63.38-.3,0,0-.38.3Zm1.47.67s0-.13-.09-.13-.12,0-.12.09-.25,0-.38-.09c0,0,0-.12,0-.17s-.13,0-.17.05-.21-.13-.34-.17a.1.1,0,0,0,0-.17.14.14,0,0,0-.17,0l-.12-.12,1-.93.29-.38,0,.05-.29.37-.63,1.22.76-1.17.16-.42c.05,0,.05,0,.09,0l-.17.42-.29,1.34.42-1.3.08-.46h.08l0,.46.09,1.38.08-1.38,0-.46h.08l.09.46.42,1.3L14,9.8l-.17-.42c.05,0,.05,0,.09,0l.17.42.75,1.17-.63-1.22-.29-.37,0-.05.29.38,1.05.93-.12.12a.14.14,0,0,0-.17,0,.27.27,0,0,0,0,.17,1.08,1.08,0,0,1-.34.17.12.12,0,0,0-.17-.05c-.08.05-.08.09,0,.17a1.24,1.24,0,0,1-.38.09s-.08-.09-.12-.09-.13.09-.09.13h-.33Z"/><polygon class="cls-5" points="14.27 9.5 14.4 9.63 14.4 9.59 14.27 9.5"/><path class="cls-5" d="M13.69,6.36a2.74,2.74,0,0,0-2,.92l.25.21.13-.13.12-.12a.14.14,0,0,0,.17,0,.28.28,0,0,0,0-.17s.13,0,.17-.08l.63,1.21.3.38-.05,0-.29-.38-1.05-.92.88,1,.13.08.25.21h0l.71.59,0,0,.37.29,1.22.63s0,.13-.08.17a.11.11,0,0,0-.17,0,.14.14,0,0,0,0,.17h0l.25.21A2.69,2.69,0,0,0,16.33,9,2.62,2.62,0,0,0,13.69,6.36Zm-.21,2.22-.17-.42L12.55,7a.24.24,0,0,1,.17-.09.12.12,0,0,0,.17,0s.08-.09,0-.17l.17,0,.29,1.34.17.42S13.52,8.58,13.48,8.58Zm.25,0,0-.46-.08-1.39L13.6,8.08l0,.46h-.08l-.08-.46-.42-1.3s.12,0,.16,0,.09.09.13.09.13-.09.08-.13h.34s0,.13.08.13.13,0,.13-.09.13,0,.17,0l-.42,1.3-.09.46Zm.08,0L14,8.16l.29-1.34c.05,0,.13,0,.17,0s0,.13,0,.17.13,0,.17,0,.13,0,.17.08l-.76,1.09-.16.42ZM15.7,9.84s0,.13,0,.17,0,.12-.08.17l-1.13-.8-.42-.17s0,0,0-.08l.42.16,1.34.3s0,.12,0,.17A.21.21,0,0,0,15.7,9.84Zm.29-1v.34s-.12,0-.12.08,0,.13.08.13,0,.12,0,.17l-1.3-.42L14.15,9V9l.46,0L16,8.92l-1.38-.09-.46,0V8.79l.46-.08,1.3-.42s0,.12,0,.16-.08.09-.08.13C15.87,8.79,15.91,8.83,16,8.83Zm-.29-.67a.13.13,0,0,0,.17,0s0,.13,0,.17l-1.34.29-.42.17s0,0,0-.08l.42-.17,1.13-.76a.25.25,0,0,1,.08.17S15.66,8.12,15.7,8.16Zm0-.29-1.22.63-.38.29,0,0,.38-.3.92-1-1.05.93L14,8.71l0-.05.29-.37.63-1.22s.13,0,.17.08a.11.11,0,0,0,0,.17.14.14,0,0,0,.17,0l.12.13.13.12a.14.14,0,0,0,0,.17.27.27,0,0,0,.17,0S15.66,7.78,15.66,7.87Z"/></svg>