<?xml version="1.0" encoding="utf-8"?>
<!-- Generator: Adobe Illustrator 24.2.0, SVG Export Plug-In . SVG Version: 6.00 Build 0)  -->
<svg version="1.1" id="Layer_1" xmlns="http://www.w3.org/2000/svg" xmlns:xlink="http://www.w3.org/1999/xlink" x="0px" y="0px"
	 viewBox="0 0 266.9 31.4" style="enable-background:new 0 0 266.9 31.4;" xml:space="preserve">
<style type="text/css">
	.st0{fill:#878A85;}
	.st1{fill:#0AB3C5;}
</style>
<g>
	<path class="st0" d="M144.7,29h-4.5c-1.2,0-2.3-0.5-3.1-1.3C136.4,27,136,26,136,25v-5.2c0-2.8,2.5-5.1,5.5-5.2h13.9v3.3h-13.8
		c-1.2,0-2.2,0.8-2.2,1.9V25c0,0.2,0.1,0.3,0.2,0.4c0.2,0.2,0.5,0.3,0.8,0.3h4.5V29z"/>
	<path id="Path_380" class="st1" d="M30.8,0v30.8h-7.9V18.1l-6.3,7.4h-2.5l-6.2-7.3v12.7H0V0h2.5l12.9,15.7L28.3,0H30.8z"/>
	<path id="Path_381" class="st1" d="M36.9,0.6h21v7.1H44.8v4.2h9.4v6.6h-9.4v5.3h13.7v7.1H36.9V0.6z"/>
	<path id="Path_382" class="st1" d="M94.9,0.6h7.9v30.3h-7.9V0.6z"/>
	<path id="Path_383" class="st1" d="M128.3,30.8l-11.5-15.1v15.1h-7.9V0.6h7.9v13.7l10-13.7h9.2L125.5,15l12.1,15.9L128.3,30.8z"/>
	<path id="Path_384" class="st1" d="M147.3,21.2c2.8-0.1,5,2.1,5.1,4.9c0,0.1,0,0.2,0,0.2c0,2.8-2.3,5.2-5.2,5.2s-5.2-2.3-5.2-5.2
		c-0.1-2.8,2.1-5.1,4.9-5.1C147,21.2,147.2,21.2,147.3,21.2L147.3,21.2z"/>
	<path id="Path_385" class="st0" d="M206.4,24.7h-14.9l-2.6,6.1h-3.8l13.1-30.8h1.3l13.1,30.8H209L206.4,24.7z M199,6.6l-6,14.9
		h12.1L199,6.6z"/>
	<path id="Path_386" class="st0" d="M237.9,30.8l-9.4-12.7H222v12.7h-3.6V0.6h10.6c5.9,0,9.7,3.7,9.7,8.8c0.1,4-2.5,7.4-6.4,8.4
		l9.6,13.1H237.9z M222,14.9h6.9c3.9,0,6.1-2.2,6.1-5.6s-2.2-5.6-6.1-5.6H222V14.9z"/>
	<path id="Path_387" class="st0" d="M247,0.6h19.4v3.2h-15.9V13h12.1v3.2h-12.1v11.4h16.4v3.2H247V0.6z"/>
	<path id="Path_389" class="st0" d="M170.4,0.1c5,0.2,9.6,2.9,12.1,7.3l-2.8,1.9c-2-3.5-5.5-5.7-9.5-5.9C163.6,3,157.9,8,157.4,14.6
		c0,0.1,0,0.3,0,0.4c-0.6,6.6,4.3,12.4,10.9,13c0.1,0,0.3,0,0.4,0c4,0.3,7.8-1.5,10.2-4.7l2.5,2.3c-3,4-7.9,6.2-12.9,5.7
		c-8.6-0.4-15.2-7.7-14.8-16.2c0-0.1,0-0.2,0-0.3c0.5-8.6,7.8-15.1,16.3-14.7C170.2,0.1,170.3,0.1,170.4,0.1z"/>
	<path id="Rectangle_11" class="st1" d="M182.9,27.1L182.9,27.1c-0.4,0.4-1,0.4-1.4,0.1l-3.8-3.4c-0.4-0.4-0.4-1-0.1-1.4l0,0
		c0.4-0.4,1-0.4,1.4-0.1l3.8,3.4C183.2,26.1,183.3,26.7,182.9,27.1z"/>
	<path id="Rectangle_12" class="st1" d="M184.3,6.5L184.3,6.5c0.3,0.4,0.2,1.1-0.2,1.4l-4.2,2.9c-0.4,0.3-1,0.2-1.3-0.2l0,0
		c-0.3-0.4-0.2-1,0.2-1.3l4.2-2.9C183.4,6,184,6.1,184.3,6.5z"/>
	<path id="Path_388" class="st1" d="M73.9,0.6H63.3v30.3h10.6c9.3,0.1,16.6-6.3,16.5-15.2C90.6,6.5,83.2,0.5,73.9,0.6z M84.4,18.1
		c0,0.6-0.5,1.1-1.1,1.1h-4.9v4.9c0,0.6-0.5,1.1-1.1,1.1c0,0,0,0,0,0H74c-0.6,0-1.1-0.5-1.1-1.1c0,0,0,0,0,0v-4.9H68
		c-0.6,0-1.1-0.5-1.1-1.1c0,0,0,0,0,0v-3.3c0-0.6,0.5-1.1,1.1-1.1c0,0,0,0,0,0h4.9V8.8c0-0.6,0.5-1.1,1.1-1.1h3.3
		c0.6,0,1.1,0.5,1.1,1.1v4.9h4.9c0.6,0,1.1,0.5,1.1,1.1L84.4,18.1z"/>
</g>
</svg>
