<svg xmlns="http://www.w3.org/2000/svg" xmlns:xlink="http://www.w3.org/1999/xlink" width="206" height="102" viewBox="0 0 206 102">
  <defs>
    <clipPath id="clip-niit">
      <rect width="206" height="102"/>
    </clipPath>
  </defs>
  <g id="niit" clip-path="url(#clip-niit)">
    <rect width="206" height="102" fill="#fff"/>
    <g id="niit-2" data-name="niit" transform="translate(56.021 34.381)">
      <path id="Path_168" data-name="Path 168" d="M54.418,49.122c0-1.965.006-3.93-.008-5.894,0-.273.055-.328.328-.328q7.018.016,14.036.008c-.032.118.039.2.079.3q3,7.114,6.014,14.223c.035.085.021.235.192.22.082-2.33.066-4.657.022-6.985a1.418,1.418,0,0,0-.724-1.153,2.8,2.8,0,0,0-1.55-.477c-.37,0-.451-.127-.45-.47.007-1.884-.009-3.774-.016-5.655H85.873q0,2.715-.009,5.432c0,.705,0,.705-.7.781a1.975,1.975,0,0,0-2.05,2.251q-.011,12.3-.018,24.6a6.275,6.275,0,0,1-.079,1.091c-.656,0-1.311.012-1.965.013l-9.094.015a1.78,1.78,0,0,1-.4-.705q-3.089-7.448-6.163-14.9c-.038-.091-.028-.225-.174-.248-.1,2.563-.1,5.119-.04,7.676A1.673,1.673,0,0,0,66.5,70.7a3.277,3.277,0,0,0,1.024.193c.244,0,.353.068.344.337-.025,1.948.032,3.9-.046,5.843-.213.007-.426.018-.638.018H54.418V70.96a7.036,7.036,0,0,0,1.039-.092,2.064,2.064,0,0,0,1.7-1.881q-.007-8.954-.014-17.906a1.7,1.7,0,0,0-1.125-1.7A3.075,3.075,0,0,0,54.418,49.122Z" transform="translate(-54.41 -42.89)" fill="#0e3997"/>
      <path id="Path_169" data-name="Path 169" d="M610.609,42.929q13.944,0,27.89-.009c.313,0,.375.061.374.375q-.014,6.8-.008,13.611a.858.858,0,0,1-.176.036q-3.29,0-6.583.009c-.353,0-.346-.176-.346-.427V51.594a2.383,2.383,0,0,0-.44-1.5.874.874,0,0,0-1.561.118,2.077,2.077,0,0,0-.221,1.058V69.073a1.491,1.491,0,0,0,.769,1.359,3.341,3.341,0,0,0,1.56.456c.219.014.371.036.37.324-.013,1.963.04,3.926-.046,5.888H617.465c-.154-1.881-.042-3.773-.1-5.659-.011-.375.089-.505.461-.5a2.862,2.862,0,0,0,.716-.13,1.789,1.789,0,0,0,1.569-2.014q0-8.769.006-17.537A2.248,2.248,0,0,0,620,50.4a1.008,1.008,0,0,0-.749-.729,1.025,1.025,0,0,0-1.023.47,2.336,2.336,0,0,0-.426,1.461c0,1.646-.028,3.291-.023,4.937,0,.335-.081.441-.43.437q-3.153-.041-6.307-.029c-.37,0-.443-.11-.442-.456Q610.619,49.707,610.609,42.929Z" transform="translate(-545.221 -42.908)" fill="#0e3997"/>
      <path id="Path_170" data-name="Path 170" d="M471.947,43h14.811c.007,1.931,0,3.863.029,5.794,0,.343-.091.442-.428.437a2.954,2.954,0,0,0-.8.145,1.7,1.7,0,0,0-1.472,1.93q0,8.787.012,17.572a1.718,1.718,0,0,0,1.436,1.921,2.929,2.929,0,0,0,.94.162c.243-.008.309.091.31.321,0,1.962.04,3.925-.027,5.886H472.039c-.18-1.715-.059-3.437-.093-5.155-.006-.3-.1-.7.049-.883s.557-.118.849-.175a1.955,1.955,0,0,0,1.829-2.145c-.054-2.433,0-4.87-.007-7.306q0-5.159-.018-10.32a1.685,1.685,0,0,0-1.212-1.781,3.834,3.834,0,0,0-1.242-.264c-.223-.011-.279-.089-.277-.3C471.934,46.892,471.938,44.944,471.947,43Z" transform="translate(-422.835 -42.978)" fill="#0e3997"/>
      <path id="Path_171" data-name="Path 171" d="M333.782,77.174H333.6a.329.329,0,0,0,.046-.118c-.1-1.917-.016-3.837-.051-5.76,0-.243.052-.343.316-.36a3.761,3.761,0,0,0,1.453-.361,1.58,1.58,0,0,0,.982-1.51V51.024a1.712,1.712,0,0,0-1.239-1.722,5.034,5.034,0,0,0-1.207-.235c-.2-.021-.321-.061-.319-.321.016-1.949.015-3.9.02-5.846h14.811a.951.951,0,0,1,.048.493c.008,1.719,0,3.438.026,5.158.006.4-.047.563-.518.588a2.089,2.089,0,0,0-2.258,2.409v17.12a1.881,1.881,0,0,0,1.433,2.017,2.774,2.774,0,0,0,1.024.2c.288-.009.353.1.353.374-.021,1.8-.027,3.591-.029,5.387,0,.174-.085.353.024.525h-.189c-.129-.161-.31-.088-.47-.088q-6.8-.007-13.6,0C334.1,77.085,333.912,77.013,333.782,77.174Z" transform="translate(-300.764 -42.89)" fill="#0e3997"/>
      <path id="Path_172" data-name="Path 172" d="M473,333.755v-.1h14.718v.094Z" transform="translate(-423.795 -299.472)" fill="#7e94c7"/>
      <path id="Path_173" data-name="Path 173" d="M683.719,333.66v.1H669v-.091Z" transform="translate(-596.756 -299.472)" fill="#7e94c7"/>
      <path id="Path_174" data-name="Path 174" d="M335.3,333.685c.13-.161.312-.088.47-.088q6.8-.007,13.6,0c.156,0,.337-.073.47.088Z" transform="translate(-302.282 -299.401)" fill="#7c93c6"/>
      <path id="Path_175" data-name="Path 175" d="M67.892,333.53l.029.111q-6.538,0-13.076-.006c-.118,0-.283.1-.366-.086H67.254C67.471,333.548,67.68,333.537,67.892,333.53Z" transform="translate(-54.472 -299.357)" fill="#7d94c7"/>
      <path id="Path_176" data-name="Path 176" d="M203.72,333.685a.117.117,0,0,1-.013-.076l9.094-.015c.655,0,1.309-.009,1.965-.013l.019.1Z" transform="translate(-186.156 -299.401)" fill="#7e95c7"/>
    </g>
  </g>
</svg>
