<svg xmlns="http://www.w3.org/2000/svg" viewBox="0 0 132.81 58.43">
    <defs>
        <style>
            .cls-1 {
                fill: #f6f6f6;
            }
        </style>
    </defs>
    <g id="Layer_2" data-name="Layer 2">
        <g id="Layer_1-2" data-name="Layer 1">
            <path class="cls-1"
                d="M127.8,54a15.4,15.4,0,0,1-.86-4.4,187.79,187.79,0,0,1-.41-26.09,49.56,49.56,0,0,0-.23-11.09c-.67-3.64-2.37-7.25-5.39-9.4-2.47-1.77-5.56-2.4-8.58-2.72-7.61-.78-16.7.91-19.83,8.87-.09.24-.31.92-.66.83s-.33-.67-.41-.91L91,7.93a11.73,11.73,0,0,0-4.25-5A15.65,15.65,0,0,0,80.58.61,43,43,0,0,0,74,.08c-4.48,0-9.44.25-12.42,4.09a12.64,12.64,0,0,0-.91,1.38,34.6,34.6,0,0,0-2.8,6.92l-2.52,7.88-5,15.74-5,15.74-.56,1.73a20.48,20.48,0,0,1-.4-5V1l8.31,0V.13c-7,.13-13.9-.53-20.82.29a11,11,0,0,0-6,2.32c-2.28,2-3,5.25-3.17,8.28a12.77,12.77,0,0,0-8.58-8A11.56,11.56,0,0,0,2.89,6.12c-4,4.38-3.67,11.72-.08,16.48a11.27,11.27,0,0,0,5.63,4.18,7.25,7.25,0,0,0,6.73-1.2,8.09,8.09,0,0,0,2.55-5.45c.28-3-.66-5.33-2.2-8C14.82,11,14,9.6,14.37,8.27c.45-1.49,2.41-2.1,3.86-1.54a6,6,0,0,1,3,3.37c1.3,3.06,1.34,5.72,1.34,9l.11,38.29h-8.3v.89H52.7v-.89h-5a1.39,1.39,0,0,1-1.5-2.2l4.93-15.77,4.94-15.78c1.17-3.74,2.36-7.48,3.54-11.22l.74-2.34A13.91,13.91,0,0,1,62.19,6a4.67,4.67,0,0,1,3.87-2.09,4.4,4.4,0,0,1,3.08,1.72A8,8,0,0,1,70.57,9,22,22,0,0,1,71,13.13v29.5a20,20,0,0,0,.9,6.15,12.5,12.5,0,0,0,3,5,14.38,14.38,0,0,0,5.64,3.4,27.09,27.09,0,0,0,8.72,1.22H98.6v-.85q-3.51,0-5-3.66A27.64,27.64,0,0,1,92.28,44c0-5.31-.16-10.62-.11-15.93a77.58,77.58,0,0,1,1-13.95c.71-3.72,1.77-10.5,8-9.65a3.37,3.37,0,0,1,2.07,1.11c1.52,1.75,1.72,3.91,1.84,6,.57,9.83-.36,19.7.06,29.54.18,4.29.74,8.85,3.5,12.14s7.15,4.63,11.39,5,8.53-.14,12.78.17l-.06-1a4.72,4.72,0,0,1-4.49-2.59A5.73,5.73,0,0,1,127.8,54Z" />
        </g>
    </g>
</svg>