<svg xmlns="http://www.w3.org/2000/svg" xmlns:xlink="http://www.w3.org/1999/xlink" width="206" height="102" viewBox="0 0 206 102">
  <defs>
    <clipPath id="clip-venesta">
      <rect width="206" height="102"/>
    </clipPath>
  </defs>
  <g id="venesta" clip-path="url(#clip-venesta)">
    <rect width="206" height="102" fill="#fff"/>
    <g id="venesta-2" data-name="venesta" transform="translate(45.001 37.829)">
      <path id="Path_306" data-name="Path 306" d="M343.4,68.192a6.51,6.51,0,0,1-2.3-1.956c-.228-.37-.388-.118-.552.03-2.205,2.011-4.8,2.005-7.438,1.3-2.569-.689-3.958-2.9-3.849-5.791.124-3.306,1.735-5.248,4.978-6.033a17.773,17.773,0,0,1,4.735-.434c.516,0,.64-.136.649-.643.039-2.612-.874-3.37-3.455-2.791a11,11,0,0,0-3.746,1.687c-.44.3-.679.3-.959-.206-.473-.91-1.025-1.756-1.553-2.627-.17-.279-.282-.482.115-.7,3.237-1.82,6.6-3.033,10.386-2.211a4.87,4.87,0,0,1,4.213,5.229c0,2.791-.07,5.578-.112,8.369a3.772,3.772,0,0,0,1.453,3.4c.355.255.261.419.03.7a29.742,29.742,0,0,0-2.236,2.681Zm-3.892-7.4c-.1-2.345.673-2.123-2.236-1.838h-.088c-1.869.273-2.557,1.1-2.478,2.954a2.2,2.2,0,0,0,2.226,2.3,2.375,2.375,0,0,0,2.527-2.357C339.467,61.564,339.495,61.267,339.513,60.8Z" transform="translate(-231.178 -40.88)" fill="#242225"/>
      <path id="Path_307" data-name="Path 307" d="M17.005,43.5c1.671-5.86,3.795-11.4,5.642-17.023.194-.579.428-.792,1.056-.77,1.559.055,3.121.018,4.8.018-.81,2.336-1.592,4.586-2.372,6.84-2.166,6.255-4.341,12.5-6.479,18.764a.889.889,0,0,1-1.068.743,16.486,16.486,0,0,0-2.973,0c-.94.118-1.153-.388-1.389-1.089q-3.033-9.118-6.136-18.221c-.679-2.011-1.3-4.043-2.054-6.03-.3-.792,0-.874.631-.91,1.407-.091,2.815-.212,4.219-.349.446-.042.631.127.755.537,1.711,5.715,3.755,11.32,5.254,17.1C16.908,43.193,16.936,43.278,17.005,43.5Z" transform="translate(-5.91 -25.5)" fill="#222024"/>
      <path id="Path_308" data-name="Path 308" d="M131.66,49.892a12.734,12.734,0,0,1,3.455-1.82,7.313,7.313,0,0,1,3.121-.237c2.587.44,3.989,2.105,4.007,4.853.033,4.686,0,9.373.024,14.059,0,.607-.218.695-.734.679-1.144-.033-2.287-.052-3.428,0-.682.033-.91-.133-.91-.868.039-3.995-.03-7.993.036-11.985.042-2.66-1.3-2.985-3.406-2.011a2.7,2.7,0,0,0-1.784,2.83c.109,3.722.021,7.45.052,11.175,0,.649-.121.91-.834.861-1.165-.079-2.342-.091-3.51-.058-.607,0-.749-.188-.746-.77.024-3.9,0-7.811,0-11.715a18.373,18.373,0,0,0-.413-5c-.094-.337,0-.488.337-.579,1.268-.352,2.536-.713,3.8-1.092.376-.115.482.058.558.361C131.4,48.979,131.523,49.38,131.66,49.892Z" transform="translate(-89.961 -41.032)" fill="#272528"/>
      <path id="Path_309" data-name="Path 309" d="M80.111,59.056c-1.562,0-3.127.036-4.686,0-.646-.021-.74.237-.695.777.24,3.012,2.372,4.55,5.411,3.867a6.943,6.943,0,0,0,2.979-1.41c.47-.391.673-.258.91.194s.537.864.816,1.292c.822,1.259.822,1.259-.47,2.1-3.8,2.469-8.8,2.363-11.951-.252A8.111,8.111,0,0,1,69.837,61.7a14.078,14.078,0,0,1,0-8.511A8.14,8.14,0,0,1,80.9,48.03c2.548,1.019,3.743,3.07,4.247,5.621a27.785,27.785,0,0,1,.358,4.835c0,.491-.164.607-.607.607C83.3,59.044,81.707,59.056,80.111,59.056Zm-2.427-3.7h1.174c1.856,0,2.044-.261,1.517-2.123a2.547,2.547,0,0,0-2.029-2.044,2.624,2.624,0,0,0-2.73.977,4.664,4.664,0,0,0-.813,2.621c-.036.458.1.582.528.57.8-.015,1.583,0,2.363,0Z" transform="translate(-49.988 -40.762)" fill="#242225"/>
      <path id="Path_310" data-name="Path 310" d="M193.789,58.989c-1.592,0-3.185.021-4.777,0-.54,0-.622.152-.567.664.352,3.446,2.73,4.92,6.161,3.77a7.6,7.6,0,0,0,2.351-1.292c.3-.243.461-.243.67.112.446.746.928,1.474,1.423,2.187.228.328.249.519-.112.789a10.725,10.725,0,0,1-9.685,1.966c-3.519-.962-5.378-3.488-6.067-6.913a13.953,13.953,0,0,1,.473-7.547,8.2,8.2,0,0,1,12.74-3.692,8.007,8.007,0,0,1,2.566,5.381,35.111,35.111,0,0,1,.224,3.943c.015.51-.13.658-.643.646C196.974,58.968,195.381,58.989,193.789,58.989Zm-2.366-3.7h1.08c2.02,0,2.123-.112,1.6-2.093a2.518,2.518,0,0,0-2-2.063,2.625,2.625,0,0,0-2.73.934,4.537,4.537,0,0,0-.84,2.509c-.055.522.039.77.643.728C189.924,55.249,190.676,55.288,191.423,55.288Z" transform="translate(-129.195 -40.695)" fill="#242225"/>
      <path id="Path_311" data-name="Path 311" d="M240.793,61.609A16.171,16.171,0,0,0,246.08,63.7a3.739,3.739,0,0,0,2.46-.231,2.032,2.032,0,0,0,1.189-1.872,1.892,1.892,0,0,0-1.213-1.759,14.289,14.289,0,0,0-3.57-.871c-3.267-.652-4.917-2.327-5.047-5.157a5.917,5.917,0,0,1,4.623-6.246,12.9,12.9,0,0,1,9.327,1.213c.322.161.361.3.206.607-.443.883-.874,1.768-1.283,2.669-.2.434-.437.243-.7.112a11.187,11.187,0,0,0-3.482-1.11,3.786,3.786,0,0,0-2.123.258,1.668,1.668,0,0,0-1.053,1.541,1.5,1.5,0,0,0,1.016,1.456,23.718,23.718,0,0,0,3.534,1.019,6.837,6.837,0,0,1,3.943,2.154,6.024,6.024,0,0,1-1.517,8.493,10.319,10.319,0,0,1-8.038,1.344,18.846,18.846,0,0,1-4.817-1.693c-.467-.228-.534-.413-.288-.871C239.8,63.733,240.289,62.674,240.793,61.609Z" transform="translate(-168.373 -40.61)" fill="#232124"/>
      <path id="Path_312" data-name="Path 312" d="M301.12,31.27c0,1.781.021,3.431,0,5.081,0,.537.1.731.682.707,1.171-.052,2.345,0,3.516-.021.446,0,.573.106.479.564a26.479,26.479,0,0,0-.455,2.748c-.055.537-.288.628-.749.607-.931-.027-1.865.033-2.794-.021-.591-.036-.682.185-.679.713.024,2.851,0,5.706.018,8.557,0,2.293.91,3.015,3.118,2.427.713-.191.91,0,1.077.628a7.4,7.4,0,0,0,.752,1.62c.167.3.13.41-.167.528-2.472.989-4.962,1.426-7.492.231a3.761,3.761,0,0,1-2.308-3.57c-.036-6.337-.024-12.673-.052-19.01a.576.576,0,0,1,.516-.655C298.063,32.034,299.543,31.661,301.12,31.27Z" transform="translate(-208.049 -29.541)" fill="#242225"/>
    </g>
  </g>
</svg>
