<svg xmlns="http://www.w3.org/2000/svg" viewBox="0 0 224.04 224.04">
    <g id="Layer_2" data-name="Layer 2">
        <g id="OBJECT">
            <path fill="#FF0000"
                d="M0,112.05q0-40,0-80C0,13,13,0,32,0Q112,0,192,0C211.06,0,224,13,224,32q0,80,0,159.94c0,19.1-12.93,32-32,32.06q-80,0-159.93,0C13,224,0,211.08,0,192Q0,152,0,112.05Zm66.44,0c0,12.83,0,25.66,0,38.49,0,6.43,1.71,7.47,7.6,4.66q39.24-18.66,78.42-37.48c1.9-.91,3.29-2.88,4.91-4.37-1.56-1.53-2.87-3.56-4.73-4.51Q113.32,88.7,73.85,68.79C68.37,66,66.49,67.1,66.47,73.1,66.43,86.09,66.46,99.09,66.45,112.08Z" />
        </g>
    </g>
</svg>