<svg xmlns="http://www.w3.org/2000/svg" viewBox="0 0 2499.42 653.95"><defs><style>.a{fill:#020202;}.b{fill:#020101;}.c{fill:#030303;}.d{fill:#030202;}.e{fill:#a201ff;}</style></defs><path class="a" d="M240.65,641.75A16.58,16.58,0,0,0,239.3,643c-24.39,30.11-56.51,39.74-93.91,35.48a109.55,109.55,0,0,1-31.28-8c-28.17-12.15-43.33-33.85-46.42-64a111.18,111.18,0,0,1,1.64-35.59c4.84-21.82,16.94-38.51,35.75-50.42,16.12-10.2,34-15.43,52.62-18.66,23.86-4.14,48-3.65,72-3.63,8.71,0,8.7,0,8.71-8.7,0-6.63,0-13.23-1.32-19.79-3.23-15.81-12.07-26.19-28.3-29.4-9.89-1.95-19.84-2-29.52.86-14.47,4.27-23,14.14-25.73,29-1,5.21-.93,5.27-6,5.27q-33.14,0-66.27,0c-1.49,0-3.1.44-4.81-.88,2.79-27.09,13.47-50.23,35.33-67.54,15-11.89,32.36-18.76,51-22.27,31.53-5.94,62.88-5.35,93.56,4.63,25.8,8.39,45.32,24.28,55.78,50a103.28,103.28,0,0,1,7.05,32.17c.25,3.75.24,7.51.25,11.26q0,91.76,0,183.5c0,7.92,1.05,7.19-6.91,7.2q-32.14,0-64.28,0c-.67,0-1.33,0-2,0-4.75-.14-4.82-.14-4.86-4.7-.07-6.84,0-13.69,0-20.53C241.34,646.24,241.75,644.26,240.65,641.75ZM209.4,551.67c-9.05,0-20.92,0-32.65,2.76-19.77,4.65-31.45,15.08-30,39,.9,14.61,8.53,25,22.73,28.94,17.81,4.95,34.53,1.7,50-8,10.21-6.42,16.56-15.83,18.31-27.83,1.56-10.71.39-21.56.63-32.35.07-2.73-1.93-2.45-3.66-2.45C227.25,551.66,219.75,551.67,209.4,551.67Z" transform="translate(-66.99 -25.63)"/><path class="b" d="M2566.41,585.47c-10.78,41.46-35.33,69.7-74.83,84.52-24.23,9.08-49.42,10.83-75,8.59A145.66,145.66,0,0,1,2369.92,667c-35.47-15.72-57.21-43.16-67.63-80-7.06-25-7.76-50.49-5.89-76.15,1.31-17.92,5-35.36,12.2-51.92,19.66-45.36,54.41-70.93,103.07-77.85a158.18,158.18,0,0,1,67.55,4.59c42.3,12.45,68.76,40.49,80.13,82.91a154.4,154.4,0,0,1,5.25,35.94c.35,13.68.07,27.37.31,41.06.06,3.48-.95,4.68-4.45,4.53-5.74-.24-11.49-.06-17.23-.06H2385.54c-8.54-.06-7.28.05-6.63,7,1.08,11.5,3.37,22.68,8.17,33.23,8.76,19.24,23.76,29.54,44.85,30.92a74.93,74.93,0,0,0,20.43-1.12c18-3.76,30.67-14,37.53-31,1.18-2.93,2.43-4.06,5.61-4,22.52.13,45.05.07,67.58.09C2563.94,585.09,2564.8,585.28,2566.41,585.47Zm-81.11-89.11c-.46-10.65-1.91-20.43-5.49-29.79-3.72-9.71-9.46-17.93-18.58-23.36-19.28-11.48-47-9.67-63.69,7-12.69,12.67-17.58,28.8-20.65,46.12Z" transform="translate(-66.99 -25.63)"/><path class="b" d="M1232.75,585.34c-8.43,40.72-31.91,67.9-69.32,83.19-25.26,10.31-51.76,12.39-78.71,10.1a147,147,0,0,1-44.26-10.43c-36.79-15.32-59.5-43-70.28-80.88-7.23-25.4-7.91-51.36-5.87-77.47,1.64-21.1,6.64-41.35,16.38-60.23,19.06-37,49.39-59.11,90-67.13A159,159,0,0,1,1148,386c42.06,12.59,68.06,40.77,79.23,82.93a164.29,164.29,0,0,1,5.36,40.57c.12,12.15,0,24.29.15,36.43,0,3.21-1,4.46-4.16,4.12a44.68,44.68,0,0,0-4.63,0H1054.29c-1.32,0-2.65,0-4,0-6,.07-6,.06-5.36,5.76,1.15,11,3,21.84,7.34,32.12,8.66,20.73,24,32.09,46.63,33.32a74.44,74.44,0,0,0,20.41-1.31c17.41-3.89,29.85-13.77,36.54-30.37,1.36-3.36,2.87-4.63,6.62-4.59,21.86.2,43.73.09,65.6.11C1229.4,585.08,1230.7,585.22,1232.75,585.34Zm-186.49-88.73h30.11q35.79,0,71.58,0c5.19,0,5.31-.08,4.89-5a94.27,94.27,0,0,0-4.6-23.3c-3.55-10.06-9-18.72-18.2-24.5-21.31-13.46-54.86-10.59-71,14.36C1051.54,469.74,1047.94,482.53,1046.26,496.61Z" transform="translate(-66.99 -25.63)"/><path class="a" d="M1363.83,427c.49-.71,1-1.41,1.47-2.16,14.52-24.09,36.34-37.35,63.56-42.05,18.74-3.24,37.46-2.68,55.53,4,23.9,8.79,38.51,26.41,46.33,50.13a129.75,129.75,0,0,1,6.28,40.4c.21,63.81.15,127.62.16,191.44,0,4.61-.12,4.68-5.52,4.69q-35.13,0-70.25,0c-5.37,0-5.44-.07-5.45-5.44q0-49,0-98,0-36.1,0-72.2c0-7.5-.17-15-1.79-22.39-3.84-17.46-13.7-26.74-31.23-29.59a58.5,58.5,0,0,0-24.3,1c-19.85,5.13-31,18.4-34.74,38.22a86.54,86.54,0,0,0-1.25,16.48q.06,81.81,0,163.62a29.2,29.2,0,0,0,0,4c.5,3.64-1.27,4.4-4.57,4.39q-36.11-.15-72.23,0c-3.68,0-4.7-1.36-4.3-4.67a32.85,32.85,0,0,0,0-4q0-135.14,0-270.27c0-8.16-1.22-7.44,7.35-7.45q34.13,0,68.26,0c5.35,0,5.4.07,5.41,5.41,0,11.4,0,22.8,0,34.19Z" transform="translate(-66.99 -25.63)"/><path class="c" d="M1962.94,633.14c-1.19,1.67-1.74,2.33-2.17,3.06-16.21,26.9-40.7,40.16-71.36,42.86-14.18,1.25-28.27.14-41.9-4.3-29.22-9.53-46.34-30.22-54-59.32a125.74,125.74,0,0,1-4.09-32.09q0-95.39,0-190.76c0-5.4.06-5.48,5.37-5.48q34.79,0,69.58,0c6.61,0,6.09-.39,6.09,6.06V533.58q0,18.54,0,37.09a81.33,81.33,0,0,0,2.4,19.66c4.1,16.3,14.11,25.46,30.71,27.67a57.76,57.76,0,0,0,23.64-1.56c19.44-5.58,32.57-21.69,34.47-42.44.4-4.39.44-8.82.45-13.23q0-83.13,0-166.26c0-7.88-1.1-7.41,7.48-7.42h66.26c1.33,0,2.66.06,4,0,2.43-.12,3.78.75,3.59,3.4-.1,1.32,0,2.65,0,4q0,135.78,0,271.57c0,7.9,1,7.36-7.53,7.37q-33.46,0-66.93,0c-5,0-5.11-.08-5.13-5,0-9.27,0-18.54,0-27.81C1963.75,638.42,1964.08,636.25,1962.94,633.14Z" transform="translate(-66.99 -25.63)"/><path class="b" d="M855,567h72.75c-1,37.13-19.84,85.39-74.41,104.24-22.94,7.92-46.57,9.52-70.58,7.19a140.08,140.08,0,0,1-48.24-13.15c-33.48-16.3-53.81-43.36-63.95-78.6-7.49-26.05-8.11-52.66-5.81-79.43A155.24,155.24,0,0,1,678.27,455c18.23-39.46,49-63.46,91.28-72.3,28.15-5.89,56.27-4.49,83.6,5,38.44,13.34,61.69,40.36,70.59,79.87a158.69,158.69,0,0,1,2.57,15.66c.5,4.16.29,4.28-4.14,4.29-17.23,0-34.46,0-51.69,0-5.31,0-10.61-.13-15.91.05-3.14.11-4.81-.62-5.24-4.17a49,49,0,0,0-3.78-12.64c-9.47-23-28.71-31.59-51.82-28.06-16.91,2.58-28.92,12.38-37.07,27.11-6.74,12.17-9.93,25.42-11,39.18-1.66,21.19-1.77,42.34,3.07,63.22a75.63,75.63,0,0,0,8.35,21.5c9,15.27,22.57,23.1,40,24.52,31,2.53,50-17.13,56.31-44C854,571.89,854.47,569.52,855,567Z" transform="translate(-66.99 -25.63)"/><path class="b" d="M555.32,566.89h72.81c.38,8.13-1.31,15.84-3.07,23.44-10.75,46.5-44.27,78-91.41,86.27-26,4.55-52,4.17-77.42-3.17-44.1-12.73-72-41.9-85.12-85.57-4.71-15.73-6.74-31.89-7.09-48.31-.46-21.72.6-43.27,7-64.22,15.94-52.4,50.71-84.24,104.79-93.68,27.35-4.77,54.62-2.69,80.85,7.25,37.09,14.06,59.08,41.1,67.51,79.52,1.08,4.95,1.61,10,2.53,15,.59,3.19-.48,4.59-3.78,4.16a21.29,21.29,0,0,0-2.65,0H556.63c-5.87,0-5.8-.05-7.3-5.53a101.55,101.55,0,0,0-3.4-10.7c-9.2-23.16-28.49-32.19-52.1-28.58-15.07,2.31-26.4,10.56-34.64,23.22a80,80,0,0,0-12.08,33.33c-3.32,24.64-3.58,49.29,2,73.72a73.81,73.81,0,0,0,7.58,19.68c9.07,16.2,23.14,24.34,41.41,25.63,30,2.11,47.58-16.61,54.34-39.76C553.58,574.77,554.36,570.88,555.32,566.89Z" transform="translate(-66.99 -25.63)"/><path class="d" d="M1685,301.23c.91,2,.44,4.19.44,6.31q.06,37.08,0,74.16c0,5.31.07,5.37,5.43,5.38,14.79,0,29.59,0,44.38,0,5,0,5.07.09,5.08,5.08q.06,24.82,0,49.66c0,4.49-.09,4.56-4.81,4.57-14.79,0-29.59,0-44.38,0-5.6,0-5.69.06-5.69,5.19q0,65.22,0,130.45a46.81,46.81,0,0,0,1.78,14.4c3,9.25,9.14,14.87,18.71,16.61,10.41,1.9,20.66.67,30.79-2,1.48-.38,2.87-1.1,4.44-.94.81,1,.61,2.09.61,3.17,0,17.88,0,35.76,0,53.64,0,3.09-.1,5.19-4.05,6.09-26.89,6.12-53.75,7.24-80.55-.12-29.27-8-45.52-27.88-50.93-57.24a160.19,160.19,0,0,1-2.18-29q0-66.54,0-133.1c0-8.17.41-7.15-7-7.18s-15-.14-22.52.06c-3.25.09-4.1-1-4.07-4.18.13-17,.17-34,0-51,0-3.79,1.6-4.33,4.73-4.28,8.17.13,16.35-.1,24.51.11,3.47.09,4.51-1.05,4.47-4.5-.16-14.34-.07-28.69-.06-43,0-5.73,0-5.74,5.46-8q35.71-14.79,71.45-29.54C1682.26,301.61,1683.41,300.76,1685,301.23Z" transform="translate(-66.99 -25.63)"/><path class="e" d="M1665.18,154.09l-89-33.92c-16.68-6.36-33.35-12.74-50.07-19-3-1.11-4.63-2.46-4.6-6.08.18-22.51.1-45,.12-67.54a9.72,9.72,0,0,1,.37-1.86c2.68-.36,4.77,1.1,7,2q115.38,46.29,230.71,92.7c10.07,4.06,8.22,1.68,8.3,12.09.12,15.45.08,30.9,0,46.35,0,5.84,1.25,5.29-5.44,8q-98.5,39.56-197,79.16-20.25,8.15-40.53,16.2c-.79.32-1.61.54-2.83.94-1-2-.6-4-.61-5.85q0-31.78,0-63.57c0-7.41-.35-6.08,5.83-8.39q64.76-24.12,129.58-48C1659.31,156.41,1661.53,155.51,1665.18,154.09Z" transform="translate(-66.99 -25.63)"/><path class="a" d="M2185.18,437.29c1.43-2.62,2.85-5.24,4.29-7.85,14.76-26.72,37.26-41.69,67.72-44.55,3.74-.35,7.48-.59,11.22-.89,2-.16,2.84.79,2.83,2.69,0,1.11,0,2.21,0,3.32q0,33.76,0,67.55c0,5.66-.06,5.67-5.73,5.78-13.06.27-26,1.56-38.58,5.21-28,8.14-42.36,26.51-42.71,55.61-.32,25.83-.1,51.66-.1,77.49q0,34.11,0,68.22c0,5-.09,5.1-5.09,5.11-23.85,0-47.71-.05-71.56.09-3.43,0-4.93-.93-4.53-4.44a32.82,32.82,0,0,0,0-4q0-135.76,0-271.54c0-9.28-1.16-8,8.12-8,21.64-.06,43.29,0,64.93,0,1.33,0,2.66.11,4,0,3.12-.31,4.28.85,4.2,4.11-.2,8.61-.07,17.22-.07,25.83v20.11Z" transform="translate(-66.99 -25.63)"/></svg>