<svg xmlns="http://www.w3.org/2000/svg" viewBox="0 0 1313.43 376.81"><defs><style>.a{fill:#32a2da;}.b{fill:#020202;}.c{fill:#030303;}.d{fill:#31a1da;}.e{fill:#34a3db;}.f{fill:#35a3db;}.g{fill:#36a4db;}.h{fill:#3aa5dc;}</style></defs><path class="a" d="M223.4,11.59c7.88,1.65,15.81,3.09,23.62,5C306.6,31.07,354.08,82.78,363.5,143.32c10.85,69.74-20.92,134.41-83.39,167.45-38.09,20.15-78.31,23-119.66,11-2.74-.79-3.48-1.61-2.4-4.45,3-7.76,5.72-15.61,8.32-23.49,1-3.16,2.31-4,5.73-2.95,64.35,19.46,133.79-17.2,154.35-81.38C349.91,136.29,304.07,59.78,228,47,155,34.75,93.31,85.89,83.24,150.8c-4,26-.26,50.64,10.94,74.33,1.48,3.15,2.89,3.68,6,2.28,8.48-3.84,17.08-7.43,25.66-11,1.61-.67,3.09-1.92,5.62-1.56l-11.91,34.87Q113,268.8,106.47,287.9c-.63,1.84-.77,4-3.82,2.56q-35-16.36-70.1-32.6c-.43-.19-.82-.46-1.76-1,11-4.68,21.13-9.15,31.42-13.36,3-1.22,3.56-2.29,2.13-5.42-28.14-61.92-17.43-128.73,29.41-178,26.14-27.5,58.7-43.14,96.52-47.51,1.09-.13,2.4.34,3.14-1Z" transform="translate(-30.79 -11.59)"/><path class="b" d="M101.42,388.41c-8.72-5-8.72-5-5-15.2,3.41-9.35,6.76-18.73,10.19-28.07.71-1.93,1.13-3.69.18-5.74-1.32-2.86.22-5.52,1.14-8.16q26-75.27,52-150.53c2.71-7.84,5.34-15.71,8.23-23.48a7,7,0,0,0-.86-7.23c-11.73-17.55-8.61-45.58,6.47-59.78a24.31,24.31,0,0,1,11.73-6.35c0,7.43,0,14.36,0,21.29a22.07,22.07,0,0,1-2.06,9.66c-4.21,9-3.31,17.73,3.21,25.11,6.8,7.7,15.92,9.31,25.6,6.8,9.39-2.44,15-8.65,16.77-18.34a19.06,19.06,0,0,0-1.72-11.63c-4.63-10.09-2.44-20.61-1.7-31,.19-2.7,2.26-1.12,3.35-.63,7.34,3.32,12.36,9.11,15.51,16.24,7.48,16.93,8.31,33.77-2.35,49.87-1.42,2.15-.67,3.66,0,5.52,11.35,32.94,22.58,65.91,34.11,98.79,1.56,4.47.68,6.77-3.19,9.2-5.64,3.55-11.42,6.76-17.29,9.88-3.6,1.91-4.88,1.15-6.17-2.59-11.22-32.63-22.69-65.18-33.92-97.81-1-3-2.25-4.31-5.51-4.09-4.77.32-10.68-1.49-14,.73-3.11,2.06-3.57,8.19-5.09,12.57q-27.6,79.71-55.16,159.44c-1.17,3.38-1.79,6.93-6.89,4.69-2.58-1.14-2.87,1.63-3.57,3.08-6,12.56-12,25.16-18,37.75Z" transform="translate(-30.79 -11.59)"/><path class="c" d="M1344.21,83.56c-5.56,12-9.3,24.64-13.88,37-7.27,19.59-14.23,39.29-21.28,59-.72,2-1.55,3.12-4.11,3.17-11.56.26-11.55.37-14.83-10.73-5.12-17.31-10.24-34.62-15.47-52.28-1.93,1.1-1.8,2.94-2.21,4.31-5.46,18.28-10.89,36.56-16.12,54.91-.84,3-2.09,3.8-5.09,3.78-11.2-.09-11.2,0-15-10.46Q1221,130.1,1205.79,88c-1.9-5.26-1.9-5.26,3.9-5.26,4.84,0,9.7.37,14.49-.11,4.46-.45,5.92,1.52,7,5.41,5.28,18.16,10.84,36.23,16.31,54.35,1.69-.61,1.48-2.08,1.81-3.3,4.64-17.14,9.38-34.26,13.87-51.44.92-3.5,2.09-5.45,6.21-5,4.6.51,10.28-1.26,13.63.88s3,8.36,4.24,12.8c4.19,15.17,8.28,30.37,12.58,46.17,1.71-1.65,1.88-3.4,2.36-5,5.16-17,10.4-33.95,15.41-51,.86-2.93,2.07-4,5.14-3.87,7.14.19,14.28,0,21.42-.08Z" transform="translate(-30.79 -11.59)"/><path class="c" d="M302.39,388.41c-.61-5.63-4.27-10-6.42-15-3.48-8.05-7.56-15.85-11.18-23.85-1-2.23-1.51-3.85-4.5-2.3-2.49,1.29-4.2.33-5.1-2.66-1.6-5.38-6-11.28-4.8-15.75,1.14-4.17,9.08-4.79,13.73-7.55a19.72,19.72,0,0,1,3.1-1.59c3.18-1.18,6.24-5.21,9-3.91,2.15,1,2.57,5.73,3.71,8.82s2.22,5.9,3.13,8.91c.62,2,2.37,4.12-.36,6.21-1.17.9-.05,2.47.37,3.7,3.68,10.82,7.5,21.6,11,32.49,2.76,8.57,2.59,8.64-6.24,11.4-.65.2-1.28.22-1.41,1Z" transform="translate(-30.79 -11.59)"/><path class="d" d="M863.86,216.73H406.54c-5.61,0-8.21-3.95-6.09-9.1.51-1.22,1.39-1.23,2.37-1.25,1.33,0,2.67,0,4,0h913.64c6.49,0,7.94,1.92,6.51,8.32-.31,1.41-.94,2-2.3,2l-4.5,0Z" transform="translate(-30.79 -11.59)"/><path class="b" d="M424.44,93.56c6.88-7.66,14.53-11.57,23.47-13,22.28-3.51,41.63,6.83,51.8,27.7,11.32,23.23,4.47,54.17-15.5,68.94-18.23,13.49-47.25,11.94-59.6-5.07a5,5,0,0,0-1.12-.82c-.95,1-.75,2.26-.82,3.39-.57,8.49-.57,8.53-9.36,8.47-4.13,0-9.66,1.35-12-.76-2.78-2.47-.87-8.12-.88-12.38-.07-38.61,0-77.23-.13-115.85,0-3.66.74-4.93,4.59-4.65a126.74,126.74,0,0,0,15.47,0c3.18-.16,4.24.66,4.18,4-.21,12.14-.08,24.3-.08,36.45Zm28.17,69c16.43,0,28.5-12.43,28.58-29.42.09-17.17-12-29.64-28.75-29.69s-30,12.27-30,28.11C422.35,149.19,435.42,162.6,452.61,162.59Z" transform="translate(-30.79 -11.59)"/><path class="b" d="M641,94.38c1-1.34.56-2.69.57-3.94.12-8.72.1-8.82,9-8.67,4.25.07,9.71-1.88,12.43.89,2.51,2.56.71,7.94.72,12.08.06,27.65,0,55.3.11,83,0,3.77-.71,5.33-4.83,5a122.87,122.87,0,0,0-14.49,0c-2.5.09-3.63-.49-3.39-3.25s.06-5.61.06-8.67c-.63.15-1.17.11-1.42.37-13.15,13.61-29.07,17.87-47,12.42s-29.18-18.5-33.21-36.59c-5.21-23.3.44-43.51,20-58.73,16.14-12.56,44.8-14.24,60.28,5.38A5.74,5.74,0,0,0,641,94.38Zm-30.11,68.21c17.28,0,29.33-12.15,29.34-29.63,0-17.06-11.89-29.41-28.42-29.48-17.55-.08-30.3,12.54-30.34,30C581.47,150.39,593.78,162.57,610.92,162.59Z" transform="translate(-30.79 -11.59)"/><path class="c" d="M1172.24,170c-13.75,13.94-29.4,19-47.43,13.76-19-5.49-30.26-18.95-34.41-37.84-5.84-26.63,5.29-51.11,27.52-62.21,16.6-8.28,39.62-7,53.06,9.88a17.61,17.61,0,0,0,1.76,1.45c0-3.83.13-6.91,0-10-.14-2.61.78-3.49,3.42-3.39,5,.18,10,.23,15,0,3.1-.15,3.94.83,3.91,3.91-.14,17-.07,34-.07,51,0,14-.09,28,.08,42,0,3.26-.8,4.37-4.15,4.16a106,106,0,0,0-14.48,0c-3.72.28-4.57-1.13-4.2-4.47A81.19,81.19,0,0,0,1172.24,170Zm-29.1-66.51c-17.76-.18-30.57,12.43-30.69,30.24-.11,16.22,12.57,28.77,29.19,28.87,17.18.1,29.45-11.86,29.6-28.84C1171.4,116.23,1159.72,103.65,1143.14,103.48Z" transform="translate(-30.79 -11.59)"/><path class="b" d="M821.37,135.9c0,14.92-.21,28.35.12,41.77.11,4.35-1.24,5.27-5.24,5a154.85,154.85,0,0,0-16,0c-2.47.08-3-.78-3-3.11q.09-63.43,0-126.86c0-2.38.65-3.15,3.07-3.08,5.49.17,11,.31,16.48,0,3.73-.24,4.69.82,4.66,4.59-.19,23.81-.1,47.62-.1,71.42v4.31c3.33-4.76,6-8.56,8.65-12.41,7.11-10.43,14.26-20.85,21.23-31.38,1.64-2.47,3.38-3.54,6.42-3.44,7.78.23,15.56.07,23.63.07-.23,2.31-1.66,3.54-2.67,4.93-10,13.68-20,27.4-30.17,40.92-2,2.62-2,4.11.08,6.61,12.89,15.43,25.6,31,39.07,47.4-9,0-17.18-.35-25.34.13-5.1.3-8.1-1.53-10.95-5.58C841.85,163.67,832,150.48,821.37,135.9Z" transform="translate(-30.79 -11.59)"/><path class="c" d="M766.44,115.84a48.84,48.84,0,0,0-5,0c-4.87.5-8.27-.93-11.88-4.88-11.82-12.93-35.54-9.23-43.89,6.78-5.8,11.11-5.45,22.69,1.86,33.1,7.17,10.23,17.64,13.66,29.82,11.67,6.12-1,11.38-3.78,14.9-9.09a4.61,4.61,0,0,1,4.38-2.49c6.66.15,13.33.18,20,0,3.56-.09,3.32,1.28,2.21,3.84-7.63,17.55-21.66,27.35-39.79,30.52-28,4.89-55.58-14.28-60.59-41C672.84,114.5,690.21,87.57,719.32,81c24.19-5.46,51.14,8.27,60,30.42,1.35,3.36,1.25,4.83-2.9,4.48C773.12,115.62,769.77,115.84,766.44,115.84Z" transform="translate(-30.79 -11.59)"/><path class="c" d="M906.92,151.52c2.09,0,3.43.11,4.75,0,4.78-.46,8.28-.13,10.63,5.61,2.64,6.48,13.39,7.39,18.58,2.57,4.56-4.24,2.94-12.18-3.48-15.36a103.48,103.48,0,0,0-12.56-4.72,57.55,57.55,0,0,1-11-4.7c-9.53-5.65-15.42-13.52-15.09-25.13s6.07-20.1,16.23-25.6c20.49-11.09,46.06.35,49.67,22.07.53,3.15.3,4.61-3.39,4.3a108.86,108.86,0,0,0-11-.05c-4.51.08-8.73.78-11.54-4.68-1.88-3.64-6.53-3.54-10.41-2.29-3.46,1.11-4.87,3.93-5,7.3-.13,4.17,2.8,6.34,6.16,7.6,5.44,2,11.06,3.55,16.55,5.46,12.24,4.28,21,11.91,21.83,25.61s-5,24.12-16.78,31.2c-18.68,11.27-43.39,4.87-52.6-13.63-2.33-4.69-4.81-10.37-2.67-14.7C897.21,149.64,903.58,152,906.92,151.52Z" transform="translate(-30.79 -11.59)"/><path class="c" d="M1008.57,144c0,11.65-.15,23.3.09,34.94.08,3.66-1.21,4.48-4.55,4.31a111.61,111.61,0,0,0-15,0c-4.29.36-4.8-1.5-4.78-5.13.14-23,0-45.92.16-68.88,0-3.79-.77-5.14-4.8-4.92-6.6.36-6.62.08-6.62-6.37,0-3.83.2-7.67-.06-11.48-.21-3.08.8-3.94,3.89-3.89,7.5.09,7.51-.08,7.51-7.45s.12-14.65-.07-22c-.07-2.81.71-3.77,3.6-3.65,5.48.22,11,.24,16.47,0,3.17-.14,4.32.66,4.22,4.06-.26,8.48,0,17-.14,25.46,0,2.76.67,3.77,3.58,3.71,3.6-.06,8.5-1.69,10.45.73,1.82,2.26.69,7,.71,10.59,0,10.29,0,10.49-10.16,10.26-3.84-.09-4.69,1-4.62,4.71C1008.73,120.74,1008.57,132.39,1008.57,144Z" transform="translate(-30.79 -11.59)"/><path d="M518.86,116c0-20.46.08-40.92-.07-61.38,0-3.65.55-5.38,4.77-5a139.29,139.29,0,0,0,16,0c2.65-.09,3.37.8,3.37,3.38q-.1,63.12,0,126.24c0,2.44-.43,3.55-3.24,3.44a159.91,159.91,0,0,0-17,0c-3.7.24-3.88-1.46-3.87-4.33C518.9,157.55,518.86,136.76,518.86,116Z" transform="translate(-30.79 -11.59)"/><path class="b" d="M1057.28,91.27c5.51-7.12,11.77-11,19.9-11.52,2.67-.18,4,.26,3.84,3.36-.22,5.82-.13,11.65,0,17.47,0,2.08-.62,2.72-2.77,3-13.75,1.89-18.84,7.72-18.88,21.46-.06,17.81-.09,35.62.05,53.43,0,3.09-.54,4.39-4,4.19-5.48-.33-11-.21-16.48,0-2.62.09-3.75-.33-3.74-3.4q.18-46.44,0-92.87c0-2.71.54-3.92,3.52-3.7,3.48.26,7,.06,10.49.06C1056.66,82.72,1056.66,82.72,1057.28,91.27Z" transform="translate(-30.79 -11.59)"/><path class="e" d="M597.07,298c2.95-8.23,5.53-15.35,8.06-22.5,3-8.45,6.06-16.89,8.87-25.4.82-2.48,2-3.33,4.59-3.4,13-.39,13-.46,13,12.41,0,16.65-.12,33.29.09,49.93.05,3.83-1.16,4.77-4.81,4.68-7.59-.2-7.59,0-7.59-7.73v-39.7c-1.59.55-1.65,1.88-2,3-4.61,13.52-9.46,27-13.68,40.59-1.39,4.51-4.25,3.6-7.28,3.82s-5-.38-6.16-3.95c-4.34-13.61-9.12-27.08-13.74-40.6a7.53,7.53,0,0,0-2-3.37c0,14.24-.16,28.49.1,42.72.07,4.12-1,5.48-5.2,5.25-8.34-.44-7.17.9-7.2-7.16-.06-18.31.1-36.62-.11-54.92,0-4,1.23-5,5.08-5,12,.14,11.94,0,15.91,11.38C587.5,271,592.1,283.88,597.07,298Z" transform="translate(-30.79 -11.59)"/><path class="f" d="M1241,313.59c-4.54,1.49-6.4-1.57-8.12-6-4.33-11.15-4.57-10.44-16.37-11.29-8.75-.63-13.78,1.66-16.31,10.49-1.92,6.7-7.4,8.69-14.34,6.74-3.11-.87-.8-2.7-.37-3.77,5.87-14.48,11.86-28.91,17.83-43.35,2.22-5.37,4.68-10.66,6.65-16.12,1-2.86,2.54-3.83,5.48-3.65s5.51-.23,7.08,3.65c7.68,18.95,15.75,37.74,23.7,56.58C1249.1,313.61,1249.12,313.59,1241,313.59Zm-24.55-49c-1.51,4.3-2.57,7.38-3.67,10.45-3.52,9.78-3.52,9.78,6.84,9.44.33,0,.66,0,1,0,1.87.08,2.8-.33,2-2.55C1220.61,276.65,1218.8,271.25,1216.48,264.63Z" transform="translate(-30.79 -11.59)"/><path class="g" d="M686.38,279.76c0-9.5.2-19-.1-28.48-.12-3.89,1.21-4.85,4.84-4.63,6.64.39,13.31-.31,20,.68,7.85,1.17,13.87,5,16.73,12.48,3,7.89,1.56,15.41-3.85,22-4.57,5.58-11,6.47-17.59,6.64-7.27.19-7.27.19-7.27,7.61,0,4.33-.18,8.67.06,13,.19,3.35-.69,4.69-4.36,4.64-8.41-.12-8.41.08-8.41-8.45Zm12.71-12.47c0,9.17,0,9.17,5.54,9.17,8.12,0,11.78-2.72,11.8-8.74,0-5.83-4.22-8.57-12.49-9C695.49,258.39,700.65,264.78,699.09,267.29Z" transform="translate(-30.79 -11.59)"/><path class="f" d="M404.35,294.8c4.34-.81,6.89-.39,8.32,3.82,1.29,3.81,5.27,4.21,8.92,3.8a7.49,7.49,0,0,0,6.78-5.77c1-3.71.61-7.32-2.79-9.91-3.67-2.8-8.16-3.61-12.38-5.09a19,19,0,0,1-11.66-24.6c2.76-7.46,11.36-12.88,19.38-12.21,8.48.72,16.53,7.27,18.2,14.8.65,2.92.38,4.86-3.48,4.52-4.05-.35-8.44,1.2-10.53-4.56-1.05-2.87-4.65-2.71-7.57-2.28-3.19.48-4.36,2.95-5,5.57-.65,2.83.63,5.21,2.91,6.95,3.11,2.36,6.86,3.28,10.45,4.58,10.74,3.91,16.31,12,15.43,22.28-.84,9.77-10.3,18.18-20.91,18.57-10,.37-20.43-7.63-21.89-16.9C397.52,291.65,403,295.77,404.35,294.8Z" transform="translate(-30.79 -11.59)"/><path class="f" d="M1012.15,246.73c4.29,0,7.74.07,11.18,0,2.61-.07,3.21,1.82,4.08,3.66,4.08,8.66,8.23,17.3,12.86,27,4-8.3,7.55-15.67,11-23.08,3.59-7.63,6.8-9.21,15.09-7.58,3.34.65,1.38,2.32.76,3.53-5.34,10.32-10.35,20.85-16.29,30.82-3.65,6.13-4.27,12.37-4,19.07.1,2.32,0,4.65,0,7,0,6.48,0,6.1-6.33,6.6-5.33.43-7-1.4-6.36-6.52,1.66-12.53-1.62-23.72-8.4-34.39C1020.71,264.75,1016.89,255.89,1012.15,246.73Z" transform="translate(-30.79 -11.59)"/><path class="e" d="M932,280.21c0-9.83.09-19.65,0-29.47-.05-3,.75-4.15,3.9-4.08q13,.27,26,0c3.19-.06,4.43.86,4.33,4.23-.3,9.65,1,8-8.26,8.21-1.17,0-2.33,0-3.5,0-10.14,0-9.92,0-10.2,10.24-.11,4.16,1,5.69,5.22,5.18a66.52,66.52,0,0,1,8-.06c7.78,0,9.35,2.18,7.72,10.08-.46,2.25-1.87,2-3.31,2a123.63,123.63,0,0,1-12.48-.07c-4.37-.42-5.34,1.33-5.12,5.34.33,6-.08,12,.15,18,.12,3.14-1,4-4,3.89-10.27-.28-8.22,1-8.36-8C931.93,297.19,932,288.7,932,280.21Z" transform="translate(-30.79 -11.59)"/><path class="e" d="M216.47,84.29c0,6.81.09,13.63-1,20.39-.9,5.4-3.9,8.32-9.22,8.81s-9.78-2.15-11.45-6.86c-2-5.81-1.63-11.83-1.11-17.78.79-9.09,2.47-18.08,1.16-27.3-.47-3.26,2.15-5.59,4.84-6.92,3.36-1.66,7.1-1.9,10.42.23a11.76,11.76,0,0,1,5.43,8.54C216.58,70.34,216.42,77.32,216.47,84.29Z" transform="translate(-30.79 -11.59)"/><path class="h" d="M780.65,280.41c0-9.65.14-19.3-.08-29-.08-3.68,1-5.36,4.77-4.77a8.34,8.34,0,0,0,1,0c8.13.11,6.93-.92,7,6.79.07,14.64.12,29.28,0,43.92,0,3.31,1,4.34,4.21,4.15,4.31-.26,8.65.08,13-.11,2.85-.14,3.76.88,3.7,3.7-.2,10.46.81,8.27-7.92,8.43-7,.13-14-.21-21,.12-3.9.18-4.77-1.23-4.68-4.84C780.8,299.38,780.65,289.89,780.65,280.41Z" transform="translate(-30.79 -11.59)"/><path class="h" d="M876.25,280.64c0,9.49-.14,19,.07,28.47.07,3.37-.72,4.71-4.37,4.57-10.18-.38-8.35,1.18-8.41-8.46-.11-17.65.1-35.3-.12-53-.06-4.28.91-5.92,5.49-5.67,8.63.47,7.24-.94,7.32,7.56C876.31,263,876.25,271.81,876.25,280.64Z" transform="translate(-30.79 -11.59)"/><path class="h" d="M1311.3,280.39c0,9.66-.11,19.32.06,29,.05,3.11-.65,4.42-4.09,4.31-10.58-.37-8.61,1.25-8.68-8.7-.12-17.66.08-35.31-.11-53,0-4,.93-6,5.23-5.35a15.67,15.67,0,0,0,4,0c2.91-.32,3.69,1,3.65,3.74C1311.22,260.41,1311.3,270.4,1311.3,280.39Z" transform="translate(-30.79 -11.59)"/><path class="a" d="M505.6,280.42c0,9.65-.11,19.29.06,28.93,0,3.13-.71,4.42-4.12,4.3-10.21-.34-8.14,1.12-8.21-8-.13-17.78.08-35.57-.13-53.35-.05-4.14.64-5.94,5.34-5.66,8.13.5,7-.75,7,7.39C505.64,262.8,505.6,271.62,505.6,280.42Z" transform="translate(-30.79 -11.59)"/></svg>