<svg xmlns="http://www.w3.org/2000/svg" viewBox="0 0 727.15 606.47"><defs><style>.a{fill:#265f9a;}.b{fill:#26609a;}.c{fill:#1c1b1b;}.d{fill:#27609a;}.e{fill:#27619b;}</style></defs><path class="a" d="M560,620.35c-6.74,6.69-13.6,12.2-22,15.36-26.69,10.08-66.84-.29-79.08-36.52-9-26.65-6.28-52.08,12.39-74.16,12-14.23,28.18-20,46.69-19.54,15.81.36,29,6.55,40.58,17.68,1.29-3.78.56-7.37.57-10.86,0-2.56.72-3.46,3.38-3.45q26.73.15,53.48,0c2.78,0,3.26,1.06,3.26,3.52-.1,38,.28,76-.34,113.93-.25,15-3.67,29.64-13.08,42.25-11.32,15.16-27.11,22.47-45,25.23a178.64,178.64,0,0,1-100.12-12.95c-4.18-1.81-5.51-3.41-2.92-7.94C463,664,467.51,654.66,472,645.38c1.44-3,2.57-3.2,5.5-1.77,16.7,8.16,34.16,12.39,53,11.67C551,654.5,562.63,637.77,560,620.35Zm-23.22-25c14.37-.1,24.08-9.52,23.9-23.17-.18-13.19-10.21-22.39-24.3-22.27s-24.05,9.71-24,23.23C512.46,586.27,522.57,595.48,536.74,595.38Z" transform="translate(-56.04 -89.5)"/><path class="a" d="M379.21,635.86c-8.09,7.95-15.71,14.75-25.78,18.17-20,6.76-46.35-.95-60.18-16.78-25.75-29.45-25.12-84,.57-112.84,20.91-23.45,58.17-25.95,81.41-3.56l4,3.81V508.58c0-10.33.05-20.66,0-31a6.75,6.75,0,0,1,2-5.33q27.93-27.92,55.75-55.95a14,14,0,0,1,1.53-1.18c1.33,1.42.71,3,.71,4.36q.06,114.21.12,228.43c0,4-.79,5.36-5.09,5.29q-25-.42-50,0c-4.31.07-5.47-1.24-5.08-5.29C379.49,644.29,379.21,640.6,379.21,635.86Zm1.25-54.79c0-15.11-10.29-26.23-24.18-26.12-13.67.11-23.94,11.25-23.93,26,0,14.89,10.6,26.29,24.32,26.15S380.46,595.91,380.46,581.07Z" transform="translate(-56.04 -89.5)"/><path class="b" d="M213.94,595H172.46c-4.87,0-5.18.61-2.75,5,7.68,13.74,26.57,18.43,41,10.15a48.1,48.1,0,0,0,11.2-8.3c1.71-1.81,2.91-2,4.95-.38,8.9,7.27,17.84,14.49,27,21.46,2.77,2.11,2,3.52.28,5.53-7.93,9.27-17.33,17-28.59,21.31-29,11.09-57.62,9.73-84.14-7.3-16.86-10.83-26-27.41-28.94-47.07-3.76-25.53,1.66-48.73,19.7-68,11.49-12.27,26-19.18,42.5-21.14,19.29-2.27,37.88.12,54.65,11C247,528.8,255.42,546,259.17,566a117,117,0,0,1,1.61,24.88c-.09,3.07-1,4.23-4.35,4.18C242.27,594.9,228.1,595,213.94,595Zm-27.73-26.4c5.49,0,11-.1,16.47,0,3.07.07,3.66-1,3-3.91a27.85,27.85,0,0,0-6.33-12.27c-4.56-5.08-13.42-6.93-19.81-4.32C174,550.4,167,561,167.19,566.5c.08,2.42,1.61,2.1,3.05,2.11C175.56,568.64,180.89,568.62,186.21,568.62Z" transform="translate(-56.04 -89.5)"/><path class="b" d="M689.92,595c3.77,9.34,9.48,15.68,19,18.08,13.45,3.41,24.63-1.23,34.23-10.28,3-2.81,4.66-2.74,7.66-.2,8,6.76,16.2,13.34,24.63,19.57,3.51,2.59,2.94,4.36.48,7-12.94,14-28.31,23.64-47.49,26.13-17.91,2.32-35.46,1.33-52.34-6.12-24.83-11-38.31-30.42-41.56-56.74-2.76-22.43,1.84-43.35,16.65-61.33a67.8,67.8,0,0,1,38.45-23.5c18.33-4.12,36.42-3,53.68,5,22,10.13,33.1,28.4,37.86,51.31,1.84,8.85,2.09,17.81,2.06,26.82,0,3.62-1.34,4.35-4.67,4.34-27.48-.12-55-.07-82.44-.07Zm18.63-26.4c5.49,0,11-.11,16.47,0,2.74.08,3.71-1,3.06-3.52-1.59-6.27-4.12-12.07-10-15.48s-12.07-3.94-18-.44c-6.49,3.84-9.09,10.37-10.56,17.36-.5,2.41,1.68,2,3.05,2C697.91,568.65,703.23,568.62,708.55,568.62Z" transform="translate(-56.04 -89.5)"/><path class="c" d="M663,463.84a136.12,136.12,0,0,1-65.6-16.72c-6.68-3.6-6.61-3.72-2.84-10,4.94-8.28,10-16.53,14.79-24.88,1.39-2.41,2.22-3.15,5.15-1.48A104.85,104.85,0,0,0,662.37,425a32.16,32.16,0,0,0,6.93-.63c2.22-.38,3.77-1.27,4.1-3.63s-1.08-3.71-3-4.71a49.47,49.47,0,0,0-11.26-4c-11.76-3-23.51-6-34.72-10.87-17-7.29-27.25-19.35-27.1-38.58.17-20.09,9.17-34.71,27.67-43s37.93-7.78,57.43-5a128.12,128.12,0,0,1,38.36,12.2c3.26,1.59,4.31,3,2.25,6.66-5.28,9.24-10.24,18.67-15,28.17-1.52,3-2.8,2.95-5.57,1.61-12.66-6.11-25.76-10.9-40-11.24-3.94-.1-9.59-1.71-10.47,3.78-.8,5,4.87,5.62,8.44,6.77,10.44,3.37,21.28,5.39,31.59,9.22,3,1.1,5.95,2.15,8.84,3.41,23,10,32.07,29.91,24.81,54-6,19.79-21.06,28.56-39.78,32.81C678.35,463.6,670.64,463.54,663,463.84Z" transform="translate(-56.04 -89.5)"/><path class="c" d="M520.67,464a139.18,139.18,0,0,1-59.82-13.91c-3.3-1.57-6.41-3.53-9.62-5.27-2-1.08-2.4-2.24-1.1-4.36Q459,426,467.5,411.33c1.33-2.31,2.36-1.82,4.25-.75,14.69,8.3,30.36,13.45,47.32,14.32a31,31,0,0,0,7.44-.47c2.33-.45,4.22-1.2,4.6-3.77s-1.51-3.83-3.5-4.87A49.15,49.15,0,0,0,516.8,412c-12.73-3.26-25.52-6.39-37.43-12.11C467.05,394,457.9,385.15,455.71,371c-3.33-21.48,4.78-41.49,26.47-51.26,18.7-8.43,38.22-8,57.88-5.22a126.9,126.9,0,0,1,38.37,12.21c3.25,1.59,4.35,3,2.2,6.67-5.17,8.91-9.92,18.09-14.58,27.28-1.61,3.2-2.82,4.15-6.51,2.31-12.44-6.19-25.46-10.76-39.56-11.08-3.93-.09-9.56-1.74-10.46,3.76-.84,5.1,4.89,5.63,8.43,6.77,10.76,3.46,21.93,5.55,32.53,9.55,3.73,1.41,7.5,2.8,11.07,4.55,26.08,12.76,32.39,47.42,12.71,69-10.41,11.4-24,15.73-38.64,17.52C530.67,463.65,525.66,463.72,520.67,464Z" transform="translate(-56.04 -89.5)"/><path class="c" d="M378.94,378.89c2-11.18-5.39-20.52-17-22-15.56-2-30.52.48-45.07,5.91-2.86,1.07-4.13,1.25-5-2.42-2.55-10.82-5.53-21.56-8.59-32.26-.89-3.12-.12-4.29,2.9-5.3,29.24-9.68,59-11.95,89.15-5.61,27.22,5.72,42.11,24.78,44,53.19.7,10.47-1.69,18.23-9.78,25.72-18.06,16.75-35,34.72-52.4,52.17-17.22,17.25-48.38,21-68.78,7.58-15.14-9.95-19.49-25.33-17.54-42.4,2.52-22.09,17.81-35.69,41.73-38.53A118.73,118.73,0,0,1,378.94,378.89Zm-12.18,19.85a21.69,21.69,0,0,0-11.45,2.57c-6.28,3.59-9.29,12.3-6.63,19.12s9,9.93,16.66,8.32c8.73-1.83,12.41-8.25,14.25-16.1,2.59-11,1.27-12.77-9.78-13.67Z" transform="translate(-56.04 -89.5)"/><path class="c" d="M133.05,313.1c28.3-.14,49,10.85,63.71,32.89,4.26,6.38,4,6.54-2.47,10.2-11.16,6.3-22.33,12.56-33.45,18.92-2.37,1.36-3.69,2.08-5.73-1.08-6.38-9.89-14.76-13-25.22-10.37-8.13,2.07-14.89,10.87-16,20.91a30.19,30.19,0,0,0,2.46,16.57c7.08,15,23.43,17.83,35.45,6.38,2.37-2.26,3.18-7,6.94-6.64,3,.34,5.83,3,8.72,4.65,10,5.68,19.85,11.54,30,16.94,3.52,1.89,3.39,3.42,1.52,6.4-17.36,27.6-43.15,37.21-74.4,34.76-41.33-3.25-71.67-39.15-68.26-82C58.82,350,82.59,322.91,115,315.18,121.53,313.63,128.17,313.44,133.05,313.1Z" transform="translate(-56.04 -89.5)"/><path class="c" d="M213.85,364c0-30.47.08-60.94-.09-91.4,0-4.1,1-5.33,5.17-5.27,16.81.24,33.63.18,50.45,0,3.36,0,4.58.73,4.57,4.37q-.17,92.16,0,184.31c0,3.51-1,4.48-4.46,4.44-17.15-.17-34.3-.2-51.45,0-3.76.05-4.25-1.35-4.24-4.6C213.9,425.29,213.85,394.66,213.85,364Z" transform="translate(-56.04 -89.5)"/><path class="d" d="M508.68,143.4c-7.57,22.36-15,44.22-22.37,66.09-3.42,10.09-3.43,10.09-14.15,10.08-11.33,0-22.65-.09-34,.07-3.2,0-4.1-.5-2.87-3.82q22.62-61.27,45-122.64c1.06-2.91,2.6-3.67,5.48-3.65,15.49.11,31,.14,46.46,0,3.12,0,4.71.88,5.88,3.87q23.83,60.83,48,121.53c1.45,3.64,1.18,4.83-3.16,4.76-13.48-.25-27-.22-40.46,0-3.58.06-5.19-1.06-6.42-4.45-8.08-22.35-16.41-44.61-24.67-66.9C510.84,146.81,510.64,145.12,508.68,143.4Z" transform="translate(-56.04 -89.5)"/><path class="d" d="M253,143.59c-7.19,21.85-14,42.35-20.69,62.86-4.3,13.12-4.28,13.13-17.9,13.12-10.32,0-20.65-.09-31,.06-3.42,0-3.93-1-2.8-4.08q22.54-61.34,44.92-122.73c.87-2.38,2.11-3.31,4.71-3.29q23.49.16,47,0c2.34,0,3.55.74,4.43,3Q305.89,154.3,330.34,216c1.2,3,.5,3.67-2.54,3.65-13.82-.11-27.65-.18-41.48,0-3.4.06-4.15-1.8-5.09-4.22q-12.86-33-25.78-66C254.86,148,254.2,146.49,253,143.59Z" transform="translate(-56.04 -89.5)"/><path class="e" d="M128.2,89.58c19.15,0,38.3.08,57.44-.08,3.51,0,4.55,1,4.47,4.5-.21,10-.17,20,0,30,.05,3-.86,4.05-4,4-8.65-.19-17.33.21-26-.18-4.65-.2-6.14.84-6.09,5.85.29,27,0,53.94.25,80.91,0,4.29-1.25,5.21-5.3,5.14q-21.23-.39-42.46,0c-4.14.08-4.94-1.34-4.92-5.1.14-26.81,0-53.61.18-80.41,0-4.8-.78-6.75-6.15-6.42-8.46.53-17,0-25.46.22-3.37.09-4.22-1.07-4.16-4.28.18-10,.21-20,0-30-.07-3.33,1-4.24,4.21-4.21C89.57,89.64,108.89,89.58,128.2,89.58Z" transform="translate(-56.04 -89.5)"/><path class="a" d="M383.56,91c18.82,0,37.65.12,56.47-.1,4,0,5.08,1.16,5,5-.27,9.16-.21,18.33,0,27.49.08,3.41-.86,4.68-4.45,4.58-8.66-.23-17.33.1-26-.16-3.59-.1-4.39,1.08-4.37,4.5.13,27.32,0,54.64.17,82,0,4.07-.9,5.38-5.15,5.3q-21-.42-42,0c-4.11.07-5.34-1-5.31-5.21.19-26.32,0-52.64.19-79,0-4-.8-5.53-5.14-5.36-8.82.35-17.66-.07-26.48.19-3.61.11-4.45-1.09-4.38-4.51.21-10.15.23-20.32,0-30.48-.09-3.61,1.12-4.38,4.51-4.35C345.57,91,364.56,91,383.56,91Z" transform="translate(-56.04 -89.5)"/></svg>