<svg xmlns="http://www.w3.org/2000/svg" viewBox="0 0 309.7 89.96"><defs><style>.a{fill:#909392;}.b{fill:#eee;}.c{fill:#616161;}.d{fill:#3359a5;}</style></defs><path class="a" d="M121.45,107.8A12.47,12.47,0,0,1,111,113a14.88,14.88,0,0,1,0-29.75,12.31,12.31,0,0,1,9.79,4.48l-2.52,1.88A9.35,9.35,0,0,0,111,85.89c-7.28,0-11.64,5.72-11.64,12.23s4.36,12.24,11.64,12.24a9.07,9.07,0,0,0,8.11-4.24Z" transform="translate(-27.59 -23.04)"/><path class="a" d="M130.78,109.64H144v2.64H127.9V84h2.88Z" transform="translate(-27.59 -23.04)"/><path class="a" d="M162.33,113a14.88,14.88,0,1,1,14.76-14.88A14.41,14.41,0,0,1,162.33,113Zm0-27.11c-7.27,0-11.63,5.72-11.63,12.23s4.36,12.24,11.63,12.24S174,104.64,174,98.12,169.61,85.89,162.33,85.89Z" transform="translate(-27.59 -23.04)"/><path class="a" d="M204.69,101.72c0,4.72-1.88,11.28-10.36,11.28S184,106.44,184,101.72V84h2.88V101.4c0,8.16,5.32,9,7.47,9s7.48-.8,7.48-9V84h2.88Z" transform="translate(-27.59 -23.04)"/><path class="a" d="M213.1,84h9.4c7.07,0,14.87,4.72,14.87,14.15s-7.8,14.16-14.87,14.16h-9.4ZM216,109.64h5.6c8.63,0,12.67-5.68,12.67-11.52s-4-11.51-12.67-11.51H216Z" transform="translate(-27.59 -23.04)"/><path class="a" d="M247.62,112.28h-2.88V84h2.88Z" transform="translate(-27.59 -23.04)"/><path class="a" d="M269.73,113c-8.44,0-14.75-6.28-14.75-14.88A14.76,14.76,0,1,1,269.73,113Zm0-27.11c-7.27,0-11.63,5.72-11.63,12.23s4.36,12.24,11.63,12.24,11.64-5.72,11.64-12.24S277,85.89,269.73,85.89Z" transform="translate(-27.59 -23.04)"/><path class="a" d="M312.09,101.72c0,4.72-1.88,11.28-10.36,11.28s-10.35-6.56-10.35-11.28V84h2.87V101.4c0,8.16,5.32,9,7.48,9s7.48-.8,7.48-9V84h2.88Z" transform="translate(-27.59 -23.04)"/><path class="a" d="M334.29,88.65a6.2,6.2,0,0,0-5.48-2.76c-3,0-6,1.56-6,5.12,0,7.63,14.52,3.59,14.52,13.79,0,5.16-4.84,8.2-9.32,8.2a10.66,10.66,0,0,1-8.92-4.2l2.6-1.88a7.15,7.15,0,0,0,6.44,3.44c2.84,0,6.08-1.84,6.08-5.16,0-8-14.51-3.56-14.51-13.91,0-5.48,4.55-8,9.15-8a9.77,9.77,0,0,1,8,3.44Z" transform="translate(-27.59 -23.04)"/><path class="b" d="M27.8,60.06s1.73,4.56,2.66,7.69-1.64,6.82-.9,9.28c0,0,.26,11.47,10.64,14,0,0,7.67-.8,9.44,3.15s8.3,7.15,8.3,7.15,8.11,4.2,12.08-.29c0,0,5.1-1.28,5.28-6.46l-.59-5.25L76.9,60Z" transform="translate(-27.59 -23.04)"/><path class="a" d="M59.39,86s-.43-5.43,4.72-6.9,7,.94,7,.94,1.47,2.62,3.14,2.27,1-22.68,1-22.68l50.61.42s-1.72,6.79-5.82,8.49-7,1.55-7.88,3.9-5.07,7.23-8.26,7c0,0-6.12,1.35-9.38-.25,0,0-1.67.33-2.94,3.15s-9.34,3.8-9.34,3.8S80.16,85.4,80.1,89s-4.9,7.77-4.9,7.77l-.45-7s-1.23-.33-1.23.16S65.9,97.72,61,90.9A8.11,8.11,0,0,1,59.39,86Z" transform="translate(-27.59 -23.04)"/><path class="c" d="M76.75,31.49V23.27s7.19-.49,11.24,4.45l.22,3.72s1-3.5,9.64-2.22c0,0,8.72,1.18,12.25,12.49,0,0,.3,2.19,4,1.86,0,0,14,1,11.78,16.47l-18.65.21s-3.42-.91-2.62,2.07c0,0,6.36,5.17,2.46,10.82s-9.81,1.89-10,1.17-4-2.47-1-8.2c0,0,4.29-3.48,2.13-5.63,0,0-.25-.77-3.7-.24L76.9,60l-.15-20V31.49Z" transform="translate(-27.59 -23.04)"/><path class="d" d="M27.8,60.06s-2.28-9.42,8-13.39c0,0,3.49.63,3.23-7.24S49.79,26.87,57,28.88a33.18,33.18,0,0,0,4.81,1.05c.62-.1,1.11-.18,2-1.86s8.73-6.07,13-4.8l.17,9.16a2.43,2.43,0,0,0,2.62-1c1.09-1.48,10.56-6.84,11.75,2s-3.46,9.72-12.47,7c0,0-.93-2.16-1.46-.34S78,59.58,78,59.58L54,59.87a2.56,2.56,0,0,1,1.55-2.29c1.59-.72,4.36-10.43-2.14-12.44s-12.82.15-10.65,9.63c0,0,1.66,3.15,2.69,2.81,0,0,1.07,1.74,0,2.05Z" transform="translate(-27.59 -23.04)"/></svg>