<svg xmlns="http://www.w3.org/2000/svg" xmlns:xlink="http://www.w3.org/1999/xlink" viewBox="0 0 238.3 216.74"><defs><style>.cls-1{fill:none;}.cls-10,.cls-11,.cls-13,.cls-2,.cls-3,.cls-4,.cls-5,.cls-6,.cls-7,.cls-8,.cls-9{isolation:isolate;}.cls-3,.cls-4{font-size:113.57px;}.cls-10,.cls-11,.cls-3,.cls-4,.cls-5,.cls-6,.cls-7,.cls-8,.cls-9{fill:#003853;}.cls-10,.cls-11,.cls-13,.cls-3,.cls-4,.cls-5,.cls-6,.cls-7,.cls-8,.cls-9{font-family:Montserrat-Bold, Montserrat;font-weight:700;}.cls-3{letter-spacing:-0.05em;}.cls-4{letter-spacing:-0.06em;}.cls-10,.cls-11,.cls-5,.cls-6,.cls-7,.cls-8,.cls-9{font-size:17.19px;}.cls-5{letter-spacing:-0.06em;}.cls-6{letter-spacing:-0.06em;}.cls-7{letter-spacing:-0.05em;}.cls-8{letter-spacing:-0.11em;}.cls-9{letter-spacing:-0.05em;}.cls-10{letter-spacing:-0.07em;}.cls-11{letter-spacing:-0.07em;}.cls-12{fill:#8cc63f;}.cls-13{font-size:17.79px;fill:#fff;letter-spacing:-0.05em;}.cls-14{fill:#005270;}.cls-15{clip-path:url(#clip-path);}.cls-16{fill:url(#linear-gradient);}.cls-17{fill:#23bdbf;}.cls-18{opacity:0.27;}.cls-19{clip-path:url(#clip-path-2);}.cls-20{clip-path:url(#clip-path-3);}.cls-21{fill:#25b7c5;}</style><clipPath id="clip-path"><path class="cls-1" d="M227.69,11.26s-2.2,4.56,5.42,12.76-1.55,17.61-1.55,17.61h9.67L245.4,25.9l-4.59-6.19"/></clipPath><linearGradient id="linear-gradient" x1="228.97" y1="13.29" x2="236.27" y2="36.12" gradientUnits="userSpaceOnUse"><stop offset="0" stop-color="#176d80"/><stop offset="0.46" stop-color="#128799"/></linearGradient><clipPath id="clip-path-2"><path class="cls-1" d="M227,25.8c-3-2.82-8.11-7.86-9.49-10.48,0,0-.66,12.06,1.06,15.57,0,0-8.64-.86-12.15-3.31,0,0,8.34,22.89,26.14,12.82a22,22,0,0,0-1.35-8.16A16.22,16.22,0,0,0,227,25.8Z"/></clipPath><clipPath id="clip-path-3"><path class="cls-1" d="M218.19,28.26s10.42,4.34,13.07,9.81c0,0-3.89-5.39-13-7.24s-11.11-7.06-11.11-7.06Z"/></clipPath></defs><g id="Layer_2" data-name="Layer 2"><g id="Layer_1-2" data-name="Layer 1"><g class="cls-2"><text class="cls-3" transform="translate(0 130.71)">C</text><text class="cls-4" transform="translate(77.69 130.71)">W</text><text class="cls-3" transform="translate(202.96 130.71)">I</text></g><g class="cls-2"><text class="cls-5" transform="translate(5.47 157.09)">C</text><text class="cls-6" transform="translate(17.05 157.09)">ali</text><text class="cls-5" transform="translate(35.17 157.09)">f</text><text class="cls-6" transform="translate(40.76 157.09)">o</text><text class="cls-5" transform="translate(51.07 157.09)">r</text><text class="cls-7" transform="translate(57.47 157.09)">nia </text><text class="cls-8" transform="translate(86.21 157.09)">W</text><text class="cls-9" transform="translate(104.31 157.09)">ell</text><text class="cls-7" transform="translate(122.67 157.09)">n</text><text class="cls-5" transform="translate(133.7 157.09)">ess Institu</text><text class="cls-10" transform="translate(215.86 157.09)">t</text><text class="cls-9" transform="translate(222.1 157.09)">e</text></g><g class="cls-2"><text class="cls-6" transform="translate(5.47 212.17)">W</text><text class="cls-9" transform="translate(24.42 212.17)">i</text><text class="cls-7" transform="translate(28.65 212.17)">n</text><text class="cls-5" transform="translate(39.69 212.17)">gs </text><text class="cls-5" transform="translate(62.88 212.17)">f</text><text class="cls-6" transform="translate(68.47 212.17)">or </text><text class="cls-11" transform="translate(89.17 212.17)">y</text><text class="cls-6" transform="translate(98.24 212.17)">our li</text><text class="cls-11" transform="translate(138.26 212.17)">v</text><text class="cls-9" transform="translate(147.34 212.17)">es!</text></g><rect class="cls-12" x="6.14" y="165.52" width="226.26" height="22.56"/><text class="cls-13" transform="translate(10.5 183.22)">INDIA</text><path class="cls-14" d="M232.61,40.37s-4.16-3.89-9.69-3.82-8.26,3.09-15.18,1.91c0,0,3.93,6.48,10.41,7.71S229.83,45.06,232.61,40.37Z"/><path class="cls-14" d="M232.58,40.41c4-2.18,6.38-7.87,5.52-12.12-.81-4-3.76-6.36-6.61-9a14,14,0,0,1-3.06-3.75c-1.15-2.24-1.61-6,1.83-6.12A6.35,6.35,0,0,1,234,10.49a6.53,6.53,0,0,0-7.33-3.66,4.46,4.46,0,0,0-3.54,3.9,10.86,10.86,0,0,0,.71,4.63c2,6.07,4.94,11.75,6.9,17.82a42.08,42.08,0,0,1,1.2,4.4"/><g class="cls-15"><path class="cls-16" d="M232.58,40.41c4-2.18,6.41-7.84,5.55-12.09-.82-4-3.78-6.36-6.65-9a13.66,13.66,0,0,1-3.07-3.75c-1.16-2.24-1.63-6,1.84-6.11A6.38,6.38,0,0,1,234,10.52a6.55,6.55,0,0,0-7.36-3.66,4.45,4.45,0,0,0-3.56,3.9,10.71,10.71,0,0,0,.71,4.63c2,6.07,5,11.75,6.94,17.82a41.42,41.42,0,0,1,1.2,4.4"/></g><path class="cls-14" d="M213.45,31.06a41.79,41.79,0,0,1-1.07-6.46,17,17,0,0,0,7.15,4c3.91.84,7.54,5.49,7.54,5.49S220.66,37.93,213.45,31.06Z"/><path class="cls-17" d="M227,25.8c-3-2.82-8.11-7.86-9.49-10.48,0,0-.66,12.06,1.06,15.57,0,0-8.64-.86-12.15-3.31,0,0,8.34,22.89,26.14,12.82a22,22,0,0,0-1.35-8.16A16.22,16.22,0,0,0,227,25.8Z"/><g class="cls-18"><g class="cls-19"><path class="cls-14" d="M232.61,40.37s-4.16-3.89-9.69-3.82-8.26,3.09-15.18,1.91c0,0,3.93,6.48,10.41,7.71S229.83,45.06,232.61,40.37Z"/></g></g><path class="cls-1" d="M233.63,40.59a8.26,8.26,0,0,0-.3-2,25.68,25.68,0,0,0-1.25-4.8,28,28,0,0,0-4.91-8.63,47.93,47.93,0,0,0-4.86-4.7c-1-.89-3.74-2.71-3.62-4.44a40.43,40.43,0,0,0,0,14.55,27.28,27.28,0,0,1-11.41-2.29S217,51.14,233.63,40.59Z"/><g class="cls-18"><g class="cls-20"><path class="cls-14" d="M226.83,25.61c-3-2.89-8.24-8-9.64-10.72,0,0-.67,12.34,1.08,15.94,0,0-8.78-.89-12.35-3.39,0,0,8.48,23.44,26.56,13.13a22.68,22.68,0,0,0-1.38-8.36A16.63,16.63,0,0,0,226.83,25.61Z"/></g></g><path class="cls-21" d="M226.42,1.26A1.78,1.78,0,0,0,224.12.1,1.81,1.81,0,0,0,223,2.29a1.79,1.79,0,0,0,1.65,1.29.37.37,0,0,1,.32.2L226.14,6l-.43-2.48a.38.38,0,0,1,.14-.36A1.79,1.79,0,0,0,226.42,1.26Z"/><path class="cls-21" d="M223,4.18a1,1,0,0,0-1.45.2,1,1,0,0,0,.19,1.39,1,1,0,0,0,1.18.06.22.22,0,0,1,.22,0l1.27.65-1-1a.23.23,0,0,1-.05-.21A1,1,0,0,0,223,4.18Z"/></g></g></svg>