<svg xmlns="http://www.w3.org/2000/svg" viewBox="0 0 313.43 84.7"><defs><style>.a{fill:#01447a;}.b{fill:#115082;}.c{fill:#03467b;}.d{fill:#01457a;}.e{fill:#02467b;}.f{fill:#fbfcfd;}.g{fill:#fdfdfd;}</style></defs><path class="a" d="M43.59,34.22c.4,0,.79,0,1.19,0q41.18,0,82.34,0c1.07,0,1.38.24,1.37,1.35-.05,8.33,0,16.66,0,25V62a14.87,14.87,0,0,1,2.47-3.14c2.6-2.2,5.72-3.08,9-3.59a55.82,55.82,0,0,1,17.4.51c.61.1,1,.27,1,1.05-.07,1.91-.05,3.82,0,5.74,0,.67-.07.88-.85.66a35.1,35.1,0,0,0-11.85-1.25,7.87,7.87,0,0,0-3.67,1,3.21,3.21,0,0,0,.1,5.78c2.11,1.15,4.49,1.35,6.78,1.85a36.76,36.76,0,0,1,5.07,1.35,10.72,10.72,0,0,1,3.85,17.68c-2.92,3-6.68,4.26-10.68,4.89-5.43.86-10.83.22-16.21-.58l-2.37-.34q0-4.56,0-9.12c.46.13.92.24,1.37.38a31,31,0,0,0,12.94,1.78,8.29,8.29,0,0,0,4.15-1.34,3.1,3.1,0,0,0,.07-5.17,6.63,6.63,0,0,0-1.79-.93,70.42,70.42,0,0,0-6.85-1.66c-3.85-.94-7.56-2.11-9.65-5.92,0,0-.13,0-.21,0v12.9c-.48,0-.95-.06-1.43-.06-6,0-12,0-18,0-1.21,0-1.42-.36-1.41-1.47,0-8.61,0-17.22,0-25.83,0-1-.29-1.24-1.26-1.22-3.32.06-6.64.07-10,0-1,0-1.16.3-1.16,1.2q0,17.46,0,34.92c0,1.23.3,1.49,1.5,1.49,10.55,0,21.1,0,31.64,0q0,12.67,0,25.36H43.58Zm12,43.14c0,5,0,10,0,15.06,0,.85.25,1.07,1.08,1.06,3.39,0,6.79-.06,10.18,0,1,0,1.11-.31,1.1-1.16,0-4,0-8,0-11.95,0-1.13.33-1.37,1.39-1.36,5.19,0,10.39,0,15.58,0,.84,0,1.1-.24,1.07-1.08-.06-1.55-.08-3.11,0-4.65.06-1-.26-1.27-1.26-1.26-5.23,0-10.46,0-15.69,0-.83,0-1.1-.21-1.08-1.06,0-2.35.07-4.7,0-7.05,0-1,.29-1.18,1.2-1.17,5.47,0,10.94,0,16.42,0,.77,0,1-.19,1-1-.06-1.63-.08-3.27,0-4.9,0-.94-.29-1.09-1.14-1.09-7.59,0-15.18,0-22.76,0-4.38,0-7,2.64-7,7Z" transform="translate(-43.28 -34.15)"/><path class="b" d="M43.59,34.22v84.63c-.5-.26-.22-.72-.22-1.07q0-26.15,0-52.27V34.18Z" transform="translate(-43.28 -34.15)"/><path class="c" d="M189.24,63c6.27,0,12.54,0,18.81,0a13.67,13.67,0,0,1,7.74,2.1c2.86,1.92,4,4.85,4.64,8.06a24.52,24.52,0,0,1,.41,4.52c0,4.94,0,9.88,0,14.82,0,.76-.16,1-1,1-3.07,0-6.15,0-9.22,0-.79,0-1-.21-1-1q0-8.23,0-16.49a10.87,10.87,0,0,0-.62-3.52,4.78,4.78,0,0,0-4.58-3.4c-1.08-.06-2.16,0-3.24-.07-.87-.06-1,.27-1,1.09,0,7.37,0,14.74.05,22.11,0,1.11-.32,1.31-1.34,1.28q-4.07-.1-8.15,0c-1,0-1.27-.19-1.26-1.22,0-5.26,0-10.52,0-15.78a12.49,12.49,0,0,0-.61-3.88,4.75,4.75,0,0,0-4.6-3.53c-1.08-.06-2.16,0-3.24-.07-.87-.06-1,.27-1,1.08,0,6.82,0,13.63,0,20.44,0,2.94,0,2.94-2.91,2.94-2.23,0-4.47,0-6.71,0-.71,0-1-.09-1-1q0-14.34,0-28.69c0-.82.28-1,1-1,6.31,0,12.62,0,18.93,0Z" transform="translate(-43.28 -34.15)"/><path class="c" d="M253.4,78.31V64.08c0-.55-.13-1.11.78-1.1,6.19.05,12.39-.12,18.57.15,7,.31,10.42,3.49,11.63,10.37a25.15,25.15,0,0,1-.22,10.33c-1.31,5.48-5.1,8.75-10.83,9.44-3.79.45-7.59.15-11.38.22-2.43.05-4.87,0-7.31,0-1,0-1.28-.19-1.27-1.22C253.43,87.64,253.4,83,253.4,78.31Zm10.65-.37c0,2.63,0,5.25,0,7.88,0,.86.26,1.09,1.08,1s1.91,0,2.87,0c2.74-.09,4.49-1.34,5.11-4a20.55,20.55,0,0,0-.11-10,4.79,4.79,0,0,0-5-3.71c-1,0-2,.05-3,0-.76,0-1,.17-1,1C264.08,72.69,264.05,75.31,264.05,77.94Z" transform="translate(-43.28 -34.15)"/><path class="d" d="M356.69,78.31c0,4.7,0,9.41,0,14.11,0,.91-.24,1.12-1.13,1.1-2.83-.06-5.67,0-8.5,0-.77,0-1-.18-1-1,.05-3.15,0-6.3,0-9.45,0-.72-.1-1.07-1-1-2.44,0-4.88,0-7.31,0-.74,0-1,.23-1,.95,0,3.15,0,6.3,0,9.45,0,.8-.15,1.1-1,1.08-2.92-.06-5.83,0-8.75,0-.73,0-.94-.17-.93-.92q0-14.35,0-28.7c0-.75.23-.93.95-.92,2.91,0,5.83,0,8.74,0,.79,0,1,.21,1,1-.05,3,0,6,0,9,0,.8.24,1,1,1,2.4,0,4.8-.06,7.19,0,.89,0,1-.3,1-1.1,0-2.94,0-5.89,0-8.84,0-.77.17-1,1-1,2.84.05,5.68.06,8.51,0,.88,0,1.15.19,1.14,1.11C356.66,68.83,356.69,73.57,356.69,78.31Z" transform="translate(-43.28 -34.15)"/><path class="e" d="M304.28,63c4.36,0,8.71,0,13.07,0,.74,0,1.06.13,1,1q-.09,3,0,6c0,.86-.17,1.17-1.1,1.14-2.16-.08-4.32,0-6.47-.06-1.18-.06-1.35.38-1.35,1.41.05,6.62,0,13.24.05,19.85,0,1-.24,1.27-1.24,1.24-2.8-.07-5.59,0-8.39,0-.83,0-1.07-.2-1.06-1,0-6.69,0-13.39.05-20.09,0-1.14-.34-1.39-1.41-1.35-2.15.08-4.31,0-6.47,0-.71,0-1-.16-1-.92.06-2,.06-4.07,0-6.1,0-.83.22-1.08,1.07-1.08C295.49,63,299.89,63,304.28,63Z" transform="translate(-43.28 -34.15)"/><path class="c" d="M242.21,78.22c0,4.74,0,9.48,0,14.22,0,.81-.17,1.1-1,1.08-2.88-.06-5.76,0-8.63,0-.78,0-1-.2-1-1q0-14.23,0-28.46c0-.79.17-1.11,1-1.1,2.87.05,5.75.05,8.62,0,.81,0,1,.25,1,1C242.19,68.73,242.21,73.48,242.21,78.22Z" transform="translate(-43.28 -34.15)"/><path class="f" d="M55.62,77.36V62.9c0-4.35,2.65-7,7-7,7.58,0,15.17,0,22.76,0,.85,0,1.19.15,1.14,1.09-.09,1.63-.07,3.27,0,4.9,0,.8-.23,1-1,1-5.48,0-11,0-16.42,0-.91,0-1.23.2-1.2,1.17.08,2.35.06,4.7,0,7.05,0,.85.25,1.07,1.08,1.06,5.23,0,10.46,0,15.69,0,1,0,1.32.25,1.26,1.26-.08,1.54-.06,3.1,0,4.65,0,.84-.23,1.09-1.07,1.08-5.19,0-10.39,0-15.58,0-1.06,0-1.41.23-1.39,1.36.07,4,0,8,0,11.95,0,.85-.15,1.18-1.1,1.16-3.39-.06-6.79,0-10.18,0-.83,0-1.08-.21-1.08-1.06C55.64,87.4,55.62,82.38,55.62,77.36Z" transform="translate(-43.28 -34.15)"/><path class="g" d="M128.45,84.4q0,4.56,0,9.12l0,0c-10.54,0-21.09,0-31.64,0-1.2,0-1.51-.26-1.5-1.49q.08-17.46,0-34.92c0-.9.17-1.22,1.16-1.2,3.31.07,6.63.06,10,0,1,0,1.26.2,1.26,1.22,0,8.61,0,17.22,0,25.83,0,1.11.2,1.48,1.41,1.47,6-.07,12,0,18,0,.48,0,1,0,1.43.06Z" transform="translate(-43.28 -34.15)"/></svg>