<svg xmlns="http://www.w3.org/2000/svg" viewBox="0 0 796.72 291.77"><defs><style>.a{fill:#0e3997;}.b{fill:#7e94c7;}.c{fill:#7c93c6;}.d{fill:#7d94c7;}.e{fill:#7e95c7;}</style></defs><path class="a" d="M54.48,95.83c0-16.72.05-33.43-.07-50.14,0-2.32.47-2.79,2.79-2.79q59.7.14,119.41.07c-.27,1,.33,1.74.67,2.56q25.56,60.52,51.16,121c.3.72.18,2,1.63,1.87.7-19.82.56-39.62.19-59.42-.08-4.33-2.67-7.48-6.16-9.81a23.78,23.78,0,0,0-13.19-4.06c-3.15,0-3.84-1.08-3.83-4C207.14,75.08,207,59,206.94,43H322.07q0,23.1-.08,46.21c0,6,0,6-5.93,6.64C304,97,298.63,102.94,298.62,115q-.09,104.66-.15,209.3a53.39,53.39,0,0,1-.67,9.28c-5.58,0-11.15.1-16.72.11l-77.36.13c-1.8-1.61-2.56-3.85-3.44-6Q174,264.46,147.85,201.07c-.32-.77-.24-1.91-1.48-2.11-.85,21.8-.82,43.55-.34,65.3.18,8.14,3.41,12.56,11.26,15.1A27.88,27.88,0,0,0,166,281c2.08,0,3,.58,2.93,2.87-.21,16.57.27,33.15-.39,49.71-1.81.06-3.62.15-5.43.15H54.48V281.61c2.94-.28,5.91-.06,8.84-.78,8.49-2.09,14.49-8.62,14.48-16q-.06-76.17-.12-152.33c0-7.11-3.2-11.76-9.57-14.48A26.16,26.16,0,0,0,54.48,95.83Z" transform="translate(-54.41 -42.89)"/><path class="a" d="M610.68,43q118.62,0,237.26-.08c2.66,0,3.19.52,3.18,3.19Q851,104,851.05,161.9a7.28,7.28,0,0,1-1.5.31c-18.66,0-37.32,0-56,.08-3,0-2.94-1.5-2.94-3.63,0-14,0-28,0-41.95,0-4.65-.87-9-3.74-12.78-4-5.22-10.06-4.75-13.28,1-1.58,2.79-1.88,5.84-1.88,9q0,59.62,0,119.24c0,10.75,0,21.5,0,32.24a12.68,12.68,0,0,0,6.54,11.56,28.42,28.42,0,0,0,13.27,3.88c1.86.12,3.16.31,3.15,2.76-.11,16.7.34,33.4-.39,50.09L669,333.7c-1.31-16-.36-32.1-.85-48.14-.09-3.19.76-4.3,3.92-4.28a24.34,24.34,0,0,0,6.09-1.11c9.61-2.45,13.35-7.25,13.35-17.13q0-74.6.05-149.19a19.13,19.13,0,0,0-1-7.26c-1.19-3-2.91-5.61-6.37-6.2-3.71-.62-6.54,1.13-8.7,4-2.77,3.66-3.61,7.91-3.62,12.43,0,14-.24,28-.2,42,0,2.85-.69,3.75-3.66,3.72q-26.82-.35-53.65-.25c-3.15,0-3.77-.94-3.76-3.88Q610.76,100.66,610.68,43Z" transform="translate(-54.41 -42.89)"/><path class="a" d="M472.21,43h126c.06,16.43,0,32.86.25,49.29,0,2.92-.77,3.76-3.64,3.72A25.13,25.13,0,0,0,588,97.24c-9.24,2.57-12.53,6.92-12.52,16.42q0,74.75.1,149.49c0,9.26,3.31,13.64,12.22,16.34a24.92,24.92,0,0,0,8,1.38c2.07-.07,2.63.77,2.64,2.73,0,16.69.34,33.39-.23,50.07H473c-1.53-14.59-.5-29.24-.79-43.85-.05-2.58-.86-5.94.42-7.51s4.74-1,7.22-1.49c8.72-1.89,15.84-6,15.56-18.25-.46-20.7,0-41.43-.06-62.15q0-43.89-.15-87.79c0-7.86-3-12.24-10.31-15.15a32.61,32.61,0,0,0-10.57-2.25c-1.9-.09-2.37-.76-2.36-2.54C472.1,76.11,472.14,59.54,472.21,43Z" transform="translate(-54.41 -42.89)"/><path class="a" d="M335.3,334.47h-1.56a2.8,2.8,0,0,0,.39-1c-.86-16.31-.14-32.64-.43-49,0-2.07.44-2.92,2.69-3.06a32,32,0,0,0,12.36-3.07c5.29-2.63,8.36-6.64,8.35-12.85q0-76.74,0-153.48c0-7.28-3.7-12.16-10.54-14.65a42.82,42.82,0,0,0-10.27-2c-1.72-.18-2.73-.52-2.71-2.73.14-16.58.13-33.16.17-49.73h126c.74,1.33.41,2.79.41,4.19.07,14.62,0,29.25.22,43.88.05,3.42-.4,4.79-4.41,5-13.27.6-19.2,7.2-19.21,20.49q0,72.83,0,145.64c0,9.13,3.57,14.08,12.19,17.16a23.6,23.6,0,0,0,8.71,1.69c2.45-.08,3,.87,3,3.18-.18,15.28-.23,30.55-.25,45.83,0,1.48-.72,3,.2,4.47H459c-1.1-1.37-2.64-.75-4-.75q-57.87-.06-115.73,0C338,333.72,336.41,333.1,335.3,334.47Z" transform="translate(-54.41 -42.89)"/><path class="b" d="M473,334.47l0-.81H598.21l0,.8Z" transform="translate(-54.41 -42.89)"/><path class="b" d="M794.22,333.66l0,.81H669v-.77Z" transform="translate(-54.41 -42.89)"/><path class="c" d="M335.3,334.47c1.11-1.37,2.65-.75,4-.75q57.86-.06,115.73,0c1.33,0,2.87-.62,4,.75Z" transform="translate(-54.41 -42.89)"/><path class="d" d="M168.58,333.53l.25.94q-55.62,0-111.24-.05c-1,0-2.41.88-3.11-.73H163.15C165,333.68,166.77,333.59,168.58,333.53Z" transform="translate(-54.41 -42.89)"/><path class="e" d="M203.83,334.47a1,1,0,0,1-.11-.65l77.36-.13c5.57,0,11.14-.08,16.72-.11l.16.89Z" transform="translate(-54.41 -42.89)"/></svg>