<svg xmlns="http://www.w3.org/2000/svg" viewBox="0 0 878.75 813.38"><defs><style>.a{fill:#ec1c24;}.b{fill:#fed400;}.c{fill:#f36316;}.d{fill:#f36416;}.e{fill:#f35f17;}.f{fill:#f57513;}</style></defs><path class="a" d="M674,895c-35.29,0-70.57.06-105.85-.06a17.15,17.15,0,0,0-12.64,4.8c-25.14,22.67-65.76,21.1-89.16-3.11a4.79,4.79,0,0,0-3.75-1.45c-22.87-.64-45.74-.49-68.62-.52q-77-.11-154,.1c-2,0-2.73-.52-3-2.52q-4-34.86-8.18-69.71-4.34-36.69-8.71-73.38c-.67-5.72-1.38-11.44-2-17.17a6.23,6.23,0,0,0-2.88-4.94c-40.52-28.67-81.13-57.19-120.85-87-11.42-8.56-11.33-8.63-13.92-22.61a445,445,0,0,1-7.17-68.41,402,402,0,0,1,7.4-87.44c15.67-81.49,52-152.75,107.73-214,56.56-62.15,125.25-105.3,206.1-128.71a418,418,0,0,1,101.07-16.17q131.66-4.89,243.8,64.27C821.57,217.66,881.41,287.73,919,376.57A418.14,418.14,0,0,1,949.25,492.4c5.27,45.59,2.79,90.77-6.54,135.65a9,9,0,0,1-3.54,5.61c-20.94,16.41-42.64,31.78-64.24,47.28s-43.6,31-65.45,46.51a5,5,0,0,0-2.28,3.89q-8,68.51-16.14,137c-.94,7.92-2,15.83-2.81,23.76-.22,2.09-.88,2.7-3.06,2.69q-55.59-.12-111.17-.06ZM555.15,656.12q9.32-46.49,18.63-93Q588,492.09,602.32,421q10-49.87,20-99.73,11-54.69,22-109.36a3.54,3.54,0,0,0-1.77-4.31c-13.21-8.87-27.88-14.22-43.17-18.08a218.14,218.14,0,0,0-44.91-6.21,131.9,131.9,0,0,0-20.16,1c-2,.22-2.9.94-2.81,3.15.11,2.82-.24,5.66-.35,8.49q-1.08,27.36-2.14,54.71-1,27-2.12,53.91-1.08,27.5-2.14,55-1,27.09-2.12,54.18l-2.13,54.18q-1.07,27.22-2.12,54.45t-2.13,54.18c-.63,16.82-1.2,33.65-1.83,50.47q-.42,11.29-1,22.57c0,.59.36,1.5-.86,1.65a14.27,14.27,0,0,1-.22-1.56q-.73-17.25-1.46-34.52-1.06-26.14-2.1-52.31-1.08-27.09-2.15-54.18-1.06-26.7-2.12-53.39l-2.13-53.38q-1.06-26.55-2.12-53.11l-2.13-53.65-2.13-53.38c-.72-18.24-1.48-36.48-2.11-54.72-.06-1.87-.82-2.4-2.42-2.64a97.88,97.88,0,0,0-15.09-1.11,208.22,208.22,0,0,0-59.71,8.83c-11.58,3.51-22.68,8.14-32.8,14.88-1.63,1.09-3.35,1.86-2.78,4.67q14,69,27.73,138,15.8,78.65,31.64,157.26,14.39,71.61,28.71,143.23c.6,3,1.17,6,1.76,9a2.3,2.3,0,0,1-.95-1.39q-7.68-27-15.35-53.92-22.41-78.55-44.85-157.1-30.48-106.78-61-213.57c-1.66-5.82-1.69-5.76-7.76-4.57-9.34,1.84-17.87,5.71-26.1,10.3a232.43,232.43,0,0,0-47.61,35.51,82.44,82.44,0,0,0-13.13,15.3,5.87,5.87,0,0,0-.42,6.36c10.23,21.53,20.29,43.14,30.41,64.72l85.25,181.68Q399.24,605.75,428.94,669c.42.91,1.19,1.77.9,2.94-.92-.12-1.06-.92-1.4-1.49q-10-17.37-20.06-34.77L343.31,522.88q-31.55-54.69-63.1-109.38-24.43-42.37-48.85-84.76c-1.12-2-2-2.15-3.83-.95a55.05,55.05,0,0,0-12.17,11.42c-15,18.27-26.68,38.6-36.41,60.08a84.14,84.14,0,0,0-6.64,19.57,8.6,8.6,0,0,0,1.89,7.62q25.25,30.7,50.33,61.54,41.29,50.55,82.61,101.09,32.73,40,65.44,80.09c7.51,9.2,14.95,18.44,22.43,27.66l-.41.42c-5.12-5.16-10.27-10.3-15.37-15.48Q345.36,647.42,311.5,613l-66.42-67.47q-37.87-38.47-75.76-76.93c-3.2-3.25-3.25-3.27-5.32.82-9.25,18.34-13.58,38-14.77,58.31A205.55,205.55,0,0,0,155,588.1a6.48,6.48,0,0,0,2.66,4q63.09,45.47,126.18,90.93c3.5,2.51,4.77,5.26,5.24,9.25,2,17.5,4.29,35,6.51,52.45,2.93,23,5.95,46,8.76,69,.32,2.71,1.07,3.45,3.79,3.44q78.33-.12,156.65-.09a6.16,6.16,0,0,1,4.49,1.71A130.67,130.67,0,0,0,495,837.11c10,5.34,20.21,7.14,31.06,2.14,11.16-5.14,21-12.22,30.09-20.27a6.56,6.56,0,0,1,4.71-1.84q64.23.08,128.46,0c9.75,0,19.5,0,29.26,0,1.62,0,2.26-.35,2.48-2.12,2-16.35,4.15-32.67,6.22-49q4.89-38.6,9.71-77.21a5.54,5.54,0,0,1,2.51-4.08q64.17-46.24,128.3-92.55a6.44,6.44,0,0,0,2.74-4c6-25.24,8.05-50.7,4.12-76.45-2.33-15.24-6.5-29.93-13.8-43.62-1.49-2.8-1.49-2.79-3.62-.63q-18.81,19.17-37.63,38.34Q787.07,539,754.49,572q-60.36,61.31-120.75,122.58c-.56.57-1,1.35-2,1.45-.07-1.23.78-1.72,1.31-2.37q19.25-23.6,38.51-47.16,47.28-57.85,94.54-115.72,42.81-52.4,85.64-104.78a6.93,6.93,0,0,0,1.76-5.1,38.83,38.83,0,0,0-2.74-11.32,265,265,0,0,0-37.85-67.15c-4.26-5.56-8.88-10.82-14.87-14.69-1.83-1.18-2.74-.94-3.86,1q-46.46,80.77-93,161.47-52.86,91.65-105.75,183.29l-.89.1Q614.93,630,635.4,586.3,670,512.55,704.61,438.82q33.54-71.46,67.14-142.88a5.56,5.56,0,0,0-.29-5.93,66.75,66.75,0,0,0-9-11.19,226.92,226.92,0,0,0-48.43-37.88c-10.35-6.06-21-11.43-33.21-12.85-2.24-.26-2.94.45-3.47,2.38-2.39,8.62-4.88,17.21-7.33,25.81Q645.6,342,621.12,427.65L556,656Z" transform="translate(-73.23 -102.47)"/><path class="b" d="M395,696.86c-7.48-9.22-14.92-18.46-22.43-27.66q-32.7-40.07-65.44-80.09Q265.83,538.56,224.53,488q-25.15-30.78-50.33-61.54a8.6,8.6,0,0,1-1.89-7.62A84.14,84.14,0,0,1,179,399.29c9.73-21.48,21.39-41.81,36.41-60.08a55.05,55.05,0,0,1,12.17-11.42c1.84-1.2,2.71-1,3.83.95q24.36,42.42,48.85,84.76,31.56,54.69,63.1,109.38l65.07,112.84q10,17.38,20.06,34.77c.34.57.48,1.37,1.4,1.49.29-1.17-.48-2-.9-2.94q-29.7-63.3-59.42-126.57L284.27,360.79c-10.12-21.58-20.18-43.19-30.41-64.72a5.87,5.87,0,0,1,.42-6.36,82.44,82.44,0,0,1,13.13-15.3A232.43,232.43,0,0,1,315,238.9c8.23-4.59,16.76-8.46,26.1-10.3,6.07-1.19,6.1-1.25,7.76,4.57q30.5,106.79,61,213.57,22.41,78.56,44.85,157.1,7.69,27,15.35,53.92a2.3,2.3,0,0,0,.95,1.39c-.59-3-1.16-6-1.76-9q-14.36-71.62-28.71-143.23-15.79-78.63-31.64-157.26-13.86-69-27.73-138c-.57-2.81,1.15-3.58,2.78-4.67,10.12-6.74,21.22-11.37,32.8-14.88a208.22,208.22,0,0,1,59.71-8.83,97.88,97.88,0,0,1,15.09,1.11c1.6.24,2.36.77,2.42,2.64.63,18.24,1.39,36.48,2.11,54.72l2.13,53.38,2.13,53.65q1.05,26.55,2.12,53.11l2.13,53.38q1.05,26.7,2.12,53.39,1.06,27.09,2.15,54.18,1.05,26.16,2.1,52.31.71,17.26,1.46,34.52a14.27,14.27,0,0,0,.22,1.56c1.22-.15.83-1.06.86-1.65q.53-11.28,1-22.57c.63-16.82,1.2-33.65,1.83-50.47q1-27.09,2.13-54.18t2.12-54.45l2.13-54.18q1.07-27.09,2.12-54.18,1.08-27.48,2.14-55,1.07-27,2.12-53.91,1.08-27.36,2.14-54.71c.11-2.83.46-5.67.35-8.49-.09-2.21.86-2.93,2.81-3.15a131.9,131.9,0,0,1,20.16-1,218.14,218.14,0,0,1,44.91,6.21c15.29,3.86,30,9.21,43.17,18.08a3.54,3.54,0,0,1,1.77,4.31q-11.07,54.68-22,109.36-10,49.86-20,99.73-14.27,71.08-28.54,142.17-9.33,46.47-18.63,93a32.66,32.66,0,0,0-1.5,7.34A25.81,25.81,0,0,0,556,656l65.13-228.35Q645.58,342,670.06,256.28c2.45-8.6,4.94-17.19,7.33-25.81.53-1.93,1.23-2.64,3.47-2.38,12.2,1.42,22.86,6.79,33.21,12.85a226.92,226.92,0,0,1,48.43,37.88,66.75,66.75,0,0,1,9,11.19,5.56,5.56,0,0,1,.29,5.93q-33.64,71.4-67.14,142.88Q670,512.55,635.4,586.3,614.92,630,594.46,673.65c-.82,1.3-1.76,2.55-1.7,4.2-.14.18-.29.36-.42.55l.19.16c.07-.24.15-.48.22-.72,1.42-1.09,1.86-2.78,2.6-4.29Q648.23,581.9,701.1,490.26q46.54-80.72,93-161.47c1.12-2,2-2.19,3.86-1,6,3.87,10.61,9.13,14.87,14.69a265,265,0,0,1,37.85,67.15,38.83,38.83,0,0,1,2.74,11.32,6.93,6.93,0,0,1-1.76,5.1q-42.84,52.36-85.64,104.78-47.28,57.85-94.54,115.72Q652.25,670.12,633,693.7c-.53.65-1.38,1.14-1.31,2.37,1-.1,1.49-.88,2-1.45Q694.13,633.35,754.49,572,787.06,539,819.6,505.89q18.84-19.15,37.63-38.34c2.13-2.16,2.13-2.17,3.62.63,7.3,13.69,11.47,28.38,13.8,43.62,3.93,25.75,1.92,51.21-4.12,76.45a6.44,6.44,0,0,1-2.74,4q-64.15,46.26-128.3,92.55a5.54,5.54,0,0,0-2.51,4.08q-4.82,38.61-9.71,77.21c-2.07,16.34-4.21,32.66-6.22,49-.22,1.77-.86,2.13-2.48,2.12-9.76-.06-19.51,0-29.26,0q-64.23,0-128.46,0a6.56,6.56,0,0,0-4.71,1.84c-9.14,8-18.93,15.13-30.09,20.27-10.85,5-21,3.2-31.06-2.14a130.67,130.67,0,0,1-25.75-18.25,6.16,6.16,0,0,0-4.49-1.71q-78.31.06-156.65.09c-2.72,0-3.47-.73-3.79-3.44-2.81-23-5.83-46-8.76-69-2.22-17.48-4.47-34.95-6.51-52.45-.47-4-1.74-6.74-5.24-9.25q-63.21-45.3-126.18-90.93a6.48,6.48,0,0,1-2.66-4,205.55,205.55,0,0,1-5.73-60.36c1.19-20.35,5.52-40,14.77-58.31,2.07-4.09,2.12-4.07,5.32-.82q37.88,38.46,75.76,76.93L311.5,613q33.87,34.4,67.73,68.79c5.1,5.18,10.25,10.32,15.37,15.48l.56.5.56.23-.23-.56Zm230.72,6,.53-.54a1,1,0,0,0,.18-.09s0-.09,0-.14l-.19.26c-.18.17-.36.35-.53.53l-.13.16ZM397,699.64c.09.12,0,.6.36.18l-.4-.14c0-.38-.11-.59-.52-.54l-.05-.4-.26.13.33.25Zm233.07-1.48.54-.53c.26-.19.53-.4.17-.7,0,0-.35.21-.53.33s-.31.36-.46.55a1,1,0,0,0-.38.22,5.27,5.27,0,0,0-2.16,2.63l-.2.38.39-.2a2.82,2.82,0,0,0,2-2Zm-199-24.09c-.08-.2-.06-.49-.42-.38l.23.57c.07.42.07.89.68.91l.09.73.31-.15-.43-.55A1,1,0,0,0,431.1,674.07ZM513,660.38c.36-2.49.73-5-.08-7.44A15.35,15.35,0,0,0,513,660.38Zm78.65,19.27-.28.32s.14.13.15.12l.32-.32ZM430.4,672.76l-.15-.18-.16.17.23.18Z" transform="translate(-73.23 -102.47)"/><path class="c" d="M556,656a25.81,25.81,0,0,1-2.34,7.46,32.66,32.66,0,0,1,1.5-7.34Z" transform="translate(-73.23 -102.47)"/><path class="d" d="M592.76,677.85c-.06-1.65.88-2.9,1.7-4.2l.89-.1c-.74,1.51-1.18,3.2-2.6,4.29Z" transform="translate(-73.23 -102.47)"/><path class="e" d="M513,660.38a15.35,15.35,0,0,1-.08-7.44C513.73,655.39,513.36,657.89,513,660.38Z" transform="translate(-73.23 -102.47)"/><path class="f" d="M627.26,700.66a5.27,5.27,0,0,1,2.16-2.63c0,.29,0,.57.05.86a2.82,2.82,0,0,1-2,2Z" transform="translate(-73.23 -102.47)"/><path class="d" d="M591.65,679.66l.19.11-.32.32s-.1-.08-.15-.12Z" transform="translate(-73.23 -102.47)"/><path class="a" d="M431.59,675.17c-.61,0-.61-.49-.68-.91a1.7,1.7,0,0,1,.19-.19,1,1,0,0,1,.46,1.13Z" transform="translate(-73.23 -102.47)"/><path class="a" d="M431.56,675.2l.43.55-.31.15-.09-.73Z" transform="translate(-73.23 -102.47)"/><path class="d" d="M592.75,677.84c-.07.24-.15.48-.22.72l-.19-.16c.13-.19.28-.37.42-.55Z" transform="translate(-73.23 -102.47)"/><path class="a" d="M430.4,672.76l-.08.17-.23-.18.16-.17Z" transform="translate(-73.23 -102.47)"/><path class="a" d="M430.91,674.26l-.23-.57c.36-.11.34.18.42.38A1.7,1.7,0,0,0,430.91,674.26Z" transform="translate(-73.23 -102.47)"/><path class="a" d="M395.16,697.79l-.56-.51.41-.42.48.59A3.51,3.51,0,0,0,395.16,697.79Z" transform="translate(-73.23 -102.47)"/><path class="a" d="M630.26,697.26c.18-.12.48-.37.53-.33.36.3.09.51-.17.7C630.51,697.5,630.38,697.38,630.26,697.26Z" transform="translate(-73.23 -102.47)"/><path class="a" d="M395.49,697.45l.23.56-.56-.23Q395.31,697.62,395.49,697.45Z" transform="translate(-73.23 -102.47)"/><path class="a" d="M629.8,697.81c.15-.19.31-.37.46-.55.12.12.25.24.36.37l-.54.53Z" transform="translate(-73.23 -102.47)"/><path class="a" d="M629.47,698.89c0-.29,0-.57-.05-.86a1,1,0,0,1,.38-.22l.28.35Z" transform="translate(-73.23 -102.47)"/><path class="a" d="M396.47,699.12l-.33-.25.26-.13.05.4Z" transform="translate(-73.23 -102.47)"/><path class="a" d="M396.45,699.14c.41,0,.55.16.52.54l0,0-.54-.52Z" transform="translate(-73.23 -102.47)"/><path class="a" d="M397,699.68l.4.14c-.36.42-.27-.06-.36-.18Z" transform="translate(-73.23 -102.47)"/><path class="f" d="M627.45,700.84l-.39.2c.07-.13.13-.26.2-.38Z" transform="translate(-73.23 -102.47)"/><path class="f" d="M626.28,702.33l.19-.26s0,.11,0,.14a1,1,0,0,1-.18.09Z" transform="translate(-73.23 -102.47)"/><path class="f" d="M626.26,702.3l-.53.54,0,0c.17-.18.35-.36.53-.53Z" transform="translate(-73.23 -102.47)"/><path class="f" d="M625.73,702.84l-.11.18.13-.16Z" transform="translate(-73.23 -102.47)"/></svg>