<svg xmlns="http://www.w3.org/2000/svg" viewBox="0 0 1084.49 949.62"><defs><style>.a{fill:#1173ba;}.b{fill:#1172ba;}</style></defs><path class="a" d="M202.25,291.87a203,203,0,0,1,17.44-28.75c21-29.46,47.51-53.21,77.46-73.27,40.33-27,84.42-45.7,131-58.65a570.09,570.09,0,0,1,96.66-17.86,600.47,600.47,0,0,1,72.33-3.06C669.67,111.87,740,124.51,807,152.94c39.39,16.71,75.74,38.39,107.6,67.18,20.65,18.66,38.24,39.81,51.95,64.09,1.32,2.33,2.84,4.59,3.62,7.41-2.44.92-4.59-.41-6.67-.9Q895,274.67,825.39,264.06q-51.24-7.9-102.84-12.82c-28.48-2.67-57-4.13-85.59-5.21a44.3,44.3,0,0,0-11.51,1.05c-8.05,1.82-17.34,6.83-19.36,19.69A151.64,151.64,0,0,0,604,291.55q.49,60.84,1.1,121.69.74,79.08,1.51,158.18.38,37.38.84,74.75c0,1.35,0,2.71,0,4.05.1,2-.9,2.69-2.77,2.73-3.67.08-7.34.4-11,.38-7.72,0-15.45-.17-23.17-.35-4.85-.12-5,.61-5-5.16.13-16.8.18-33.61.35-50.41q1.26-125.16,2.57-250.32c.18-17,.46-34,.58-51a158.37,158.37,0,0,0-2.15-28.84c-2-11.47-9.13-18.5-20.64-20.39a45.66,45.66,0,0,0-8.63-.79c-24.13.81-48.25,1.85-72.32,3.87q-34.93,2.94-69.7,7.31-44.24,5.58-88.14,13.41c-34.39,6.1-68.62,13-102.59,21.19A16.63,16.63,0,0,1,202.25,291.87Z" transform="translate(-43.59 -110.15)"/><path class="b" d="M455.32,302.42c14.34-.2,24.17-.05,33.82,2.45C505,309,512.8,318.64,513.49,335.15c.59,13.81-1.66,27.35-3.93,40.86q-9.8,58.22-21.61,116.07-14.44,71.19-31.47,141.8a20.12,20.12,0,0,0-.64,2.23c-.29,2.31-1.53,2.78-3.64,2.23-7.28-1.87-14.62-3.55-21.89-5.51C383,620,338.37,601.2,297.51,573.92c-33.6-22.45-62.77-49.44-84.75-83.68-16.95-26.39-27.82-55-31.69-86.21-2.63-21.09-1.22-42,3.08-62.78.69-3.36,2.53-4.34,5.37-4.92,17-3.47,34-7.16,51-10.44q44.65-8.58,89.83-13.8,34.53-4,69.23-6.32C419.67,304.42,439.72,303.16,455.32,302.42Z" transform="translate(-43.59 -110.15)"/><path class="b" d="M993,380.09c-.21,40.3-11.77,75.61-32.58,108-21.3,33.19-49.36,59.74-81.61,82C837.92,598.44,793,618,745.3,631.65c-7.41,2.13-14.91,4-22.39,5.85-5.26,1.31-5.33,1.23-6.51-3.74q-4.17-17.46-8.25-34.92c-11.3-48.08-21.46-96.41-30.8-144.9-5.91-30.69-11.66-61.41-16.25-92.34A147.13,147.13,0,0,1,659.36,338c.29-20.39,9.39-30.94,29.57-34.22,13.28-2.16,26.6-1.52,39.9-.8,15,.8,30.07,1.95,45.1,2.92,24.28,1.58,48.49,4,72.65,6.82,34.53,4.09,68.79,9.76,102.87,16.55,11.35,2.27,22.64,4.86,34,7.07,3.44.66,4.69,2.53,5.34,5.69A212.26,212.26,0,0,1,993,380.09Z" transform="translate(-43.59 -110.15)"/><path class="b" d="M597.71,1059.67h-99.3c-6.62,0-5.56.47-7.61-5.45Q465.15,980.12,439.56,906c-.62-1.79-1.31-3.55-2.06-5.58-2.18,1.25-2.19,3.37-2.76,5.05q-25.1,73.38-50.13,146.77c-3,8.84-.83,7.38-10.19,7.41q-44.93.11-89.84,0c-2.06,0-4.21.53-6.19-.55-.41-1.92.69-3.42,1.28-5q49.09-129.63,98.25-259.25a15,15,0,0,0,.85-2.15c.59-2.83,2.36-3.46,5.07-3.42,9.08.15,18.16.06,27.24.06q38.55,0,77.09,0c5.7,0,5-1.12,7.38,5.06q50.51,130,101,260.07C597.06,1055.89,597.93,1057.24,597.71,1059.67Z" transform="translate(-43.59 -110.15)"/><path class="b" d="M1128.08,1059c-2.2,1-4,.63-5.68.63q-47,0-93.9,0c-5.7,0-5.27,1.31-7.59-5.42q-25.78-74.67-51.63-149.33c-.56-1.59-1.17-3.17-1.79-4.85-2,1.62-2.13,3.9-2.8,5.84q-25.19,73.67-50.27,147.35c-.37,1.1-.83,2.17-1.1,3.29-.61,2.5-2.14,3.2-4.65,3.19q-49.27-.12-98.54-.1a8,8,0,0,1-1.69-.36c-.39-1.9.66-3.41,1.25-5q49.21-129.91,98.5-259.8c2.24-5.92,1.4-5.13,7.3-5.13q51.3,0,102.6,0c6.58,0,5.32-.63,7.69,5.47q41.29,106.29,82.51,212.62,9.53,24.55,19,49.11C1127.6,1057.23,1127.76,1058,1128.08,1059Z" transform="translate(-43.59 -110.15)"/><path class="a" d="M174.16,789.33H297.59c1.35,0,2.71.07,4.06,0,2.15-.13,3.28.7,3.1,3-.05.77,0,1.55,0,2.32q0,34.47,0,68.93c0,5.29,0,5.33-5.43,5.33q-31.29,0-62.58,0c-1.35,0-2.71.06-4.06,0-2.28-.08-3.08,1.09-3,3.22.08,1.54,0,3.09,0,4.63V1054c0,6.07.43,5.65-5.63,5.65H126.73c-6.25,0-5.86.37-5.86-6.08v-179c0-6,.3-5.7-5.67-5.7H49.72c-6.41,0-6.09.39-6.09-5.86q0-26.65,0-53.3c0-5.6.11-11.2,0-16.79-.07-2.77.89-3.81,3.68-3.66,3.46.19,6.95,0,10.42,0Z" transform="translate(-43.59 -110.15)"/><path class="a" d="M704.68,789.33H826.94c1.16,0,2.32,0,3.48,0,4.19.1,4.3.11,4.31,4q.06,35.63,0,71.25c0,4.17-.11,4.24-4.75,4.25q-31,0-62,0h-2.32C760,869,760,869,760,874.59q0,88.92,0,177.84c0,8.17.79,7.23-7,7.23q-47.24,0-94.45,0h-1.74c-6,0-5.63.41-5.63-5.66q0-88.62,0-177.26c0-8.68,1.1-7.83-7.6-7.84q-31.59,0-63.17,0c-1.35,0-2.7,0-4.05,0-2,0-2.74-1-2.65-2.88.05-1,0-1.93,0-2.9V795.33c0-1.16,0-2.31,0-3.47,0-1.63.64-2.53,2.37-2.51,1.54,0,3.09,0,4.63,0Z" transform="translate(-43.59 -110.15)"/></svg>