<svg xmlns="http://www.w3.org/2000/svg" viewBox="0 0 326.64 164.47"><defs><style>.a{fill:#fcb03f;}.b{fill:#212121;}</style></defs><polygon class="a" points="132.07 60.98 127.63 60.98 125.07 62.76 125.07 84.42 126.63 85.31 132.07 85.31 132.07 61.54 132.07 60.98"/><polygon class="a" points="135.7 60.98 150.06 60.98 151.03 63.76 159.99 63.76 174.35 73.9 186.42 73.9 186.42 76.35 193.83 76.35 193.83 85.31 135.7 85.31 135.7 60.98"/><path class="a" d="M193.1,78,203,84.36V65.56h17.63L222,71.92l1.78,3,.89,6,2.66-8.3L234,49.41l13.47,22.51.75,20-5.34.89L241.38,95l.74,1.78h14.07s12.44-4.6,11.55-16.89c0,0-2.65-11.08-12.58-11.4l-9.63-32.73-7.26-13.92L231.16,15l-7.4,14.88,3.4,3.41L218,57.71l-.74,3.55-18.66.45-5.48,2.22Z" transform="translate(-32.6 -14.98)"/><path class="a" d="M335.13,177.71H42.78a8.46,8.46,0,0,1-8.44-8.45L43,117.43A8.47,8.47,0,0,1,51.48,109H349.05a8.46,8.46,0,0,1,8.44,8.44l-13.92,51.83A8.47,8.47,0,0,1,335.13,177.71Z" transform="translate(-32.6 -14.98)"/><path class="b" d="M335.13,179.45H42.78A10.19,10.19,0,0,1,32.6,169.26l0-.29,8.68-51.69a10.18,10.18,0,0,1,10.18-10H349.05a10.19,10.19,0,0,1,10.18,10.18l-.06.45L345.31,169.5A10.2,10.2,0,0,1,335.13,179.45Zm-299-10a6.71,6.71,0,0,0,6.7,6.57H335.13a6.71,6.71,0,0,0,6.7-6.71l.06-.45,13.86-51.6a6.72,6.72,0,0,0-6.7-6.48H51.48a6.7,6.7,0,0,0-6.7,6.7l0,.29Z" transform="translate(-32.6 -14.98)"/><polygon class="b" points="31.77 106.52 29.66 116.22 39.99 116.52 37.06 151.14 48.61 151.14 53.5 116.04 64.61 116.04 64.61 106.52 31.77 106.52"/><polygon class="b" points="68.31 106.52 62.68 149.88 90.67 149.88 93.78 141.22 75.5 141.22 77.27 131.88 93.86 131.88 95.56 125.59 78.16 125.89 79.79 115.96 98.89 116.33 101.34 106.52 68.31 106.52"/><path class="b" d="M138.53,121.5,133,164.86h12s4.14-33.18,4.66-33.25,8.3.3,8.3.3l-3.85,33H165.7l4.89-33.25h7.63l-3.56,33.25,12.44-.3,6-43.06Z" transform="translate(-32.6 -14.98)"/><polygon class="b" points="201.23 106.52 213.22 106.52 208.68 141.03 219.34 141.03 223.88 106.52 234.9 106.52 229.89 141.03 240.33 141.03 243.94 106.52 255.67 106.52 249.33 149.58 197.01 149.58 201.23 106.52"/><polygon class="b" points="253.14 149.32 275.32 106.04 288.76 106.04 299.35 149.44 273.66 149.58 274.43 141.03 286.21 140.47 280.54 124.48 267.66 149.58 253.14 149.32"/><path class="b" d="M228.87,121.5H197.36l-6.48,41.36.37,1.7H222.5l1.7-.81L229.3,122ZM214,156H203.28l4.22-24.22h9.56Z" transform="translate(-32.6 -14.98)"/><rect class="a" x="151.18" y="81.83" width="20.73" height="10.59"/></svg>