<svg xmlns="http://www.w3.org/2000/svg" viewBox="0 0 591.27 165.98"><defs><style>.a{fill:#e31a37;}.b{fill:#272324;}.c{fill:#302d2e;}.d{fill:#e32238;}.e{fill:#262223;}.f{fill:#252122;}.g{fill:#e21f38;}</style></defs><path class="a" d="M471.78,187.9c-.76-.91-1.9-.64-2.86-.84a43.55,43.55,0,0,1-10.44-3.46c-9.08-4.47-14.07-11.77-15-21.83-.28-3.1-.41-6.22-.42-9.34,0-14.23,0-28.46-.07-42.69,0-1.84.49-2.24,2.27-2.21,6.8.12,13.6.14,20.4,0,2,0,2.31.62,2.3,2.41-.06,15.19,0,30.37,0,45.56,0,.72,0,1.44,0,2.16.17,8.28,6,12.71,14,10.64,4-1,6.56-3.54,7.22-7.71a28,28,0,0,0,.28-4.3c0-15.5,0-31,0-46.52,0-1.79.4-2.27,2.23-2.24,6.88.13,13.76.1,20.63,0,1.6,0,2.2.26,2.19,2-.09,15-.07,30.06-.1,45.08a41.08,41.08,0,0,1-1.12,9.51c-3.14,13.13-12.17,19.88-24.76,22.78-1.28.29-2.7.07-3.82,1Z" transform="translate(-27.36 -21.92)"/><path class="b" d="M27.36,106.83c3.44,0,6.87.13,10.3.13,14.94,0,29.89.05,44.83,0,1.92,0,2.53.5,2.33,2.39a26.42,26.42,0,0,0,0,5c.14,1.52-.42,1.88-1.86,1.86-6.47-.06-12.95,0-19.42-.07-1.85,0-2.2.52-2.2,2.26.06,21.57,0,43.14.09,64.71,0,1.82-.42,2.36-2.21,2.24a46.57,46.57,0,0,0-6.47,0c-1.64.1-2-.53-2-2,.06-13,0-25.89,0-38.83q0-13.17,0-26.36c0-1.06.21-2-1.47-2-7.11.09-14.23,0-21.34.06a2.32,2.32,0,0,0-.67.23Z" transform="translate(-27.36 -21.92)"/><path class="c" d="M616.47,111.82c-.4,1.37-.78,2.74-1.22,4.1-.21.64-.25,1.49-1.29,1.42-.86-.07-.87-.78-1.1-1.35-.6-1.52-.68-3.23-1.77-4.92,0,1.82,0,3.31,0,4.8,0,.57.3,1.37-.72,1.46s-.88-.68-.88-1.28q0-3.47,0-6.93c0-.62-.09-1.32.92-1.27.74,0,1.37,0,1.64,1,.53,1.91,1.2,3.77,1.91,6a12.6,12.6,0,0,0,1.65-4.55c.39-1.75,1.15-2.67,3-2.41v9.6c-1.09.07-1.76-.22-1.63-1.54s.07-2.47.1-3.71c.1-.4.29-1-.14-1.13S616.53,111.46,616.47,111.82Z" transform="translate(-27.36 -21.92)"/><path class="d" d="M524.09,21.92c-.08.69.62.83.9,1.27a3,3,0,0,1-.51,4.26,2.87,2.87,0,0,1-4.08,0,3,3,0,0,1-.54-4.25c.27-.45,1-.59.87-1.29Z" transform="translate(-27.36 -21.92)"/><path class="a" d="M558.32,158.57c3.24-17.19,9-33.07,13.4-49.31a2,2,0,0,1,2.31-1.75c7.28.08,14.56.06,21.84,0,1.32,0,1.84.07,1.3,1.67q-12.79,37.52-25.43,75.06a1.94,1.94,0,0,1-2.18,1.62q-11.28-.09-22.56,0a2,2,0,0,1-2.2-1.6q-12.52-37.59-25.12-75.16c-.46-1.35-.25-1.61,1.11-1.6q11,.06,22.08,0c1.09,0,1.72.2,2.06,1.41,4,13.89,8.73,27.55,12,41.64C557.47,153,557.78,155.44,558.32,158.57Z" transform="translate(-27.36 -21.92)"/><path class="e" d="M137.22,151.64,159,185.3c-4,0-7.65-.06-11.29,0-1.38,0-1.72-.95-2.26-1.79-6.29-9.8-12.59-19.59-18.8-29.45a3.81,3.81,0,0,0-3.81-2.09c-5.19.14-10.4.11-15.59,0-1.65,0-2.16.37-2.14,2.09.09,9.67,0,19.34.09,29,0,1.82-.46,2.41-2.25,2.22-2.6-.27-6.1,1.1-7.58-.53-1.29-1.43-.4-4.87-.4-7.42,0-22.61,0-45.23-.06-67.85,0-2,.49-2.51,2.49-2.48,11.43.15,22.87.1,34.3.23,5.33.06,10.54.84,15,4.12,8.34,6.13,10,14.68,8.28,24.14-1.57,8.7-7.4,13.44-15.74,15.43l-1.63.4C137.53,151.37,137.48,151.45,137.22,151.64Zm-17.38-8.24c4-.17,8.95.4,13.78-.43,9.47-1.62,14-9.53,10.55-18.57-2.11-5.6-6.51-8.23-12.22-8.42-8.46-.28-16.93-.15-25.4-.27-1.49,0-1.42.74-1.42,1.77,0,8.07,0,16.14,0,24.2,0,1.32.3,1.78,1.69,1.75C110.88,143.34,115,143.4,119.84,143.4Z" transform="translate(-27.36 -21.92)"/><path class="e" d="M162.08,144.88A46.33,46.33,0,0,1,163.93,132c5.12-17.43,20.8-28,39.72-26.86,24,1.47,39.11,19.42,37.08,44a48.37,48.37,0,0,1-4.82,18.4c-7,13.63-21.26,21-37.8,19.67C175.7,185.35,162,169.63,162.08,144.88Zm67.41,1a42.54,42.54,0,0,0-1.61-12.55c-3.66-12.64-13.06-19.73-26.15-19.78-13.38-.06-22.79,6.82-26.52,19.56a44.55,44.55,0,0,0,0,26c3.14,10.34,9.59,17.37,20.57,19.47,15.53,3,28.07-4.9,32.15-20.13A45.89,45.89,0,0,0,229.49,145.88Z" transform="translate(-27.36 -21.92)"/><path class="e" d="M368.31,122.61c-.61,2.39.17,4.56.2,6.76.22,17.9.43,35.8.74,53.69,0,1.79-.37,2.43-2.21,2.27a38.19,38.19,0,0,0-5.76,0c-1.55.11-1.8-.5-1.8-1.91q.06-37.29,0-74.57c0-1.28.24-1.76,1.66-1.8,7.92-.22,7.92-.26,12.36,6.3l37.3,55.12c.16.24.36.46.8,1,0-5.05,0-9.7,0-14.36-.1-15.18-.19-30.36-.38-45.54,0-1.9.31-2.8,2.41-2.53,2.27.29,5.32-1,6.64.51,1.13,1.28.37,4.25.37,6.47,0,22.94,0,45.87.06,68.81,0,2-.58,2.27-2.47,2.55-5.3.79-8.18-1.47-11-5.85-12.08-18.51-24.6-36.73-37-55C369.75,123.83,369.52,122.87,368.31,122.61Z" transform="translate(-27.36 -21.92)"/><path class="b" d="M315,161.39c-4.32,0-8.63.06-13,0a2.25,2.25,0,0,0-2.55,1.81c-2.39,6.76-4.91,13.47-7.3,20.24-.5,1.39-1.14,2-2.71,1.94-2.47-.15-5-.08-7.43,0-1.26,0-1.72-.13-1.17-1.57q14.4-37.6,28.69-75.26a1.86,1.86,0,0,1,2.09-1.43c2.63.08,5.28.1,7.91,0,1.22,0,1.64.49,2,1.52Q335.3,146.2,349,183.82c.42,1.17.36,1.64-1,1.48a1.92,1.92,0,0,0-.24,0c-3,0-6.64.91-8.94-.42s-2.28-5.18-3.31-7.92c-1.7-4.55-3.35-9.13-4.86-13.75-.49-1.51-1.23-1.89-2.73-1.86C323.67,161.45,319.36,161.39,315,161.39Zm.49-41.29c-3.4,9.24-6.6,17.91-9.78,26.58-.68,1.86-1.26,3.76-1.88,5.63,2,.64,4.08.26,6.12.28,5.57.06,11.14,0,16.93,0C323.11,141.75,319.4,131.16,315.53,120.1Z" transform="translate(-27.36 -21.92)"/><path class="f" d="M240.82,174.86a20.55,20.55,0,0,0,13.3,1.68c4.7-1,6.85-3.35,7.6-8a44.17,44.17,0,0,0,.32-7.18c0-17.33,0-34.67,0-52,0-1.85.38-2.55,2.33-2.39a57.76,57.76,0,0,0,6.71,0c1.24,0,1.74.32,1.64,1.6s0,2.56,0,3.84c0,18.29,0,36.59,0,54.88,0,6.73-2.05,12.38-7.78,16.33a19.83,19.83,0,0,1-9.38,3.35,49.38,49.38,0,0,1-12.9-.5c-1.32-.21-1.91-.64-1.85-2.11C240.91,181.31,240.82,178.27,240.82,174.86Z" transform="translate(-27.36 -21.92)"/><path class="g" d="M490.16,95a6,6,0,1,1-.08-12.06A6,6,0,0,1,490.16,95Z" transform="translate(-27.36 -21.92)"/><path class="g" d="M550.62,95.25a6,6,0,1,1,6-6.19A6.16,6.16,0,0,1,550.62,95.25Z" transform="translate(-27.36 -21.92)"/><path class="g" d="M548.2,73.36a6,6,0,0,1-6.06,6,6,6,0,0,1,0-12.06A6,6,0,0,1,548.2,73.36Z" transform="translate(-27.36 -21.92)"/><path class="g" d="M522.56,58.89a6,6,0,1,1-6.16,6A6,6,0,0,1,522.56,58.89Z" transform="translate(-27.36 -21.92)"/><path class="g" d="M496.17,72.16a6,6,0,0,1,6.06-6,6,6,0,0,1,0,12A5.93,5.93,0,0,1,496.17,72.16Z" transform="translate(-27.36 -21.92)"/><path class="g" d="M575.8,89.31a4.69,4.69,0,1,1-9.38-.33,4.69,4.69,0,0,1,9.38.33Z" transform="translate(-27.36 -21.92)"/><path class="d" d="M561.43,58.78a4.69,4.69,0,1,1-4.78-4.63A4.74,4.74,0,0,1,561.43,58.78Z" transform="translate(-27.36 -21.92)"/><path class="d" d="M492.31,57.71A4.69,4.69,0,1,1,487.66,53,4.71,4.71,0,0,1,492.31,57.71Z" transform="translate(-27.36 -21.92)"/><path class="d" d="M469.37,84.31a4.65,4.65,0,0,1,4.76,4.6,4.67,4.67,0,1,1-4.76-4.6Z" transform="translate(-27.36 -21.92)"/><path class="g" d="M527.06,44.38A4.6,4.6,0,0,1,522.52,49a4.65,4.65,0,1,1,4.54-4.61Z" transform="translate(-27.36 -21.92)"/><path class="d" d="M590.36,92.38a3.3,3.3,0,0,1-3.2-3.19,3.21,3.21,0,0,1,6.42,0A3.26,3.26,0,0,1,590.36,92.38Z" transform="translate(-27.36 -21.92)"/><path class="d" d="M450.28,92.12A3.25,3.25,0,0,1,447,89a3.22,3.22,0,1,1,3.29,3.08Z" transform="translate(-27.36 -21.92)"/><path class="d" d="M477.15,44a3.16,3.16,0,1,1-6.31,0,3.16,3.16,0,1,1,6.31,0Z" transform="translate(-27.36 -21.92)"/><path class="d" d="M570.45,48.36a3.17,3.17,0,1,1,3.09-3.24A3.18,3.18,0,0,1,570.45,48.36Z" transform="translate(-27.36 -21.92)"/><path class="c" d="M604.81,107.86c1,0,1.91,0,2.86,0,.54,0,1,.11,1,.73s-.44.81-.94.72c-2.15-.4-2,1-2,2.4s0,3,0,4.53c0,.57,0,1.12-.84,1.11s-.82-.56-.82-1.13c0-1.75-.07-3.5,0-5.24.06-1.21-.25-1.79-1.56-1.68-.55,0-1.48.33-1.51-.62,0-1.15,1-.75,1.61-.8S604.1,107.86,604.81,107.86Z" transform="translate(-27.36 -21.92)"/></svg>