<svg xmlns="http://www.w3.org/2000/svg" viewBox="0 0 379.22 90.11"><defs><style>.a{fill:#242225;}.b{fill:#222024;}.c{fill:#272528;}.d{fill:#232124;}</style></defs><path class="a" d="M375.89,115.61c-2.84-1.78-5.76-3.49-7.58-6.45-.75-1.22-1.28-.39-1.82.1-7.27,6.63-15.81,6.61-24.52,4.27-8.47-2.27-13.05-9.56-12.69-19.09.41-10.9,5.72-17.3,16.41-19.89a58.59,58.59,0,0,1,15.61-1.43c1.7,0,2.11-.45,2.14-2.12.13-8.61-2.88-11.11-11.39-9.2a36.27,36.27,0,0,0-12.35,5.56c-1.45,1-2.24,1-3.16-.68-1.56-3-3.38-5.79-5.12-8.66-.56-.92-.93-1.59.38-2.32,10.67-6,21.75-10,34.24-7.29,9.17,2,13.89,7.81,13.89,17.24,0,9.2-.23,18.39-.37,27.59-.07,4.46.95,8.46,4.79,11.22,1.17.84.86,1.38.1,2.31-2.45,3-5.29,5.58-7.37,8.84ZM363.06,91.23c-.33-7.73,2.22-7-7.37-6.06l-.29,0c-6.16.9-8.43,3.61-8.17,9.74.2,4.58,3.18,7.67,7.34,7.59,4.89-.08,8.3-3.27,8.33-7.77C362.91,93.76,363,92.78,363.06,91.23Z" transform="translate(-5.91 -25.5)"/><path class="b" d="M42.49,84.92C48,65.6,55,47.34,61.09,28.8c.64-1.91,1.41-2.61,3.48-2.54,5.14.18,10.29.06,15.81.06-2.67,7.7-5.25,15.12-7.82,22.55C65.42,69.49,58.25,90.09,51.2,110.73c-.67,2-1.53,2.56-3.52,2.45a54.35,54.35,0,0,0-9.8,0c-3.1.39-3.8-1.28-4.58-3.59q-10-30.06-20.23-60.07c-2.24-6.63-4.3-13.33-6.77-19.88-1-2.61,0-2.88,2.08-3,4.64-.3,9.28-.7,13.91-1.15,1.47-.14,2.08.42,2.49,1.77C30.42,46.1,37.16,64.58,42.1,83.62,42.17,83.9,42.26,84.18,42.49,84.92Z" transform="translate(-5.91 -25.5)"/><path class="c" d="M143.38,54.78c3.79-2.36,7.19-4.92,11.39-6A24.11,24.11,0,0,1,165.06,48c8.53,1.45,13.15,6.94,13.21,16,.11,15.45,0,30.9.08,46.35,0,2-.72,2.29-2.42,2.24-3.77-.11-7.54-.17-11.3,0-2.25.11-3-.44-3-2.86.13-13.17-.1-26.35.12-39.51.14-8.77-4.29-9.84-11.23-6.63-4.05,1.87-6,4.49-5.88,9.33.36,12.27.07,24.56.17,36.84,0,2.14-.4,3-2.75,2.84-3.84-.26-7.72-.3-11.57-.19-2,0-2.47-.62-2.46-2.54.08-12.87,0-25.75,0-38.62,0-5.54.15-11.09-1.36-16.5-.31-1.11,0-1.61,1.11-1.91,4.18-1.16,8.36-2.35,12.52-3.6,1.24-.38,1.59.19,1.84,1.19C142.54,51.77,142.93,53.09,143.38,54.78Z" transform="translate(-5.91 -25.5)"/><path class="a" d="M105.22,85.88c-5.15,0-10.31.12-15.45,0-2.13-.07-2.44.78-2.29,2.56.79,9.93,7.82,15,17.84,12.75a22.89,22.89,0,0,0,9.82-4.65c1.55-1.29,2.22-.85,3,.64s1.77,2.85,2.69,4.26c2.71,4.15,2.71,4.15-1.55,6.92-12.52,8.14-29,7.79-39.4-.83a26.74,26.74,0,0,1-8.53-12.94,46.41,46.41,0,0,1,0-28.06c4.94-15.71,21.14-23.15,36.47-17,8.4,3.36,12.34,10.12,14,18.53A91.6,91.6,0,0,1,123,84c0,1.62-.54,2-2,2C115.73,85.84,110.48,85.88,105.22,85.88Zm-8-12.2h3.87c6.12,0,6.74-.86,5-7-1-3.48-2.93-6.05-6.69-6.74a8.65,8.65,0,0,0-9,3.22c-1.94,2.51-2.45,5.52-2.68,8.64-.12,1.51.33,1.92,1.74,1.88C92.1,73.63,94.68,73.68,97.25,73.68Z" transform="translate(-5.91 -25.5)"/><path class="a" d="M218.86,85.88c-5.25,0-10.5.07-15.75,0-1.78,0-2.05.5-1.87,2.19,1.16,11.36,9,16.22,20.31,12.43a25.07,25.07,0,0,0,7.75-4.26c1-.8,1.52-.8,2.21.37,1.47,2.46,3.06,4.86,4.69,7.21.75,1.08.82,1.71-.37,2.6-9.63,7.25-20.33,9.65-31.93,6.48s-17.73-11.5-20-22.79a46,46,0,0,1,1.56-24.88c6.23-17.28,28.19-23.62,42-12.17,5.54,4.59,7.5,11,8.46,17.74a115.75,115.75,0,0,1,.74,13c.05,1.68-.43,2.17-2.12,2.13C229.36,85.81,224.11,85.88,218.86,85.88Zm-7.8-12.2h3.56c6.66,0,7-.37,5.29-6.9-.89-3.46-2.86-6.09-6.6-6.8-3.54-.68-6.67.16-9,3.08-1.92,2.4-2.48,5.28-2.77,8.27-.18,1.72.13,2.54,2.12,2.4C206.12,73.55,208.6,73.68,211.06,73.68Z" transform="translate(-5.91 -25.5)"/><path class="d" d="M244.66,94.8c5.59,3.18,11.21,5.83,17.43,6.88,2.76.46,5.5.62,8.11-.76a6.7,6.7,0,0,0,3.92-6.17c0-2.77-1.58-4.64-4-5.8-3.7-1.8-7.81-2.08-11.77-2.87-10.77-2.15-16.21-7.67-16.64-17-.46-10,5.2-17.89,15.24-20.59,10.76-2.9,21-.84,30.75,4,1.06.53,1.19,1,.68,2-1.46,2.91-2.88,5.83-4.23,8.8-.65,1.43-1.44.8-2.3.37A36.88,36.88,0,0,0,270.37,60a12.48,12.48,0,0,0-7,.85,5.5,5.5,0,0,0-3.47,5.08c-.09,2.39,1.33,3.84,3.35,4.8C267,72.43,271,73,274.9,74.09c4.89,1.35,9.69,2.81,13,7.1,6.56,8.45,4.32,21.57-5,28-8.1,5.58-17.17,6.12-26.5,4.43a62.13,62.13,0,0,1-15.88-5.58c-1.54-.75-1.76-1.36-.95-2.87C241.38,101.8,243,98.31,244.66,94.8Z" transform="translate(-5.91 -25.5)"/><path class="a" d="M312.74,31.27c0,5.87.07,11.31,0,16.75,0,1.77.34,2.41,2.25,2.33,3.86-.17,7.73,0,11.59-.07,1.47,0,1.89.35,1.58,1.86a87.3,87.3,0,0,0-1.5,9.06c-.18,1.77-.95,2.07-2.47,2-3.07-.09-6.15.11-9.21-.07-1.95-.12-2.25.61-2.24,2.35.08,9.4,0,18.81.06,28.21,0,7.56,3,9.94,10.28,8,2.35-.63,3,0,3.55,2.07a24.39,24.39,0,0,0,2.48,5.34c.55,1,.43,1.35-.55,1.74-8.15,3.26-16.36,4.7-24.7.76a12.4,12.4,0,0,1-7.61-11.77c-.12-20.89-.08-41.78-.17-62.67A1.9,1.9,0,0,1,297.78,35C302.66,33.79,307.54,32.56,312.74,31.27Z" transform="translate(-5.91 -25.5)"/></svg>