<svg xmlns="http://www.w3.org/2000/svg" viewBox="0 0 358.8 122.53"><defs><style>.a{fill:#040404;}.b{fill:#fe0505;}.c{fill:#080808;}.d{fill:#060606;}.e{fill:#0a0a0a;}.f{fill:#050505;}</style></defs><path class="a" d="M281.42,114c-6.65,0-12.62-.06-18.59,0a3,3,0,0,1-3.3-2.24c-1.25-3.06-3.06-5.91-4.14-9s-2.86-4.31-6.23-4c-2.15.18-3.26.47-3.5,2.88-.29,3-1.29,5.85-1.54,8.81-.23,2.71-1.17,3.78-4,3.62-3.81-.22-7.65-.16-11.47,0-2.31.08-2.77-.66-2.36-2.88Q231.46,83,236.41,54.81c.42-2.44,1.21-3.59,4.07-3.53,9.81.22,19.63,0,29.45.1,11.89.14,17.62,6.79,16.07,18.6-.52,3.94-1.29,7.86-2.12,11.76-.71,3.29-1.84,7-4.62,8.6-8.06,4.75-4.7,10-1.58,15.66C279,108.28,279.92,110.75,281.42,114ZM257.2,82.71c8.88,0,8.88,0,10.21-6.67,1.73-8.71,1.73-8.71-7.51-8.71-8,0-8,0-9.45,7.14C248.78,82.71,248.78,82.71,257.2,82.71Z" transform="translate(-10.28 -21.06)"/><path class="a" d="M193.47,113.81c-3.83,0-7.69.3-11.48-.06-8.34-.8-13.56-6.35-13.05-14.64a162.67,162.67,0,0,1,5.93-33.79c2.34-8.4,8.88-13.19,17.45-14.41a96.21,96.21,0,0,1,23.92-.11c8.47.92,13.36,6.32,12.82,14.81a163.36,163.36,0,0,1-5.83,33.31c-2.57,9.21-9.84,13.92-19.28,14.89a104.6,104.6,0,0,1-10.48.06Zm8.16-47.09c-2.33,0-4.66,0-7,0a3.1,3.1,0,0,0-3.49,2.8c-1.48,8.33-2.85,16.68-4.39,25-.47,2.53.52,3.34,2.84,3.33,4.16,0,8.32-.14,12.47,0,3.06.13,4.54-1,5-4.11.84-5.74,2-11.43,3-17.15C211.7,66.71,211.67,66.71,201.63,66.72Z" transform="translate(-10.28 -21.06)"/><path class="a" d="M309,114c-.59-1.87.51-2.88,1.11-4,9.85-18.25,19.82-36.44,29.54-54.75,1.54-2.89,3.11-4,6.45-4,11.91.17,11.95,0,14.15,11.8,2.9,15.51,5.68,31,8.65,46.53.63,3.32.17,5-3.71,4.46a47.86,47.86,0,0,0-7.48,0c-4,.1-8.3.87-7.91-5.47.11-2-1.66-1.69-2.95-1.7-3.33,0-6.68.23-10-.07-4.23-.38-7.52.39-8.76,5-.46,1.7-1.61,2.27-3.37,2.24C319.41,113.94,314.13,114,309,114Zm30-23.31c9.09.43,9.76-.93,5.4-10.09Z" transform="translate(-10.28 -21.06)"/><path class="b" d="M15,142.73c9.61-12.31,20.37-23.64,30.59-35.42C61,89.6,76.51,72,92,54.45A24.14,24.14,0,0,1,96.7,50c14.49-9.43,29-18.74,43.58-28.08.53-.34,1.11-.58,1.73-.9,1.13,2.13-.76,2.84-1.59,3.78Q102.1,68.18,63.65,111.42a20.76,20.76,0,0,1-4,3.64q-22,14.19-44,28.26A6.28,6.28,0,0,0,15,142.73Z" transform="translate(-10.28 -21.06)"/><path class="c" d="M153.13,67.4h-8c-9.44,0-9.37,0-10.13,9.43-.18,2.22.33,2.94,2.58,2.88,4.83-.14,9.66,0,14.49-.07,2.11,0,2.73.4,2.41,2.81-1.76,13.39-1.67,13.4-15.17,13.4a2.78,2.78,0,0,1-.5,0c-5.44-1.08-8.16.79-8.5,6.68-.21,3.71.21,9-2.55,10.72s-7.73.37-11.66.83c-4.69.54-5.33-.92-4.46-5.41,3.43-17.6,6.42-35.29,9.43-53,.52-3,1.35-4.51,4.93-4.45,14,.24,28,.17,42,0,3.11,0,4.36.28,3.58,4-2.47,12-2.29,12.07-14.42,12.07Z" transform="translate(-10.28 -21.06)"/><path class="d" d="M295,114c-8.85,0-8.84,0-7.24-9,2.94-16.47,5.95-32.93,8.71-49.43.53-3.16,1.43-4.63,4.9-4.3,4.27.4,10.56-1.33,12.4.85,2.33,2.79-.66,8.34-1.4,12.69-2.48,14.54-5.23,29-7.56,43.59-.69,4.34-2.14,6.6-6.83,5.61A14.81,14.81,0,0,0,295,114Z" transform="translate(-10.28 -21.06)"/><path class="e" d="M65.4,79.5C61.07,70.78,56.94,62.36,52.71,54c-1-1.91-.77-2.69,1.52-2.67,5.64.06,11.28.11,16.92,0,2,0,2.89,1,3.73,2.56,5,9.27,5,9.26-1.88,17.16C70.61,73.76,68.15,76.44,65.4,79.5Z" transform="translate(-10.28 -21.06)"/><path class="f" d="M90.64,86.2,104.26,114c-7,0-13.34-.07-19.71,0-3.07,0-3.11-2.58-4-4.29-4-7.73-4-7.78,1.63-14.14C84.79,92.62,87.48,89.7,90.64,86.2Z" transform="translate(-10.28 -21.06)"/><path class="b" d="M11.58,143.32c-.41.09-1.12.35-1.18.24-.35-.58.15-.73.62-.83A6.28,6.28,0,0,1,11.58,143.32Z" transform="translate(-10.28 -21.06)"/></svg>