<?xml version="1.0" encoding="utf-8"?>
<!-- Generator: Adobe Illustrator 25.0.1, SVG Export Plug-In . SVG Version: 6.00 Build 0)  -->
<svg version="1.1" id="Capa_1" xmlns="http://www.w3.org/2000/svg" xmlns:xlink="http://www.w3.org/1999/xlink" x="0px" y="0px"
	 viewBox="0 0 517.1 517.1" style="enable-background:new 0 0 517.1 517.1;" xml:space="preserve">
<style type="text/css">
	.st0{fill:#FFFFFF;}
</style>
<g>
	<g>
		<path class="st0" d="M439.6,77.5c-48.4-48.4-112.6-75-181-75s-132.7,26.6-181,75c-48.4,48.4-75,112.6-75,181s26.6,132.7,75,181
			c48.4,48.4,112.6,75,181,75c46.8,0,92.6-12.8,132.5-36.9c9.4-5.7,12.5-18,6.7-27.5c-5.7-9.4-18-12.5-27.5-6.7
			c-33.6,20.3-72.2,31.1-111.7,31.1c-119.1,0-216-96.9-216-216s96.9-216,216-216s216,96.9,216,216c0,42.6-12.7,84-36.6,119.9
			c-6.1,9.2-3.7,21.6,5.5,27.7s21.6,3.7,27.7-5.5c28.4-42.4,43.4-91.6,43.4-142.1C514.6,190.2,487.9,125.9,439.6,77.5z"/>
		<path class="st0" d="M237.2,154c-14.1-8.2-30.9-8.2-45-0.1c-14.2,8.2-22.6,22.8-22.6,39.2v131c0,16.4,8.5,31,22.6,39.2
			c7,4.1,14.7,6.1,22.5,6.1s15.5-2.1,22.6-6.2l112.8-65.5c14.1-8.2,22.5-22.8,22.5-39.1s-8.4-30.9-22.5-39.1L237.2,154z M330,263
			l-112.8,65.5c-2.1,1.2-3.9,0.7-5,0c-1.2-0.7-2.6-2-2.6-4.5V193c0-2.5,1.4-3.8,2.6-4.5c0.6-0.4,1.5-0.7,2.5-0.7
			c0.8,0,1.6,0.2,2.5,0.7L330,254.1c2.1,1.2,2.6,3.1,2.6,4.5C332.6,259.9,332.1,261.8,330,263z"/>
	</g>
</g>
<path class="st0" d="M258.6,514.5c-68.4,0-132.6-26.6-180.9-75c-48.3-48.3-75-112.6-75-180.9S29.3,126,77.7,77.7
	c48.3-48.3,112.6-75,180.9-75c68.4,0,132.6,26.6,180.9,75c48.3,48.3,75,112.6,75,180.9s-26.6,132.6-75,180.9
	C391.2,487.9,327,514.5,258.6,514.5z M258.6,43.7c-118.5,0-214.9,96.4-214.9,214.9s96.4,214.9,214.9,214.9s214.9-96.4,214.9-214.9
	S377.1,43.7,258.6,43.7z"/>
</svg>
