<svg id="Group_3" data-name="Group 3" xmlns="http://www.w3.org/2000/svg" xmlns:xlink="http://www.w3.org/1999/xlink" width="50" height="49.983" viewBox="0 0 50 49.983">
  <defs>
    <clipPath id="clip-path">
      <rect id="Rectangle_2" data-name="Rectangle 2" width="50" height="49.983" fill="#fff"/>
    </clipPath>
  </defs>
  <g id="Group_2" data-name="Group 2" clip-path="url(#clip-path)">
    <path id="Path_58" data-name="Path 58" d="M21.787,0H28.23c0,.715.011,1.43,0,2.145a.871.871,0,0,0,.513.956.9.9,0,0,0,1.039-.332c.415-.435.855-.846,1.271-1.28.167-.175.272-.2.459-.011q2.038,2.064,4.1,4.1c.213.21.165.318-.021.494-.447.425-.871.876-1.314,1.306a.834.834,0,0,0,.61,1.5c.585,0,1.172.027,1.755-.01.406-.026.5.128.472.5s-.006.747-.006,1.121c0,.808,0,.807.832.808,2.747,0,5.493-.021,8.239.024a3.9,3.9,0,0,1,3.651,2.871c.055.185.113.369.17.554v32.41a1.956,1.956,0,0,1-2.088,1.227c-8.3-.023-16.593-.011-24.889-.018a.754.754,0,0,0-.807.431,2.238,2.238,0,0,1-2.1,1.19q-8.809,0-17.618,0A2.406,2.406,0,0,1,.02,47.474c-.007-1.545,0-3.091,0-4.636A2.385,2.385,0,0,1,.455,41.37a.355.355,0,0,0,.005-.506,2.421,2.421,0,0,1-.445-1.515q.014-2.269,0-4.539A2.39,2.39,0,0,1,.464,33.3a.353.353,0,0,0-.012-.5,2.408,2.408,0,0,1-.437-1.469C.023,29.861.072,28.394,0,26.933A2.5,2.5,0,0,1,2.75,24.2c.424.04.5-.127.5-.518-.017-2.684-.01-5.368-.009-8.052a4.041,4.041,0,0,1,4.321-4.335c1.594,0,3.189-.022,4.782.012.49.011.616-.143.575-.6s.013-.912-.016-1.365c-.022-.352.067-.492.45-.471.6.034,1.2.008,1.805.009a.829.829,0,0,0,.595-1.482c-.453-.444-.89-.9-1.349-1.342-.179-.17-.192-.276-.007-.459Q16.462,3.551,18.5,1.487c.176-.178.283-.192.461,0,.448.471.918.922,1.375,1.385a.824.824,0,0,0,1.447-.622c-.005-.748,0-1.5,0-2.245m4.881,12.894H7.633a2.462,2.462,0,0,0-2.774,2.757q0,3.71,0,7.419c0,1.129,0,1.109,1.115,1.133.422.009.5-.133.5-.524-.018-2.392.029-4.784-.025-7.175a1.8,1.8,0,0,1,1.991-2q18.182.044,36.363.017c1.411,0,1.974.566,1.974,1.983q0,12.983,0,25.967c0,1.066,0,1.042,1.055,1.076.453.014.564-.122.564-.565q-.018-13.667-.01-27.334a2.468,2.468,0,0,0-2.779-2.755H26.669m10.4,30.642c2.538,0,5.075-.008,7.613.009.387,0,.49-.108.488-.489q-.024-3.562,0-7.124c0-.349-.078-.48-.458-.479q-7.612.018-15.225,0c-.374,0-.462.116-.459.473.015,2.359.018,4.717,0,7.076,0,.418.087.55.531.545,2.5-.024,5.01-.011,7.515-.011m-25.734-11.3q4.3,0,8.59,0c.793,0,1.06-.265,1.062-1.049q.006-2.172,0-4.344c0-.775-.286-1.054-1.069-1.054q-8.614,0-17.229,0c-.784,0-1.051.269-1.054,1.061q-.008,2.148,0,4.295c0,.859.241,1.092,1.11,1.092q4.295,0,8.59,0m-.046,16.126q4.319,0,8.638,0c.79,0,1.058-.269,1.06-1.054q.006-2.172,0-4.343c0-.771-.285-1.052-1.072-1.052q-8.614,0-17.227,0c-.786,0-1.049.27-1.052,1.064q-.008,2.123,0,4.246c0,.917.229,1.14,1.163,1.14q4.246,0,8.492,0m.006-14.5q-4.319,0-8.639,0c-.744,0-1.015.253-1.019.983q-.013,2.221,0,4.441c0,.751.283,1.021,1.044,1.021q8.614,0,17.229,0c.8,0,1.077-.278,1.079-1.094q0-2.123,0-4.246c0-.856-.252-1.106-1.1-1.106h-8.59m4.86-17.752q-3.8,0-7.608,0c-.215,0-.466-.077-.462.305.012,1.414.008,2.829,0,4.243,0,.234.094.309.32.309q4.511-.007,9.023,0c.255,0,.344-.089.338-.34-.012-.569,0-1.138,0-1.707,0-1.233,0-1.22,1.236-1.193.321.007.374.131.366.406-.016.536,0,1.073,0,1.609,0,1.306,0,1.3,1.3,1.227.26-.014.335-.1.33-.349-.011-.569,0-1.138,0-1.707,0-1.232,0-1.224,1.241-1.185.273.008.369.085.36.362-.018.568-.005,1.138,0,1.707,0,1.178,0,1.158,1.161,1.177.412.007.479-.146.474-.506-.018-1.284-.023-2.569,0-3.853.008-.4-.095-.521-.508-.518-2.52.02-5.04.01-7.56.01m20.961,0c-2.538,0-5.076.006-7.614-.007-.347,0-.485.064-.478.45.024,1.334.014,2.668.006,4,0,.264.028.419.36.418q4.49-.016,8.98,0c.253,0,.346-.086.341-.338-.011-.569,0-1.139,0-1.708,0-1.262,0-1.255,1.293-1.191.25.012.342.082.335.338-.015.569,0,1.139,0,1.708,0,1.24,0,1.227,1.233,1.2.319-.008.38-.135.373-.41-.014-.536,0-1.074,0-1.611,0-1.268,0-1.26,1.263-1.222.27.008.372.077.363.36-.019.569-.006,1.139-.006,1.708,0,1.2,0,1.19,1.2,1.175.333,0,.41-.124.407-.428-.012-1.318-.018-2.636,0-3.953.006-.38-.1-.494-.489-.491-2.522.017-5.043.009-7.565.009m-.008,6.448c-2.536,0-5.073.007-7.609-.008-.352,0-.481.075-.475.454.023,1.349.014,2.7,0,4.048,0,.27.079.368.36.367q4.487-.012,8.975,0c.295,0,.354-.122.349-.378-.012-.553,0-1.106,0-1.658,0-1.229,0-1.216,1.23-1.2.333,0,.411.117.4.423-.021.552-.006,1.105-.006,1.658,0,1.194,0,1.184,1.213,1.162.293-.005.4-.086.394-.386-.018-.552,0-1.105,0-1.658,0-1.225,0-1.216,1.237-1.2.288,0,.4.07.391.38-.023.568-.007,1.138-.007,1.707,0,1.169,0,1.156,1.172,1.155.341,0,.445-.1.441-.441-.016-1.317-.022-2.634,0-3.951.007-.4-.132-.482-.5-.48-2.52.015-5.04.008-7.56.008M37.1,29.011q-3.805,0-7.611,0c-.259,0-.469-.02-.464.362.019,1.382.011,2.765,0,4.147,0,.234.047.354.32.353q4.513-.012,9.026,0c.258,0,.34-.091.335-.339-.012-.569,0-1.138,0-1.707,0-1.22,0-1.21,1.24-1.191.29,0,.4.073.389.381-.023.552-.006,1.106-.006,1.658,0,1.269,0,1.261,1.271,1.2.256-.012.34-.1.335-.343-.011-.553,0-1.106,0-1.659,0-1.3,0-1.291,1.291-1.237.249.01.342.075.335.334-.016.585,0,1.171,0,1.756,0,1.163,0,1.149,1.175,1.15.344,0,.442-.106.438-.442-.016-1.3-.027-2.6,0-3.9.011-.452-.148-.531-.558-.528-2.5.018-5.009.009-7.513.009m-3.243-17.72c.39,0,.782-.024,1.17.007.372.029.465-.108.467-.468,0-.434-.266-.358-.518-.361A2.4,2.4,0,0,1,32.4,8.623a2.266,2.266,0,0,1,.759-2.376c.389-.34.346-.545-.014-.857-.441-.382-.834-.821-1.248-1.235-.589-.59-.585-.586-1.189-.046a2.3,2.3,0,0,1-2.575.478,2.282,2.282,0,0,1-1.492-2.1,4.486,4.486,0,0,1-.013-.536c.015-.255-.094-.343-.344-.339-.618.011-1.236,0-1.854,0-.968,0-.967,0-1.055.962a2.272,2.272,0,0,1-1.478,2.007,2.283,2.283,0,0,1-2.465-.379,3.551,3.551,0,0,1-.456-.439c-.168-.2-.292-.183-.469,0C18,4.3,17.474,4.808,16.956,5.325c-.487.487-.489.49-.019.977a2.318,2.318,0,0,1,.577,2.639,2.36,2.36,0,0,1-2.565,1.525c-.314-.018-.428.08-.423.409,0,.308.081.432.412.423.813-.021,1.626-.023,2.439,0,.334.01.44-.116.5-.427a7.237,7.237,0,0,1,14.271,0c.055.309.154.454.493.43.4-.029.813-.007,1.219-.007M27.435,29.874V17.185c0-1.072,0-1.043-1.059-1.083-.488-.018-.581.14-.58.6q.021,12.86.01,25.719c0,1.12,0,1.1,1.108,1.129.449.014.531-.13.529-.546-.015-4.376-.009-8.752-.009-13.128M35.478,46.76H47.385c1,0,1,0,1-.98,0-.636,0-.637-.628-.637H23.7c-1.123,0-1.1,0-1.127,1.115-.009.406.1.513.51.511,4.132-.015,8.263-.009,12.4-.009m-19.306-24.2H9.248c-1.181,0-1.16,0-1.174,1.166,0,.415.157.473.513.471,2.048-.014,4.1-.007,6.143-.006,1.837,0,3.673-.013,5.51.01a2.386,2.386,0,0,1,2.334,2.136c.034.349-.161.836.11,1.013s.722.041,1.092.073c.339.029.447-.087.442-.433-.019-1.316-.022-2.633,0-3.949.007-.388-.107-.49-.49-.487-2.519.017-5.038.008-7.558.008m13.5-11.271H30c.622,0,.622,0,.467-.61a5.628,5.628,0,0,0-10.84-.229c-.251.839-.251.839.594.839a1.835,1.835,0,0,1,.292,0c.409.067.575-.11.7-.507a3.948,3.948,0,0,1,3.675-2.712,3.906,3.906,0,0,1,3.841,2.536c.2.556.438.819.939.68M24.211,39.507V36.68c0-1.271,0-1.26-1.256-1.227-.309.008-.38.118-.377.4.012,1.17,0,2.34.008,3.51a2.344,2.344,0,0,1-.447,1.511c-.157.2-.107.324.021.5a2.3,2.3,0,0,1,.417,1.128c.036.333-.153.787.1.969.231.163.656.052,1,.062a.4.4,0,0,1,.049,0c.37.058.5-.071.5-.47-.028-1.185-.01-2.372-.01-3.558m0-8.057v-1.22c0-1.268,0-1.257-1.256-1.227-.311.007-.385.118-.377.4.017.585-.008,1.172.008,1.757a2.587,2.587,0,0,1-.473,1.7c-.063.084-.157.158-.065.3.263.391.437.884,1.085.716a1.95,1.95,0,0,1,.681,0c.336.037.411-.114.4-.42-.019-.666-.006-1.334-.006-2m.748-20.16c.665,0,1.33-.007,2,0,.279,0,.306-.1.186-.315a2.4,2.4,0,0,0-4.263,0c-.119.207-.1.321.183.316.633-.011,1.265,0,1.9,0" transform="translate(0)" fill="#fff"/>
    <path id="Path_59" data-name="Path 59" d="M241.964,298.244c-.772,0-.772,0-.772-.757,0-.867,0-.867.863-.867.13,0,.26.01.388,0,.266-.024.4.074.372.355-.013.145,0,.291,0,.437,0,.834,0,.834-.85.834" transform="translate(-209.737 -257.932)" fill="#fff"/>
    <path id="Path_60" data-name="Path 60" d="M316.97,297.449c0,.827,0,.827-.809.827s-.818,0-.818-.813,0-.816.828-.81c.929.007.785-.115.8.8" transform="translate(-274.217 -257.963)" fill="#fff"/>
    <path id="Path_61" data-name="Path 61" d="M279.958,297.48c0,.8,0,.8-.83.8-.77,0-.77,0-.77-.769,0-.855,0-.855.838-.855.762,0,.762,0,.762.826" transform="translate(-242.056 -257.966)" fill="#fff"/>
    <path id="Path_62" data-name="Path 62" d="M24.85,211c0-.77,0-.77.757-.771.861,0,.861,0,.861.873,0,.129-.009.26,0,.388.02.248-.078.36-.334.338-.145-.013-.291,0-.437,0-.849,0-.849,0-.849-.826" transform="translate(-21.609 -182.812)" fill="#fff"/>
    <path id="Path_63" data-name="Path 63" d="M74.283,211c0-.774,0-.774.952-.774.672,0,.672,0,.672.917,0,.68,0,.68-1.01.679-.614,0-.614,0-.614-.822" transform="translate(-64.595 -182.813)" fill="#fff"/>
    <path id="Path_64" data-name="Path 64" d="M50.322,210.149c.812,0,.812,0,.812.826a2.635,2.635,0,0,0,0,.34c.044.339-.1.438-.434.439-1.205,0-1.192.015-1.2-1.175,0-.336.085-.48.43-.432a2.792,2.792,0,0,0,.388,0" transform="translate(-43.048 -182.732)" fill="#fff"/>
    <path id="Path_65" data-name="Path 65" d="M24.85,334.6c0-.78,0-.78.8-.78.821,0,.826,0,.82.815-.007.912.116.782-.808.79-.808.007-.808,0-.808-.825" transform="translate(-21.609 -290.286)" fill="#fff"/>
    <path id="Path_66" data-name="Path 66" d="M50.39,333.822c.8,0,.8,0,.8.79,0,.816,0,.816-.834.816-.788,0-.788,0-.788-.8s0-.8.823-.8" transform="translate(-43.103 -290.286)" fill="#fff"/>
    <path id="Path_67" data-name="Path 67" d="M75.1,333.822c.808,0,.808,0,.808.829a2.036,2.036,0,0,0,0,.292c.057.385-.1.5-.487.493-1.14-.01-1.141.005-1.139-1.045,0-.569,0-.569.816-.569" transform="translate(-64.595 -290.286)" fill="#fff"/>
    <path id="Path_68" data-name="Path 68" d="M50.35,271.924c.839,0,.839,0,.838.856,0,.016,0,.032,0,.049-.011.85.086.713-.721.72-.9.008-.9,0-.9-.871,0-.753,0-.753.783-.753" transform="translate(-43.103 -236.461)" fill="#fff"/>
    <path id="Path_69" data-name="Path 69" d="M75.072,273.552c-.79,0-.79,0-.79-.937,0-.69,0-.7.946-.687.808.008.672-.127.675.966,0,.792.1.642-.83.658" transform="translate(-64.594 -236.463)" fill="#fff"/>
    <path id="Path_70" data-name="Path 70" d="M25.639,273.55c-.788,0-.788,0-.788-.983,0-.643,0-.65.94-.641.8.008.667-.131.677.964.006.66,0,.66-.829.66" transform="translate(-21.61 -236.461)" fill="#fff"/>
    <path id="Path_71" data-name="Path 71" d="M77.41,137.606c-.942,0-1.885-.008-2.827.005-.28,0-.394-.053-.4-.371-.02-1.232-.033-1.232,1.194-1.232,1.608,0,3.217.008,4.825-.007.327,0,.447.07.446.424,0,1.18.012,1.18-1.143,1.18h-2.1" transform="translate(-64.505 -118.266)" fill="#fff"/>
    <path id="Path_72" data-name="Path 72" d="M238.217,137.606c-.942,0-1.884-.01-2.826.006-.289,0-.388-.068-.393-.377-.018-1.227-.03-1.227,1.2-1.227,1.608,0,3.216.008,4.824-.007.331,0,.445.08.444.43,0,1.174.012,1.174-1.151,1.174h-2.1" transform="translate(-204.347 -118.266)" fill="#fff"/>
    <path id="Path_73" data-name="Path 73" d="M238.155,187.061c-.942,0-1.884-.008-2.826.005-.271,0-.356-.077-.364-.356-.036-1.246-.045-1.245,1.175-1.245,1.624,0,3.248.007,4.872-.006.313,0,.415.08.416.406.006,1.2.019,1.2-1.178,1.2h-2.1" transform="translate(-204.314 -161.272)" fill="#fff"/>
    <path id="Path_74" data-name="Path 74" d="M238.235,234.919c.958,0,1.917.008,2.875,0,.265,0,.362.064.37.35.036,1.252.046,1.252-1.223,1.252-1.608,0-3.216-.007-4.824.006-.31,0-.415-.078-.417-.4-.008-1.2-.02-1.2,1.172-1.2h2.046" transform="translate(-204.365 -204.278)" fill="#fff"/>
  </g>
</svg>
