<svg id="Group_5" data-name="Group 5" xmlns="http://www.w3.org/2000/svg" xmlns:xlink="http://www.w3.org/1999/xlink" width="50" height="49.974" viewBox="0 0 50 49.974">
  <defs>
    <clipPath id="clip-path">
      <rect id="Rectangle_3" data-name="Rectangle 3" width="50" height="49.974" fill="#fff"/>
    </clipPath>
  </defs>
  <g id="Group_4" data-name="Group 4" clip-path="url(#clip-path)">
    <path id="Path_75" data-name="Path 75" d="M232.9,111.952c-.145.106-.128.287-.2.429a2.359,2.359,0,0,1-2.043,1.442c-.372.028-.748.016-1.122.016q-8.271,0-16.541,0A2.428,2.428,0,0,1,210.4,112a2.68,2.68,0,0,1-.066-.627c-.006-1.041-.011-2.082,0-3.123a2.362,2.362,0,0,1,2.078-2.433c.286-.044.357-.152.334-.4-.007-.081,0-.163,0-.244a2.562,2.562,0,0,0-.036-.869c-.121-.3-.514-.163-.777-.264a2.425,2.425,0,0,1-1.593-2.193q-.028-1.683,0-3.367a2.344,2.344,0,0,1,2.026-2.326c.336-.048.411-.177.383-.462-.006-.064,0-.13,0-.2a2.489,2.489,0,0,0-.036-.869c-.121-.29-.513-.161-.777-.261a2.422,2.422,0,0,1-1.593-2.193c-.019-1.138-.023-2.277,0-3.415a2.36,2.36,0,0,1,2.214-2.3c.227-.016.455-.014.683-.015,5.514,0,11.028.031,16.541-.021,1.512-.014,2.587.438,3.117,1.908v4.2a2.71,2.71,0,0,1-2.215,1.993c-.462.09-.148.694-.2,1.059-.024.177-.169.5.2.543A2.527,2.527,0,0,1,232.9,98.09v4.1a2.741,2.741,0,0,1-1.547,1.828c-.286.124-.729-.043-.849.306a3.331,3.331,0,0,0-.03,1.015c0,.081,0,.162,0,.243,0,.136.062.2.2.215a2.514,2.514,0,0,1,2.22,1.957ZM221.6,88.043q-4.319,0-8.639,0c-.726,0-1.019.284-1.025,1q-.012,1.415,0,2.831c0,.72.292,1.018,1.006,1.019q8.663.006,17.326,0c.726,0,1.011-.282,1.018-1,.009-.895,0-1.789,0-2.684,0-.926-.237-1.163-1.147-1.164H221.6m0,24.194q4.344,0,8.687,0c.7,0,.988-.28,1-.969q.017-1.44,0-2.879c-.007-.718-.291-1-1.019-1q-8.663,0-17.326,0c-.714,0-1,.3-1,1.019-.006.895,0,1.789,0,2.684s.255,1.143,1.126,1.143H221.6m0-9.669q4.319,0,8.639,0c.759,0,1.041-.275,1.048-1.021q.012-1.415,0-2.831c-.007-.718-.293-1-1.017-1q-8.663,0-17.326,0c-.713,0-1,.3-1.007,1.019-.007.895,0,1.79,0,2.684s.257,1.15,1.173,1.15H221.6m-.021-8.078h-6.142c-1.081,0-1.052,0-1.091,1.094-.017.483.167.544.58.543,4.274-.013,8.548-.008,12.821-.008,1.143,0,1.128,0,1.142-1.145,0-.378-.092-.5-.485-.493-2.275.019-4.55.009-6.825.009m.054,11.3h6.191c1.059,0,1.037,0,1.067-1.074.013-.447-.115-.568-.564-.566-4.274.017-8.548.01-12.821.01-1.159,0-1.144,0-1.156,1.174,0,.361.088.468.458.465,2.275-.017,4.55-.009,6.825-.009" transform="translate(-182.899 -75.15)" fill="#fff"/>
    <path id="Path_76" data-name="Path 76" d="M89.589,0l6.355,3.99c.868.545.866,1.151-.007,1.7q-2.976,1.863-5.953,3.725a.87.87,0,0,1-1.464-.821c0-.032,0-.065,0-.1,0-1.246,0-1.246-1.224-1.246q-11.592,0-23.184.01c-.46,0-.613-.1-.594-.581.04-1.027.011-1.028,1.059-1.028H88.884c1.067,0,1.244.177,1.263,1.243,0,.136-.071.319.077.4.124.066.233-.08.338-.145,1.212-.754,2.422-1.513,3.694-2.309L90.21,2.305a2,2,0,0,0-.065.745c-.026.7-.294.967-1,.968q-3.832,0-7.663,0-9.493,0-18.987.012c-.482,0-.6-.133-.583-.6.034-1.008.009-1.008,1.034-1.008q12.495,0,24.99.011c.463,0,.656-.1.586-.581-.037-.255.01-.521-.01-.78A1.024,1.024,0,0,1,89.1,0Z" transform="translate(-53.841)" fill="#fff"/>
    <path id="Path_77" data-name="Path 77" d="M11.283,113.976c-2.814,0-5.629-.053-8.441.018a2.57,2.57,0,0,1-2.834-2.82c.065-.89.009-1.788.013-2.683a2.465,2.465,0,0,1,2.123-2.566c.65-.141.184-.726.286-1.093.056-.2.141-.5-.3-.562a2.368,2.368,0,0,1-2.109-2.456q-.011-1.537,0-3.074A2.382,2.382,0,0,1,2.13,96.28c.253-.04.341-.127.318-.367-.011-.113,0-.228,0-.341a2.255,2.255,0,0,0-.035-.82c-.119-.27-.49-.146-.742-.236a2.437,2.437,0,0,1-1.642-2.21c-.021-1.138-.026-2.277,0-3.415a2.379,2.379,0,0,1,2.227-2.3c.13-.009.26-.013.39-.013q8.661,0,17.322,0a2.4,2.4,0,0,1,2.545,1.834,2.673,2.673,0,0,1,.068.627c.007,1.041.011,2.082,0,3.123A2.367,2.367,0,0,1,20.5,94.6c-.283.045-.36.149-.336.4.008.081,0,.163,0,.244a2.577,2.577,0,0,0,.036.869c.12.3.513.163.776.264a2.423,2.423,0,0,1,1.593,2.193q.03,1.683,0,3.367a2.348,2.348,0,0,1-2.026,2.327c-.336.048-.411.178-.382.463,0,.048,0,.1,0,.146a2.747,2.747,0,0,0,.037.918c.115.291.513.16.776.26a2.423,2.423,0,0,1,1.593,2.193c.02,1.057.013,2.114.007,3.171a2.393,2.393,0,0,1-2.565,2.559c-2.293.011-4.587,0-6.88,0H11.283m.035-25.8q-4.344,0-8.687,0c-.7,0-.986.279-.994.97q-.016,1.44,0,2.879c.007.717.291,1,1.02,1q8.639,0,17.277,0c.772,0,1.05-.288,1.054-1.071,0-.878,0-1.757,0-2.635s-.257-1.14-1.128-1.141H11.318m-.073,24.194q4.319,0,8.639,0c.837,0,1.1-.269,1.1-1.118q0-1.318,0-2.635c0-.816-.273-1.094-1.079-1.094q-8.614,0-17.228,0c-.764,0-1.038.269-1.044,1.021-.008.911-.005,1.822,0,2.733,0,.846.258,1.093,1.119,1.093h8.492m.049-9.669q4.295,0,8.59,0c.818,0,1.1-.275,1.1-1.074q.006-1.367,0-2.733c0-.751-.29-1.046-1.03-1.047q-8.663,0-17.326,0c-.7,0-.985.286-.993.974-.011.911-.005,1.822,0,2.733s.245,1.146,1.168,1.147h8.492m-.005-8.078H5.1c-1.059,0-1.037,0-1.067,1.074-.012.447.115.568.564.566,4.274-.017,8.548-.01,12.821-.01,1.159,0,1.144,0,1.156-1.173,0-.361-.088-.468-.458-.465-2.275.017-4.55.009-6.825.009m.06,11.3h6.094c1.124,0,1.1,0,1.131-1.1.011-.429-.1-.541-.536-.539-4.29.017-8.58.01-12.87.01-1.138,0-1.12,0-1.137,1.152-.005.39.111.489.492.486,2.275-.017,4.55-.008,6.825-.008" transform="translate(0 -75.287)" fill="#fff"/>
    <path id="Path_78" data-name="Path 78" d="M62.159,311.426l-4.077,2.548c1.329.83,2.6,1.619,3.862,2.413.218.136.231.019.251-.16.157-1.437.159-1.437,1.6-1.437q12.979,0,25.958,0c.73,0,.654-.1.658.64.005.95,0,.95-.933.95q-12.54,0-25.08-.011c-.465,0-.647.1-.586.582a5.9,5.9,0,0,1,.005.975.8.8,0,0,1-1.293.715q-3.152-1.947-6.285-3.926a.817.817,0,0,1,.033-1.511c1.8-1.134,3.61-2.257,5.415-3.385.29-.181.571-.376.868-.542a.8.8,0,0,1,1.257.682c.024.422.017.846,0,1.268-.009.254.081.36.336.335.129-.013.26,0,.39,0q11.832,0,23.665-.011c.483,0,.639.1.616.608-.045,1-.013,1-1.038,1H63.532c-1.171,0-1.318-.144-1.34-1.31,0-.111-.017-.222-.033-.424" transform="translate(-48.476 -268.83)" fill="#fff"/>
    <path id="Path_79" data-name="Path 79" d="M25.7,43.324c.782,0,.782,0,.782.805s0,.792-.8.792c-.819,0-.819,0-.819-.809,0-.789,0-.789.836-.789" transform="translate(-21.622 -37.674)" fill="#fff"/>
    <path id="Path_80" data-name="Path 80" d="M50.363,44.921c-.781,0-.781,0-.781-.8s0-.8.781-.8c.84,0,.84,0,.84.845a1.234,1.234,0,0,0,0,.194c.07.438-.1.636-.551.561a1.805,1.805,0,0,0-.291,0" transform="translate(-43.116 -37.674)" fill="#fff"/>
    <path id="Path_81" data-name="Path 81" d="M323.163,328.493c0,.783,0,.783-.941.783-.681,0-.681,0-.681-.908,0-.691,0-.691,1-.69.622,0,.622,0,.622.814" transform="translate(-279.609 -284.946)" fill="#fff"/>
    <path id="Path_82" data-name="Path 82" d="M347.9,328.51c0,.766,0,.766-.761.766-.857,0-.861,0-.855-.876.005-.834-.091-.708.724-.721h.049c.845,0,.845,0,.845.831" transform="translate(-301.126 -284.945)" fill="#fff"/>
  </g>
</svg>
