<svg id="Group_7" data-name="Group 7" xmlns="http://www.w3.org/2000/svg" xmlns:xlink="http://www.w3.org/1999/xlink" width="50" height="50.002" viewBox="0 0 50 50.002">
  <defs>
    <clipPath id="clip-path">
      <rect id="Rectangle_4" data-name="Rectangle 4" width="50" height="50.002" fill="#fff"/>
    </clipPath>
  </defs>
  <g id="Group_6" data-name="Group 6" clip-path="url(#clip-path)">
    <path id="Path_83" data-name="Path 83" d="M0,131.63c.221-.475.63-.543,1.1-.542,3.613.007,7.227-.005,10.84.015.47,0,.606-.116.591-.59-.036-1.09-.01-1.091-1.1-1.091-.6,0-1.2,0-1.807,0-.655-.005-1.009-.271-1-.739s.359-.72,1.023-.724c.814-.005,1.628-.016,2.441.006.338.009.442-.091.442-.435,0-1.24.014-1.24-1.245-1.24-1.6,0-3.19,0-4.785,0a.567.567,0,0,0-.613.335,2.244,2.244,0,0,1-2.593,1.163,2.291,2.291,0,0,1-.035-4.43,2.249,2.249,0,0,1,2.612,1.123.58.58,0,0,0,.6.354q2.808-.019,5.616,0c.337,0,.451-.088.441-.435a8.782,8.782,0,0,1,.074-1.9c.1-.534.4-.825.825-.781.454.047.707.4.628.972a14.658,14.658,0,0,0-.068,2q0,7.666,0,15.333a2.5,2.5,0,0,0,2.817,2.828q8.179,0,16.358,0c.356,0,.712-.057,1.069-.077.514-.029.833.2.885.627s-.223.728-.719.827a8.619,8.619,0,0,1-1.947.084c-.331-.009-.465.072-.447.428.029.552.017,1.107.006,1.66a1.824,1.824,0,0,0,.592,1.39q2.218,2.2,4.419,4.421a.5.5,0,0,0,.587.158,2.258,2.258,0,0,1,2.692,1.023,2.292,2.292,0,0,1-3.171,3.107,2.253,2.253,0,0,1-.974-2.669.522.522,0,0,0-.193-.621c-1.431-1.423-2.844-2.865-4.289-4.274a3.451,3.451,0,0,1-1.13-2.745c.023-.5-.009-1.009.008-1.513.01-.281-.1-.354-.367-.363-1.307-.044-1.306-.051-1.306,1.271,0,.537,0,1.074,0,1.611-.006.663-.258,1.014-.724,1.023s-.735-.346-.739-1c-.005-.83-.013-1.66,0-2.49.006-.314-.086-.415-.413-.418-1.263-.011-1.263-.023-1.263,1.221q0,5.078,0,10.157c0,.79-.241,1.153-.749,1.14-.488-.012-.716-.366-.717-1.123,0-3.6-.008-7.195.009-10.792,0-.444-.071-.626-.573-.608-1.106.04-1.107.011-1.107,1.138,0,.635.009,1.27,0,1.9-.011.542-.292.866-.72.869s-.725-.322-.735-.86c-.017-.879-.019-1.758,0-2.637.007-.326-.108-.405-.419-.408-1.256-.011-1.256-.021-1.256,1.227,0,1.6.007,3.19-.006,4.785a.608.608,0,0,0,.365.644,2.245,2.245,0,0,1,1.139,2.563,2.292,2.292,0,0,1-4.43.066,2.254,2.254,0,0,1,1.1-2.621.583.583,0,0,0,.37-.593c-.014-1.872-.018-3.744,0-5.615,0-.374-.111-.467-.469-.456a5.7,5.7,0,0,1-2.729-.356,3.89,3.89,0,0,1-2.291-3.673c-.009-.342-.017-.685,0-1.025.017-.3-.055-.443-.4-.427-.585.026-1.172.012-1.758.008a1.654,1.654,0,0,0-1.229.5q-2.279,2.279-4.558,4.557c-.135.135-.231.252-.142.463a2.267,2.267,0,0,1-1.46,2.969,2.285,2.285,0,0,1-2.9-1.609A.524.524,0,0,0,0,145.6v-.977c.149-.082.128-.251.184-.378a2.248,2.248,0,0,1,2.735-1.291.627.627,0,0,0,.75-.213c1.431-1.446,2.88-2.873,4.31-4.32a3.292,3.292,0,0,1,2.529-1.056c.26.007.521,0,.781,0,1.277,0,1.266,0,1.237-1.3-.007-.309-.114-.382-.4-.378q-1.293.021-2.587,0c-.581-.008-.915-.285-.92-.727s.331-.723.906-.732c.634-.01,1.269,0,1.9,0,1.09,0,1.064,0,1.1-1.095.016-.48-.13-.589-.594-.586-3.612.019-7.225.007-10.837.015-.469,0-.877-.066-1.1-.542Zm2.316,12.689a.831.831,0,0,0-.844.822.864.864,0,0,0,.809.823.854.854,0,0,0,.841-.836.827.827,0,0,0-.806-.809m36.827,10.2a.852.852,0,0,0-.863-.814.829.829,0,0,0-.784.832.837.837,0,0,0,.851.817.865.865,0,0,0,.8-.835M4.686,125.558a.834.834,0,0,0-.85-.818.847.847,0,0,0-.8.825.824.824,0,0,0,1.648-.007m14.866,27.385a.816.816,0,0,0-.811-.8.834.834,0,0,0-.824.844.849.849,0,0,0,.82.8.823.823,0,0,0,.815-.849" transform="translate(0 -106.822)" fill="#fff"/>
    <path id="Path_84" data-name="Path 84" d="M92.621,0a1.042,1.042,0,0,1,.542,1.1c-.008,3.613,0,7.227-.016,10.84,0,.47.115.606.59.591,1.091-.036,1.091-.01,1.091-1.1,0-.6,0-1.2,0-1.807.005-.655.271-1.009.739-1s.72.358.724,1.023c.005.814.016,1.628-.006,2.441-.009.337.09.442.435.442,1.24,0,1.24.014,1.24-1.245,0-1.6,0-3.19,0-4.785a.567.567,0,0,0-.334-.613A2.242,2.242,0,0,1,96.471,3.29a2.291,2.291,0,0,1,4.429-.035,2.248,2.248,0,0,1-1.122,2.612.58.58,0,0,0-.355.6q.019,2.808,0,5.615c0,.337.087.454.435.44a7.051,7.051,0,0,1,2.087.126,3.884,3.884,0,0,1,2.967,3.919c.006.374.011.749,0,1.123-.008.234.083.314.312.309.667-.013,1.334-.006,2-.015a1.477,1.477,0,0,0,1.042-.469c1.533-1.528,3.059-3.064,4.6-4.587.191-.189.156-.343.09-.562a2.285,2.285,0,1,1,2.73,1.545,1.887,1.887,0,0,1-1.2-.04.535.535,0,0,0-.674.167c-1.418,1.436-2.863,2.846-4.273,4.29a3.454,3.454,0,0,1-2.742,1.138c-.5-.022-1.009.007-1.514-.008-.266-.008-.364.069-.375.354-.049,1.318-.059,1.318,1.26,1.318.586,0,1.172-.011,1.758,0,.564.014.905.32.886.76s-.338.691-.891.7c-.863.011-1.725.012-2.588,0-.3,0-.425.06-.428.4-.012,1.273-.026,1.273,1.261,1.273q5.03,0,10.059,0a2.9,2.9,0,0,1,.678.053.7.7,0,0,1-.012,1.358,3.153,3.153,0,0,1-.679.051c-3.581,0-7.162.009-10.743-.007-.441,0-.58.108-.567.563.032,1.116.008,1.117,1.127,1.117.6,0,1.2,0,1.807,0,.627.006.966.258.976.713s-.347.744-1,.749c-.83.006-1.66.014-2.49,0-.313-.007-.415.084-.419.409-.012,1.266-.024,1.266,1.218,1.266,1.612,0,3.223-.007,4.834.006a.573.573,0,0,0,.6-.357,2.252,2.252,0,0,1,2.559-1.151,2.292,2.292,0,0,1,.084,4.43,2.249,2.249,0,0,1-2.625-1.092.617.617,0,0,0-.638-.378q-2.783.023-5.567,0c-.358,0-.483.085-.467.459a8.1,8.1,0,0,1-.084,1.947.768.768,0,0,1-.834.712.729.729,0,0,1-.615-.9c.161-1.608.066-3.22.072-4.829.017-4.2.006-8.4.005-12.6a2.493,2.493,0,0,0-2.787-2.809q-8.228,0-16.456,0c-.34,0-.68.059-1.02.077a.722.722,0,0,1-.861-.6.752.752,0,0,1,.686-.851,6.575,6.575,0,0,1,1.848-.086c.493.037.611-.142.576-.6-.04-.518-.014-1.041-.01-1.562a1.654,1.654,0,0,0-.5-1.229Q82.641,6.86,80.363,4.58a.418.418,0,0,0-.465-.148A2.281,2.281,0,1,1,78.541.083.5.5,0,0,0,78.655,0h.879a.652.652,0,0,0,.124.075,2.244,2.244,0,0,1,1.6,3c-.083.282.056.386.2.53q2.172,2.175,4.349,4.346a3.2,3.2,0,0,1,1.03,1.836,11.69,11.69,0,0,1,.048,1.51c.006,1.246,0,1.236,1.259,1.224.312,0,.425-.084.417-.409-.019-.878-.017-1.757,0-2.635.01-.538.308-.863.733-.862s.711.325.722.865c.013.634,0,1.269,0,1.9,0,1.135,0,1.111,1.15,1.141.45.012.531-.141.529-.551-.015-3.627,0-7.254-.013-10.881A1.041,1.041,0,0,1,92.231,0ZM79.114,3.122a.825.825,0,0,0,0-1.651.859.859,0,0,0-.829.849.856.856,0,0,0,.827.8m36.842,8.584a.825.825,0,1,0-1.65-.026.825.825,0,0,0,1.65.026M99.514,3.852a.854.854,0,0,0-.812-.814.824.824,0,0,0-.024,1.648.836.836,0,0,0,.836-.834m14.878,27.433a.824.824,0,1,0-.869.8.841.841,0,0,0,.869-.8" transform="translate(-67.423)" fill="#fff"/>
    <path id="Path_85" data-name="Path 85" d="M153.762,137.292c-.115.332.008.475.337.6a3.287,3.287,0,0,1,1.5,5.277.319.319,0,0,0,.006.5,3.23,3.23,0,0,1-.7,4.849.66.66,0,0,0-.317.456,3.29,3.29,0,0,1-3.5,2.594,3.454,3.454,0,0,1-2.232-.957c-.241-.243-.354-.06-.509.079a3.545,3.545,0,0,1-4.958-.256,2.613,2.613,0,0,1-.716-1.565.751.751,0,0,0-.312-.568,3.566,3.566,0,0,1-.881-4.905.366.366,0,0,0-.006-.474,3.311,3.311,0,0,1,1.684-5.028c.229-.091.429-.125.4-.483a2.674,2.674,0,0,1,2.318-2.886,2.981,2.981,0,0,1,2.51.648c.248.213.38.1.573-.053a3.005,3.005,0,0,1,4.7,1.312,2.919,2.919,0,0,1,.111.86m-4.39,8.875c0,.684.016,1.368,0,2.051a1.667,1.667,0,0,0,1.079,1.735,2.128,2.128,0,0,0,2.273-.4,1.425,1.425,0,0,0-.035-2.121,3.674,3.674,0,0,0-.791-.473.732.732,0,0,1-.383-.977.747.747,0,0,1,1-.333,2.941,2.941,0,0,1,1.543,1.138c.242.373.368.281.567-.011a1.791,1.791,0,0,0-.641-2.6c-.732-.51-.735-1.005,0-1.511a2.163,2.163,0,0,0,.735-.763,1.959,1.959,0,0,0-1.635-2.79,3.452,3.452,0,0,0-1.537.152.722.722,0,1,1-.492-1.357,3.9,3.9,0,0,1,.6-.19c.694-.172.872-.705.381-1.25a1.513,1.513,0,0,0-1.6-.475,1.274,1.274,0,0,0-1.066,1.121c-.051.432-.248.749-.734.75s-.691-.312-.737-.746a1.26,1.26,0,0,0-.833-1.052,1.66,1.66,0,0,0-1.8.357c-.364.4-.367.822-.012,1.47a.717.717,0,0,1-.589,1.16,3.467,3.467,0,0,0-1.305.36,1.863,1.863,0,0,0-.836,2.463c.122.229.244.318.487.161a2.953,2.953,0,0,1,1-.377.721.721,0,1,1,.4,1.384,8.253,8.253,0,0,0-.77.3,2.216,2.216,0,0,0-.914,3.263c.209.3.355.406.621.031a.743.743,0,0,1,1.126-.253c.351.285.358.7-.008,1.158a1.448,1.448,0,0,0-.326,1.319,1.872,1.872,0,0,0,1.84,1.261,1.812,1.812,0,0,0,1.849-1.237,5.572,5.572,0,0,0-.039-2.421c-.168-.623-.741-.87-1.278-1.117a.241.241,0,0,1-.042-.025.691.691,0,0,1-.255-.865.663.663,0,0,1,.782-.438,1.663,1.663,0,0,1,.547.2c.279.16.367.1.361-.217-.012-.683-.007-1.367,0-2.051,0-.569,0-1.14.034-1.707a.639.639,0,0,1,.688-.622.657.657,0,0,1,.708.6,3.528,3.528,0,0,1,.033.632c-.007.292.061.385.361.231a3,3,0,0,1,1.6-.333.648.648,0,0,1,.653.66.657.657,0,0,1-.559.742c-.143.032-.288.051-.433.071a1.706,1.706,0,0,0-1.622,1.842c-.006.7,0,1.4,0,2.1" transform="translate(-123.636 -118.022)" fill="#fff"/>
  </g>
</svg>
