<svg id="Group_9" data-name="Group 9" xmlns="http://www.w3.org/2000/svg" xmlns:xlink="http://www.w3.org/1999/xlink" width="50" height="49.997" viewBox="0 0 50 49.997">
  <defs>
    <clipPath id="clip-path">
      <rect id="Rectangle_5" data-name="Rectangle 5" width="50" height="49.997" fill="#fff"/>
    </clipPath>
  </defs>
  <g id="Group_8" data-name="Group 8" clip-path="url(#clip-path)">
    <path id="Path_86" data-name="Path 86" d="M54.943,25a25.033,25.033,0,0,1-18.332,24.08,1.163,1.163,0,0,1-1.476-.482,1.128,1.128,0,0,1,.809-1.674,23.4,23.4,0,0,0,5.879-2.56,26.374,26.374,0,0,0,3.045-2.232c.286-.239.254-.372.009-.606-.667-.638-1.315-1.3-1.961-1.954a1.145,1.145,0,1,1,1.607-1.6c.672.658,1.339,1.321,1.993,2,.205.212.315.236.527-.011A22.871,22.871,0,0,0,52.613,26.6c.028-.342-.048-.468-.413-.459-.958.022-1.917.014-2.875,0a1.116,1.116,0,0,1-1.079-.646,1.09,1.09,0,0,1,.1-1.158,1.219,1.219,0,0,1,1.072-.48c.905,0,1.811-.019,2.715.007.39.011.519-.077.484-.5a22.781,22.781,0,0,0-5.5-13.229c-.26-.3-.4-.34-.681-.033-.615.663-1.268,1.292-1.915,1.925a1.145,1.145,0,1,1-1.6-1.61c.634-.646,1.269-1.292,1.924-1.917.255-.243.311-.378,0-.645A22.773,22.773,0,0,0,31.571,2.322c-.427-.035-.5.106-.493.489.026.851.011,1.7.007,2.556,0,.92-.407,1.428-1.131,1.436-.744.008-1.156-.509-1.158-1.461,0-.852-.016-1.7.007-2.555.009-.359-.064-.5-.464-.463A22.886,22.886,0,0,0,14.974,7.9c-.252.217-.207.327,0,.527q1.013.982,2,1.994a1.146,1.146,0,1,1-1.612,1.6c-.659-.646-1.319-1.292-1.953-1.962-.247-.261-.376-.241-.605.024a22.758,22.758,0,0,0-4.682,8.568c-.045.153-.078.31-.13.46a1.134,1.134,0,1,1-2.174-.64,22.976,22.976,0,0,1,1.972-5.038C11.5,6.579,17.146,2.128,24.776.586c9.415-1.9,17.494.847,23.935,7.978A24.188,24.188,0,0,1,54.943,25" transform="translate(-4.943 0)" fill="#fff"/>
    <path id="Path_87" data-name="Path 87" d="M5.239,167.618c1.225,0,2.449,0,3.674,0A2.262,2.262,0,0,1,11.4,169.84a15.037,15.037,0,0,0,1.2,4.608,1.122,1.122,0,0,1-.607,1.631c-.861.417-1.73.817-2.6,1.208-.271.121-.329.234-.169.51a18.355,18.355,0,0,0,6.729,6.739c.312.183.414.083.54-.2q.572-1.287,1.187-2.555a1.119,1.119,0,0,1,1.622-.626,15.194,15.194,0,0,0,4.767,1.225,2.175,2.175,0,0,1,2.062,2.186c.039,2.661.026,5.324.008,7.986-.006.806-.507,1.223-1.368,1.209A24.3,24.3,0,0,1,13.054,190.7,24.8,24.8,0,0,1,.436,173.4,23.353,23.353,0,0,1,0,169.009a1.2,1.2,0,0,1,1.352-1.389c1.3-.009,2.591,0,3.886,0m.47,2.29c-.941,0-1.883.034-2.821-.013-.535-.027-.595.175-.554.634a22.385,22.385,0,0,0,5.623,13.226,22.486,22.486,0,0,0,15.408,7.68c.351.031.5-.021.5-.427-.02-1.987-.015-3.975,0-5.963,0-.31-.078-.431-.4-.459a14.42,14.42,0,0,1-3.828-.856c-.293-.11-.375.027-.472.239-.407.885-.812,1.772-1.234,2.65a1.137,1.137,0,0,1-1.705.61,20.336,20.336,0,0,1-9.672-9.66,1.143,1.143,0,0,1,.619-1.74c.863-.413,1.732-.814,2.6-1.212.231-.106.377-.186.257-.506a14.7,14.7,0,0,1-.856-3.828c-.028-.3-.134-.383-.423-.379-1.011.015-2.023.006-3.035.006" transform="translate(0 -143.765)" fill="#fff"/>
    <path id="Path_88" data-name="Path 88" d="M123.675,141.356c-.9,0-1.81.006-2.715,0a1.161,1.161,0,0,1-1.3-1.276c-.015-1.082-.026-2.165,0-3.247a3.417,3.417,0,0,1,3.466-3.435c.355-.01.71.007,1.064-.008a1.125,1.125,0,0,0,1.153-1.088,1.056,1.056,0,0,0,.007-.106c.017-1.437.189-2.332-2.085-2.214-.8.041-1.6.016-2.395,0a1.132,1.132,0,1,1,.03-2.256c1.135-.009,2.271-.021,3.407,0a3.388,3.388,0,0,1,3.3,3.259,10.019,10.019,0,0,1-.035,1.753,3.4,3.4,0,0,1-3.388,2.94c-.372.013-.746-.007-1.118.011a1.071,1.071,0,0,0-1.113,1.107c-.022.62.013,1.243-.017,1.862-.018.375.144.439.469.436,1.348-.012,2.7,0,4.045,0a1.09,1.09,0,0,1,1.036.621,1.052,1.052,0,0,1-.09,1.156,1.153,1.153,0,0,1-1.011.485c-.9,0-1.81,0-2.715,0" transform="translate(-102.623 -109.541)" fill="#fff"/>
    <path id="Path_89" data-name="Path 89" d="M199.531,134.592c0,1.863.006,3.725,0,5.588a1.147,1.147,0,0,1-1.216,1.24,1.123,1.123,0,0,1-1.039-1.195c-.013-1.313-.02-2.626,0-3.938.007-.41-.1-.553-.528-.543-1.241.028-2.483.013-3.725.009-1.034,0-1.451-.419-1.453-1.454q-.006-2.581,0-5.162c0-.821.443-1.33,1.125-1.341a1.147,1.147,0,0,1,1.157,1.253c.017,1.295.02,2.59,0,3.885-.007.406.09.559.524.54.814-.035,1.632-.026,2.447,0,.353.01.457-.107.452-.454-.017-1.295-.011-2.59,0-3.885,0-.826.432-1.33,1.115-1.337s1.144.523,1.146,1.368q0,2.714,0,5.428" transform="translate(-164.308 -109.612)" fill="#fff"/>
  </g>
</svg>
