<svg id="Group_11" data-name="Group 11" xmlns="http://www.w3.org/2000/svg" xmlns:xlink="http://www.w3.org/1999/xlink" width="50" height="50" viewBox="0 0 50 50">
  <defs>
    <clipPath id="clip-path">
      <rect id="Rectangle_6" data-name="Rectangle 6" width="50" height="50" fill="#fff"/>
    </clipPath>
  </defs>
  <g id="Group_10" data-name="Group 10" clip-path="url(#clip-path)">
    <path id="Path_90" data-name="Path 90" d="M0,91.393c.091-.274.174-.551.274-.821a4.128,4.128,0,0,1,3.773-2.7c.553-.013,1.107-.011,1.66,0,.653.008.946.3.949.962.006,1.709.023,3.417-.011,5.125-.01.49.145.579.6.577,4.084-.018,8.168,0,12.252-.019.4,0,.528.089.52.506-.023,1.167,0,1.168-1.166,1.168-3.889,0-7.778.008-11.667-.011-.438,0-.536.119-.536.543q.019,12.033.009,24.066c0,1.032-.22,1.248-1.266,1.249-.439,0-.879-.009-1.318.006A2.482,2.482,0,0,0,1.666,124.5a2.514,2.514,0,0,0,2.355,2.522c.178.012.358.007.537.007H40.143c.682,0,.682,0,.682-.707q0-9.787-.011-19.575c0-.464.14-.566.572-.556,1.1.025,1.1.006,1.1,1.131q0,10.129.008,20.258a1.077,1.077,0,0,1-.606,1.113H3.613c-.123-.035-.245-.072-.368-.1a4.17,4.17,0,0,1-3.056-2.824c-.067-.194-.043-.418-.189-.586V91.393m1.664,29.789a4.155,4.155,0,0,1,2.735-.8c.519.044.6-.148.6-.622q-.021-14.572-.01-29.145c0-1.171-.153-1.29-1.33-1.031a2.525,2.525,0,0,0-2,2.64q0,14.206,0,28.413v.546" transform="translate(0 -78.695)" fill="#fff"/>
    <path id="Path_91" data-name="Path 91" d="M221.72,28.329q-1.074,0-2.148,0c-.89,0-1.138-.244-1.14-1.117,0-.8-.008-1.594,0-2.391a.4.4,0,0,0-.307-.466c-.444-.144-.914-.528-1.3-.448s-.69.6-1.025.928-.685.7-1.039,1.032a.836.836,0,0,1-1.327.011q-1.721-1.7-3.419-3.414a.828.828,0,0,1,.014-1.29c.6-.617,1.21-1.229,1.834-1.824.2-.191.257-.354.095-.581a.332.332,0,0,1-.061-.132c-.166-1.019-.794-1.29-1.75-1.155a10.536,10.536,0,0,1-1.609.011c-.635-.009-.942-.3-.945-.917q-.011-2.416,0-4.832a.816.816,0,0,1,.912-.9c.862-.01,1.725-.015,2.587,0,.278.006.428-.079.481-.346a.348.348,0,0,1,.046-.138c.644-.868.312-1.5-.453-2.079a10.545,10.545,0,0,1-1.111-1.095.85.85,0,0,1,0-1.36q1.666-1.682,3.35-3.346a.853.853,0,0,1,1.4.019c.591.582,1.183,1.164,1.754,1.766a.423.423,0,0,0,.626.1,2.473,2.473,0,0,1,.4-.18c.845-.359.845-.359.845-1.307,0-.635,0-1.269,0-1.9.007-.659.3-.968.945-.971q2.392-.01,4.783,0a.834.834,0,0,1,.924.946c.008.83.021,1.66-.007,2.489-.012.339.092.51.419.575a2.35,2.35,0,0,1,.407.16c.8.326.8.326,1.4-.276.46-.46.917-.924,1.381-1.38.521-.514.926-.526,1.432-.025q1.663,1.65,3.31,3.316c.5.508.488.911-.027,1.432-.572.578-1.144,1.157-1.731,1.72-.2.194-.292.359-.123.622a1.731,1.731,0,0,1,.253.578c.11.559.413.736.981.69.728-.058,1.463-.02,2.2-.012a.836.836,0,0,1,.94.93q.012,2.392,0,4.783a.83.83,0,0,1-.93.937c-.846.009-1.692.013-2.538,0-.283-.005-.457.06-.528.357a1.776,1.776,0,0,1-.229.588c-.343.5-.2.846.242,1.217.534.448,1.006.971,1.5,1.471a.853.853,0,0,1,.006,1.4q-1.649,1.664-3.316,3.31a.866.866,0,0,1-1.432-.016c-.556-.549-1.119-1.091-1.652-1.661-.244-.261-.427-.252-.78-.169-1.077.251-1.335.9-1.185,1.892a9.294,9.294,0,0,1,.011,1.462c-.007.688-.3.985-.975.991-.8.006-1.594,0-2.392,0M209.262,14.074c0,.53.018.954-.006,1.376-.017.3.073.4.38.387.748-.021,1.5-.01,2.246-.006.62,0,.868.171,1.04.745a10.521,10.521,0,0,0,.9,2.154.9.9,0,0,1-.17,1.193c-.558.546-1.1,1.109-1.665,1.649-.194.186-.215.305-.009.5.634.608,1.26,1.226,1.865,1.863.227.239.35.169.539-.028.53-.551,1.083-1.08,1.617-1.628a.894.894,0,0,1,1.19-.18,10.734,10.734,0,0,0,2.154.9.891.891,0,0,1,.753,1.035c0,.765.009,1.53,0,2.295,0,.247.063.343.326.339q1.342-.021,2.685,0c.265,0,.329-.092.325-.339-.013-.765-.007-1.53,0-2.295,0-.623.165-.862.748-1.033a10.946,10.946,0,0,0,2.112-.874.881.881,0,0,1,1.264.188c.533.526,1.066,1.052,1.585,1.591.188.2.311.271.54.029.6-.638,1.231-1.255,1.865-1.863.2-.2.191-.313-.006-.5-.565-.54-1.107-1.1-1.665-1.649a.9.9,0,0,1-.173-1.192,10.316,10.316,0,0,0,.9-2.155c.168-.573.421-.744,1.04-.747.749,0,1.5-.013,2.246,0,.291.007.4-.067.39-.378q-.031-1.293,0-2.587c.008-.315-.105-.38-.392-.374-.764.017-1.53,0-2.295.008a.89.89,0,0,1-.974-.7,9.961,9.961,0,0,0-.912-2.2.892.892,0,0,1,.18-1.189c.561-.544,1.1-1.111,1.665-1.649.206-.2.189-.313-.006-.5q-.948-.916-1.864-1.864c-.189-.2-.307-.211-.5-.006-.527.554-1.072,1.091-1.617,1.628a.891.891,0,0,1-1.265.194,10.482,10.482,0,0,0-2.112-.873c-.576-.166-.747-.419-.75-1.035,0-.765-.008-1.53,0-2.295,0-.236-.043-.352-.317-.347-.895.015-1.79.014-2.685,0-.257,0-.338.079-.333.333.013.765.008,1.53,0,2.295a.909.909,0,0,1-.789,1.06,10.571,10.571,0,0,0-2.067.855.892.892,0,0,1-1.267-.181c-.533-.526-1.068-1.05-1.581-1.595-.212-.225-.345-.251-.572-.011-.581.615-1.178,1.216-1.8,1.794-.264.247-.22.387.017.611.557.524,1.086,1.077,1.631,1.614a.833.833,0,0,1,.2,1.063,12.3,12.3,0,0,0-.986,2.382.81.81,0,0,1-.836.617c-.374.006-.749-.006-1.123,0-.534.015-1.24-.224-1.555.083-.343.334-.057,1.048-.105,1.487" transform="translate(-185.927 0)" fill="#fff"/>
    <path id="Path_92" data-name="Path 92" d="M85.555,300.605q-2.343,0-4.685,0c-.834,0-1.125-.285-1.126-1.108q-.005-3.075,0-6.15c0-.8.293-1.087,1.1-1.087q4.734-.005,9.469,0c.834,0,1.112.284,1.115,1.117,0,.618.011,1.237,0,1.855-.006.264.064.376.351.375q2.977-.014,5.954,0c.274,0,.368-.085.36-.363-.018-.618-.007-1.236-.005-1.854,0-.859.273-1.127,1.148-1.129,1.139,0,2.278-.013,3.416.006.342.006.442-.1.438-.438-.018-1.383,0-2.766-.013-4.148,0-.3.06-.426.4-.43,1.273-.016,1.273-.029,1.273,1.258,0,1.106.012,2.213-.007,3.319-.006.345.109.444.445.439,1.139-.017,2.278-.008,3.416-.006.884,0,1.154.261,1.155,1.123q.006,3.051,0,6.1c0,.84-.28,1.121-1.109,1.122q-4.734,0-9.469,0c-.8,0-1.089-.291-1.093-1.088,0-.618-.013-1.237.005-1.855.009-.286-.059-.4-.373-.4q-2.953.02-5.906,0c-.294,0-.4.082-.389.385.021.617.009,1.236.005,1.854,0,.8-.293,1.1-1.085,1.1-1.594,0-3.189,0-4.783,0m.022-1.667c1.253,0,2.506-.008,3.759.005.3,0,.433-.063.429-.4-.017-1.416-.013-2.831,0-4.247,0-.271-.08-.372-.359-.371q-3.808.011-7.616,0c-.307,0-.385.114-.383.4.011,1.4.016,2.8,0,4.2-.005.367.148.425.464.421,1.237-.013,2.473-.005,3.71-.006m18.315,0c1.252,0,2.5-.007,3.756.005.3,0,.441-.057.437-.4q-.024-2.122,0-4.244c0-.314-.129-.378-.408-.377q-3.781.01-7.561,0c-.308,0-.38.11-.378.4.013,1.4.018,2.8,0,4.2-.005.356.12.433.449.428,1.236-.016,2.471-.007,3.707-.007" transform="translate(-71.418 -257.263)" fill="#fff"/>
    <path id="Path_93" data-name="Path 93" d="M85.54,200.015q-2.367,0-4.735,0c-.774,0-1.06-.283-1.062-1.062q-.007-3.1,0-6.2c0-.779.285-1.057,1.064-1.057q4.759,0,9.518,0c.83,0,1.094.273,1.1,1.124,0,.618.013,1.237,0,1.855-.008.281.09.36.363.355.862-.015,1.725.005,2.587-.011.288-.006.389.063.393.375.017,1.294.029,1.294-1.273,1.294-.569,0-1.139.013-1.708-.005-.273-.009-.37.072-.362.354.019.6.006,1.2.005,1.806,0,.929-.25,1.172-1.2,1.173H85.54m.041-6.655c-1.253,0-2.506.01-3.759-.007-.315,0-.423.082-.419.407q.023,2.1,0,4.2c0,.337.123.4.426.4q3.759-.015,7.518,0c.369,0,.42-.14.417-.456-.014-1.367-.021-2.734,0-4.1.007-.385-.127-.456-.475-.451-1.236.019-2.473.008-3.71.008" transform="translate(-71.417 -171.686)" fill="#fff"/>
    <path id="Path_94" data-name="Path 94" d="M278.884,78.835A7.506,7.506,0,1,1,286.4,71.32a7.525,7.525,0,0,1-7.519,7.515m-5.825-7.541a5.839,5.839,0,1,0,5.874-5.8,5.875,5.875,0,0,0-5.874,5.8" transform="translate(-243.066 -57.162)" fill="#fff"/>
    <path id="Path_95" data-name="Path 95" d="M314.795,110.509a3.326,3.326,0,1,1,3.3-3.337,3.306,3.306,0,0,1-3.3,3.337m-.027-1.665a1.662,1.662,0,1,0-1.657-1.673,1.66,1.66,0,0,0,1.657,1.673" transform="translate(-278.938 -93.017)" fill="#fff"/>
  </g>
</svg>
