<svg id="Group_13" data-name="Group 13" xmlns="http://www.w3.org/2000/svg" xmlns:xlink="http://www.w3.org/1999/xlink" width="49.95" height="50" viewBox="0 0 49.95 50">
  <defs>
    <clipPath id="clip-path">
      <rect id="Rectangle_7" data-name="Rectangle 7" width="49.95" height="50" fill="#fff"/>
    </clipPath>
  </defs>
  <g id="Group_12" data-name="Group 12" clip-path="url(#clip-path)">
    <path id="Path_96" data-name="Path 96" d="M49.95,24.966c-.536,0-1.075-.029-1.608.009-.407.029-.477-.133-.473-.5.017-1.544.007-3.088.007-4.632q0-7.167,0-14.335A3.2,3.2,0,0,0,46.1,2.4a3.435,3.435,0,0,0-1.607-.326q-19.5,0-39.007,0A3.152,3.152,0,0,0,2.094,5.452q-.009,19.5,0,39.007a3.172,3.172,0,0,0,3.468,3.4q10.971,0,21.941-.01c.479,0,.68.1.609.6-.067.476.2,1.1-.1,1.4-.279.274-.9.074-1.364.075q-10.629.006-21.259,0a5.216,5.216,0,0,1-5.219-4,6.2,6.2,0,0,1-.149-1.5C.018,31.449.038,18.463,0,5.477A5.361,5.361,0,0,1,4.385.075C4.427.069,4.464.026,4.5,0H45.464a1.072,1.072,0,0,0,.213.09,5.24,5.24,0,0,1,3.094,1.841A6.353,6.353,0,0,1,49.95,4.486Z" transform="translate(0)" fill="#fff"/>
    <path id="Path_97" data-name="Path 97" d="M229.482,219.2a1.33,1.33,0,0,1-1.418.787c-.649-.029-1.3.018-1.95-.016-.386-.02-.391.269-.491.484s-.235.411.025.648c.5.46.973.957,1.453,1.443a1.12,1.12,0,0,1,.019,1.846q-1.286,1.3-2.586,2.586a1.121,1.121,0,0,1-1.846-.016c-.475-.468-.966-.922-1.407-1.419-.264-.3-.478-.144-.73-.042s-.461.16-.441.522c.037.681.015,1.365.01,2.047-.007.861-.4,1.265-1.243,1.27q-1.877.011-3.754,0c-.845,0-1.235-.41-1.242-1.272-.005-.683-.032-1.367.01-2.047.025-.4-.251-.431-.487-.542s-.443-.21-.685.062c-.442.5-.932.952-1.406,1.42a1.12,1.12,0,0,1-1.846.017q-1.3-1.286-2.586-2.586a1.12,1.12,0,0,1,.018-1.846c.468-.475.923-.964,1.42-1.406.273-.242.172-.448.061-.685s-.143-.511-.543-.486c-.68.042-1.365.016-2.047.01-.861-.006-1.266-.4-1.271-1.242q-.011-1.877,0-3.754c0-.845.41-1.236,1.271-1.242.682-.005,1.367-.031,2.047.01.4.024.432-.25.543-.486s.211-.443-.061-.685c-.508-.454-.977-.953-1.454-1.441a1.1,1.1,0,0,1-.018-1.776q1.316-1.338,2.655-2.655a1.1,1.1,0,0,1,1.776.017c.488.477.989.944,1.442,1.453.265.3.479.143.73.041s.46-.161.44-.522c-.037-.681-.015-1.365-.01-2.047.006-.861.4-1.264,1.244-1.269q1.877-.011,3.755,0a1.092,1.092,0,0,1,1.24,1.224c.008.7.032,1.4-.01,2.1-.024.4.253.43.488.542s.444.208.685-.063c.443-.5.932-.952,1.406-1.42a1.12,1.12,0,0,1,1.846-.016q1.3,1.286,2.586,2.586a1.121,1.121,0,0,1-.019,1.846c-.468.474-.923.964-1.42,1.406-.273.243-.17.449-.06.686s.144.512.543.485c.631-.042,1.268.011,1.9-.018a1.329,1.329,0,0,1,1.418.787Zm-21.6-1.29c.334,0,.594,0,.854,0a1.093,1.093,0,0,1,1.255.9,13.17,13.17,0,0,0,.693,1.659,1.075,1.075,0,0,1-.229,1.454c-.418.432-.84.862-1.278,1.273-.2.192-.269.322-.023.538a10.727,10.727,0,0,1,.963.966c.214.244.344.185.537-.02.423-.449.864-.883,1.31-1.31a1.04,1.04,0,0,1,1.372-.223,13.865,13.865,0,0,0,1.8.744,1.032,1.032,0,0,1,.814,1.124c.012.617.014,1.235,0,1.853-.007.284.069.417.38.4a12.71,12.71,0,0,1,1.316,0c.332.018.418-.116.408-.425-.019-.6-.013-1.2,0-1.8a1.049,1.049,0,0,1,.835-1.159,14.257,14.257,0,0,0,1.752-.722,1.075,1.075,0,0,1,1.449.254c.431.419.859.842,1.273,1.278.177.186.3.245.5.022a13.824,13.824,0,0,1,1-1c.222-.2.166-.323-.021-.5-.448-.425-.883-.864-1.312-1.308a1.058,1.058,0,0,1-.226-1.413,13.722,13.722,0,0,0,.726-1.751,1.05,1.05,0,0,1,1.157-.838c.617-.011,1.235-.012,1.853,0,.266.006.386-.072.375-.357-.017-.454-.02-.911,0-1.365.015-.311-.117-.388-.4-.381-.617.015-1.235.013-1.853,0a1.042,1.042,0,0,1-1.126-.814,12.191,12.191,0,0,0-.746-1.795,1.085,1.085,0,0,1,.221-1.378c.424-.426.838-.864,1.28-1.271.239-.22.295-.372.019-.609a9.7,9.7,0,0,1-.9-.9c-.2-.228-.345-.262-.572-.012-.415.456-.867.879-1.305,1.315a1.08,1.08,0,0,1-1.377.219,11.59,11.59,0,0,0-1.795-.745,1.035,1.035,0,0,1-.811-1.127c-.012-.617-.014-1.235,0-1.852.007-.286-.072-.416-.382-.4a12.673,12.673,0,0,1-1.316,0c-.333-.019-.416.119-.407.427.019.6.013,1.2,0,1.8a1.049,1.049,0,0,1-.836,1.158,14.267,14.267,0,0,0-1.752.723,1.075,1.075,0,0,1-1.449-.256c-.431-.42-.86-.842-1.273-1.278-.178-.188-.3-.242-.5-.021a13.847,13.847,0,0,1-1,1c-.224.2-.163.324.023.5.447.426.883.864,1.311,1.309a1.058,1.058,0,0,1,.225,1.413,13.684,13.684,0,0,0-.726,1.751,1.05,1.05,0,0,1-1.158.837c-.617.01-1.235.012-1.853,0-.267-.006-.4.075-.371.359.013.129-.006.261,0,.39.032.432-.191.989.1,1.265s.837.049,1.2.088" transform="translate(-179.532 -179.41)" fill="#fff"/>
    <path id="Path_98" data-name="Path 98" d="M190.391,133.976h-8.97a2.151,2.151,0,0,1-2.438-2.46c0-.5,0-1.008,0-1.511a2.1,2.1,0,0,1,2.287-2.269q7.776,0,15.551,0c.942,0,1.885-.006,2.828,0a2.05,2.05,0,0,1,2.2,2,15.112,15.112,0,0,1,0,2.24,2.048,2.048,0,0,1-2.2,2c-2.34.008-4.68,0-7.02,0h-2.242m0-2.074h1.8c2.372,0,4.744-.006,7.116.007.349,0,.508-.072.475-.455a5.971,5.971,0,0,1,0-1.12c.045-.44-.12-.537-.543-.536q-8.822.021-17.644,0c-.41,0-.6.076-.553.529a5.264,5.264,0,0,1,0,1.071c-.04.417.125.513.521.511,2.941-.015,5.881-.008,8.822-.008" transform="translate(-157.12 -112.13)" fill="#fff"/>
    <path id="Path_99" data-name="Path 99" d="M54.95,70.114q-10.118,0-20.236.009c-.433,0-.62-.092-.572-.557a7.487,7.487,0,0,0,0-1.169c-.016-.306.107-.414.4-.379a2.051,2.051,0,0,0,.244,0H75.111c.636,0,.645,0,.634.62-.009.469.2,1.082-.079,1.369-.3.312-.925.1-1.406.1q-9.655.011-19.309,0" transform="translate(-29.966 -59.704)" fill="#fff"/>
    <path id="Path_100" data-name="Path 100" d="M138.455,118.5q0,8.041.01,16.082c0,.416-.08.587-.527.54a8.779,8.779,0,0,0-1.217-.006c-.246.008-.369-.068-.34-.329a2.676,2.676,0,0,0,0-.292q0-16.033-.011-32.066c0-.487.109-.672.609-.6.476.064,1.12-.2,1.395.109.238.267.08.894.08,1.362q0,7.6,0,15.2" transform="translate(-119.713 -89.351)" fill="#fff"/>
    <path id="Path_101" data-name="Path 101" d="M53.767,146.779c-.73,0-1.46-.015-2.189.007-.324.01-.423-.1-.4-.416.025-.436.017-.875,0-1.313-.008-.254.042-.381.34-.379,1.508.013,3.016.01,4.524,0,.254,0,.344.089.338.339-.012.47-.016.941,0,1.41.011.288-.112.357-.375.353-.746-.012-1.492,0-2.237,0" transform="translate(-44.921 -127.007)" fill="#fff"/>
    <path id="Path_102" data-name="Path 102" d="M53.788,274.541c-.746,0-1.492-.01-2.237.005-.275.006-.371-.083-.359-.361.019-.469.017-.94,0-1.41-.009-.256.085-.335.336-.333q2.262.013,4.524,0c.248,0,.35.079.343.335-.013.47-.016.941,0,1.41.011.282-.1.363-.37.358-.746-.013-1.492,0-2.237,0" transform="translate(-44.938 -239.165)" fill="#fff"/>
    <path id="Path_103" data-name="Path 103" d="M53.769,189.46c-.729,0-1.459-.012-2.187.006-.3.008-.44-.053-.417-.392a13.026,13.026,0,0,0,0-1.361c-.01-.258.086-.332.335-.33q2.26.013,4.521,0c.29,0,.356.114.348.374-.015.453-.019.908,0,1.361.013.286-.1.355-.366.349-.745-.015-1.491-.005-2.236-.005" transform="translate(-44.913 -164.494)" fill="#fff"/>
    <path id="Path_104" data-name="Path 104" d="M53.825,229.916c.745,0,1.491.009,2.236,0,.253,0,.343.076.334.331-.016.469-.014.94,0,1.41.007.246-.069.343-.329.342q-2.285-.014-4.57,0c-.234,0-.309-.084-.3-.312.013-.486.019-.973,0-1.458-.012-.279.118-.314.349-.311.761.01,1.523,0,2.285,0" transform="translate(-44.938 -201.828)" fill="#fff"/>
    <path id="Path_105" data-name="Path 105" d="M53.752,317.219c-.729,0-1.459-.01-2.187.005-.275.006-.416-.038-.4-.364.029-.468.017-.94,0-1.409-.007-.231.074-.31.306-.309q2.285.011,4.57,0c.263,0,.333.1.326.345-.013.47-.015.94,0,1.41.009.258-.087.332-.337.328-.761-.013-1.523,0-2.285,0" transform="translate(-44.916 -276.649)" fill="#fff"/>
    <path id="Path_106" data-name="Path 106" d="M44.759,35.209c0,.988,0,.988-.982.988-1.113,0-1.113,0-1.113-1.1,0-.973,0-.973.958-.973h.049c1.088,0,1.088,0,1.088,1.086" transform="translate(-37.453 -29.955)" fill="#fff"/>
    <path id="Path_107" data-name="Path 107" d="M350.341,36.2c-1.076,0-1.076,0-1.075-1.089,0-.985,0-.985,1-.985,1.1,0,1.1,0,1.1,1.123,0,.951,0,.951-1.02.951" transform="translate(-306.605 -29.955)" fill="#fff"/>
    <path id="Path_108" data-name="Path 108" d="M178.991,196.841c0-1.017,0-1.017,1-1.017,1.072,0,1.072,0,1.072,1.054s0,1.041-1.036,1.041-1.038,0-1.038-1.078" transform="translate(-157.128 -171.905)" fill="#fff"/>
    <path id="Path_109" data-name="Path 109" d="M214.2,195.824c.988,0,.988,0,.988.982,0,1.113,0,1.113-1.1,1.113-.973,0-.973,0-.973-.958v-.049c0-1.088,0-1.088,1.086-1.088" transform="translate(-187.083 -171.905)" fill="#fff"/>
    <path id="Path_110" data-name="Path 110" d="M78.865,35.177c0,1.019,0,1.019-1.042,1.019s-1.031,0-1.031-1.024c0-1.05,0-1.05,1.06-1.05,1.014,0,1.014,0,1.014,1.055" transform="translate(-67.411 -29.954)" fill="#fff"/>
    <path id="Path_111" data-name="Path 111" d="M181.066,230.984c0,1.04,0,1.04-1.029,1.04-1.045,0-1.045,0-1.045-1.065,0-1.009,0-1.009,1-1.009h.048c1.028,0,1.028,0,1.028,1.034" transform="translate(-157.129 -201.863)" fill="#fff"/>
    <path id="Path_112" data-name="Path 112" d="M281.011,276.692a4.158,4.158,0,1,1-4.179-4.138,4.2,4.2,0,0,1,4.179,4.138m-2.092.037a2.066,2.066,0,1,0-2.083,2.05,2.048,2.048,0,0,0,2.083-2.05" transform="translate(-239.386 -239.263)" fill="#fff"/>
  </g>
</svg>
