<svg id="Group_15" data-name="Group 15" xmlns="http://www.w3.org/2000/svg" xmlns:xlink="http://www.w3.org/1999/xlink" width="50" height="49.979" viewBox="0 0 50 49.979">
  <defs>
    <clipPath id="clip-path">
      <rect id="Rectangle_8" data-name="Rectangle 8" width="50" height="49.979" fill="#fff"/>
    </clipPath>
  </defs>
  <g id="Group_14" data-name="Group 14" clip-path="url(#clip-path)">
    <path id="Path_113" data-name="Path 113" d="M19.38,5.643q9.392,0,18.785.008c.385,0,.525-.059.563-.5a5.636,5.636,0,1,1,6.86,5.963c-.392.092-.452.251-.452.6q.013,7.429,0,14.857a.875.875,0,0,0,.32.729c3.911,3.554,5.407,7.954,4.056,13.056a12.3,12.3,0,0,1-9.969,9.357,12.835,12.835,0,0,1-15.258-11.36c-.035-.4-.181-.481-.552-.481-7.705.01-15.411,0-23.116.021C.1,37.894,0,37.75,0,37.259Q.022,21.747,0,6.236c0-.477.1-.608.595-.606,6.262.019,12.523.013,18.785.013M43.5,25.832c0-.007.02-.019.02-.031q.008-7.151.019-14.3c0-.247-.112-.294-.322-.337a4.916,4.916,0,0,1-1.894-.778.42.42,0,0,0-.66.066q-2.115,2.158-4.272,4.275a.669.669,0,0,0-.215.777,2.222,2.222,0,0,1-.831,2.509,2.272,2.272,0,0,1-2.6.243,2.14,2.14,0,0,1-1.255-2.313,1.5,1.5,0,0,0-.665-1.72,5.006,5.006,0,0,1-.463-.463.5.5,0,0,0-.648-.177,1.8,1.8,0,0,1-1.379,0,.515.515,0,0,0-.648.176q-1.718,1.736-3.456,3.453a.554.554,0,0,0-.157.654,2.376,2.376,0,0,1-1.1,2.768,2.417,2.417,0,0,1-3.28-3.325,2.368,2.368,0,0,1,2.733-1.078.59.59,0,0,0,.7-.173q1.674-1.709,3.384-3.382a.67.67,0,0,0,.206-.779,2.224,2.224,0,0,1,.835-2.507,2.275,2.275,0,0,1,2.6-.237,2.139,2.139,0,0,1,1.25,2.315c-.246.859.165,1.257.671,1.718a5.4,5.4,0,0,1,.461.464.5.5,0,0,0,.649.171,1.754,1.754,0,0,1,1.331-.01.588.588,0,0,0,.733-.2c1.4-1.421,2.812-2.839,4.242-4.234.287-.28.319-.464.075-.781a2.746,2.746,0,0,1-.449-.893c-.111-.385-.321-.454-.69-.453q-18.131.015-36.262,0c-.462,0-.539.134-.539.559q.018,13.951,0,27.9c0,.456.11.577.572.576q10.476-.024,20.951-.011c1.028,0,1.028,0,1.187-.981a1.376,1.376,0,0,1,.032-.147c.1-.343.038-.536-.39-.491-.349.037-.705-.009-1.056.013-.274.016-.336-.092-.336-.347q.011-4.482,0-8.965c0-.283.076-.373.365-.37q2.065.021,4.13,0c.307,0,.355.119.351.384-.013.89-.009,1.78,0,2.669,0,.138-.069.3.043.4,4.754-4.6,10.086-5.485,16.036-2.595m-6.429,22.53a8.548,8.548,0,0,0,1.51-.11,11.228,11.228,0,0,0,7.616-4.529c.185-.245.193-.368-.1-.527-.723-.389-1.434-.8-2.134-1.232-.249-.152-.372-.142-.569.1a7.987,7.987,0,0,1-12.588.019c-.214-.261-.352-.256-.607-.1-.673.409-1.351.814-2.049,1.178-.359.187-.353.331-.123.63a11.309,11.309,0,0,0,9.048,4.576m-.805-20.917h.016c0-.419-.012-.839,0-1.258.01-.257-.049-.353-.334-.323a11.069,11.069,0,0,0-1.827.337,11.26,11.26,0,0,0-7.389,15.341c.151.34.267.464.636.224.63-.412,1.29-.783,1.956-1.134.326-.172.391-.317.249-.684a8.052,8.052,0,0,1,5.311-10.634c.457-.13,1.124,0,1.332-.384s.046-.981.046-1.484M48.37,36.865a7.656,7.656,0,0,0-.134-1.48,12.56,12.56,0,0,0-.385-1.662,11.29,11.29,0,0,0-9.536-7.851c-.31-.023-.447,0-.434.368.028.8.019,1.61,0,2.415-.005.28.054.408.367.458A8.018,8.018,0,0,1,44.576,40c-.107.279-.115.427.183.585.71.377,1.407.781,2.089,1.207.325.2.433.105.567-.208a11.807,11.807,0,0,0,.955-4.717M37.011,43.52a6.447,6.447,0,1,0-6.374-6.506,6.466,6.466,0,0,0,6.374,6.506M48.364,5.661a4.028,4.028,0,1,0-4.059,4.01,4.037,4.037,0,0,0,4.059-4.01M24.189,29.837c0,.938,0,1.876.005,2.814,0,.138-.112.377.169.384.211.005.426.086.575-.231a7.243,7.243,0,0,0,.868-4.14,6.333,6.333,0,0,1-.006-.854c0-1.267,0-1.256-1.267-1.223-.3.008-.353.121-.35.385.013.955,0,1.909,0,2.864m5.637-18.556a.8.8,0,1,0-.8.8.81.81,0,0,0,.8-.8m4.836,4.858a.8.8,0,1,0-.823.781.811.811,0,0,0,.823-.781M22.573,18.52a.8.8,0,1,0-.785.819.811.811,0,0,0,.785-.819" transform="translate(0 0)" fill="#fff"/>
    <path id="Path_114" data-name="Path 114" d="M124.64,168.1c0,2-.008,3.993.008,5.99,0,.345-.078.457-.44.451q-1.988-.033-3.976,0c-.368.006-.435-.118-.434-.456q.017-6.015,0-12.03c0-.321.075-.43.413-.425q2.013.029,4.027,0c.346-.005.41.117.408.43-.012,2.013-.006,4.027-.006,6.04m-1.612-.018v-3.723c0-1.115,0-1.1-1.123-1.119-.394-.008-.5.1-.5.5.018,2.667.01,5.334.01,8,0,1.206,0,1.194,1.2,1.193.327,0,.424-.087.42-.419-.017-1.476-.007-2.952-.007-4.428" transform="translate(-103.675 -139.877)" fill="#fff"/>
    <path id="Path_115" data-name="Path 115" d="M28.833,201.619c0,1.191-.008,2.382.005,3.573,0,.3-.037.446-.4.44-1.358-.022-2.717-.016-4.076,0-.279,0-.374-.069-.373-.362q.016-3.673,0-7.347c0-.294.1-.364.374-.361,1.359.012,2.718.019,4.076,0,.363-.006.4.143.4.441-.013,1.208-.005,2.415-.005,3.623m-3.224-.025V202.8c0,1.239,0,1.229,1.221,1.218.3,0,.4-.072.4-.39-.02-1.089-.008-2.179-.008-3.268,0-1.227,0-1.218-1.247-1.192-.278.006-.38.072-.371.364.02.687.006,1.374.006,2.061" transform="translate(-20.763 -170.967)" fill="#fff"/>
    <path id="Path_116" data-name="Path 116" d="M71.911,212.719c0-.922.008-1.845,0-2.767,0-.278.031-.42.372-.415,1.375.02,2.751.014,4.126,0,.254,0,.35.061.348.334q-.016,2.893,0,5.786c0,.271-.09.338-.347.336-1.375-.01-2.751-.017-4.126,0-.339,0-.377-.133-.373-.413.013-.956.005-1.912.005-2.868m1.612,0v.452c0,1.265,0,1.257,1.272,1.215.256-.008.35-.068.345-.338q-.023-1.281,0-2.562c.005-.273-.1-.328-.348-.336-1.27-.041-1.27-.049-1.27,1.217Z" transform="translate(-62.228 -181.337)" fill="#fff"/>
    <path id="Path_117" data-name="Path 117" d="M53.626,65.815c1.711,0,3.422.013,5.133-.01.389-.005.47.113.465.479-.016,1.143,0,1.143-1.149,1.143-3.221,0-6.441-.008-9.662.01-.409,0-.5-.121-.49-.5.02-1.118,0-1.118,1.123-1.118h4.58" transform="translate(-41.473 -56.949)" fill="#fff"/>
    <path id="Path_118" data-name="Path 118" d="M53.565,89.785c1.745,0,3.489.009,5.234-.008.332,0,.418.1.418.421,0,1.2.013,1.2-1.193,1.2-3.2,0-6.408-.008-9.612.01-.4,0-.5-.107-.5-.5.021-1.122,0-1.122,1.12-1.122h4.529" transform="translate(-41.468 -77.695)" fill="#fff"/>
    <path id="Path_119" data-name="Path 119" d="M53.582,115.337c-1.745,0-3.489-.008-5.234.007-.332,0-.418-.095-.418-.421,0-1.2-.013-1.2,1.193-1.2,3.2,0,6.408.007,9.612-.01.4,0,.5.106.5.5-.022,1.123,0,1.123-1.119,1.123H53.582" transform="translate(-41.48 -98.412)" fill="#fff"/>
    <path id="Path_120" data-name="Path 120" d="M53.582,139.291c-1.745,0-3.489-.008-5.234.007-.331,0-.419-.093-.419-.42,0-1.2-.014-1.2,1.193-1.2,3.2,0,6.408.007,9.612-.009.4,0,.5.1.5.5-.022,1.123,0,1.123-1.119,1.123H53.582" transform="translate(-41.479 -119.142)" fill="#fff"/>
    <path id="Path_121" data-name="Path 121" d="M25.649,66.674c0,.818,0,.818-.957.818-.655,0-.655,0-.655-.97,0-.643,0-.643,1.033-.642.579,0,.579,0,.579.794" transform="translate(-20.802 -57.013)" fill="#fff"/>
    <path id="Path_122" data-name="Path 122" d="M24.891,89.834c.758,0,.758,0,.758.766,0,.846,0,.846-.829.846-.783,0-.783,0-.783-.791,0-.82,0-.82.854-.82" transform="translate(-20.802 -77.744)" fill="#fff"/>
    <path id="Path_123" data-name="Path 123" d="M24.794,113.787c.765,0,.765,0,.765.759,0,.853,0,.853-.872.853a1.983,1.983,0,0,0-.3,0c-.348.054-.5-.078-.442-.436a2.31,2.31,0,0,0,0-.351c0-.828,0-.828.847-.828" transform="translate(-20.712 -98.473)" fill="#fff"/>
    <path id="Path_124" data-name="Path 124" d="M24.818,137.74c.831,0,.831,0,.831.844,0,.768,0,.768-.756.768-.856,0-.856,0-.856-.869,0-.743,0-.743.781-.743" transform="translate(-20.802 -119.203)" fill="#fff"/>
    <path id="Path_125" data-name="Path 125" d="M239.628,244.367a4.834,4.834,0,1,1,4.815,4.854,4.849,4.849,0,0,1-4.815-4.854m8.056.022a3.222,3.222,0,1,0-3.238,3.22,3.229,3.229,0,0,0,3.238-3.22" transform="translate(-207.378 -207.313)" fill="#fff"/>
  </g>
</svg>
