<svg id="Group_17" data-name="Group 17" xmlns="http://www.w3.org/2000/svg" xmlns:xlink="http://www.w3.org/1999/xlink" width="50" height="50.008" viewBox="0 0 50 50.008">
  <defs>
    <clipPath id="clip-path">
      <rect id="Rectangle_9" data-name="Rectangle 9" width="50" height="50.008" fill="#fff"/>
    </clipPath>
  </defs>
  <g id="Group_16" data-name="Group 16" clip-path="url(#clip-path)">
    <path id="Path_126" data-name="Path 126" d="M25.014,0H42.351c.968,0,1.194.222,1.194,1.175,0,1.613.011,3.226-.008,4.838,0,.354.093.447.446.448a15.043,15.043,0,0,1,2.665.061,3.985,3.985,0,0,1,3.343,3.961c.016,2.906,0,5.813,0,8.719q0,8.366,0,16.732a4.059,4.059,0,0,1-4.4,4.385q-5.468,0-10.937,0a.954.954,0,0,0-.752.295,5.053,5.053,0,0,0,0,7.482.952.952,0,0,0,.751.3c2.268-.01,4.536,0,6.8-.014.358,0,.491.062.485.46C41.925,50,41.945,50,40.807,50q-16.077,0-32.154.012c-.487,0-.621-.113-.6-.6.041-1.022.012-1.023,1.023-1.023,2.1,0,4.2,0,6.3.006a.9.9,0,0,0,.705-.285,5.056,5.056,0,0,0,.024-7.483.952.952,0,0,0-.747-.308q-5.519.015-11.037.006A4.049,4.049,0,0,1,0,36q0-12.625,0-25.25a4.042,4.042,0,0,1,4.281-4.3c.588,0,1.177-.02,1.764.008.342.016.416-.108.413-.427-.015-1.613-.007-3.225-.007-4.838C6.452.225,6.673,0,7.627,0H25.014m-.02,32.255q11.438,0,22.876,0c.292,0,.526.046.525-.414-.016-7.1-.008-14.209-.015-21.314A2.4,2.4,0,0,0,45.93,8.066c-.6-.008-1.211.027-1.813-.011-.448-.028-.584.093-.583.566.019,5.341.012,10.682.012,16.023,0,.925-.235,1.16-1.159,1.16H7.618c-.932,0-1.166-.231-1.166-1.151q0-6.576,0-13.151c0-1.024-.009-2.049.006-3.074,0-.284-.077-.38-.366-.37-.587.02-1.176.006-1.763.006a2.448,2.448,0,0,0-2.714,2.708q0,10.456-.01,20.911c0,.441.087.585.564.584q11.413-.025,22.826-.012m-.01-8.064q8.188,0,16.376.01c.442,0,.585-.088.584-.565q-.026-10.733,0-21.465c0-.471-.133-.568-.58-.568q-16.376.019-32.753,0c-.425,0-.56.077-.559.539q.026,10.758,0,21.516c0,.456.124.544.556.543q8.188-.023,16.376-.01m.029,9.677H2.335a2.931,2.931,0,0,1-.353,0c-.278-.034-.386.062-.375.358.022.554.006,1.109.006,1.663A2.478,2.478,0,0,0,4.42,38.707H45.6c.134,0,.269,0,.4,0a2.42,2.42,0,0,0,2.381-2.384c.015-.638-.028-1.279.015-1.914.03-.449-.108-.55-.55-.549q-11.415.022-22.83.011M18.044,48.352H31.979a6.67,6.67,0,0,1-.011-7.988H18.051a6.756,6.756,0,0,1-.007,7.988" transform="translate(0 -0.001)" fill="#fff"/>
    <path id="Path_127" data-name="Path 127" d="M102.717,47.876a16.28,16.28,0,0,1,11.554,4.791c.348.341.7.68,1.032,1.035a.8.8,0,0,1,.013,1.246,16.506,16.506,0,0,1-13.139,5.816,16.063,16.063,0,0,1-11.125-4.843c-.323-.319-.649-.634-.96-.964a.8.8,0,0,1-.012-1.244A16.847,16.847,0,0,1,100.5,48.027a14.672,14.672,0,0,1,2.212-.151m4.817,6.5a4.837,4.837,0,1,0-4.883,4.791,4.851,4.851,0,0,0,4.883-4.791m.345-3.92a6.558,6.558,0,0,1,.046,7.68.608.608,0,0,0,.176,0,15.159,15.159,0,0,0,5.347-3.592c.182-.188.138-.3-.027-.446-.486-.438-.945-.908-1.451-1.32a13.928,13.928,0,0,0-4.09-2.32M97.514,58.21a6.6,6.6,0,0,1-.012-7.745c-.179.064-.255.088-.329.118a14.566,14.566,0,0,0-4.886,3.205c-.553.544-.554.54,0,1.081a14.813,14.813,0,0,0,5.23,3.341" transform="translate(-77.699 -41.428)" fill="#fff"/>
    <path id="Path_128" data-name="Path 128" d="M74.941,23.913c.721,0,1.442.012,2.163-.006.291-.007.4.052.408.38.013,1.238.027,1.238-1.2,1.238-.771,0-1.544.023-2.314-.009-.4-.017-.55.074-.535.511.035,1.038,0,2.079.019,3.118.006.33-.091.42-.419.42-1.2,0-1.2.014-1.2-1.19,0-1.14,0-2.28,0-3.421,0-.761.273-1.037,1.02-1.041.687,0,1.375,0,2.062,0" transform="translate(-62.181 -20.688)" fill="#fff"/>
    <path id="Path_129" data-name="Path 129" d="M263.088,27.031c0,.721-.011,1.442.005,2.163.007.286-.044.408-.376.411-1.242.014-1.242.029-1.242-1.2,0-.788-.026-1.577.011-2.364.02-.419-.134-.493-.509-.485-1.039.023-2.079,0-3.118.015-.323.006-.424-.081-.424-.415,0-1.2-.015-1.2,1.186-1.2q1.685,0,3.37,0c.847,0,1.095.255,1.1,1.118q0,.981,0,1.962" transform="translate(-222.769 -20.726)" fill="#fff"/>
    <path id="Path_130" data-name="Path 130" d="M74.919,131.173c-.738,0-1.476.01-2.213,0a.787.787,0,0,1-.859-.842c-.013-1.492,0-2.985-.009-4.477,0-.227.054-.313.3-.328,1.313-.078,1.312-.086,1.312,1.229,0,.771.019,1.543-.008,2.314-.013.378.072.52.486.507,1.055-.032,2.113,0,3.169-.018.314-.006.39.088.393.4.01,1.225.022,1.225-1.216,1.225H74.919" transform="translate(-62.163 -108.595)" fill="#fff"/>
    <path id="Path_131" data-name="Path 131" d="M263.084,128.236c0,.721.007,1.442,0,2.163a.821.821,0,0,1-.935.924c-1.442.007-2.884-.007-4.326.01-.319,0-.387-.1-.389-.4-.01-1.221-.021-1.221,1.219-1.221.805,0,1.61-.017,2.414.008.339.01.419-.1.413-.425-.018-1.073,0-2.146-.013-3.219,0-.3.06-.4.384-.4,1.235-.012,1.235-.026,1.235,1.207v1.358" transform="translate(-222.764 -108.747)" fill="#fff"/>
    <path id="Path_132" data-name="Path 132" d="M336.05,263.486c.769,0,.769,0,.769.756,0,.857,0,.857-.869.857a1.215,1.215,0,0,0-.2,0c-.428.073-.633-.074-.546-.532a1.354,1.354,0,0,0,0-.251c0-.832,0-.832.844-.832" transform="translate(-290.048 -228.005)" fill="#fff"/>
    <path id="Path_133" data-name="Path 133" d="M168.147,75.077a3.224,3.224,0,1,1-3.252-3.209,3.233,3.233,0,0,1,3.252,3.209m-1.613.01A1.611,1.611,0,1,0,164.94,76.7a1.624,1.624,0,0,0,1.593-1.617" transform="translate(-139.925 -62.191)" fill="#fff"/>
  </g>
</svg>
