<svg xmlns="http://www.w3.org/2000/svg" xmlns:xlink="http://www.w3.org/1999/xlink" width="206" height="102" viewBox="0 0 206 102">
  <defs>
    <clipPath id="clip-blackstraw">
      <rect width="206" height="102"/>
    </clipPath>
  </defs>
  <g id="blackstraw" clip-path="url(#clip-blackstraw)">
    <rect width="206" height="102" fill="#fff"/>
    <g id="blackstraw-logo" transform="translate(36.483 32.391)">
      <path id="Path_313" data-name="Path 313" d="M50.318,11.572c.8.167,1.6.313,2.395.507A16.068,16.068,0,0,1,56.068,41.9,15.716,15.716,0,0,1,43.936,43.02c-.278-.08-.353-.163-.243-.451.3-.787.58-1.583.844-2.382.1-.32.234-.406.581-.3a12.7,12.7,0,1,0-7.9-6.666c.15.319.293.373.608.231.86-.389,1.732-.753,2.6-1.115A.946.946,0,0,1,41,32.18l-1.208,3.535q-.664,1.934-1.326,3.871c-.064.187-.078.406-.387.26q-3.549-1.659-7.107-3.305c-.044-.019-.083-.047-.178-.1,1.115-.474,2.142-.928,3.186-1.355.3-.124.361-.232.216-.55a15.912,15.912,0,0,1,2.982-18.047,15.588,15.588,0,0,1,9.786-4.817c.111-.013.243.034.318-.1Z" transform="translate(-30.79 -11.59)" fill="#32a2da"/>
      <path id="Path_314" data-name="Path 314" d="M94.807,114.746c-.884-.507-.884-.507-.507-1.541.346-.948.685-1.9,1.033-2.846a.7.7,0,0,0,.018-.582c-.134-.29.022-.56.116-.827l5.272-15.262c.275-.795.541-1.593.834-2.381a.71.71,0,0,0-.087-.733,5.036,5.036,0,0,1,.656-6.061,2.465,2.465,0,0,1,1.189-.644v2.159a2.238,2.238,0,0,1-.209.979,2.2,2.2,0,0,0,.325,2.546,2.437,2.437,0,0,0,2.6.689,2.185,2.185,0,0,0,1.7-1.859,1.933,1.933,0,0,0-.174-1.179,6.159,6.159,0,0,1-.172-3.143c.019-.274.229-.114.34-.064a3.118,3.118,0,0,1,1.572,1.647,4.984,4.984,0,0,1-.238,5.056.532.532,0,0,0,0,.56c1.151,3.34,2.289,6.682,3.458,10.016a.663.663,0,0,1-.323.933c-.572.36-1.158.685-1.753,1-.365.194-.495.117-.626-.263-1.138-3.308-2.3-6.608-3.439-9.917-.1-.3-.228-.437-.559-.415-.484.032-1.083-.151-1.419.074-.315.209-.362.83-.516,1.274q-2.8,8.081-5.592,16.165c-.119.343-.181.7-.7.476-.262-.116-.291.165-.362.312q-.912,1.91-1.825,3.827Z" transform="translate(-87.646 -76.56)" fill="#020202"/>
      <path id="Path_315" data-name="Path 315" d="M1218.807,82.556c-.564,1.217-.943,2.5-1.407,3.751-.737,1.986-1.443,3.983-2.158,5.982a.391.391,0,0,1-.417.321c-1.172.026-1.171.038-1.5-1.088-.519-1.755-1.038-3.51-1.568-5.3-.2.112-.183.3-.224.437-.553,1.853-1.1,3.707-1.634,5.567a.437.437,0,0,1-.516.383c-1.135-.009-1.135,0-1.521-1.06q-1.543-4.274-3.085-8.543c-.193-.533-.193-.533.4-.533.491,0,.983.038,1.469-.011.452-.046.6.154.71.549.535,1.841,1.1,3.673,1.654,5.51.171-.062.15-.211.184-.335.47-1.738.951-3.473,1.406-5.215.093-.355.212-.553.63-.507.466.052,1.042-.128,1.382.089s.3.848.43,1.3c.425,1.538.839,3.079,1.275,4.681a.962.962,0,0,0,.239-.507c.523-1.724,1.054-3.442,1.562-5.171.087-.3.21-.406.521-.392.724.019,1.448,0,2.172-.008Z" transform="translate(-1085.645 -75.277)" fill="#030303"/>
      <path id="Path_316" data-name="Path 316" d="M273.45,322.932a5.44,5.44,0,0,0-.651-1.521c-.353-.816-.766-1.607-1.133-2.418-.1-.226-.153-.39-.456-.233-.252.131-.426.033-.517-.27-.162-.545-.608-1.144-.487-1.6.116-.423.921-.486,1.392-.765a2,2,0,0,1,.314-.161c.322-.12.633-.528.912-.4.218.1.261.581.376.894s.225.6.317.9c.063.2.24.418-.036.63-.119.091-.005.25.038.375.373,1.1.76,2.19,1.115,3.294.28.869.263.876-.633,1.156-.066.02-.13.022-.143.1Z" transform="translate(-245.914 -284.746)" fill="#030303"/>
      <path id="Path_317" data-name="Path 317" d="M446.773,207.429H400.407a.613.613,0,0,1-.617-.923c.052-.124.141-.125.24-.127h93.036c.658,0,.8.195.66.844-.031.143-.1.2-.233.2h-.456Z" transform="translate(-362.311 -186.649)" fill="#31a1da"/>
      <path id="Path_318" data-name="Path 318" d="M402.3,53.96a3.891,3.891,0,0,1,2.38-1.318,4.8,4.8,0,0,1,5.252,2.808,5.825,5.825,0,0,1-1.571,6.99c-1.848,1.368-4.79,1.211-6.043-.514a.507.507,0,0,0-.114-.083.481.481,0,0,0-.083.344c-.058.861-.058.865-.949.859-.419,0-.979.137-1.217-.077-.282-.25-.088-.823-.089-1.255-.007-3.915,0-7.83-.013-11.746,0-.371.075-.5.465-.471a12.85,12.85,0,0,0,1.568,0c.322-.016.43.067.424.406-.021,1.231-.008,2.464-.008,3.7Zm2.856,7a3,3,0,0,0-.017-5.993,2.915,2.915,0,0,0-3.042,2.85,3.033,3.033,0,0,0,3.059,3.146Z" transform="translate(-362.387 -45.668)" fill="#020202"/>
      <path id="Path_319" data-name="Path 319" d="M566.159,80.445c.1-.136.057-.273.058-.4.012-.884.01-.894.913-.879.431.007.984-.191,1.26.09.254.26.072.805.073,1.225.006,2.8,0,5.607.011,8.415,0,.382-.072.54-.49.507a12.457,12.457,0,0,0-1.469,0c-.253.009-.368-.05-.344-.33s.006-.569.006-.879c-.064.015-.119.011-.144.038a4.438,4.438,0,0,1-4.765,1.259,4.749,4.749,0,0,1-3.367-3.71,5.488,5.488,0,0,1,2.028-5.954,4.463,4.463,0,0,1,6.112.545A.582.582,0,0,0,566.159,80.445Zm-3.053,6.916a3,3,0,0,0,.093-5.993,2.954,2.954,0,0,0-3.076,3.042,2.866,2.866,0,0,0,2.986,2.951Z" transform="translate(-504.293 -72.069)" fill="#020202"/>
      <path id="Path_320" data-name="Path 320" d="M1097.315,87.995a4.574,4.574,0,0,1-4.809,1.4,4.8,4.8,0,0,1-3.489-3.836,5.5,5.5,0,0,1,2.79-6.307,4.369,4.369,0,0,1,5.379,1,1.786,1.786,0,0,0,.178.147c0-.388.013-.7,0-1.014-.014-.265.079-.354.347-.344.507.018,1.014.023,1.521,0,.314-.015.4.084.4.4-.014,1.724-.007,3.447-.007,5.171,0,1.419-.009,2.839.008,4.258,0,.331-.081.443-.421.422a10.751,10.751,0,0,0-1.468,0c-.377.028-.463-.115-.426-.453A8.2,8.2,0,0,0,1097.315,87.995Zm-2.95-6.743a2.969,2.969,0,0,0-3.112,3.066,2.894,2.894,0,0,0,2.959,2.927,3,3,0,0,0,.152-5.994Z" transform="translate(-981.588 -71.952)" fill="#030303"/>
      <path id="Path_321" data-name="Path 321" d="M799.7,58.339c0,1.513-.021,2.874.012,4.235.011.441-.126.534-.531.507a15.705,15.705,0,0,0-1.622,0c-.25.008-.3-.079-.3-.315q.009-6.431,0-12.862c0-.241.066-.319.311-.312.557.017,1.115.031,1.671,0,.378-.024.475.083.472.465-.019,2.414-.01,4.828-.01,7.241v.437c.338-.483.608-.868.877-1.258.721-1.057,1.446-2.114,2.152-3.181a.668.668,0,0,1,.651-.349c.789.023,1.578.007,2.4.007a.963.963,0,0,1-.271.5c-1.014,1.387-2.028,2.778-3.059,4.149a.439.439,0,0,0,.008.67c1.307,1.564,2.6,3.143,3.961,4.806-.913,0-1.742-.035-2.569.013a1.135,1.135,0,0,1-1.11-.566C801.772,61.154,800.773,59.817,799.7,58.339Z" transform="translate(-719.542 -45.753)" fill="#020202"/>
      <path id="Path_322" data-name="Path 322" d="M686.435,83.456a4.95,4.95,0,0,0-.507,0,1.3,1.3,0,0,1-1.2-.495,2.842,2.842,0,0,0-4.45.687A3.079,3.079,0,0,0,680.462,87a2.875,2.875,0,0,0,3.023,1.183A2.141,2.141,0,0,0,685,87.266a.467.467,0,0,1,.444-.252c.675.015,1.352.018,2.028,0,.361-.009.337.13.224.389a5.113,5.113,0,0,1-4.034,3.094,5.382,5.382,0,0,1-2-10.574,5.445,5.445,0,0,1,6.083,3.084c.137.341.127.49-.294.454C687.112,83.433,686.772,83.456,686.435,83.456Z" transform="translate(-611.85 -72.904)" fill="#030303"/>
      <path id="Path_323" data-name="Path 323" d="M896.193,87.154c.212,0,.348.011.482,0,.485-.047.839-.013,1.078.569a1.249,1.249,0,0,0,1.884.261.972.972,0,0,0-.353-1.557,10.5,10.5,0,0,0-1.273-.479,5.834,5.834,0,0,1-1.115-.477,2.739,2.739,0,0,1-1.53-2.548,2.9,2.9,0,0,1,1.646-2.6,3.409,3.409,0,0,1,5.036,2.238c.054.319.03.467-.344.436A11.039,11.039,0,0,0,900.587,83c-.457.008-.885.079-1.17-.474-.191-.369-.662-.359-1.055-.232a.734.734,0,0,0-.507.74.8.8,0,0,0,.625.771c.552.2,1.121.36,1.678.554a2.868,2.868,0,0,1,2.213,2.6,3.249,3.249,0,0,1-1.7,3.163,3.791,3.791,0,0,1-5.333-1.382,1.818,1.818,0,0,1-.271-1.49C895.209,86.963,895.855,87.2,896.193,87.154Z" transform="translate(-807.366 -72.985)" fill="#030303"/>
      <path id="Path_324" data-name="Path 324" d="M976.591,59.05c0,1.181-.015,2.362.009,3.542.008.371-.123.454-.461.437a11.315,11.315,0,0,0-1.521,0c-.435.037-.487-.152-.485-.52.014-2.332,0-4.656.016-6.983,0-.384-.078-.521-.487-.5-.669.036-.671.008-.671-.646,0-.388.02-.778-.006-1.164-.021-.312.081-.4.394-.394.76.009.761-.008.761-.755s.012-1.485-.007-2.23c-.007-.285.072-.382.365-.37.556.022,1.115.024,1.67,0,.321-.014.438.067.428.412-.026.86,0,1.724-.014,2.581,0,.28.068.382.363.376.365-.006.862-.171,1.059.074.185.229.07.71.072,1.074,0,1.043,0,1.064-1.03,1.04-.389-.009-.475.1-.468.478C976.608,56.691,976.591,57.872,976.591,59.05Z" transform="translate(-877.458 -45.643)" fill="#030303"/>
      <path id="Path_325" data-name="Path 325" d="M518.8,56.3c0-2.074.008-4.149-.007-6.223,0-.37.056-.545.484-.507a14.122,14.122,0,0,0,1.622,0c.269-.009.342.081.342.343q-.01,6.4,0,12.8c0,.247-.044.36-.329.349a16.214,16.214,0,0,0-1.724,0c-.375.024-.393-.148-.392-.439C518.8,60.516,518.8,58.409,518.8,56.3Z" transform="translate(-469.314 -45.736)"/>
      <path id="Path_326" data-name="Path 326" d="M1037.439,80.887a2.675,2.675,0,0,1,2.018-1.168c.271-.018.405.026.389.341-.022.59-.013,1.181,0,1.771,0,.211-.063.276-.281.3a1.868,1.868,0,0,0-1.914,2.176c-.006,1.806-.009,3.611.005,5.417,0,.313-.055.445-.406.425-.556-.033-1.115-.021-1.671,0-.266.009-.38-.033-.379-.345q.018-4.708,0-9.416c0-.275.055-.4.357-.375.353.026.71.006,1.063.006C1037.376,80.02,1037.376,80.02,1037.439,80.887Z" transform="translate(-933.367 -72.827)" fill="#020202"/>
      <path id="Path_327" data-name="Path 327" d="M565.565,251.8c.3-.834.561-1.556.817-2.281.3-.857.614-1.712.9-2.575a.426.426,0,0,1,.465-.345c1.318-.04,1.318-.047,1.318,1.258,0,1.688-.012,3.375.009,5.062.005.388-.118.484-.488.474-.77-.02-.77,0-.77-.784v-4.025c-.161.056-.167.191-.2.3-.467,1.371-.959,2.737-1.387,4.115-.141.457-.431.365-.738.387a.51.51,0,0,1-.625-.4c-.44-1.38-.925-2.746-1.393-4.116a.763.763,0,0,0-.2-.342c0,1.444-.016,2.888.01,4.331.007.418-.1.556-.527.532-.845-.045-.727.091-.73-.726-.006-1.856.01-3.713-.011-5.568,0-.406.125-.507.515-.507,1.217.014,1.211,0,1.613,1.154C564.594,249.064,565.061,250.369,565.565,251.8Z" transform="translate(-508.152 -222.781)" fill="#34a3db"/>
      <path id="Path_328" data-name="Path 328" d="M1190.014,253.409c-.46.151-.649-.159-.823-.608-.439-1.13-.463-1.058-1.66-1.145-.887-.064-1.4.168-1.653,1.064-.195.679-.75.881-1.454.683-.315-.088-.081-.274-.038-.382.6-1.468,1.2-2.931,1.808-4.4.225-.544.475-1.081.674-1.634a.475.475,0,0,1,.555-.37c.3.018.559-.023.718.37.779,1.921,1.6,3.826,2.4,5.736C1190.835,253.411,1190.837,253.409,1190.014,253.409Zm-2.489-4.968c-.153.436-.26.748-.372,1.059-.357.992-.357.992.693.957h.1c.189.008.284-.033.2-.259-.2-.535-.387-1.083-.623-1.754Z" transform="translate(-1067.315 -222.808)" fill="#35a3db"/>
      <path id="Path_329" data-name="Path 329" d="M686.284,249.98c0-.963.02-1.926-.01-2.887-.012-.394.123-.492.491-.469.673.04,1.349-.031,2.028.069a1.984,1.984,0,0,1,1.7,1.265,2.143,2.143,0,0,1-.39,2.23,2.179,2.179,0,0,1-1.783.673c-.737.019-.737.019-.737.772,0,.439-.018.879.006,1.318.019.34-.07.475-.442.47-.853-.012-.853.008-.853-.857Zm1.289-1.264c0,.93,0,.93.562.93.823,0,1.194-.276,1.2-.886,0-.591-.428-.869-1.266-.912C687.207,247.814,687.73,248.462,687.572,248.716Z" transform="translate(-619.816 -222.81)" fill="#36a4db"/>
      <path id="Path_330" data-name="Path 330" d="M399.009,249.855c.44-.082.7-.04.844.387.131.386.534.427.9.385a.759.759,0,0,0,.687-.585.875.875,0,0,0-.283-1,4.262,4.262,0,0,0-1.255-.516,1.926,1.926,0,0,1-1.182-2.494,2.015,2.015,0,0,1,1.965-1.238,2.122,2.122,0,0,1,1.845,1.5c.066.3.039.493-.353.458-.411-.035-.856.122-1.068-.462-.106-.291-.471-.275-.768-.231-.323.049-.442.3-.507.565a.674.674,0,0,0,.3.7,3.8,3.8,0,0,0,1.059.464,2.132,2.132,0,0,1,1.564,2.259,2.213,2.213,0,0,1-2.12,1.883,2.255,2.255,0,0,1-2.219-1.713C398.317,249.536,398.872,249.953,399.009,249.855Z" transform="translate(-361.135 -221.159)" fill="#35a3db"/>
      <path id="Path_331" data-name="Path 331" d="M1012.15,246.208c.435,0,.785.007,1.134,0,.265-.007.325.185.414.371.414.878.834,1.754,1.3,2.737.406-.842.766-1.589,1.115-2.34a1.125,1.125,0,0,1,1.53-.769c.339.066.14.235.077.358-.541,1.046-1.049,2.114-1.652,3.125a3.32,3.32,0,0,0-.406,1.933c.01.235,0,.471,0,.71,0,.657,0,.618-.642.669-.54.044-.71-.142-.645-.661a5.066,5.066,0,0,0-.852-3.487C1013.018,248.035,1012.631,247.137,1012.15,246.208Z" transform="translate(-912.654 -222.386)" fill="#35a3db"/>
      <path id="Path_332" data-name="Path 332" d="M931.986,250.059c0-1,.009-1.992,0-2.988-.005-.3.076-.421.4-.414q1.318.027,2.636,0c.323-.006.449.087.439.429-.03.978.1.811-.837.832h-.355c-1.028,0-1.006,0-1.034,1.038-.011.422.1.577.529.525a6.747,6.747,0,0,1,.811-.006c.789,0,.948.221.783,1.022-.047.228-.19.2-.336.2a12.526,12.526,0,0,1-1.265-.007c-.443-.043-.541.135-.519.541.034.608-.008,1.217.015,1.825.012.318-.1.406-.406.394-1.041-.028-.833.1-.848-.811C931.979,251.78,931.986,250.92,931.986,250.059Z" transform="translate(-840.616 -222.842)" fill="#34a3db"/>
      <path id="Path_333" data-name="Path 333" d="M195.63,56.463a12.928,12.928,0,0,1-.1,2.067.958.958,0,0,1-.935.893,1.07,1.07,0,0,1-1.161-.7,4.3,4.3,0,0,1-.113-1.8,12.034,12.034,0,0,0,.118-2.768.722.722,0,0,1,.491-.7,1.041,1.041,0,0,1,1.056.023,1.192,1.192,0,0,1,.551.866A14.94,14.94,0,0,1,195.63,56.463Z" transform="translate(-176.805 -49.111)" fill="#34a3db"/>
      <path id="Path_334" data-name="Path 334" d="M780.574,249.96c0-.978.014-1.957-.008-2.94-.008-.373.1-.543.484-.484a.845.845,0,0,0,.1,0c.824.011.7-.093.71.688.007,1.484.012,2.969,0,4.453,0,.336.1.44.427.421.437-.026.877.008,1.318-.011.289-.014.381.089.375.375-.02,1.06.082.838-.8.855-.71.013-1.419-.021-2.129.012-.4.018-.484-.125-.474-.491C780.59,251.883,780.574,250.921,780.574,249.96Z" transform="translate(-704.549 -222.723)" fill="#3aa5dc"/>
      <path id="Path_335" data-name="Path 335" d="M864.719,249.984c0,.962-.014,1.926.007,2.886.007.342-.073.478-.443.463-1.032-.039-.847.12-.853-.858-.011-1.789.01-3.579-.012-5.373-.006-.434.092-.6.557-.575.875.048.734-.1.742.766C864.725,248.2,864.719,249.089,864.719,249.984Z" transform="translate(-779.001 -222.724)" fill="#3aa5dc"/>
      <path id="Path_336" data-name="Path 336" d="M1299.78,249.962c0,.979-.011,1.959.006,2.94.005.315-.066.448-.415.437-1.073-.038-.873.127-.88-.882-.012-1.79.008-3.58-.011-5.373,0-.406.094-.608.53-.542a1.589,1.589,0,0,0,.406,0c.3-.032.374.1.37.379C1299.772,247.937,1299.78,248.949,1299.78,249.962Z" transform="translate(-1169.954 -222.728)" fill="#3aa5dc"/>
      <path id="Path_337" data-name="Path 337" d="M494.455,250.039c0,.978-.011,1.956.006,2.933,0,.317-.072.448-.418.436-1.035-.034-.825.114-.832-.811-.013-1.8.008-3.606-.013-5.409-.005-.42.065-.6.541-.574.824.051.71-.076.71.749C494.459,248.253,494.455,249.147,494.455,250.039Z" transform="translate(-446.316 -222.802)" fill="#32a2da"/>
    </g>
  </g>
</svg>
