<svg xmlns="http://www.w3.org/2000/svg" xmlns:xlink="http://www.w3.org/1999/xlink" width="206" height="102" viewBox="0 0 206 102">
  <defs>
    <clipPath id="clip-cloudious">
      <rect width="206" height="102"/>
    </clipPath>
  </defs>
  <g id="cloudious" clip-path="url(#clip-cloudious)">
    <rect width="206" height="102" fill="#fff"/>
    <g id="cloudious-2" data-name="cloudious" transform="translate(25.743 26.294)">
      <path id="Path_261" data-name="Path 261" d="M109.015,95.56a6.254,6.254,0,0,1-5.241,2.608,7.462,7.462,0,0,1,0-14.92,6.174,6.174,0,0,1,4.91,2.247l-1.264.943a4.689,4.689,0,0,0-3.646-1.866c-3.651,0-5.838,2.869-5.838,6.133s2.187,6.138,5.838,6.138a4.549,4.549,0,0,0,4.067-2.126Z" transform="translate(-61.946 -53.051)" fill="#909392"/>
      <path id="Path_262" data-name="Path 262" d="M129.344,96.859h6.63v1.324H127.9V84h1.444Z" transform="translate(-77.596 -53.427)" fill="#909392"/>
      <path id="Path_263" data-name="Path 263" d="M154.852,98.165a7.462,7.462,0,1,1,7.4-7.462,7.227,7.227,0,0,1-7.4,7.462Zm0-13.6c-3.646,0-5.833,2.869-5.833,6.133s2.187,6.138,5.833,6.138a6.143,6.143,0,0,0,0-12.272Z" transform="translate(-87.282 -53.048)" fill="#909392"/>
      <path id="Path_264" data-name="Path 264" d="M194.376,92.887c0,2.367-.943,5.657-5.2,5.657S184,95.254,184,92.887V84h1.444v8.726c0,4.092,2.668,4.514,3.746,4.514s3.751-.4,3.751-4.514V84h1.444Z" transform="translate(-105.561 -53.427)" fill="#909392"/>
      <path id="Path_265" data-name="Path 265" d="M213.1,84h4.714c3.546,0,7.457,2.367,7.457,7.1s-3.912,7.1-7.457,7.1H213.1Zm1.454,12.859h2.808c4.328,0,6.354-2.849,6.354-5.777s-2.006-5.772-6.354-5.772h-2.808Z" transform="translate(-120.068 -53.427)" fill="#909392"/>
      <path id="Path_266" data-name="Path 266" d="M246.184,98.183H244.74V84h1.444Z" transform="translate(-135.84 -53.427)" fill="#909392"/>
      <path id="Path_267" data-name="Path 267" d="M262.377,98.285a7.224,7.224,0,0,1-7.4-7.462,7.4,7.4,0,1,1,7.4,7.462Zm0-13.6c-3.646,0-5.833,2.869-5.833,6.133s2.187,6.138,5.833,6.138,5.838-2.869,5.838-6.138S266.023,84.689,262.377,84.689Z" transform="translate(-140.944 -53.167)" fill="#909392"/>
      <path id="Path_268" data-name="Path 268" d="M301.766,92.887c0,2.367-.943,5.657-5.2,5.657s-5.191-3.29-5.191-5.657V84h1.439v8.726c0,4.092,2.668,4.514,3.751,4.514s3.751-.4,3.751-4.514V84h1.444Z" transform="translate(-159.089 -53.427)" fill="#909392"/>
      <path id="Path_269" data-name="Path 269" d="M326.713,85.97a3.109,3.109,0,0,0-2.748-1.384c-1.5,0-3.009.782-3.009,2.568,0,3.827,7.282,1.8,7.282,6.916,0,2.588-2.427,4.112-4.674,4.112a5.346,5.346,0,0,1-4.473-2.106l1.3-.943a3.586,3.586,0,0,0,3.23,1.725,2.844,2.844,0,0,0,3.049-2.588c0-4.012-7.277-1.785-7.277-6.976,0-2.748,2.282-4.012,4.589-4.012A4.9,4.9,0,0,1,328,85.008Z" transform="translate(-172.902 -53.065)" fill="#909392"/>
      <path id="Path_270" data-name="Path 270" d="M27.8,60.03s.868,2.287,1.334,3.857-.822,3.42-.451,4.654c0,0,.13,5.752,5.336,7.021,0,0,3.847-.4,4.734,1.58s4.163,3.586,4.163,3.586,4.067,2.106,6.058-.145a3.578,3.578,0,0,0,2.648-3.24l-.3-2.633L52.424,60Z" transform="translate(-27.697 -41.463)" fill="#eee"/>
      <path id="Path_271" data-name="Path 271" d="M59.386,72.855a3.361,3.361,0,0,1,2.367-3.46c2.583-.737,3.511.471,3.511.471S66,71.18,66.838,71s.5-11.374.5-11.374l25.381.211S91.858,63.246,89.8,64.1s-3.511.777-3.952,1.956-2.543,3.626-4.142,3.511c0,0-3.069.677-4.7-.125,0,0-.838.166-1.474,1.58s-4.684,1.906-4.684,1.906-1.043-.371-1.073,1.434-2.457,3.9-2.457,3.9l-.226-3.511s-.617-.165-.617.08-3.822,3.907-6.279.486A4.067,4.067,0,0,1,59.386,72.855Z" transform="translate(-43.44 -41.278)" fill="#909392"/>
      <path id="Path_272" data-name="Path 272" d="M76.75,27.386V23.263s3.606-.246,5.637,2.232l.11,1.866s.5-1.755,4.835-1.113c0,0,4.373.592,6.143,6.264,0,0,.15,1.1,2.006.933,0,0,7.021.5,5.908,8.26l-9.353.105s-1.715-.456-1.314,1.038c0,0,3.19,2.593,1.234,5.426a3.226,3.226,0,0,1-5.015.587c-.1-.361-2.006-1.239-.5-4.112,0,0,2.151-1.745,1.068-2.824,0,0-.125-.386-1.856-.12l-8.827-.12-.075-10.03Z" transform="translate(-52.098 -23.147)" fill="#616161"/>
      <path id="Path_273" data-name="Path 273" d="M27.693,41.607A5.819,5.819,0,0,1,31.7,34.892s1.75.316,1.62-3.631,5.4-6.3,9.012-5.291a16.641,16.641,0,0,0,2.412.527c.311-.05.557-.09,1-.933s4.378-3.044,6.52-2.407l.085,4.594a1.219,1.219,0,0,0,1.314-.5c.547-.742,5.3-3.43,5.893,1s-1.735,4.875-6.254,3.511c0,0-.466-1.083-.732-.171s.291,9.774.291,9.774l-12.036.145a1.284,1.284,0,0,1,.777-1.148c.8-.361,2.187-5.231-1.073-6.239s-6.429.075-5.341,4.83c0,0,.833,1.58,1.349,1.409,0,0,.537.873,0,1.028Z" transform="translate(-27.59 -23.04)" fill="#3359a5"/>
    </g>
  </g>
</svg>
