<svg xmlns="http://www.w3.org/2000/svg" xmlns:xlink="http://www.w3.org/1999/xlink" width="206" height="102" viewBox="0 0 206 102">
  <defs>
    <clipPath id="clip-cma">
      <rect width="206" height="102"/>
    </clipPath>
  </defs>
  <g id="cma" clip-path="url(#clip-cma)">
    <rect width="206" height="102" fill="#fff"/>
    <g id="cma-2" data-name="cma" transform="translate(33.653 24.646)">
      <path id="Path_133" data-name="Path 133" d="M203.261,212.169q.108,3.091.213,6.184c.057,1.6.105,3.194.182,4.791.019.4-.047.58-.506.566-1.038-.034-2.076-.022-3.113,0-.331,0-.448-.079-.446-.431q.017-7.161,0-14.321c0-.371.112-.471.476-.467q2.753.027,5.509,0c.389,0,.494.162.6.5.839,2.808,1.7,5.609,2.559,8.412.062.2.13.4.226.7a5.088,5.088,0,0,0,.5-1.433q1.105-3.787,2.161-7.587a.674.674,0,0,1,.794-.594c1.816.031,3.632.025,5.448,0,.41,0,.557.082.555.528q-.025,7.1,0,14.191c0,.411-.122.512-.519.5-.992-.025-1.989-.038-2.984,0-.511.022-.593-.147-.573-.623.156-3.6.279-7.207.411-10.811a.7.7,0,0,0-.048-.166c-.227.144-.235.38-.3.577-1.155,3.477-2.317,6.952-3.448,10.436-.145.448-.335.612-.807.586a18.1,18.1,0,0,0-2.266,0c-.519.035-.694-.175-.843-.63-1.127-3.441-2.283-6.875-3.431-10.306-.071-.214-.162-.422-.244-.632Z" transform="translate(-184.538 -185.376)" fill="#030303"/>
      <path id="Path_134" data-name="Path 134" d="M757.291,218.149c.433-1.481.82-2.794,1.2-4.108.485-1.676.977-3.351,1.44-5.032.113-.41.26-.59.738-.581,1.816.036,3.632.029,5.448,0,.432,0,.586.082.584.555q-.027,7.063,0,14.128c0,.427-.105.555-.534.54-.908-.032-1.816-.009-2.724-.009-.811,0-.815,0-.785-.843q.189-5.18.38-10.359v-.376c-.241,0-.222.187-.266.32-1.184,3.578-2.378,7.154-3.547,10.738-.13.389-.292.549-.717.531-.82-.036-1.644-.036-2.465,0-.4.018-.551-.137-.671-.5q-1.728-5.248-3.5-10.483c-.069-.208-.035-.488-.333-.625.092,2.777.184,5.531.276,8.285.031.95.047,1.9.105,2.854.023.389-.108.476-.471.468q-1.557-.031-3.113,0c-.362.008-.476-.091-.475-.467q.02-7.135,0-14.258c0-.336.043-.5.445-.5,1.858.021,3.717.025,5.578,0,.428,0,.488.236.576.531q1.25,4.115,2.5,8.229C757.039,217.452,757.139,217.712,757.291,218.149Z" transform="translate(-661.686 -185.324)" fill="#020202"/>
      <path id="Path_135" data-name="Path 135" d="M637.256,213.728c.973,0,1.946.013,2.917,0,.389-.008.579.043.564.519a34.911,34.911,0,0,1-.237,4.911,3.436,3.436,0,0,1-3.07,3.047,20.664,20.664,0,0,1-6.967-.029,3.9,3.9,0,0,1-3.526-3.592,28.891,28.891,0,0,1,.049-7.874,3.86,3.86,0,0,1,3.129-3.323,18.6,18.6,0,0,1,7.654-.13,3.339,3.339,0,0,1,2.854,3.308c.14,1.288.14,1.288-1.167,1.288-.8,0-1.6-.009-2.4,0-.291,0-.455-.039-.532-.38a1.376,1.376,0,0,0-1.31-1.059,8.432,8.432,0,0,0-2.58.026,1.664,1.664,0,0,0-1.607,1.658,28.157,28.157,0,0,0-.009,5.176,1.717,1.717,0,0,0,1.6,1.745,6.435,6.435,0,0,0,2.76-.031,1.994,1.994,0,0,0,1.222-2.24c-.078-.259-.259-.182-.415-.183-.649-.008-1.3-.021-1.946,0-.337.012-.459-.086-.446-.436.026-.649.03-1.3,0-1.946-.018-.383.13-.475.484-.467C635.268,213.742,636.263,213.728,637.256,213.728Z" transform="translate(-556.237 -184.014)" fill="#040404"/>
      <path id="Path_136" data-name="Path 136" d="M366.879,223.76c-.519,0-1.038-.029-1.557.009-.389.029-.532-.13-.619-.476-.148-.584-.352-1.155-.506-1.737-.078-.289-.195-.431-.527-.427q-2.335.027-4.67,0c-.34,0-.45.148-.519.427-.161.606-.348,1.2-.5,1.816a.46.46,0,0,1-.54.4c-1.123-.019-2.248-.025-3.373,0-.414.009-.4-.153-.311-.459q2.168-7.181,4.32-14.368a.467.467,0,0,1,.549-.389q2.658.021,5.319,0a.474.474,0,0,1,.547.389q2.179,7.211,4.379,14.417c.1.335.02.42-.309.41C368,223.748,367.44,223.76,366.879,223.76Zm-5.526-12.194c-.623,2.205-1.195,4.229-1.775,6.254-.078.274-.049.389.276.381.994-.017,1.987-.012,2.984,0,.3,0,.415-.025.3-.389-.418-1.359-.789-2.735-1.177-4.1-.189-.66-.378-1.318-.612-2.14Z" transform="translate(-318.664 -185.437)" fill="#030303"/>
      <path id="Path_137" data-name="Path 137" d="M83.516,214.646c0-1.057-.079-2.122.014-3.172.259-2.93,1.467-4.193,4.379-4.613a19.6,19.6,0,0,1,5.618.012c2.022.292,2.977,1.389,3.227,3.6.2,1.8.2,1.8-1.579,1.8-.669,0-1.34-.017-2.009.008-.345.012-.476-.057-.5-.449-.052-1.056-.448-1.466-1.507-1.584a6.117,6.117,0,0,0-2,.06c-.965.21-1.4.581-1.427,1.557q-.082,2.53,0,5.059c.039,1.038.568,1.47,1.6,1.619a8.27,8.27,0,0,0,2.065-.021c.865-.09,1.254-.553,1.279-1.64.01-.525.178-.637.663-.62,1.038.035,2.076.022,3.113,0,.335-.006.464.09.433.437-.065.708-.034,1.427-.163,2.127a3.9,3.9,0,0,1-3.613,3.187,20.1,20.1,0,0,1-5.621-.035c-2.514-.361-3.719-1.732-3.946-4.281A22.913,22.913,0,0,1,83.516,214.646Z" transform="translate(-83.49 -183.79)" fill="#030303"/>
      <path id="Path_138" data-name="Path 138" d="M511.915,215.273a19.8,19.8,0,0,1,.122-4.007,4.113,4.113,0,0,1,3.519-3.483,19.687,19.687,0,0,1,6.509-.1,3.238,3.238,0,0,1,2.93,2.777,18.48,18.48,0,0,1,.236,2.122c.039.407-.109.519-.5.51-1.081-.025-2.161-.018-3.243,0-.322,0-.433-.077-.463-.427-.1-1.152-.527-1.564-1.679-1.628a6.875,6.875,0,0,0-1.873.077,1.476,1.476,0,0,0-1.375,1.472,15.905,15.905,0,0,0-.058,1.816c0,1.081-.019,2.162.048,3.243.071,1.149.576,1.62,1.717,1.7a12.942,12.942,0,0,0,1.557,0c1.244-.061,1.686-.473,1.7-1.708,0-.547.2-.629.669-.615,1.014.031,2.033.031,3.047,0,.418-.013.525.13.492.519-.036.409-.006.822-.036,1.231a3.977,3.977,0,0,1-3.648,4.033,18.668,18.668,0,0,1-6.258-.13c-2.105-.389-3.26-1.9-3.393-4.287C511.867,217.349,511.915,216.31,511.915,215.273Z" transform="translate(-456.313 -184.485)" fill="#030303"/>
      <path id="Path_139" data-name="Path 139" d="M197,48.117a34.349,34.349,0,0,1,7.524-7.524,47.262,47.262,0,0,1,18.69-8.709,52.689,52.689,0,0,1,9.76-1.167c.707-.022,1.531-.031,1.871.73.314.7-.219,1.3-.642,1.793a4.284,4.284,0,0,1-3.441,1.733,50.642,50.642,0,0,0-11.952,1.3,43.975,43.975,0,0,0-14.387,6.145,49.384,49.384,0,0,0-6.821,5.352C197.455,47.9,197.345,48.113,197,48.117Z" transform="translate(-182.284 -30.66)" fill="#dd0b2c"/>
      <path id="Path_140" data-name="Path 140" d="M529.126,368.9a30.314,30.314,0,0,1-6,6.581,48.025,48.025,0,0,1-16.5,9.246,52.02,52.02,0,0,1-13.093,2.335c-.63.034-1.393.062-1.737-.615s.105-1.25.493-1.771a4.3,4.3,0,0,1,3.593-1.935,50.361,50.361,0,0,0,12.972-1.89,45.36,45.36,0,0,0,18.567-10.561c.54-.494,1.088-.977,1.632-1.466C529.077,368.843,529.1,368.871,529.126,368.9Z" transform="translate(-438.734 -324.91)" fill="#dd0b2c"/>
      <path id="Path_141" data-name="Path 141" d="M779.8,368.167a.865.865,0,0,1,.1-.1c.092.067.022.119-.025.173C779.849,368.218,779.826,368.191,779.8,368.167Z" transform="translate(-689.483 -324.258)" fill="#dd0b2c"/>
      <path id="Path_142" data-name="Path 142" d="M400.474,231.77c.235.822.423,1.48.61,2.138.389,1.369.759,2.744,1.177,4.1.112.367,0,.4-.3.389-.994-.009-1.987-.014-2.984,0-.326.006-.354-.108-.276-.381C399.279,236,399.852,233.97,400.474,231.77Z" transform="translate(-357.785 -205.639)" fill="#f6f6f6"/>
    </g>
  </g>
</svg>
