<svg xmlns="http://www.w3.org/2000/svg" xmlns:xlink="http://www.w3.org/1999/xlink" width="206" height="102" viewBox="0 0 206 102">
  <defs>
    <clipPath id="clip-path">
      <path id="Path_251" data-name="Path 251" d="M227.5,11.26s-.784,1.625,1.931,4.547-.552,6.275-.552,6.275h3.446l1.486-5.6-1.636-2.206" transform="translate(-227.395 -11.26)" fill="none"/>
    </clipPath>
    <clipPath id="clip-path-2">
      <path id="Path_250" data-name="Path 250" d="M226.448,18.716a4.333,4.333,0,0,0,1.978-4.308c-.292-1.425-1.347-2.266-2.37-3.207a4.877,4.877,0,0,1-1.094-1.336c-.413-.8-.581-2.138.656-2.177a2.256,2.256,0,0,1,1.336.378,2.334,2.334,0,0,0-2.623-1.3,1.586,1.586,0,0,0-1.268,1.39,3.777,3.777,0,0,0,.253,1.65c.713,2.163,1.782,4.187,2.473,6.35a14.752,14.752,0,0,1,.428,1.568" transform="translate(-223.054 -6.706)" fill="none"/>
    </clipPath>
    <clipPath id="clip-path-3">
      <path id="Path_255" data-name="Path 255" d="M213.753,19.054a22.238,22.238,0,0,1-3.382-3.734s-.235,4.3.378,5.548c0,0-3.079-.306-4.329-1.179,0,0,2.972,8.156,9.314,4.568a7.839,7.839,0,0,0-.481-2.908A5.8,5.8,0,0,0,213.753,19.054Z" transform="translate(-206.42 -15.32)" fill="none"/>
    </clipPath>
    <clipPath id="clip-path-4">
      <path id="Path_258" data-name="Path 258" d="M211.084,25.37s3.713,1.546,4.657,3.5a7.755,7.755,0,0,0-4.632-2.58c-3.246-.659-3.959-2.516-3.959-2.516Z" transform="translate(-207.15 -23.77)" fill="none"/>
    </clipPath>
    <clipPath id="clip-cwi">
      <rect width="206" height="102"/>
    </clipPath>
  </defs>
  <g id="cwi" clip-path="url(#clip-cwi)">
    <rect width="206" height="102" fill="#fff"/>
    <g id="cwi-01" transform="translate(50.831 9.305)">
      <g id="Group_2" data-name="Group 2" transform="translate(4.425 17.758)">
        <path id="Path_177" data-name="Path 177" d="M11.935,77.262a14.039,14.039,0,0,1-5.505-5.22,15.2,15.2,0,0,1,0-15.08,14.039,14.039,0,0,1,5.505-5.234,16.348,16.348,0,0,1,7.871-1.881,16.54,16.54,0,0,1,6.656,1.293,13.362,13.362,0,0,1,4.989,3.724l-4.2,3.884a9.054,9.054,0,0,0-7.126-3.317,9.442,9.442,0,0,0-4.693,1.154,8.2,8.2,0,0,0-3.207,3.207,10.138,10.138,0,0,0-.007,9.411,8.171,8.171,0,0,0,3.207,3.207,9.443,9.443,0,0,0,4.693,1.154,9.019,9.019,0,0,0,7.126-3.36l4.208,3.887a13.091,13.091,0,0,1-5.017,3.763,16.668,16.668,0,0,1-6.678,1.293A16.259,16.259,0,0,1,11.935,77.262Z" transform="translate(-4.425 -49.845)" fill="#003853"/>
      </g>
      <g id="Group_3" data-name="Group 3" transform="translate(31.422 18.245)">
        <path id="Path_178" data-name="Path 178" d="M125.472,51.21l-9.264,28.328h-7.045l-6.236-19.181L96.513,79.538H89.5L80.19,51.21h6.8l6.392,19.911,6.7-19.911h6.058l6.474,20.072,6.6-20.072Z" transform="translate(-80.19 -51.21)" fill="#003853"/>
      </g>
      <g id="Group_4" data-name="Group 4" transform="translate(78.528 18.245)">
        <path id="Path_179" data-name="Path 179" d="M212.39,51.21h6.556V79.538H212.39Z" transform="translate(-212.39 -51.21)" fill="#003853"/>
      </g>
      <g id="Group_5" data-name="Group 5" transform="translate(5.039 51.61)">
        <path id="Path_180" data-name="Path 180" d="M7.282,149a2.241,2.241,0,0,1-.83-3.075,2.138,2.138,0,0,1,.834-.791,2.656,2.656,0,0,1,2.2-.089,2.014,2.014,0,0,1,.752.57L9.6,146.2a1.379,1.379,0,0,0-1.069-.5,1.451,1.451,0,0,0-.713.175,1.261,1.261,0,0,0-.488.488,1.536,1.536,0,0,0,0,1.425,1.23,1.23,0,0,0,.488.485,1.426,1.426,0,0,0,.713.175,1.368,1.368,0,0,0,1.069-.506l.634.588a1.981,1.981,0,0,1-.759.57,2.558,2.558,0,0,1-1.008.2A2.494,2.494,0,0,1,7.282,149Z" transform="translate(-6.148 -144.849)" fill="#003853"/>
      </g>
      <g id="Group_6" data-name="Group 6" transform="translate(9.166 51.151)">
        <path id="Path_181" data-name="Path 181" d="M20.434,148.079a1.39,1.39,0,0,1,.41,1.1v1.881h-.88v-.41a1.069,1.069,0,0,1-1,.46,1.565,1.565,0,0,1-.659-.128.98.98,0,0,1-.424-.356.909.909,0,0,1-.146-.513.855.855,0,0,1,.356-.713,1.735,1.735,0,0,1,1.069-.264h.759a.609.609,0,0,0-.189-.481.834.834,0,0,0-.57-.168,1.621,1.621,0,0,0-.52.082,1.3,1.3,0,0,0-.431.224l-.356-.67a2.068,2.068,0,0,1,.645-.292,2.851,2.851,0,0,1,.777-.107,1.7,1.7,0,0,1,1.165.356Zm-.827,2.27a.613.613,0,0,0,.271-.331v-.339h-.627q-.588,0-.588.385a.356.356,0,0,0,.143.292.652.652,0,0,0,.4.107A.8.8,0,0,0,19.607,150.349Z" transform="translate(-17.729 -146.236)" fill="#003853"/>
        <path id="Path_182" data-name="Path 182" d="M27.86,144.33h.955v4.547H27.86Z" transform="translate(-24.25 -144.055)" fill="#003853"/>
        <path id="Path_183" data-name="Path 183" d="M31.844,144.471a.488.488,0,0,1-.164-.378.5.5,0,0,1,.164-.381.62.62,0,0,1,.431-.153.627.627,0,0,1,.428.146.474.474,0,0,1,.164.356.517.517,0,0,1-.164.4.588.588,0,0,1-.428.157A.6.6,0,0,1,31.844,144.471Zm-.05.613h.959v3.3h-.959Z" transform="translate(-26.709 -143.559)" fill="#003853"/>
      </g>
      <g id="Group_7" data-name="Group 7" transform="translate(15.43 51.377)">
        <path id="Path_184" data-name="Path 184" d="M36.75,145.568h.844v.734h-.82V148.8h-.959V146.3H35.31v-.734h.506v-.146a1.2,1.2,0,0,1,.335-.894,1.283,1.283,0,0,1,.941-.331,1.67,1.67,0,0,1,.406.046,1,1,0,0,1,.324.132l-.253.691a.649.649,0,0,0-.385-.118c-.292,0-.435.16-.435.477Z" transform="translate(-35.31 -144.193)" fill="#003853"/>
      </g>
      <g id="Group_8" data-name="Group 8" transform="translate(17.576 52.623)">
        <path id="Path_185" data-name="Path 185" d="M42.2,150.872a1.611,1.611,0,0,1-.649-.606,1.782,1.782,0,0,1,.014-1.753,1.636,1.636,0,0,1,.649-.606,2.106,2.106,0,0,1,1.864,0,1.65,1.65,0,0,1,.645.606,1.782,1.782,0,0,1,0,1.75,1.625,1.625,0,0,1-.645.606,2.106,2.106,0,0,1-1.864,0Zm1.536-.816a1.069,1.069,0,0,0,0-1.329.855.855,0,0,0-1.208,0,1.044,1.044,0,0,0,0,1.329A.855.855,0,0,0,43.741,150.056Z" transform="translate(-41.333 -147.69)" fill="#003853"/>
      </g>
      <g id="Group_9" data-name="Group 9" transform="translate(21.488 52.626)">
        <path id="Path_186" data-name="Path 186" d="M53.685,147.824a1.7,1.7,0,0,1,.67-.125v.884h-.214a.88.88,0,0,0-.645.228.933.933,0,0,0-.232.688v1.557H52.31v-3.3h.912v.435A1.069,1.069,0,0,1,53.685,147.824Z" transform="translate(-52.31 -147.699)" fill="#003853"/>
      </g>
      <g id="Group_10" data-name="Group 10" transform="translate(23.768 51.151)">
        <path id="Path_187" data-name="Path 187" d="M61.7,148.037a1.425,1.425,0,0,1,.378,1.069v1.889h-.955v-1.739a.855.855,0,0,0-.171-.584.634.634,0,0,0-.5-.2.759.759,0,0,0-.577.225.93.93,0,0,0-.214.666v1.628H58.71v-3.3h.912v.385a1.3,1.3,0,0,1,.47-.321,1.669,1.669,0,0,1,.62-.114A1.351,1.351,0,0,1,61.7,148.037Z" transform="translate(-58.71 -146.191)" fill="#003853"/>
        <path id="Path_188" data-name="Path 188" d="M69.564,144.471a.488.488,0,0,1-.164-.378.5.5,0,0,1,.164-.381.62.62,0,0,1,.431-.153.627.627,0,0,1,.428.146.474.474,0,0,1,.164.356.517.517,0,0,1-.164.4.588.588,0,0,1-.428.157A.6.6,0,0,1,69.564,144.471Zm-.046.613h.955v3.3h-.955Z" transform="translate(-65.591 -143.559)" fill="#003853"/>
        <path id="Path_189" data-name="Path 189" d="M76.158,148.06a1.39,1.39,0,0,1,.41,1.1v1.881h-.894v-.41a1.069,1.069,0,0,1-1,.46,1.554,1.554,0,0,1-.659-.128,1.012,1.012,0,0,1-.428-.356.937.937,0,0,1-.146-.513.855.855,0,0,1,.356-.713,1.749,1.749,0,0,1,1.069-.264h.759a.609.609,0,0,0-.189-.481.833.833,0,0,0-.57-.167,1.6,1.6,0,0,0-.517.082,1.268,1.268,0,0,0-.431.224l-.356-.67a2.087,2.087,0,0,1,.649-.3,2.815,2.815,0,0,1,.773-.107,1.7,1.7,0,0,1,1.176.367Zm-.812,2.27a.62.62,0,0,0,.267-.331v-.339h-.656q-.588,0-.588.385a.356.356,0,0,0,.146.292.652.652,0,0,0,.4.107.816.816,0,0,0,.435-.114Z" transform="translate(-68.191 -146.217)" fill="#003853"/>
      </g>
      <g id="Group_11" data-name="Group 11" transform="translate(33.674 51.686)">
        <path id="Path_190" data-name="Path 190" d="M93.391,145.06l-1.4,4.276H90.921l-.944-2.9-.973,2.9H87.935L86.51,145.06h1.03l.966,3.011,1.03-3.011h.919l.98,3.036,1-3.036Z" transform="translate(-86.51 -145.06)" fill="#003853"/>
      </g>
      <g id="Group_12" data-name="Group 12" transform="translate(40.198 51.426)">
        <path id="Path_191" data-name="Path 191" d="M108.29,149.667H105.8a.784.784,0,0,0,.317.485,1.069,1.069,0,0,0,.627.178,1.226,1.226,0,0,0,.456-.078,1.09,1.09,0,0,0,.356-.242l.506.552a1.7,1.7,0,0,1-1.358.535,2.177,2.177,0,0,1-.987-.217,1.607,1.607,0,0,1-.663-.606,1.675,1.675,0,0,1-.232-.873,1.707,1.707,0,0,1,.228-.873,1.607,1.607,0,0,1,.634-.609,1.875,1.875,0,0,1,.894-.217,1.831,1.831,0,0,1,.877.21,1.546,1.546,0,0,1,.638.609,1.782,1.782,0,0,1,.224.905S108.3,149.51,108.29,149.667Zm-2.238-1.069a.8.8,0,0,0-.271.5h1.625a.773.773,0,0,0-.271-.5.8.8,0,0,0-.538-.189.809.809,0,0,0-.545.2Z" transform="translate(-104.82 -146.499)" fill="#003853"/>
        <path id="Path_192" data-name="Path 192" d="M115.54,144.33h.955v4.547h-.955Z" transform="translate(-111.72 -144.33)" fill="#003853"/>
        <path id="Path_193" data-name="Path 193" d="M119.85,144.33h.955v4.547h-.955Z" transform="translate(-114.494 -144.33)" fill="#003853"/>
      </g>
      <g id="Group_13" data-name="Group 13" transform="translate(47.001 52.608)">
        <path id="Path_194" data-name="Path 194" d="M126.9,148.037a1.426,1.426,0,0,1,.378,1.069v1.889h-.955v-1.739a.855.855,0,0,0-.171-.584.634.634,0,0,0-.5-.2.759.759,0,0,0-.577.225.93.93,0,0,0-.214.666v1.628h-.955v-3.3h.912v.385a1.3,1.3,0,0,1,.47-.321,1.668,1.668,0,0,1,.62-.114A1.351,1.351,0,0,1,126.9,148.037Z" transform="translate(-123.91 -147.648)" fill="#003853"/>
      </g>
      <g id="Group_14" data-name="Group 14" transform="translate(50.692 51.151)">
        <path id="Path_195" data-name="Path 195" d="M137.736,149.667h-2.494a.784.784,0,0,0,.317.485,1.069,1.069,0,0,0,.627.178,1.226,1.226,0,0,0,.456-.078,1.091,1.091,0,0,0,.356-.242l.506.552a1.7,1.7,0,0,1-1.358.534,2.177,2.177,0,0,1-.987-.217,1.607,1.607,0,0,1-.663-.606,1.782,1.782,0,0,1,0-1.746,1.607,1.607,0,0,1,.634-.609,1.867,1.867,0,0,1,.894-.217,1.832,1.832,0,0,1,.877.21,1.526,1.526,0,0,1,.616.6,1.782,1.782,0,0,1,.224.905S137.736,149.51,137.736,149.667ZM135.5,148.6a.8.8,0,0,0-.271.5h1.625a.773.773,0,0,0-.271-.5.8.8,0,0,0-.538-.189.809.809,0,0,0-.563.2Z" transform="translate(-134.269 -146.224)" fill="#003853"/>
        <path id="Path_196" data-name="Path 196" d="M144.484,150.992a2.057,2.057,0,0,1-.624-.253l.317-.688a2,2,0,0,0,.534.232,2.182,2.182,0,0,0,.613.089c.4,0,.606-.1.606-.3a.214.214,0,0,0-.164-.2,2.356,2.356,0,0,0-.51-.1,5.009,5.009,0,0,1-.666-.143,1.047,1.047,0,0,1-.46-.281.8.8,0,0,1-.192-.574.9.9,0,0,1,.182-.556,1.166,1.166,0,0,1,.527-.378,2.262,2.262,0,0,1,.816-.135,3.246,3.246,0,0,1,.695.078,1.913,1.913,0,0,1,.574.21l-.317.681a1.9,1.9,0,0,0-.951-.246.977.977,0,0,0-.46.086.257.257,0,0,0-.153.221.217.217,0,0,0,.168.214,2.649,2.649,0,0,0,.527.118,6.3,6.3,0,0,1,.659.143,1.033,1.033,0,0,1,.449.281.791.791,0,0,1,.189.563.862.862,0,0,1-.185.545,1.187,1.187,0,0,1-.534.356,2.445,2.445,0,0,1-.837.132,3.206,3.206,0,0,1-.8-.089Z" transform="translate(-140.442 -146.224)" fill="#003853"/>
        <path id="Path_197" data-name="Path 197" d="M152.584,150.992a2.055,2.055,0,0,1-.624-.253l.317-.688a1.971,1.971,0,0,0,.531.232,2.2,2.2,0,0,0,.613.089q.609,0,.609-.3a.214.214,0,0,0-.167-.2,2.315,2.315,0,0,0-.506-.1,5.088,5.088,0,0,1-.67-.143,1.037,1.037,0,0,1-.456-.282.8.8,0,0,1-.192-.574.9.9,0,0,1,.182-.556,1.154,1.154,0,0,1,.524-.378,2.284,2.284,0,0,1,.82-.135,3.3,3.3,0,0,1,.695.078,1.954,1.954,0,0,1,.574.21l-.321.681a1.888,1.888,0,0,0-.948-.246.977.977,0,0,0-.46.086.253.253,0,0,0-.153.221.214.214,0,0,0,.164.214,2.713,2.713,0,0,0,.527.118,6.2,6.2,0,0,1,.663.143,1,1,0,0,1,.445.281.777.777,0,0,1,.192.563.862.862,0,0,1-.185.545,1.187,1.187,0,0,1-.534.356,2.444,2.444,0,0,1-.837.132A3.171,3.171,0,0,1,152.584,150.992Z" transform="translate(-145.656 -146.224)" fill="#003853"/>
        <path id="Path_198" data-name="Path 198" d="M165,145.06h.991v4.276H165Z" transform="translate(-154.05 -144.525)" fill="#003853"/>
        <path id="Path_199" data-name="Path 199" d="M172.38,148.038a1.425,1.425,0,0,1,.378,1.069V151H171.8v-1.739a.855.855,0,0,0-.171-.584.638.638,0,0,0-.5-.2.755.755,0,0,0-.574.224.93.93,0,0,0-.214.666V151h-.955v-3.3h.93v.385a1.269,1.269,0,0,1,.47-.321,1.667,1.667,0,0,1,.62-.114A1.351,1.351,0,0,1,172.38,148.038Z" transform="translate(-156.875 -146.192)" fill="#003853"/>
        <path id="Path_200" data-name="Path 200" d="M179.964,150.992a2.056,2.056,0,0,1-.624-.253l.317-.688a2,2,0,0,0,.534.232,2.182,2.182,0,0,0,.613.089c.4,0,.606-.1.606-.3a.214.214,0,0,0-.167-.2,2.271,2.271,0,0,0-.506-.1,5.216,5.216,0,0,1-.67-.143,1.037,1.037,0,0,1-.456-.281.8.8,0,0,1-.192-.574.9.9,0,0,1,.182-.556,1.166,1.166,0,0,1,.527-.378,2.263,2.263,0,0,1,.816-.135,3.245,3.245,0,0,1,.695.078,1.914,1.914,0,0,1,.574.21l-.317.681a1.914,1.914,0,0,0-.951-.246.976.976,0,0,0-.46.086.256.256,0,0,0-.153.221.217.217,0,0,0,.167.214,2.649,2.649,0,0,0,.527.118,6.294,6.294,0,0,1,.659.143,1.033,1.033,0,0,1,.449.281.791.791,0,0,1,.189.563.862.862,0,0,1-.185.545,1.187,1.187,0,0,1-.535.356,2.443,2.443,0,0,1-.837.132A3.206,3.206,0,0,1,179.964,150.992Z" transform="translate(-163.28 -146.224)" fill="#003853"/>
        <path id="Path_201" data-name="Path 201" d="M189.726,149.663a.937.937,0,0,1-.356.157,1.705,1.705,0,0,1-.431.053,1.269,1.269,0,0,1-.909-.3,1.144,1.144,0,0,1-.321-.88v-1.354h-.51V146.6h.51v-.8h.955v.8h.82v.734h-.82v1.343a.452.452,0,0,0,.107.321.4.4,0,0,0,.3.114.616.616,0,0,0,.385-.125Z" transform="translate(-168.339 -145.001)" fill="#003853"/>
        <path id="Path_202" data-name="Path 202" d="M194.614,144.471a.488.488,0,0,1-.164-.378.5.5,0,0,1,.164-.381.62.62,0,0,1,.431-.153.627.627,0,0,1,.428.146.474.474,0,0,1,.164.356.516.516,0,0,1-.164.4.588.588,0,0,1-.428.157A.6.6,0,0,1,194.614,144.471Zm-.046.613h.955v3.3h-.955Z" transform="translate(-173.006 -143.559)" fill="#003853"/>
        <path id="Path_203" data-name="Path 203" d="M200.316,149.663a.965.965,0,0,1-.356.157,1.705,1.705,0,0,1-.431.053,1.269,1.269,0,0,1-.909-.3,1.133,1.133,0,0,1-.324-.88v-1.354h-.506V146.6h.506v-.8h.958v.8h.82v.734h-.82v1.343a.452.452,0,0,0,.107.321.4.4,0,0,0,.3.114.616.616,0,0,0,.385-.125Z" transform="translate(-175.156 -145.001)" fill="#003853"/>
        <path id="Path_204" data-name="Path 204" d="M208.642,147.84v3.3h-.905v-.388a1.265,1.265,0,0,1-.456.328,1.426,1.426,0,0,1-.567.114,1.4,1.4,0,0,1-1.03-.356,1.493,1.493,0,0,1-.381-1.108v-1.864h.959v1.721c0,.531.224.8.67.8a.713.713,0,0,0,.552-.224.962.962,0,0,0,.207-.666v-1.628Z" transform="translate(-179.989 -146.314)" fill="#003853"/>
      </g>
      <g id="Group_15" data-name="Group 15" transform="translate(79.815 51.949)">
        <path id="Path_205" data-name="Path 205" d="M218.516,149.663a.937.937,0,0,1-.356.157,1.7,1.7,0,0,1-.431.053,1.269,1.269,0,0,1-.909-.3,1.147,1.147,0,0,1-.324-.88v-1.354H216V146.6h.506v-.8h.959v.8h.82v.734h-.82v1.343a.452.452,0,0,0,.107.321.4.4,0,0,0,.3.114.616.616,0,0,0,.385-.125Z" transform="translate(-216 -145.8)" fill="#003853"/>
      </g>
      <g id="Group_16" data-name="Group 16" transform="translate(82.166 52.626)">
        <path id="Path_206" data-name="Path 206" d="M226.07,149.667h-2.494a.766.766,0,0,0,.317.485,1.069,1.069,0,0,0,.627.178,1.226,1.226,0,0,0,.456-.078,1.091,1.091,0,0,0,.356-.242l.506.552a1.7,1.7,0,0,1-1.358.534,2.177,2.177,0,0,1-.987-.217,1.607,1.607,0,0,1-.663-.606,1.675,1.675,0,0,1-.232-.873,1.707,1.707,0,0,1,.228-.873,1.607,1.607,0,0,1,.634-.609,1.875,1.875,0,0,1,.894-.217,1.832,1.832,0,0,1,.877.21,1.546,1.546,0,0,1,.616.6,1.782,1.782,0,0,1,.224.905A1.438,1.438,0,0,1,226.07,149.667Zm-2.234-1.069a.8.8,0,0,0-.271.5h1.625a.774.774,0,0,0-.271-.5.8.8,0,0,0-.538-.189.809.809,0,0,0-.545.2Z" transform="translate(-222.6 -147.7)" fill="#003853"/>
      </g>
      <g id="Group_17" data-name="Group 17" transform="translate(4.908 71.312)">
        <path id="Path_207" data-name="Path 207" d="M12.657,200.14l-1.4,4.276H10.188l-.941-2.9-.973,2.9H7.205L5.78,200.144H6.835l.966,3.011,1.012-3.011h.919l.98,3.036,1-3.036Z" transform="translate(-5.78 -200.14)" fill="#003853"/>
      </g>
      <g id="Group_18" data-name="Group 18" transform="translate(11.874 70.781)">
        <path id="Path_208" data-name="Path 208" d="M25.494,199.559a.5.5,0,0,1-.164-.378.51.51,0,0,1,.164-.381.691.691,0,0,1,.859,0,.474.474,0,0,1,.167.356.52.52,0,0,1-.167.4.588.588,0,0,1-.428.157A.609.609,0,0,1,25.494,199.559Zm-.046.613H26.4v3.3h-.955Z" transform="translate(-25.33 -198.65)" fill="#003853"/>
      </g>
      <g id="Group_19" data-name="Group 19" transform="translate(13.499 72.252)">
        <path id="Path_209" data-name="Path 209" d="M32.88,203.148a1.425,1.425,0,0,1,.378,1.09v1.885H32.3v-1.739a.855.855,0,0,0-.171-.584.634.634,0,0,0-.5-.2.759.759,0,0,0-.577.224.93.93,0,0,0-.214.666v1.628H29.89v-3.3H30.8v.385a1.3,1.3,0,0,1,.47-.321,1.668,1.668,0,0,1,.62-.114A1.351,1.351,0,0,1,32.88,203.148Z" transform="translate(-29.89 -202.777)" fill="#003853"/>
      </g>
      <g id="Group_20" data-name="Group 20" transform="translate(17.166 72.245)">
        <path id="Path_210" data-name="Path 210" d="M43.847,202.825v2.744a1.746,1.746,0,0,1-.474,1.347,1.935,1.935,0,0,1-1.375.442,3.564,3.564,0,0,1-.909-.114,2.02,2.02,0,0,1-.713-.339l.378-.684a1.6,1.6,0,0,0,.527.271,2.088,2.088,0,0,0,.638.1,1.041,1.041,0,0,0,.713-.221.887.887,0,0,0,.239-.677v-.142a1.34,1.34,0,0,1-1.044.41,1.732,1.732,0,0,1-.83-.2,1.5,1.5,0,0,1-.6-.559,1.678,1.678,0,0,1,0-1.664,1.532,1.532,0,0,1,.6-.563,1.782,1.782,0,0,1,.83-.2,1.308,1.308,0,0,1,1.09.474v-.424Zm-1.187,2.138a.83.83,0,0,0,0-1.172.873.873,0,0,0-.62-.224.9.9,0,0,0-.627.225.83.83,0,0,0,0,1.172.912.912,0,0,0,.627.221.887.887,0,0,0,.62-.228Z" transform="translate(-40.18 -202.768)" fill="#003853"/>
        <path id="Path_211" data-name="Path 211" d="M51.664,206.052a2.056,2.056,0,0,1-.624-.253l.317-.688a1.971,1.971,0,0,0,.531.232,2.2,2.2,0,0,0,.613.089q.609,0,.609-.3a.214.214,0,0,0-.167-.2,2.308,2.308,0,0,0-.51-.1,5.15,5.15,0,0,1-.666-.143,1.037,1.037,0,0,1-.456-.281.8.8,0,0,1-.192-.574.9.9,0,0,1,.182-.556,1.183,1.183,0,0,1,.524-.378,2.283,2.283,0,0,1,.82-.135,3.3,3.3,0,0,1,.713.078,1.954,1.954,0,0,1,.574.21l-.321.681a1.889,1.889,0,0,0-.948-.246.976.976,0,0,0-.46.086.253.253,0,0,0-.153.221.214.214,0,0,0,.164.214,2.716,2.716,0,0,0,.527.118,6.2,6.2,0,0,1,.663.143,1,1,0,0,1,.445.281.78.78,0,0,1,.192.563.884.884,0,0,1-.185.545,1.186,1.186,0,0,1-.534.356,2.444,2.444,0,0,1-.837.132A3.171,3.171,0,0,1,51.664,206.052Z" transform="translate(-47.17 -202.759)" fill="#003853"/>
      </g>
      <g id="Group_21" data-name="Group 21" transform="translate(25.297 71.003)">
        <path id="Path_212" data-name="Path 212" d="M64.447,200.648h.844v.734h-.82v2.494h-.959v-2.494H63v-.734h.506V200.5a1.2,1.2,0,0,1,.335-.894,1.283,1.283,0,0,1,.941-.331,1.672,1.672,0,0,1,.406.046,1,1,0,0,1,.324.132l-.253.691a.648.648,0,0,0-.385-.118c-.292,0-.435.16-.435.477Z" transform="translate(-63 -199.273)" fill="#003853"/>
      </g>
      <g id="Group_22" data-name="Group 22" transform="translate(27.444 72.253)">
        <path id="Path_213" data-name="Path 213" d="M69.9,205.958a1.61,1.61,0,0,1-.648-.606,1.782,1.782,0,0,1,0-1.75A1.636,1.636,0,0,1,69.9,203a2.106,2.106,0,0,1,1.864,0,1.65,1.65,0,0,1,.645.606,1.782,1.782,0,0,1,0,1.75,1.625,1.625,0,0,1-.645.606A2.106,2.106,0,0,1,69.9,205.958Zm1.536-.816a1.069,1.069,0,0,0,0-1.329.855.855,0,0,0-1.208,0,1.044,1.044,0,0,0,0,1.329A.855.855,0,0,0,71.44,205.142Z" transform="translate(-69.026 -202.78)" fill="#003853"/>
        <path id="Path_214" data-name="Path 214" d="M81.312,202.9a1.731,1.731,0,0,1,.673-.125v.884h-.214a.88.88,0,0,0-.645.228.919.919,0,0,0-.232.688v1.557H79.94v-3.3h.912v.435A1.069,1.069,0,0,1,81.312,202.9Z" transform="translate(-76.051 -202.779)" fill="#003853"/>
      </g>
      <g id="Group_23" data-name="Group 23" transform="translate(34.561 72.303)">
        <path id="Path_215" data-name="Path 215" d="M92.773,202.92l-1.489,3.5a1.739,1.739,0,0,1-.559.805,1.393,1.393,0,0,1-.805.232,1.67,1.67,0,0,1-.51-.078,1.15,1.15,0,0,1-.41-.224l.356-.681a.713.713,0,0,0,.253.153.83.83,0,0,0,.285.057.488.488,0,0,0,.317-.1.787.787,0,0,0,.221-.317v-.028l-1.425-3.321H90l.926,2.238.926-2.238Z" transform="translate(-89 -202.92)" fill="#003853"/>
      </g>
      <g id="Group_24" data-name="Group 24" transform="translate(38.052 70.777)">
        <path id="Path_216" data-name="Path 216" d="M99.674,205.958a1.61,1.61,0,0,1-.648-.606,1.782,1.782,0,0,1,0-1.75,1.636,1.636,0,0,1,.648-.606,2.106,2.106,0,0,1,1.864,0,1.65,1.65,0,0,1,.645.606,1.782,1.782,0,0,1,0,1.75,1.625,1.625,0,0,1-.645.606A2.106,2.106,0,0,1,99.674,205.958Zm1.536-.816a1.069,1.069,0,0,0,0-1.329.855.855,0,0,0-1.208,0,1.044,1.044,0,0,0,0,1.329A.855.855,0,0,0,101.21,205.142Z" transform="translate(-98.796 -201.304)" fill="#003853"/>
        <path id="Path_217" data-name="Path 217" d="M112.962,202.92v3.3h-.905v-.392a1.287,1.287,0,0,1-.453.328,1.454,1.454,0,0,1-.57.114,1.4,1.4,0,0,1-1.03-.374,1.493,1.493,0,0,1-.381-1.108V202.92h.959v1.721c0,.531.221.8.666.8a.713.713,0,0,0,.552-.224.944.944,0,0,0,.207-.666V202.92Z" transform="translate(-105.763 -201.394)" fill="#003853"/>
        <path id="Path_218" data-name="Path 218" d="M121.855,202.9a1.714,1.714,0,0,1,.67-.125v.884h-.214a.873.873,0,0,0-.641.228.919.919,0,0,0-.232.688v1.557h-.959v-3.3h.9v.435A1.112,1.112,0,0,1,121.855,202.9Z" transform="translate(-112.753 -201.304)" fill="#003853"/>
        <path id="Path_219" data-name="Path 219" d="M130.69,199.42h.959v4.543h-.959Z" transform="translate(-119.325 -199.142)" fill="#003853"/>
        <path id="Path_220" data-name="Path 220" d="M134.7,199.551a.5.5,0,0,1-.164-.378.509.509,0,0,1,.164-.381.62.62,0,0,1,.431-.153.627.627,0,0,1,.428.146.474.474,0,0,1,.167.356.52.52,0,0,1-.167.4.588.588,0,0,1-.428.157A.6.6,0,0,1,134.7,199.551Zm-.046.613h.955v3.3h-.955Z" transform="translate(-121.803 -198.639)" fill="#003853"/>
      </g>
      <g id="Group_25" data-name="Group 25" transform="translate(52.06 72.303)">
        <path id="Path_221" data-name="Path 221" d="M141.876,202.92l-1.39,3.3H139.5l-1.386-3.3h.987l.912,2.241.944-2.241Z" transform="translate(-138.11 -202.92)" fill="#003853"/>
      </g>
      <g id="Group_26" data-name="Group 26" transform="translate(55.527 71.312)">
        <path id="Path_222" data-name="Path 222" d="M151.31,204.747h-2.494a.759.759,0,0,0,.317.485,1.069,1.069,0,0,0,.627.178,1.226,1.226,0,0,0,.456-.078,1.091,1.091,0,0,0,.356-.242l.506.552a1.7,1.7,0,0,1-1.358.534,2.188,2.188,0,0,1-.987-.217,1.607,1.607,0,0,1-.663-.606,1.76,1.76,0,0,1,0-1.746A1.575,1.575,0,0,1,148.7,203a1.875,1.875,0,0,1,.894-.217,1.832,1.832,0,0,1,.877.21,1.546,1.546,0,0,1,.631.581,1.782,1.782,0,0,1,.224.905S151.325,204.59,151.31,204.747Zm-2.234-1.069a.8.8,0,0,0-.271.5h1.625a.774.774,0,0,0-.271-.5.8.8,0,0,0-.538-.189.809.809,0,0,0-.545.2Z" transform="translate(-147.84 -201.839)" fill="#003853"/>
        <path id="Path_223" data-name="Path 223" d="M158.294,206.052a2.1,2.1,0,0,1-.624-.253l.321-.688a1.969,1.969,0,0,0,.531.232,2.2,2.2,0,0,0,.613.089c.4,0,.606-.1.606-.3a.21.21,0,0,0-.164-.2,2.356,2.356,0,0,0-.51-.1,5.01,5.01,0,0,1-.666-.142,1.015,1.015,0,0,1-.456-.282.805.805,0,0,1-.2-.574.9.9,0,0,1,.182-.556,1.194,1.194,0,0,1,.527-.378,2.263,2.263,0,0,1,.816-.135,3.3,3.3,0,0,1,.713.078,1.927,1.927,0,0,1,.57.21l-.317.681a1.892,1.892,0,0,0-.951-.246.952.952,0,0,0-.456.086.253.253,0,0,0-.153.221.214.214,0,0,0,.164.214,2.649,2.649,0,0,0,.527.118,6.089,6.089,0,0,1,.659.143,1.012,1.012,0,0,1,.449.281.78.78,0,0,1,.189.563.88.88,0,0,1-.182.545,1.219,1.219,0,0,1-.538.356,2.437,2.437,0,0,1-.834.132A3.208,3.208,0,0,1,158.294,206.052Z" transform="translate(-154.167 -201.826)" fill="#003853"/>
        <path id="Path_224" data-name="Path 224" d="M166.607,204.313a.546.546,0,0,1,0-.784.6.6,0,0,1,.424-.157.591.591,0,0,1,.42.157.513.513,0,0,1,.167.388.531.531,0,0,1-.167.4A.62.62,0,0,1,166.607,204.313Zm-.15-4.173h1.14l-.192,2.8h-.766Z" transform="translate(-159.812 -200.14)" fill="#003853"/>
      </g>
      <rect id="Rectangle_22" data-name="Rectangle 22" width="80.622" height="8.039" transform="translate(5.036 58.976)" fill="#8cc63f"/>
      <g id="Group_27" data-name="Group 27" transform="translate(7.124 60.846)">
        <path id="Path_225" data-name="Path 225" d="M12,170.77h1.026v4.436H12Z" transform="translate(-12 -170.769)" fill="#fff"/>
        <path id="Path_226" data-name="Path 226" d="M20.989,170.77v4.436h-.834l-2.213-2.694v2.694H16.92V170.77h.852l2.206,2.694V170.77Z" transform="translate(-15.167 -170.769)" fill="#fff"/>
        <path id="Path_227" data-name="Path 227" d="M30.41,170.769h2.013a2.815,2.815,0,0,1,1.279.274,2.074,2.074,0,0,1,.862.777,2.377,2.377,0,0,1,0,2.334,2.1,2.1,0,0,1-.862.777,2.851,2.851,0,0,1-1.279.274H30.41Zm1.963,3.592a1.368,1.368,0,1,0,0-2.722h-.937v2.751Z" transform="translate(-23.85 -170.768)" fill="#fff"/>
        <path id="Path_228" data-name="Path 228" d="M44.21,170.77h1.026v4.436H44.21Z" transform="translate(-32.733 -170.769)" fill="#fff"/>
        <path id="Path_229" data-name="Path 229" d="M51.026,174.255h-2.06l-.4.951H47.52L49.5,170.77h1.016l1.985,4.436H51.429Zm-.324-.78-.713-1.7-.713,1.7Z" transform="translate(-34.863 -170.769)" fill="#fff"/>
      </g>
      <path id="Path_230" data-name="Path 230" d="M216.6,37.911a5.5,5.5,0,0,0-3.453-1.361c-1.97.025-2.943,1.1-5.409.681a6.369,6.369,0,0,0,3.709,2.747A4.643,4.643,0,0,0,216.6,37.911Z" transform="translate(-130.869 -23.529)" fill="#005270"/>
      <path id="Path_231" data-name="Path 231" d="M226.483,18.7a4.342,4.342,0,0,0,1.967-4.319c-.289-1.425-1.34-2.266-2.355-3.207A4.931,4.931,0,0,1,225,9.836c-.41-.8-.574-2.138.652-2.181a2.266,2.266,0,0,1,1.333.381,2.327,2.327,0,0,0-2.612-1.3,1.589,1.589,0,0,0-1.261,1.39,3.885,3.885,0,0,0,.253,1.65c.713,2.163,1.76,4.187,2.459,6.35a14.767,14.767,0,0,1,.428,1.568" transform="translate(-140.76 -4.302)" fill="#005270"/>
      <g id="Group_29" data-name="Group 29" transform="translate(83.875 4.009)" clip-path="url(#clip-path)">
        <g id="Group_28" data-name="Group 28" transform="translate(-1.547 -1.623)" clip-path="url(#clip-path-2)">
          <path id="Path_232" data-name="Path 232" d="M227.157,6.2l.542,1.7L222.97,9.41V6.2Z" transform="translate(-223 -6.38)" fill="#176d80"/>
          <path id="Path_233" data-name="Path 233" d="M227.7,10.96l.046.146-4.775,1.525v-.157Z" transform="translate(-223 -9.444)" fill="#176d80"/>
          <path id="Path_234" data-name="Path 234" d="M227.745,11.37l.046.143-4.821,1.543V12.9Z" transform="translate(-223 -9.708)" fill="#176e81"/>
          <path id="Path_235" data-name="Path 235" d="M227.791,11.77l.046.146L222.97,13.47v-.157Z" transform="translate(-223 -9.966)" fill="#176f82"/>
          <path id="Path_236" data-name="Path 236" d="M227.837,12.18l.046.143-4.914,1.571v-.16Z" transform="translate(-223 -10.229)" fill="#167083"/>
          <path id="Path_237" data-name="Path 237" d="M227.884,12.58l.046.143-4.96,1.586v-.157Z" transform="translate(-223 -10.487)" fill="#167184"/>
          <path id="Path_238" data-name="Path 238" d="M227.93,12.98l.046.146-5.006,1.6v-.16Z" transform="translate(-223 -10.744)" fill="#167285"/>
          <path id="Path_239" data-name="Path 239" d="M227.976,13.39l.046.143-5.053,1.614V14.99Z" transform="translate(-223 -11.008)" fill="#167386"/>
          <path id="Path_240" data-name="Path 240" d="M228.023,13.79l.046.146-5.1,1.628V15.4Z" transform="translate(-223 -11.266)" fill="#167487"/>
          <path id="Path_241" data-name="Path 241" d="M228.069,14.2l.043.143-5.142,1.643v-.157Z" transform="translate(-223 -11.53)" fill="#157588"/>
          <path id="Path_242" data-name="Path 242" d="M228.112,14.6l.046.143L222.97,16.4v-.16Z" transform="translate(-223 -11.787)" fill="#157689"/>
          <path id="Path_243" data-name="Path 243" d="M228.158,15l.046.146-5.2,1.66-.039-.121V16.66Z" transform="translate(-223 -12.045)" fill="#15778a"/>
          <rect id="Rectangle_23" data-name="Rectangle 23" width="5.455" height="0.15" transform="translate(0.008 4.767) rotate(-17.73)" fill="#15788b"/>
          <rect id="Rectangle_24" data-name="Rectangle 24" width="5.455" height="0.15" transform="translate(0.057 4.907) rotate(-17.73)" fill="#15798c"/>
          <rect id="Rectangle_25" data-name="Rectangle 25" width="5.455" height="0.15" transform="translate(0.103 5.053) rotate(-17.73)" fill="#147b8d"/>
          <rect id="Rectangle_26" data-name="Rectangle 26" width="5.455" height="0.15" transform="translate(0.147 5.196) rotate(-17.73)" fill="#147c8e"/>
          <rect id="Rectangle_27" data-name="Rectangle 27" width="5.455" height="0.15" transform="translate(0.196 5.339) rotate(-17.73)" fill="#147d8f"/>
          <rect id="Rectangle_28" data-name="Rectangle 28" width="5.455" height="0.15" transform="translate(0.242 5.486) rotate(-17.73)" fill="#147e90"/>
          <rect id="Rectangle_29" data-name="Rectangle 29" width="5.455" height="0.15" transform="translate(0.286 5.629) rotate(-17.73)" fill="#147f91"/>
          <rect id="Rectangle_30" data-name="Rectangle 30" width="5.455" height="0.15" transform="translate(0.336 5.771) rotate(-17.73)" fill="#138092"/>
          <rect id="Rectangle_31" data-name="Rectangle 31" width="5.455" height="0.15" transform="translate(0.381 5.914) rotate(-17.73)" fill="#138193"/>
          <rect id="Rectangle_32" data-name="Rectangle 32" width="5.455" height="0.15" transform="translate(0.425 6.057) rotate(-17.73)" fill="#138294"/>
          <path id="Path_244" data-name="Path 244" d="M229.565,19.45l.014.039V19.6l-5.163,1.65-.046-.143Z" transform="translate(-223.901 -14.909)" fill="#138395"/>
          <path id="Path_245" data-name="Path 245" d="M229.663,20.04l-5.117,1.636-.046-.146,5.163-1.65Z" transform="translate(-223.985 -15.186)" fill="#138496"/>
          <path id="Path_246" data-name="Path 246" d="M229.747,20.487l-5.071,1.621-.046-.143,5.117-1.636Z" transform="translate(-224.068 -15.475)" fill="#128597"/>
          <path id="Path_247" data-name="Path 247" d="M229.831,20.93l-5.024,1.607-.046-.146,5.07-1.621Z" transform="translate(-224.152 -15.759)" fill="#128698"/>
          <path id="Path_248" data-name="Path 248" d="M229.914,21.377l-4.978,1.593-.046-.143,5.024-1.607Z" transform="translate(-224.236 -16.048)" fill="#128799"/>
          <path id="Path_249" data-name="Path 249" d="M226.648,28.341l-1.628-5.088L230,21.66v6.681Z" transform="translate(-224.319 -16.332)" fill="#128799"/>
        </g>
      </g>
      <path id="Path_252" data-name="Path 252" d="M212.761,26.9a14.77,14.77,0,0,1-.381-2.3,6.057,6.057,0,0,0,2.548,1.425,5.947,5.947,0,0,1,2.687,1.956S215.33,29.35,212.761,26.9Z" transform="translate(-133.855 -15.837)" fill="#005270"/>
      <path id="Path_253" data-name="Path 253" d="M213.753,19.054a22.238,22.238,0,0,1-3.382-3.734s-.235,4.3.378,5.548c0,0-3.079-.306-4.329-1.179,0,0,2.972,8.156,9.314,4.568a7.839,7.839,0,0,0-.481-2.908A5.8,5.8,0,0,0,213.753,19.054Z" transform="translate(-130.019 -9.864)" fill="#23bdbf"/>
      <g id="Group_31" data-name="Group 31" transform="translate(76.401 5.456)" opacity="0.27">
        <g id="Group_30" data-name="Group 30" transform="translate(0)" clip-path="url(#clip-path-3)">
          <path id="Path_254" data-name="Path 254" d="M216.6,37.911a5.5,5.5,0,0,0-3.453-1.361c-1.97.025-2.943,1.1-5.409.681a6.369,6.369,0,0,0,3.709,2.747A4.643,4.643,0,0,0,216.6,37.911Z" transform="translate(-207.27 -28.985)" fill="#005270"/>
        </g>
      </g>
      <path id="Path_256" data-name="Path 256" d="M216.669,24.775a3,3,0,0,0-.107-.713,9.15,9.15,0,0,0-.445-1.71,9.946,9.946,0,0,0-1.75-3.075,17.078,17.078,0,0,0-1.732-1.675c-.356-.317-1.333-.966-1.29-1.582a14.4,14.4,0,0,0,0,5.185,9.671,9.671,0,0,1-4.066-.816S210.743,28.534,216.669,24.775Z" transform="translate(-130.573 -10.314)" fill="none"/>
      <g id="Group_33" data-name="Group 33" transform="translate(76.661 8.467)" opacity="0.27">
        <g id="Group_32" data-name="Group 32" clip-path="url(#clip-path-4)">
          <path id="Path_257" data-name="Path 257" d="M213.371,18.71a22.927,22.927,0,0,1-3.435-3.82s-.239,4.4.385,5.68c0,0-3.129-.317-4.4-1.208,0,0,3.022,8.352,9.464,4.679a8.088,8.088,0,0,0-.492-2.979A5.95,5.95,0,0,0,213.371,18.71Z" transform="translate(-206.358 -18.054)" fill="#005270"/>
        </g>
      </g>
      <path id="Path_259" data-name="Path 259" d="M224.17.446a.638.638,0,0,0-.791-.424h-.029a.645.645,0,0,0-.4.791.638.638,0,0,0,.588.46.128.128,0,0,1,.114.071l.417.791-.153-.884a.135.135,0,0,1,.05-.128.634.634,0,0,0,.2-.677Z" transform="translate(-140.642)" fill="#25b7c5"/>
      <path id="Path_260" data-name="Path 260" d="M221.923,4.033a.356.356,0,0,0-.5.05V4.1a.356.356,0,0,0,.488.517.078.078,0,0,1,.078,0l.453.232-.356-.356a.082.082,0,0,1,0-.075.356.356,0,0,0-.16-.388Z" transform="translate(-139.614 -2.547)" fill="#25b7c5"/>
    </g>
  </g>
</svg>
