<svg xmlns="http://www.w3.org/2000/svg" xmlns:xlink="http://www.w3.org/1999/xlink" width="206" height="102" viewBox="0 0 206 102">
  <defs>
    <clipPath id="clip-ey">
      <rect width="206" height="102"/>
    </clipPath>
  </defs>
  <g id="ey" clip-path="url(#clip-ey)">
    <rect width="206" height="102" fill="#fff"/>
    <g id="ey-2" data-name="ey" transform="translate(72.833 12.21)">
      <path id="Path_130" data-name="Path 130" d="M56.069,357.673c0-.1-.013-.193-.013-.289q0-15.358-.006-30.718c0-.224.034-.308.29-.307q8.764.013,17.527,0a.4.4,0,0,1,.413.232q1.964,3.4,3.947,6.786c.043.073.081.151.142.263h-.305q-6.072,0-12.141-.006c-.246,0-.3.068-.295.3q.015,2.322,0,4.643c0,.216.048.274.27.274,3.651-.008,7.3,0,10.953-.012.251,0,.323.055.322.315q-.019,3.034,0,6.07c0,.207-.052.258-.258.258-3.661-.007-7.321,0-10.981-.009-.225,0-.309.036-.306.29q.019,2.322,0,4.643c0,.254.08.293.308.293q7.637-.009,15.3,0c.339,0,.339,0,.339.348v6.624Z" transform="translate(-55.722 -294.323)" fill="#161d23"/>
      <path id="Path_131" data-name="Path 131" d="M249.133,357.681c0-.1.009-.193.009-.289V345.777a1.044,1.044,0,0,0-.144-.546q-5.417-9.286-10.824-18.572c-.048-.081-.093-.164-.144-.254a.364.364,0,0,1,.232-.034q5.042,0,10.085-.006a.348.348,0,0,1,.348.232q2.565,4.913,5.137,9.821c.038.074.082.145.128.224a.562.562,0,0,0,.166-.251q2.58-4.9,5.154-9.813a.308.308,0,0,1,.311-.209q5.029.01,10.058,0h.133a.488.488,0,0,1-.116.267q-5.407,9.312-10.838,18.618a.993.993,0,0,0-.138.52v11.9Z" transform="translate(-216.578 -294.33)" fill="#161d23"/>
      <path id="Path_132" data-name="Path 132" d="M116.206,50.38c0,.1.008.194.008.29V61.862c0,.217-.055.3-.274.337q-4.895.843-9.787,1.7-4.594.8-9.189,1.616Q91.9,66.4,86.84,67.281q-5.2.911-10.408,1.828-5.659.99-11.319,1.973T53.828,73.065a.519.519,0,0,1-.348,0l7.048-2.554,25.988-9.4,25.316-9.141,4.113-1.487c.071-.027.157-.031.208-.1Z" transform="translate(-53.45 -50.38)" fill="#fee501"/>
    </g>
  </g>
</svg>
