<svg xmlns="http://www.w3.org/2000/svg" xmlns:xlink="http://www.w3.org/1999/xlink" width="206" height="102" viewBox="0 0 206 102">
  <defs>
    <clipPath id="clip-lti">
      <rect width="206" height="102"/>
    </clipPath>
  </defs>
  <g id="lti" clip-path="url(#clip-lti)">
    <rect width="206" height="102" fill="#fff"/>
    <g id="lti-2" data-name="lti" transform="translate(46.071 28)">
      <path id="Path_1" data-name="Path 1" d="M319.188,52.35v1.409q0,22.04.023,44.083c0,1.122-.175,1.521-1.355,1.47-2.652-.114-5.318-.064-7.965-.019-.775,0-1.091-.125-1.091-1.064q.046-19.719.023-39.435c0-.476-.076-.933.484-1.226C312.535,55.894,315.747,54.177,319.188,52.35Z" transform="translate(-240.186 -52.317)" fill="#02028c"/>
      <path id="Path_2" data-name="Path 2" d="M161.023,62.593c-5.138,0-10.282-.025-15.42.023-.95,0-1.213-.225-1.188-1.18.068-2.738.046-5.478,0-8.218,0-.76.167-1,.975-1q15.674.046,31.35,0c.727,0,.937.2.927.919-.035,2.786-.048,5.571,0,8.357.015.871-.213,1.135-1.109,1.127C171.381,62.57,166.2,62.593,161.023,62.593Z" transform="translate(-118.42 -52.22)" fill="#03038d"/>
      <path id="Path_3" data-name="Path 3" d="M199.945,111.907c0,5.318-.02,10.616.02,15.924,0,.886-.233,1.129-1.119,1.112-2.786-.061-5.571-.046-8.342,0-.7,0-.932-.162-.929-.894q.035-13.589,0-27.174a1.213,1.213,0,0,1,.783-1.249c2.895-1.433,5.787-2.872,8.651-4.366.828-.433.957-.253.952.6C199.932,101.208,199.945,106.559,199.945,111.907Z" transform="translate(-152.193 -81.958)" fill="#04048d"/>
      <path id="Path_4" data-name="Path 4" d="M47.053,86.36c0-11.272,0-22.268-.013-33.264,0-.641.154-.876.843-.866q4.358.053,8.719,0c.717,0,.821.281.821.891q-.01,13.653-.01,27.3c0,.329.068.674-.329.874C53.794,82.953,50.51,84.615,47.053,86.36Z" transform="translate(-47.006 -52.227)" fill="#02028c"/>
      <path id="Path_5" data-name="Path 5" d="M60.553,187.863c4.171,0,8.342.03,12.511-.023.907,0,1.109.253,1.092,1.122-.058,2.786-.041,5.559,0,8.34,0,.686-.139.94-.894.937q-12.7-.043-25.4,0c-.686,0-.851-.218-.843-.861.028-2.824.061-5.645-.015-8.466-.025-.98.38-1.064,1.173-1.059C52.3,187.881,56.428,187.863,60.553,187.863Z" transform="translate(-46.98 -151.26)" fill="#02028c"/>
    </g>
  </g>
</svg>
