<svg xmlns="http://www.w3.org/2000/svg" xmlns:xlink="http://www.w3.org/1999/xlink" width="206" height="102" viewBox="0 0 206 102">
  <defs>
    <clipPath id="clip-molex">
      <rect width="206" height="102"/>
    </clipPath>
  </defs>
  <g id="molex" clip-path="url(#clip-molex)">
    <rect width="206" height="102" fill="#fff"/>
    <g id="molex-2" data-name="molex" transform="translate(42.21 34.346)">
      <circle id="Ellipse_2" data-name="Ellipse 2" cx="3.673" cy="3.673" r="3.673" transform="translate(112.444 2)" fill="none" stroke="#fe0202" stroke-miterlimit="10" stroke-width="4"/>
      <path id="Path_158" data-name="Path 158" d="M38.36,90.662h7.273v2.629h.077a6.365,6.365,0,0,1,2.78-2.41,9.268,9.268,0,0,1,3.694-.7,6.671,6.671,0,0,1,3.122.8,4.809,4.809,0,0,1,2.208,2.272,3.456,3.456,0,0,0,.5-.56,5.509,5.509,0,0,1,1.142-1.056,8.351,8.351,0,0,1,2.02-1,9.076,9.076,0,0,1,3.092-.46,7.7,7.7,0,0,1,3.2.59,5.769,5.769,0,0,1,2.094,1.562A5.946,5.946,0,0,1,70.7,94.49a8.64,8.64,0,0,1,.342,2.378v13.556H63.492V99.7c0-.46-.019-.9-.058-1.338a2.944,2.944,0,0,0-.323-1.145,1.952,1.952,0,0,0-.762-.781,2.634,2.634,0,0,0-1.332-.288,2.086,2.086,0,0,0-2,.994,5.281,5.281,0,0,0-.56,2.558v10.727H50.926V99.7c0-.46-.019-.9-.058-1.338a2.944,2.944,0,0,0-.323-1.145,1.952,1.952,0,0,0-.762-.781,2.634,2.634,0,0,0-1.332-.288,2.086,2.086,0,0,0-2,.994,5.281,5.281,0,0,0-.56,2.558v10.727H38.36Z" transform="translate(-38.36 -78.704)" fill="#fe0202"/>
      <path id="Path_159" data-name="Path 159" d="M251.255,104.48a9.3,9.3,0,0,1-1.962,3.312,9.468,9.468,0,0,1-3.35,2.285,13.988,13.988,0,0,1-9.635,0,9.452,9.452,0,0,1-3.35-2.285A9.3,9.3,0,0,1,231,104.48a12.056,12.056,0,0,1-.648-3.942A11.876,11.876,0,0,1,231,96.614a9.306,9.306,0,0,1,1.962-3.292,9.427,9.427,0,0,1,3.35-2.285,13.96,13.96,0,0,1,9.635,0,9.444,9.444,0,0,1,3.35,2.285,9.305,9.305,0,0,1,1.962,3.294,11.874,11.874,0,0,1,.646,3.923A12.054,12.054,0,0,1,251.255,104.48Zm-6.987-5.6a4.747,4.747,0,0,0-.437-1.56,3.189,3.189,0,0,0-.99-1.181,3.322,3.322,0,0,0-3.428,0,3.189,3.189,0,0,0-.99,1.181,4.747,4.747,0,0,0-.437,1.56,14.457,14.457,0,0,0,0,3.314,4.936,4.936,0,0,0,.437,1.579,3.12,3.12,0,0,0,.99,1.2,3.322,3.322,0,0,0,3.428,0,3.12,3.12,0,0,0,.99-1.2,4.936,4.936,0,0,0,.437-1.579A14.46,14.46,0,0,0,244.268,98.875Z" transform="translate(-194.481 -78.717)" fill="#fe0202"/>
      <path id="Path_160" data-name="Path 160" d="M364.06,53.09H371.6V80.277H364.06Z" transform="translate(-303.211 -48.557)" fill="#fe0202"/>
      <path id="Path_161" data-name="Path 161" d="M430.18,102.246a4.654,4.654,0,0,0,1.1,2.78,3.492,3.492,0,0,0,2.741,1.067,4.992,4.992,0,0,0,1.808-.344,2.66,2.66,0,0,0,1.353-1.065h7.045a8.618,8.618,0,0,1-1.6,2.78,9.011,9.011,0,0,1-2.38,1.941,11.309,11.309,0,0,1-2.933,1.141,13.839,13.839,0,0,1-3.255.374,13.673,13.673,0,0,1-4.4-.686,10.089,10.089,0,0,1-3.524-2A9.1,9.1,0,0,1,423.82,105a11.726,11.726,0,0,1-.082-8.452,10.076,10.076,0,0,1,2.113-3.312,9.871,9.871,0,0,1,3.294-2.242,10.835,10.835,0,0,1,4.284-.818,14.435,14.435,0,0,1,5.065.8,8.654,8.654,0,0,1,3.49,2.343A9.608,9.608,0,0,1,444,97.107a18.6,18.6,0,0,1,.648,5.14Zm7.234-3.923a3.262,3.262,0,0,0-.934-2.343,3.161,3.161,0,0,0-2.38-.97,3.851,3.851,0,0,0-2.666.856,4.072,4.072,0,0,0-1.218,2.457Z" transform="translate(-351.131 -78.713)" fill="#fe0202"/>
      <path id="Path_162" data-name="Path 162" d="M548.888,102.2l-6.206-9.373h8.3l2.171,3.923,2.208-3.923h8.073l-6.206,9.373,7,10.389h-8.3l-2.894-4.835-2.78,4.835H542Z" transform="translate(-447.908 -80.872)" fill="#fe0202"/>
      <text id="R" transform="translate(114.4 5.506)" fill="#fe0202" font-size="3" font-family="Helvetica-Bold, Helvetica" font-weight="700"><tspan x="0" y="0">R</tspan></text>
    </g>
  </g>
</svg>
