<svg xmlns="http://www.w3.org/2000/svg" xmlns:xlink="http://www.w3.org/1999/xlink" width="206" height="102" viewBox="0 0 206 102">
  <defs>
    <clipPath id="clip-novozymes">
      <rect width="206" height="102"/>
    </clipPath>
  </defs>
  <g id="novozymes" clip-path="url(#clip-novozymes)">
    <rect width="206" height="102" fill="#fff"/>
    <g id="Page-1" transform="translate(15.708 22.9)">
      <path id="Fill-1" d="M457.432,87.915h-.378v-.64h.378c.233,0,.349.116.349.32A.329.329,0,0,1,457.432,87.915Zm.32.2a.556.556,0,0,0,.378-.552c0-.32-.174-.552-.64-.552h-.64a.125.125,0,0,0-.116.116V88.9a.125.125,0,0,0,.116.116h.087c.058,0,.145-.058.145-.116v-.727h.32l.407.727a.2.2,0,0,0,.2.116h.116c.087,0,.116-.087.058-.174l-.436-.727Zm-.349,1.454a1.5,1.5,0,0,1-1.454-1.541,1.523,1.523,0,0,1,1.454-1.57,1.559,1.559,0,0,1,0,3.111Zm0-3.372a1.793,1.793,0,0,0-1.8,1.8,1.775,1.775,0,0,0,1.8,1.8,1.8,1.8,0,1,0,0-3.6Z" transform="translate(-323.151 -61.07)" fill="#212121" fill-rule="evenodd"/>
      <path id="Fill-3" d="M425.437,97.845c0-5.088-7.471-4.3-7.471-7.675a2.394,2.394,0,0,1,2.616-2.326c1.773,0,2.209,1.134,3.111,1.134a1.036,1.036,0,0,0,1.1-1.076c0-1.134-1.977-1.8-4.07-1.8-2.762,0-5.175,1.483-5.175,4.3,0,2.616,1.831,3.721,4.07,4.651,1.744.727,3.4,1.4,3.4,3.052,0,1.25-.988,2.646-3.111,2.646s-2.733-1.541-3.75-1.541c-.523,0-1.163.2-1.163.988,0,1.25,2.413,2.3,4.884,2.3,2.7.058,5.553-1.4,5.553-4.651" transform="translate(-294.354 -60.999)" fill="#212121" fill-rule="evenodd"/>
      <path id="Fill-5" d="M375.412,92.305h-6.628c.262-2.413,1.6-4.361,4.244-4.361a3.318,3.318,0,0,1,3.227,3.43c0,.494-.116.93-.843.93M379.1,91.9a5.747,5.747,0,0,0-5.989-5.7c-3.227,0-6.716,2.384-6.716,8.46,0,3.692,2.006,7.936,6.716,7.936a5.883,5.883,0,0,0,5.7-3.692c.145-.669-.291-.843-.436-.872-.407,0-.581.116-1.076.64a5.246,5.246,0,0,1-3.721,1.541c-2.326,0-4.913-2.093-4.855-6.483h9.012c.93,0,1.366-.9,1.366-1.832" transform="translate(-259.882 -61.07)" fill="#212121" fill-rule="evenodd"/>
      <path id="Fill-7" d="M305.061,86.2a6.056,6.056,0,0,0-4.215,1.6,6.42,6.42,0,0,0-4.506-1.6,15.268,15.268,0,0,0-4.273.727c-1.017.32-1.366.727-1.366,1.25v13.78a.291.291,0,0,0,.291.291h2.093a.291.291,0,0,0,.291-.291V89.223c0-.7,1.163-1.279,2.82-1.279,2.936,0,3.082,1.831,3.111,3.256v10.756a.275.275,0,0,0,.291.291h2.093a.291.291,0,0,0,.291-.291V91.2c0-1.4.174-3.169,2.936-3.256,3.023.087,2.936,2.18,2.936,3.576v10.437a.291.291,0,0,0,.291.291h2.093a.291.291,0,0,0,.291-.291V91.113c.029-2.035-.262-4.913-5.465-4.913" transform="translate(-206.189 -61.07)" fill="#212121" fill-rule="evenodd"/>
      <path id="Fill-9" d="M249.161,87.5h-1.8a.35.35,0,0,0-.291.2l-4.157,11.861L238.637,87.7a.28.28,0,0,0-.291-.2h-2.5a.3.3,0,0,0-.262.407l6.018,14.885-.552,1.773a7.125,7.125,0,0,1-1.657,3.052,2.521,2.521,0,0,1-1.861.756c-.7,0-1.192-.145-1.657-.145a.985.985,0,0,0-1.076,1.047c0,.756.407,1.279,1.57,1.279a6.269,6.269,0,0,0,4.477-1.861c1.4-1.483,2.384-4.273,2.936-5.7l5.64-15.088a.279.279,0,0,0-.174-.378.107.107,0,0,0-.087-.029" transform="translate(-166.54 -61.992)" fill="#212121" fill-rule="evenodd"/>
      <path id="Fill-12" d="M207.139,101.554h-6.6l6.774-13.111a.571.571,0,0,0-.523-.843h-9.158a.291.291,0,0,0-.291.291V89a.291.291,0,0,0,.291.291h6.454L197.138,102.4a.6.6,0,0,0,.523.872h9.506a.291.291,0,0,0,.291-.291v-1.1c-.029-.2-.145-.32-.32-.32" transform="translate(-139.78 -62.063)" fill="#212121" fill-rule="evenodd"/>
      <path id="Fill-14" d="M157.044,94.5c0,2.82-.581,4.651-1.425,5.465a3.957,3.957,0,0,1-5.233,0c-.843-.785-1.424-2.616-1.424-5.465s.581-4.681,1.424-5.495a3.957,3.957,0,0,1,5.233,0c.843.814,1.425,2.645,1.425,5.495m2.762,0c0-3.6-1.134-5.931-2.878-7.093a7.524,7.524,0,0,0-7.849,0c-1.744,1.163-2.878,3.489-2.878,7.093,0,3.576,1.134,5.9,2.878,7.064a7.36,7.36,0,0,0,7.849,0c1.744-1.163,2.878-3.489,2.878-7.064" transform="translate(-103.698 -61.14)" fill="#212121" fill-rule="evenodd"/>
      <path id="Fill-16" d="M110.732,87.5h-1.686a.279.279,0,0,0-.262.2l-4.012,11.774L100.557,87.7a.279.279,0,0,0-.262-.2H98a.28.28,0,0,0-.262.407L103.464,103a.254.254,0,0,0,.262.174h1.454a.35.35,0,0,0,.291-.2l5.553-15.088a.3.3,0,0,0-.291-.378" transform="translate(-69.305 -61.992)" fill="#212121" fill-rule="evenodd"/>
      <path id="Fill-18" d="M60.144,94.5c0,2.82-.581,4.651-1.425,5.465a3.957,3.957,0,0,1-5.233,0c-.843-.785-1.425-2.616-1.425-5.465s.581-4.681,1.425-5.495a3.957,3.957,0,0,1,5.233,0c.843.814,1.425,2.645,1.425,5.495m2.762,0c0-3.6-1.163-5.931-2.878-7.093a7.524,7.524,0,0,0-7.849,0C50.434,88.568,49.3,90.893,49.3,94.5c0,3.576,1.134,5.9,2.878,7.064a7.36,7.36,0,0,0,7.849,0c1.744-1.163,2.878-3.489,2.878-7.064" transform="translate(-34.968 -61.14)" fill="#212121" fill-rule="evenodd"/>
      <path id="Fill-20" d="M6.076,86.2a15.1,15.1,0,0,0-4.71.727C.32,87.276,0,87.654,0,88.177v13.78a.291.291,0,0,0,.291.291H2.384a.291.291,0,0,0,.291-.291V89.223c0-.7,1.163-1.279,3.256-1.279,3.547,0,3.547,2.151,3.547,3.576v10.437a.291.291,0,0,0,.291.291h2.093a.291.291,0,0,0,.291-.291V91.2c.029-1.773,0-5-6.076-5" transform="translate(0 -61.07)" fill="#212121" fill-rule="evenodd"/>
      <path id="Fill-23" d="M495.543,17.281a1.824,1.824,0,0,1-1.831,1.977c-3.14,0-5.524-2.151-8.954-5.611,2.413-2.122,5.843-4.8,8.751-4.8a2.064,2.064,0,0,1,2.035,2.064ZM483.1,14.287c-.291.262-.552.552-.843.814l-.64-.64c-.233-.233-.494-.465-.727-.7.233-.2.465-.436.7-.64.233-.233.465-.436.669-.64.2.2.407.436.64.669l.669.669a3.508,3.508,0,0,1-.465.465ZM477.4,2.92c0-.611.32-1.628,2.151-1.628h5.756c1.628,0,2.413.785,2.413,1.861,0,2.878-2.442,5.117-5.407,7.995C479.787,8.5,477.4,5.536,477.4,2.92Zm16.571,4.826c-3.4,0-7.326,3.227-9.681,5.436l-.669-.669c-.2-.233-.436-.436-.64-.669,3.808-3.6,5.931-5.814,5.931-8.9A2.631,2.631,0,0,0,485.979.1h-6.716c-1.977,0-3.023.785-3.023,2.7,0,2.3,1.744,5.117,5.407,9.041-.2.2-.407.407-.61.64l-.727.727C475.6,8.734,473.478,7.4,470.542,7.4A2.4,2.4,0,0,0,468.1,9.955s.436-2.093,2.209-2.093c3.023,0,5.058,1.977,9.187,6.076-3.4,3.169-6.512,5-8.576,5a2.5,2.5,0,0,1-2.82-2.326c0,2.384,1.308,3.023,3.023,3.023,2.442,0,5.407-1.861,8.983-5.088l.7.7.7.7c-3.4,3.489-5.262,6.279-5.262,8.285a2.726,2.726,0,0,0,.9,2.093,3.85,3.85,0,0,0,2.122.552,3.839,3.839,0,0,1-1.8-.64,2.694,2.694,0,0,1-.814-1.948c0-2.268,2.849-5.582,5.233-7.966,4.826,4.942,5.931,7.239,5.931,8.489a2.148,2.148,0,0,1-2.239,2.035c3.111,0,3.111-1.861,3.111-2.326,0-1.744-1.4-4.39-5.989-9.012.232-.233.465-.436.669-.64s.436-.407.669-.611c4.215,4.215,6.541,6.076,10.059,6.076a2.553,2.553,0,0,0,2.733-2.558V10.653A2.642,2.642,0,0,0,493.974,7.746Z" transform="translate(-332.017 0)" fill="#212121" fill-rule="evenodd"/>
    </g>
  </g>
</svg>
