<svg xmlns="http://www.w3.org/2000/svg" xmlns:xlink="http://www.w3.org/1999/xlink" width="206" height="102" viewBox="0 0 206 102">
  <defs>
    <clipPath id="clip-shell">
      <rect width="206" height="102"/>
    </clipPath>
  </defs>
  <g id="shell" clip-path="url(#clip-shell)">
    <rect width="206" height="102" fill="#fff"/>
    <g id="shell-2" data-name="shell" transform="translate(67.666 19.093)">
      <path id="Path_6" data-name="Path 6" d="M116.218,160.842c-2.53,0-5.059,0-7.588,0a1.21,1.21,0,0,0-.906.354,4.589,4.589,0,0,1-6.392-.229.338.338,0,0,0-.269-.107c-1.639-.047-3.279-.036-4.919-.038q-5.52-.008-11.04.007c-.143,0-.2-.038-.215-.186q-.287-2.571-.586-5.142-.311-2.706-.624-5.413c-.048-.422-.1-.844-.143-1.266a.462.462,0,0,0-.206-.364c-2.9-2.115-5.816-4.218-8.663-6.417-.819-.631-.812-.637-1-1.668a33.742,33.742,0,0,1-.514-5.046,30.488,30.488,0,0,1,.53-6.45,32.419,32.419,0,0,1,7.723-15.785,31.359,31.359,0,0,1,14.775-9.494,29.192,29.192,0,0,1,7.245-1.193,29.787,29.787,0,0,1,17.477,4.741,32.489,32.489,0,0,1,12.877,15.46,31.558,31.558,0,0,1,2.169,8.544,32.112,32.112,0,0,1-.469,10.006.666.666,0,0,1-.254.414c-1.5,1.21-3.057,2.344-4.605,3.487s-3.126,2.287-4.692,3.431a.371.371,0,0,0-.163.287q-.573,5.053-1.157,10.105c-.067.584-.143,1.168-.2,1.753-.016.154-.063.2-.219.2q-3.985-.009-7.969,0Zm-8.52-17.62q.668-3.429,1.336-6.86,1.019-5.239,2.046-10.483l1.434-7.356,1.577-8.067a.264.264,0,0,0-.127-.318,9.576,9.576,0,0,0-3.095-1.334,15.225,15.225,0,0,0-3.219-.458,9.191,9.191,0,0,0-1.445.074c-.143.016-.208.069-.2.232.008.208-.017.418-.025.626q-.077,2.018-.153,4.035-.072,1.992-.152,3.976-.077,2.028-.153,4.057-.072,2-.152,4l-.153,4q-.077,2.008-.152,4.016t-.153,4c-.045,1.241-.086,2.482-.131,3.723q-.03.833-.072,1.665c0,.044.026.111-.062.122a1.081,1.081,0,0,1-.016-.115l-.1-2.546q-.076-1.928-.151-3.858-.077-2-.154-4l-.152-3.938-.153-3.937-.152-3.917-.153-3.957-.153-3.937c-.052-1.345-.106-2.691-.151-4.036,0-.138-.059-.177-.173-.195a6.822,6.822,0,0,0-1.082-.082,14.538,14.538,0,0,0-4.28.651,8.676,8.676,0,0,0-2.351,1.1c-.117.08-.24.137-.2.344q1,5.09,1.988,10.179,1.133,5.8,2.268,11.6,1.032,5.282,2.058,10.565c.043.221.084.443.126.664a.17.17,0,0,1-.068-.1q-.551-1.992-1.1-3.977-1.606-5.794-3.215-11.588Q95.092,119.9,92.9,112.026c-.119-.429-.121-.425-.556-.337a6.28,6.28,0,0,0-1.871.76,16.707,16.707,0,0,0-3.413,2.619,6.038,6.038,0,0,0-.941,1.129.443.443,0,0,0-.03.469c.733,1.588,1.455,3.182,2.18,4.774l6.111,13.4q2.138,4.666,4.267,9.332c.03.067.085.131.065.217-.066-.009-.076-.068-.1-.11Q97.9,143,97.177,141.714l-4.665-8.32-4.523-8.068-3.5-6.252c-.08-.148-.143-.159-.275-.07a4,4,0,0,0-.872.842,19.868,19.868,0,0,0-2.61,4.432,6.33,6.33,0,0,0-.476,1.444.648.648,0,0,0,.135.562q1.81,2.264,3.608,4.539,2.96,3.729,5.922,7.457,2.346,2.95,4.691,5.908c.538.679,1.072,1.36,1.608,2.04l-.029.031c-.367-.381-.736-.76-1.1-1.142q-2.428-2.536-4.855-5.075l-4.761-4.977-5.431-5.674c-.229-.24-.233-.241-.381.06a11.089,11.089,0,0,0-1.059,4.3,15.585,15.585,0,0,0,.414,4.453.479.479,0,0,0,.191.3l9.045,6.707a.878.878,0,0,1,.376.682c.143,1.291.308,2.582.467,3.869.21,1.7.427,3.393.628,5.09.023.2.077.254.272.254q5.615-.009,11.23-.007a.435.435,0,0,1,.322.126,9.376,9.376,0,0,0,1.844,1.351,2.314,2.314,0,0,0,2.227.158,8.848,8.848,0,0,0,2.157-1.5.463.463,0,0,1,.338-.136q4.6.006,9.209,0h2.1c.116,0,.162-.026.178-.156.143-1.206.3-2.41.446-3.614q.351-2.847.7-5.7a.41.41,0,0,1,.18-.3q4.6-3.411,9.2-6.827a.476.476,0,0,0,.2-.3,15.044,15.044,0,0,0,.3-5.639,10.165,10.165,0,0,0-.989-3.217c-.107-.207-.107-.206-.26-.046l-2.7,2.828q-2.333,2.447-4.668,4.882-4.327,4.522-8.656,9.042c-.04.042-.072.1-.143.107-.005-.091.056-.127.094-.175q1.38-1.741,2.761-3.479,3.389-4.267,6.777-8.536,3.069-3.865,6.139-7.729a.52.52,0,0,0,.126-.376,2.932,2.932,0,0,0-.2-.835,19.707,19.707,0,0,0-2.713-4.953A4.413,4.413,0,0,0,125.11,119c-.131-.087-.2-.069-.277.074q-3.331,5.958-6.667,11.91-3.789,6.76-7.581,13.52l-.064.007q1.462-3.216,2.929-6.439,2.48-5.44,4.961-10.878,2.4-5.271,4.813-10.539a.42.42,0,0,0-.021-.437,4.9,4.9,0,0,0-.645-.825,16.342,16.342,0,0,0-3.472-2.794,6.028,6.028,0,0,0-2.381-.948c-.161-.019-.211.033-.249.176-.171.636-.35,1.269-.525,1.9q-1.751,6.323-3.505,12.641l-4.668,16.843Z" transform="translate(-73.23 -102.47)" fill="#ec1c24"/>
      <path id="Path_7" data-name="Path 7" d="M166.3,220.728c-.528-.673-1.053-1.347-1.583-2.019q-2.308-2.924-4.618-5.845l-5.829-7.379q-1.775-2.246-3.552-4.491a.643.643,0,0,1-.133-.556,6.285,6.285,0,0,1,.472-1.427,19.628,19.628,0,0,1,2.569-4.385,3.943,3.943,0,0,1,.859-.833c.13-.088.191-.073.27.069q1.719,3.1,3.447,6.186l4.453,7.983,4.592,8.236q.706,1.268,1.416,2.538c.024.042.034.1.1.109.02-.085-.034-.146-.064-.215q-2.1-4.62-4.193-9.238l-6.019-13.26c-.714-1.575-1.424-3.152-2.146-4.724a.441.441,0,0,1,.03-.464,5.968,5.968,0,0,1,.927-1.117,16.457,16.457,0,0,1,3.358-2.592,6.164,6.164,0,0,1,1.842-.752c.428-.087.43-.091.548.334l4.3,15.587q1.581,5.734,3.165,11.466l1.083,3.935a.168.168,0,0,0,.067.1c-.042-.219-.082-.438-.124-.657q-1.013-5.227-2.026-10.453-1.114-5.739-2.233-11.477-.978-5.036-1.957-10.072c-.04-.205.081-.261.2-.341a8.519,8.519,0,0,1,2.315-1.086,14.244,14.244,0,0,1,4.213-.644,6.686,6.686,0,0,1,1.065.081c.113.018.167.056.171.193.044,1.331.1,2.662.149,3.994l.15,3.9.15,3.916q.074,1.938.15,3.876l.15,3.9q.074,1.949.15,3.9.075,1.977.152,3.954l.148,3.818q.05,1.26.1,2.519a1.078,1.078,0,0,0,.016.114c.086-.011.059-.077.061-.12q.037-.823.071-1.647c.044-1.228.085-2.456.129-3.684q.071-1.977.15-3.954t.15-3.974l.15-3.954q.076-1.977.15-3.954.076-2.006.151-4.014.076-1.971.15-3.935.076-2,.151-3.993c.008-.207.032-.414.025-.62-.006-.161.061-.214.2-.23a9,9,0,0,1,1.423-.073,14.915,14.915,0,0,1,3.169.453,9.375,9.375,0,0,1,3.046,1.32.262.262,0,0,1,.125.315q-.781,3.991-1.552,7.982l-1.411,7.279-2.014,10.376q-.658,3.392-1.315,6.787a2.455,2.455,0,0,0-.106.536,1.931,1.931,0,0,0,.16-.547l4.6-16.666,3.453-12.507c.173-.628.349-1.255.517-1.884.037-.141.087-.193.245-.174a5.92,5.92,0,0,1,2.344.938,16.1,16.1,0,0,1,3.418,2.765,4.843,4.843,0,0,1,.635.817.417.417,0,0,1,.02.433q-2.374,5.211-4.738,10.428-2.445,5.381-4.887,10.764l-2.889,6.375a.551.551,0,0,0-.12.307c-.01.013-.02.026-.03.04l.013.012.016-.053a.782.782,0,0,0,.183-.313l7.462-13.377q3.284-5.891,6.563-11.785c.079-.146.141-.16.272-.073a4.344,4.344,0,0,1,1.049,1.072,19.529,19.529,0,0,1,2.671,4.9,2.914,2.914,0,0,1,.193.826.517.517,0,0,1-.124.372q-3.023,3.821-6.043,7.647-3.336,4.222-6.671,8.446L183.1,220.5c-.037.047-.1.083-.092.173.071-.007.105-.064.141-.106q4.265-4.472,8.524-8.949,2.3-2.408,4.595-4.825,1.329-1.4,2.655-2.8c.15-.158.15-.158.255.046a10.1,10.1,0,0,1,.974,3.184,14.9,14.9,0,0,1-.291,5.58.47.47,0,0,1-.193.292l-9.054,6.755a.406.406,0,0,0-.177.3q-.34,2.818-.685,5.635c-.146,1.193-.3,2.384-.439,3.576-.016.129-.061.155-.175.155-.689,0-1.377,0-2.065,0H178a.455.455,0,0,0-.332.134,8.879,8.879,0,0,1-2.123,1.479,2.269,2.269,0,0,1-2.192-.156,9.228,9.228,0,0,1-1.817-1.332.427.427,0,0,0-.317-.125l-11.054.007c-.192,0-.245-.053-.267-.251-.2-1.679-.411-3.357-.618-5.036-.157-1.276-.315-2.551-.459-3.828a.869.869,0,0,0-.37-.675q-4.46-3.306-8.9-6.636a.474.474,0,0,1-.188-.292,15.5,15.5,0,0,1-.4-4.405A11,11,0,0,1,150,204.139c.146-.3.15-.3.375-.06l5.346,5.615,4.687,4.913,4.779,5.021c.36.378.723.753,1.085,1.13l.04.036.04.017-.016-.041Zm16.281.438.037-.039.013-.007v-.01l-.013.019-.037.039-.009.012Zm-16.14-.235c.006.009,0,.044.025.013l-.028-.01c0-.028-.008-.043-.037-.039l0-.029-.018.009.023.018Zm16.447-.108.038-.039c.018-.014.037-.029.012-.051l-.037.024a.182.182,0,0,0-.032.04.07.07,0,0,0-.027.016.382.382,0,0,0-.152.192l-.014.028.028-.015a.2.2,0,0,0,.141-.146Zm-14.043-1.758c-.006-.015,0-.036-.03-.028l.016.042c0,.031,0,.065.048.066l.006.053.022-.011-.03-.04a.074.074,0,0,0-.03-.082Zm5.781-1a1.205,1.205,0,0,0-.006-.543A1.158,1.158,0,0,0,174.628,218.065Zm5.55,1.406-.02.023s.01.009.011.009l.023-.023Zm-11.379-.5-.011-.013-.011.012.016.013Z" transform="translate(-143.18 -177.102)" fill="#fed400"/>
      <path id="Path_8" data-name="Path 8" d="M553.84,656a1.991,1.991,0,0,1-.18.575,2.515,2.515,0,0,1,.116-.566Z" transform="translate(-519.305 -615.274)" fill="#f36316"/>
      <path id="Path_9" data-name="Path 9" d="M592.751,673.881a.57.57,0,0,1,.131-.324l.068-.008a.82.82,0,0,1-.2.331Z" transform="translate(-555.595 -631.523)" fill="#f36416"/>
      <path id="Path_10" data-name="Path 10" d="M512.54,653.514a1.184,1.184,0,0,1-.006-.573A1.231,1.231,0,0,1,512.54,653.514Z" transform="translate(-481.093 -612.44)" fill="#f35f17"/>
      <path id="Path_11" data-name="Path 11" d="M627.26,698.233a.406.406,0,0,1,.166-.2.378.378,0,0,0,0,.066.218.218,0,0,1-.154.154Z" transform="translate(-587.63 -654.194)" fill="#f57513"/>
      <path id="Path_12" data-name="Path 12" d="M591.392,679.66l.015.008-.025.025-.011-.009Z" transform="translate(-554.307 -637.173)" fill="#f36416"/>
      <path id="Path_13" data-name="Path 13" d="M430.962,674.155c-.047,0-.047-.038-.052-.07l.015-.015a.077.077,0,0,1,.035.087Z" transform="translate(-405.35 -631.997)" fill="#ec1c24"/>
      <path id="Path_14" data-name="Path 14" d="M431.56,675.172l.033.042-.024.012-.007-.056Z" transform="translate(-405.952 -633.015)" fill="#ec1c24"/>
      <path id="Path_15" data-name="Path 15" d="M592.372,677.84l-.017.056-.015-.012c.01-.015.022-.028.032-.042Z" transform="translate(-555.207 -635.488)" fill="#f36416"/>
      <path id="Path_16" data-name="Path 16" d="M430.114,672.594l-.006.013-.018-.014.012-.013Z" transform="translate(-404.588 -630.615)" fill="#ec1c24"/>
      <path id="Path_17" data-name="Path 17" d="M430.7,673.712l-.018-.044c.028-.008.026.014.032.029Z" transform="translate(-405.135 -631.621)" fill="#ec1c24"/>
      <path id="Path_18" data-name="Path 18" d="M394.643,696.932l-.043-.039.032-.032.037.046A.259.259,0,0,0,394.643,696.932Z" transform="translate(-371.643 -653.105)" fill="#ec1c24"/>
      <path id="Path_19" data-name="Path 19" d="M630.26,696.951c.014-.009.037-.029.041-.025.028.023.007.039-.013.054C630.279,696.97,630.269,696.961,630.26,696.951Z" transform="translate(-590.41 -653.166)" fill="#ec1c24"/>
      <path id="Path_20" data-name="Path 20" d="M395.185,697.45l.018.043-.043-.018Z" transform="translate(-372.162 -653.651)" fill="#ec1c24"/>
      <path id="Path_21" data-name="Path 21" d="M629.8,697.3l.035-.042c.009.009.019.018.028.029l-.042.041Z" transform="translate(-589.983 -653.476)" fill="#ec1c24"/>
      <path id="Path_22" data-name="Path 22" d="M629.424,697.893a.383.383,0,0,0,0-.066.077.077,0,0,1,.029-.017l.022.027Z" transform="translate(-589.63 -653.986)" fill="#ec1c24"/>
      <path id="Path_23" data-name="Path 23" d="M396.165,698.769l-.025-.019.02-.01,0,.031Z" transform="translate(-373.071 -654.845)" fill="#ec1c24"/>
      <path id="Path_24" data-name="Path 24" d="M396.432,699.14c.032,0,.042.012.04.042h0l-.042-.04Z" transform="translate(-373.341 -655.216)" fill="#ec1c24"/>
      <path id="Path_25" data-name="Path 25" d="M397,699.643l.031.011c-.028.032-.021,0-.028-.014Z" transform="translate(-373.87 -655.679)" fill="#ec1c24"/>
      <path id="Path_26" data-name="Path 26" d="M627.09,700.674l-.03.015.016-.029Z" transform="translate(-587.438 -656.624)" fill="#f57513"/>
      <path id="Path_27" data-name="Path 27" d="M626.28,702.09l.015-.02v.011l-.014.007Z" transform="translate(-586.713 -657.93)" fill="#f57513"/>
      <path id="Path_28" data-name="Path 28" d="M625.771,702.3l-.041.042h0l.041-.041Z" transform="translate(-586.204 -658.143)" fill="#f57513"/>
      <path id="Path_29" data-name="Path 29" d="M625.628,702.84l-.008.014.01-.012Z" transform="translate(-586.101 -658.642)" fill="#f57513"/>
    </g>
  </g>
</svg>
