<svg xmlns="http://www.w3.org/2000/svg" xmlns:xlink="http://www.w3.org/1999/xlink" width="206" height="102" viewBox="0 0 206 102">
  <defs>
    <clipPath id="clip-surya">
      <rect width="206" height="102"/>
    </clipPath>
  </defs>
  <g id="surya" clip-path="url(#clip-surya)">
    <rect width="206" height="102" fill="#fff"/>
    <g id="surya-2" data-name="surya" transform="translate(48.853 43.365)">
      <path id="Path_163" data-name="Path 163" d="M59.339,46.24c.033.028.021.066.021.1v2.992c0,.109,0,.11-.11.109a5.561,5.561,0,0,0-.924.091,5.66,5.66,0,0,0-1.475.452,4.952,4.952,0,0,0-1.168.74,5.584,5.584,0,0,0-1.237,1.488,11.588,11.588,0,0,0-.836,1.821c-.141.383-.269.771-.392,1.159-.172.531-.319,1.064-.478,1.6-.122.41-.245.819-.364,1.228-.088.305-.172.614-.259.919-.071.241-.135.485-.2.728-.074.281-.145.564-.222.843-.116.423-.235.845-.364,1.262q-.233.747-.517,1.471c-.06.148-.122.295-.19.44a9.394,9.394,0,0,1-.878,1.552,6.077,6.077,0,0,1-.628.766,6.832,6.832,0,0,1-.792.726,7.466,7.466,0,0,1-.654.428,7.556,7.556,0,0,1-1.38.609,10.159,10.159,0,0,1-1.38.345c-.228.043-.459.071-.69.109a2.962,2.962,0,0,1-.3.022c-.26.012-.517.048-.778.057-.159,0-.317.016-.478.017-.1,0-.107,0-.107-.1V65.248c0-.093,0-.1.1-.095a4.089,4.089,0,0,0,.581-.029,7.244,7.244,0,0,0,1.29-.238,5.159,5.159,0,0,0,.836-.319,4.327,4.327,0,0,0,.843-.54,5.417,5.417,0,0,0,.543-.528,4.693,4.693,0,0,0,.548-.743,8.106,8.106,0,0,0,.705-1.507c.191-.538.357-1.083.517-1.635.172-.6.335-1.207.5-1.806.107-.388.207-.78.314-1.168.112-.416.229-.831.345-1.245q.243-.877.547-1.725c.172-.488.355-.969.562-1.445.172-.4.345-.8.555-1.2a15.047,15.047,0,0,1,.892-1.53,6.643,6.643,0,0,1,.471-.607c.126-.145.259-.279.4-.412a6.823,6.823,0,0,1,1.078-.831,7.948,7.948,0,0,1,.893-.481,9.215,9.215,0,0,1,1.287-.478,9.926,9.926,0,0,1,.993-.243c.224-.043.45-.079.676-.105.193-.024.385-.059.578-.066a6.508,6.508,0,0,1,.711-.028S59.331,46.252,59.339,46.24Z" transform="translate(-42.53 -46.237)" fill="#232323"/>
      <path id="Path_164" data-name="Path 164" d="M190.52,62.182V48h2.425V62.151c0,3.194,1.842,5.347,4.636,5.347,2.7,0,4.574-2.149,4.574-5.347V48h2.418V62.182c0,4.545-2.794,7.614-6.969,7.614C193.312,69.8,190.52,66.727,190.52,62.182Z" transform="translate(-164.972 -47.693)"/>
      <path id="Path_165" data-name="Path 165" d="M363.661,69.341l-4.974-7.89h-4.455v7.89H351.78V47.82h7.368c3.777,0,6.262,2.732,6.262,6.907a6.2,6.2,0,0,1-4.358,6.293l5.157,7.951v.369Zm-4.543-10c2.242,0,3.929-1.842,3.929-4.636s-1.571-4.608-3.929-4.608h-4.912v9.241Z" transform="translate(-298.419 -47.544)"/>
      <path id="Path_166" data-name="Path 166" d="M506.395,48H509v.369l-6.538,12.309V69.49h-2.427V60.678L493.47,48.345V48h2.609l2.578,5,2.549,5.25h.091l2.518-5.219Z" transform="translate(-415.672 -47.693)"/>
      <path id="Path_167" data-name="Path 167" d="M646.954,68.017,644.99,62.7h-9.118l-2,5.312H631.42v-.345l8.5-21.452h1.106l8.411,21.458v.345Zm-10.26-7.52h7.459l-3.708-9.948Z" transform="translate(-529.83 -46.22)"/>
    </g>
  </g>
</svg>
