<svg xmlns="http://www.w3.org/2000/svg" xmlns:xlink="http://www.w3.org/1999/xlink" width="206" height="102" viewBox="0 0 206 102">
  <defs>
    <clipPath id="clip-tata">
      <rect width="206" height="102"/>
    </clipPath>
  </defs>
  <g id="tata" clip-path="url(#clip-tata)">
    <rect width="206" height="102" fill="#fff"/>
    <g id="tata-2" data-name="tata" transform="translate(71.742 23.229)">
      <path id="Path_274" data-name="Path 274" d="M202.25,120.72a11.773,11.773,0,0,1,1.012-1.667,17.075,17.075,0,0,1,4.493-4.25,26.067,26.067,0,0,1,7.6-3.4,33.064,33.064,0,0,1,5.606-1.036,34.823,34.823,0,0,1,4.2-.177,32.653,32.653,0,0,1,12.172,2.474,22.009,22.009,0,0,1,6.241,3.9,14.833,14.833,0,0,1,3.013,3.717,1.885,1.885,0,0,1,.21.43c-.142.053-.266-.024-.387-.052q-3.973-.931-8.01-1.546-2.972-.458-5.965-.744c-1.652-.155-3.306-.24-4.964-.3a2.569,2.569,0,0,0-.668.061,1.346,1.346,0,0,0-1.123,1.142,8.8,8.8,0,0,0-.121,1.437q.028,3.529.064,7.058.043,4.587.088,9.174.022,2.168.049,4.335v.235c.006.116-.052.156-.161.158-.213,0-.426.023-.638.022-.448,0-.9-.01-1.344-.02-.281-.007-.29.035-.29-.3.008-.974.01-1.949.02-2.924q.073-7.259.149-14.518c.01-.986.027-1.972.034-2.958a9.186,9.186,0,0,0-.125-1.673,1.352,1.352,0,0,0-1.2-1.183,2.648,2.648,0,0,0-.5-.046c-1.4.047-2.8.107-4.194.224q-2.026.171-4.043.424-2.566.324-5.112.778c-1.995.354-3.98.754-5.95,1.229A.964.964,0,0,1,202.25,120.72Z" transform="translate(-193.014 -110.15)" fill="#1173ba"/>
      <path id="Path_275" data-name="Path 275" d="M195.726,302.361a7.294,7.294,0,0,1,1.962.142,1.7,1.7,0,0,1,1.412,1.756,11.361,11.361,0,0,1-.228,2.37q-.568,3.377-1.253,6.732-.838,4.129-1.825,8.224a1.152,1.152,0,0,0-.037.129c-.017.134-.089.161-.211.129-.422-.108-.848-.206-1.27-.32a25.959,25.959,0,0,1-7.7-3.417,16.746,16.746,0,0,1-4.915-4.853,11.852,11.852,0,0,1-1.838-5,11.086,11.086,0,0,1,.179-3.641.331.331,0,0,1,.311-.285c.986-.2,1.972-.415,2.958-.605q2.59-.5,5.21-.8,2-.232,4.015-.367C193.659,302.477,194.822,302.4,195.726,302.361Z" transform="translate(-171.812 -291.179)" fill="#1172ba"/>
      <path id="Path_276" data-name="Path 276" d="M678.707,306.811a11.418,11.418,0,0,1-1.89,6.264,16.894,16.894,0,0,1-4.733,4.756,25.97,25.97,0,0,1-7.743,3.57c-.43.124-.865.232-1.3.339-.305.076-.309.071-.378-.217q-.242-1.013-.479-2.025c-.655-2.789-1.245-5.592-1.786-8.4-.343-1.78-.676-3.562-.943-5.356a8.535,8.535,0,0,1-.1-1.369,1.793,1.793,0,0,1,1.715-1.985,10.723,10.723,0,0,1,2.314-.046c.87.046,1.744.113,2.616.169,1.408.092,2.812.232,4.214.4,2,.237,3.99.566,5.966.96.658.132,1.313.282,1.972.41a.355.355,0,0,1,.31.33A12.307,12.307,0,0,1,678.707,306.811Z" transform="translate(-623.608 -291.124)" fill="#1172ba"/>
      <path id="Path_277" data-name="Path 277" d="M296.826,804.944h-5.759c-.384,0-.322.027-.441-.316q-1.488-4.3-2.972-8.6c-.036-.1-.076-.206-.12-.324-.126.072-.127.2-.16.293q-1.456,4.256-2.908,8.513c-.174.513-.048.428-.591.43q-2.606.006-5.211,0a.7.7,0,0,1-.359-.032.5.5,0,0,1,.074-.29q2.847-7.518,5.7-15.036a.873.873,0,0,0,.049-.125c.034-.164.137-.2.294-.2.527.009,1.053,0,1.58,0h4.471c.331,0,.29-.065.428.293q2.93,7.54,5.858,15.084A.591.591,0,0,1,296.826,804.944Z" transform="translate(-264.653 -749.843)" fill="#1172ba"/>
      <path id="Path_278" data-name="Path 278" d="M826.9,804.919a.681.681,0,0,1-.329.036h-5.446c-.331,0-.306.076-.44-.314q-1.5-4.331-2.995-8.661c-.032-.092-.068-.184-.1-.281a.62.62,0,0,0-.162.339q-1.461,4.273-2.916,8.546c-.021.064-.048.126-.064.191-.035.145-.124.186-.27.185q-2.858-.007-5.715-.006a.467.467,0,0,1-.1-.021.511.511,0,0,1,.073-.29q2.854-7.535,5.713-15.068c.13-.343.081-.3.423-.3h5.951c.382,0,.309-.037.446.317q2.395,6.165,4.786,12.332.553,1.424,1.1,2.848C826.871,804.816,826.88,804.861,826.9,804.919Z" transform="translate(-763.965 -749.856)" fill="#1172ba"/>
      <path id="Path_279" data-name="Path 279" d="M51.2,789.251h7.159c.078,0,.157,0,.235,0,.125-.008.19.041.18.174,0,.045,0,.09,0,.135v4c0,.307,0,.309-.315.309h-3.63c-.078,0-.157,0-.235,0-.132,0-.179.063-.174.187,0,.089,0,.179,0,.269V804.6c0,.352.025.328-.327.328H48.446c-.362,0-.34.021-.34-.353V794.195c0-.348.017-.331-.329-.331h-3.8c-.372,0-.353.023-.353-.34v-3.091c0-.325.006-.65,0-.974,0-.161.052-.221.213-.212.2.011.4,0,.6,0Z" transform="translate(-43.59 -749.829)" fill="#1173ba"/>
      <path id="Path_280" data-name="Path 280" d="M581.3,789.33h7.293c.243.006.249.006.25.232q0,2.067,0,4.132c0,.242-.006.246-.276.246h-3.73c-.328.01-.328.01-.328.334V804.59c0,.474.046.419-.406.419h-5.579c-.348,0-.327.024-.327-.328V794.4c0-.5.064-.454-.441-.455h-3.9c-.116,0-.159-.058-.154-.167,0-.058,0-.112,0-.168v-4.133c0-.094.037-.147.137-.146H581.3Z" transform="translate(-542.922 -749.908)" fill="#1173ba"/>
    </g>
  </g>
</svg>
