<svg xmlns="http://www.w3.org/2000/svg" xmlns:xlink="http://www.w3.org/1999/xlink" width="206" height="102" viewBox="0 0 206 102">
  <defs>
    <clipPath id="clip-temowa">
      <rect width="206" height="102"/>
    </clipPath>
  </defs>
  <g id="temowa" clip-path="url(#clip-temowa)">
    <rect width="206" height="102" fill="#fff"/>
    <g id="temowa-2" data-name="temowa" transform="translate(50.069 21.397)">
      <path id="Path_351" data-name="Path 351" d="M127.352,60.98H125.9l-.835.58v7.062l.509.29h1.774V60.98Z" transform="translate(-84.293 -41.085)" fill="#fcb03f"/>
      <path id="Path_352" data-name="Path 352" d="M135.7,60.98h4.682l.316.906h2.921l4.682,3.306h3.935v.8h2.416v2.921H135.7Z" transform="translate(-91.457 -41.085)" fill="#fcb03f"/>
      <path id="Path_353" data-name="Path 353" d="M193.1,35.54l3.228,2.074V31.484h5.748l.447,2.074.58.978.29,1.956.867-2.706,2.175-7.567,4.392,7.339.245,6.521-1.741.29-.489.714.241.58h4.587s4.056-1.5,3.766-5.507c0,0-.864-3.612-4.1-3.717l-3.14-10.671-2.367-4.538L205.509,15,203.1,19.851l1.108,1.112-2.986,7.962-.241,1.157-6.084.147-1.787.724Z" transform="translate(-140.772 -14.98)" fill="#fcb03f"/>
      <path id="Path_354" data-name="Path 354" d="M132.407,131.4H37.092a2.758,2.758,0,0,1-2.752-2.755l2.823-16.9A2.762,2.762,0,0,1,39.928,109h97.018a2.758,2.758,0,0,1,2.752,2.752l-4.538,16.9a2.762,2.762,0,0,1-2.752,2.752Z" transform="translate(-33.773 -78.333)" fill="#fcb03f"/>
      <path id="Path_355" data-name="Path 355" d="M131.235,130.81H35.919a3.322,3.322,0,0,1-3.319-3.322v-.095l2.83-16.853a3.319,3.319,0,0,1,3.319-3.26h97.024a3.322,3.322,0,0,1,3.319,3.319l-.02.147-4.519,16.82A3.326,3.326,0,0,1,131.235,130.81Zm-97.484-3.26a2.188,2.188,0,0,0,2.184,2.142h95.3a2.188,2.188,0,0,0,2.184-2.188l.02-.147,4.519-16.823a2.191,2.191,0,0,0-2.184-2.113H38.756a2.184,2.184,0,0,0-2.184,2.184v.095Z" transform="translate(-32.6 -77.174)" fill="#212121"/>
      <path id="Path_356" data-name="Path 356" d="M30.348,106.52l-.688,3.163,3.368.1-.955,11.287h3.766l1.594-11.444h3.622v-3.1Z" transform="translate(-19.99 -71.778)" fill="#212121"/>
      <path id="Path_357" data-name="Path 357" d="M64.516,106.52,62.68,120.657h9.126l1.014-2.823H66.86l.577-3.045h5.409l.554-2.051-5.673.1.531-3.238,6.227.121.8-3.2Z" transform="translate(-42.244 -71.778)" fill="#212121"/>
      <path id="Path_358" data-name="Path 358" d="M134.8,121.5,133,135.637h3.912s1.35-10.818,1.519-10.841,2.706.1,2.706.1l-1.255,10.759h3.779l1.594-10.841h2.488l-1.161,10.841,4.056-.1,1.956-14.039Z" transform="translate(-100.266 -86.757)" fill="#212121"/>
      <path id="Path_359" data-name="Path 359" d="M198.386,106.52h3.909l-1.48,11.251h3.475l1.48-11.251h3.593l-1.633,11.251h3.4l1.177-11.251h3.824l-2.067,14.039H197.01Z" transform="translate(-132.778 -71.778)" fill="#212121"/>
      <path id="Path_360" data-name="Path 360" d="M253.14,120.151l7.231-14.111h4.382l3.453,14.15-8.376.046.251-2.788,3.841-.183-1.849-5.213-4.2,8.183Z" transform="translate(-170.608 -71.454)" fill="#212121"/>
      <path id="Path_361" data-name="Path 361" d="M203.266,121.5H192.993l-2.113,13.485.121.554h10.189l.554-.264,1.663-13.612Zm-4.848,11.248h-3.5l1.376-7.9h3.117Z" transform="translate(-139.276 -86.757)" fill="#212121"/>
      <rect id="Rectangle_37" data-name="Rectangle 37" width="6.759" height="3.453" transform="translate(49.29 26.693)" fill="#fcb03f"/>
    </g>
  </g>
</svg>
