<svg xmlns="http://www.w3.org/2000/svg" xmlns:xlink="http://www.w3.org/1999/xlink" width="206" height="102" viewBox="0 0 206 102">
  <defs>
    <clipPath id="clip-trojan">
      <rect width="206" height="102"/>
    </clipPath>
  </defs>
  <g id="trojan" clip-path="url(#clip-trojan)">
    <rect width="206" height="102" fill="#fff"/>
    <g id="trojanuv" transform="translate(31.907 24.948)">
      <path id="Path_281" data-name="Path 281" d="M449.952,126.963c-.184-.22-.459-.155-.692-.2a10.53,10.53,0,0,1-2.525-.837,6.17,6.17,0,0,1-3.627-5.279c-.068-.75-.1-1.5-.1-2.259q0-5.162-.017-10.323c0-.445.118-.542.549-.534,1.644.029,3.289.034,4.933,0,.484,0,.559.15.556.583-.015,3.673,0,7.344,0,11.017v.522a2.509,2.509,0,0,0,3.385,2.573,2.162,2.162,0,0,0,1.746-1.864,6.765,6.765,0,0,0,.068-1.04V108.07c0-.433.1-.549.539-.542,1.664.031,3.327.024,4.989,0,.387,0,.532.063.53.484-.022,3.627-.017,7.269-.024,10.9a9.936,9.936,0,0,1-.271,2.3c-.759,3.175-2.943,4.807-5.987,5.509-.31.07-.653.017-.924.242Z" transform="translate(-342.553 -86.835)" fill="#e31a37"/>
      <path id="Path_282" data-name="Path 282" d="M27.292,106.83c.832,0,1.661.031,2.491.031,3.613,0,7.228.012,10.841,0,.464,0,.612.121.563.578a6.389,6.389,0,0,0,0,1.209c.034.368-.1.455-.45.45-1.565-.014-3.132,0-4.7-.017-.447,0-.532.126-.532.546.015,5.216,0,10.432.022,15.648,0,.44-.1.571-.534.542a11.262,11.262,0,0,0-1.565,0c-.4.024-.484-.128-.484-.484.015-3.144,0-6.261,0-9.39V109.57c0-.256.051-.484-.355-.484-1.719.022-3.441,0-5.16.015a.561.561,0,0,0-.162.056Z" transform="translate(-27.36 -86.305)" fill="#272324"/>
      <path id="Path_283" data-name="Path 283" d="M611.173,108.807c-.1.331-.189.663-.3.991-.051.155-.06.36-.312.343-.208-.017-.21-.189-.266-.326a5.462,5.462,0,0,0-.428-1.19v1.161c0,.138.073.331-.174.353s-.213-.164-.213-.31v-1.676c0-.15-.022-.319.222-.307.179,0,.331,0,.4.242.128.462.29.912.462,1.451a3.049,3.049,0,0,0,.4-1.1c.094-.423.278-.646.725-.583v2.321c-.264.017-.426-.053-.394-.372s.017-.6.024-.9c.024-.1.07-.242-.034-.273S611.188,108.72,611.173,108.807Z" transform="translate(-468.786 -87.076)" fill="#302d2e"/>
      <path id="Path_284" data-name="Path 284" d="M520.393,21.912c-.019.167.15.2.218.307a.726.726,0,0,1-.123,1.03.694.694,0,0,1-.987,0,.725.725,0,0,1-.13-1.028c.065-.109.242-.143.21-.312Z" transform="translate(-400.344 -21.92)" fill="#e32238"/>
      <path id="Path_285" data-name="Path 285" d="M528.857,119.837c.783-4.157,2.176-8,3.24-11.924a.484.484,0,0,1,.559-.423c1.76.019,3.521.015,5.281,0,.319,0,.445.017.314.4q-3.093,9.073-6.149,18.151a.469.469,0,0,1-.527.392q-2.728-.022-5.455,0a.484.484,0,0,1-.532-.387q-3.028-9.09-6.074-18.175c-.111-.326-.06-.389.268-.387q2.66.014,5.339,0c.264,0,.416.048.5.341.967,3.359,2.111,6.662,2.9,10.069C528.651,118.49,528.726,119.08,528.857,119.837Z" transform="translate(-400.531 -86.801)" fill="#e31a37"/>
      <path id="Path_286" data-name="Path 286" d="M104.96,117.794l5.267,8.139c-.967,0-1.85-.015-2.73,0-.334,0-.416-.23-.547-.433-1.521-2.37-3.044-4.737-4.546-7.121a.921.921,0,0,0-.921-.505c-1.255.034-2.515.027-3.77,0-.4,0-.522.089-.517.505.022,2.338,0,4.677.022,7.013,0,.44-.111.583-.544.537-.629-.065-1.475.266-1.833-.128-.312-.346-.1-1.178-.1-1.794q0-8.2-.015-16.407c0-.484.118-.607.6-.6,2.764.036,5.53.024,8.294.056a6,6,0,0,1,3.627,1c2.017,1.482,2.418,3.55,2,5.837a4.541,4.541,0,0,1-3.806,3.731l-.394.1C105.035,117.728,105.023,117.748,104.96,117.794Zm-4.2-1.993a24.149,24.149,0,0,0,3.332-.1,3.143,3.143,0,0,0,2.551-4.49,3.027,3.027,0,0,0-2.955-2.036c-2.046-.068-4.094-.036-6.142-.065-.36,0-.343.179-.343.428v5.852c0,.319.073.43.409.423C98.59,115.787,99.587,115.8,100.757,115.8Z" transform="translate(-78.462 -86.433)" fill="#262223"/>
      <path id="Path_287" data-name="Path 287" d="M162.08,114.686a11.2,11.2,0,0,1,.447-3.115,9.064,9.064,0,0,1,9.6-6.5c5.8.355,9.457,4.7,8.966,10.64a11.7,11.7,0,0,1-1.166,4.449,9.077,9.077,0,0,1-9.141,4.757C165.373,124.472,162.06,120.671,162.08,114.686Zm16.3.242a10.286,10.286,0,0,0-.389-3.035,6.641,6.641,0,0,0-12.736-.053,10.773,10.773,0,0,0,0,6.287,6.2,6.2,0,0,0,4.974,4.708A6.363,6.363,0,0,0,178,117.968,11.1,11.1,0,0,0,178.38,114.928Z" transform="translate(-129.571 -84.96)" fill="#262223"/>
      <path id="Path_288" data-name="Path 288" d="M361.615,110.624a5.739,5.739,0,0,0,.048,1.635c.053,4.328.1,8.657.179,12.983,0,.433-.09.588-.534.549a9.234,9.234,0,0,0-1.393,0c-.375.027-.435-.121-.435-.462q.015-9.017,0-18.032c0-.31.058-.426.4-.435,1.915-.053,1.915-.063,2.989,1.523l9.02,13.329c.039.058.087.111.193.242v-3.472c-.024-3.671-.046-7.342-.092-11.012,0-.459.075-.677.583-.612.549.07,1.286-.242,1.606.123.273.31.089,1.028.089,1.565q0,8.321.015,16.639c0,.484-.14.549-.6.617a2.443,2.443,0,0,1-2.66-1.415c-2.921-4.476-5.949-8.882-8.947-13.3C361.963,110.919,361.908,110.687,361.615,110.624Z" transform="translate(-279.237 -86.283)" fill="#262223"/>
      <path id="Path_289" data-name="Path 289" d="M288.927,120.228c-1.045,0-2.087.014-3.144,0a.544.544,0,0,0-.617.438c-.578,1.635-1.187,3.257-1.765,4.894a.579.579,0,0,1-.655.469c-.6-.036-1.209-.019-1.8,0-.3,0-.416-.031-.283-.38q3.482-9.092,6.938-18.2a.45.45,0,0,1,.505-.346c.636.019,1.277.024,1.913,0,.295,0,.4.118.484.368q3.33,9.083,6.643,18.18c.1.283.087.4-.242.358a.466.466,0,0,0-.058,0c-.725,0-1.606.22-2.162-.1s-.551-1.253-.8-1.915c-.411-1.1-.81-2.208-1.175-3.325a.561.561,0,0,0-.66-.45C291.023,120.242,289.981,120.228,288.927,120.228Zm.118-9.985c-.822,2.234-1.6,4.331-2.365,6.427-.164.45-.3.909-.455,1.361a4.9,4.9,0,0,0,1.48.068c1.347.015,2.694,0,4.094,0-.912-2.621-1.809-5.182-2.745-7.857Z" transform="translate(-219.439 -86.509)" fill="#272324"/>
      <path id="Path_290" data-name="Path 290" d="M240.809,123.37a4.969,4.969,0,0,0,3.216.406,2.069,2.069,0,0,0,1.838-1.935,10.681,10.681,0,0,0,.077-1.736V107.531c0-.447.092-.617.563-.578a13.965,13.965,0,0,0,1.623,0c.3,0,.421.077.4.387s0,.619,0,.929v13.271a4.43,4.43,0,0,1-1.881,3.949,4.8,4.8,0,0,1-2.268.81,11.94,11.94,0,0,1-3.119-.121c-.319-.051-.462-.155-.447-.51C240.831,124.93,240.809,124.195,240.809,123.37Z" transform="translate(-189.26 -86.394)" fill="#252122"/>
      <path id="Path_291" data-name="Path 291" d="M485.558,85.856a1.458,1.458,0,1,1,1.448-1.468A1.458,1.458,0,0,1,485.558,85.856Z" transform="translate(-373.714 -68.192)" fill="#e21f38"/>
      <path id="Path_292" data-name="Path 292" d="M546.073,86.152a1.451,1.451,0,1,1,1.451-1.5A1.489,1.489,0,0,1,546.073,86.152Z" transform="translate(-419.61 -68.427)" fill="#e21f38"/>
      <path id="Path_293" data-name="Path 293" d="M539.034,68.765a1.451,1.451,0,1,1-.425-1.041A1.451,1.451,0,0,1,539.034,68.765Z" transform="translate(-413.155 -56.334)" fill="#e21f38"/>
      <path id="Path_294" data-name="Path 294" d="M517.89,58.888a1.451,1.451,0,1,1-1.051.411,1.451,1.451,0,0,1,1.051-.411Z" transform="translate(-398.211 -49.956)" fill="#e21f38"/>
      <path id="Path_295" data-name="Path 295" d="M496.17,67.611a1.458,1.458,0,1,1,1.465,1.451,1.434,1.434,0,0,1-1.465-1.451Z" transform="translate(-382.873 -55.469)" fill="#e21f38"/>
      <path id="Path_296" data-name="Path 296" d="M568.686,85.627a1.135,1.135,0,1,1-1.094-1.174A1.135,1.135,0,0,1,568.686,85.627Z" transform="translate(-436.133 -69.338)" fill="#e21f38"/>
      <path id="Path_297" data-name="Path 297" d="M554.319,55.269a1.134,1.134,0,1,1-1.156-1.12A1.146,1.146,0,0,1,554.319,55.269Z" transform="translate(-425.241 -46.364)" fill="#e32238"/>
      <path id="Path_298" data-name="Path 298" d="M485.2,54.139A1.134,1.134,0,1,1,484.074,53,1.134,1.134,0,0,1,485.2,54.139Z" transform="translate(-372.835 -45.492)" fill="#e32238"/>
      <path id="Path_299" data-name="Path 299" d="M465.9,84.309a1.129,1.129,0,1,1-1.107,1.149A1.125,1.125,0,0,1,465.9,84.309Z" transform="translate(-359.082 -69.23)" fill="#e32238"/>
      <path id="Path_300" data-name="Path 300" d="M520.009,40.833a1.112,1.112,0,0,1-1.1,1.117,1.124,1.124,0,1,1,1.1-1.115Z" transform="translate(-399.242 -35.409)" fill="#e21f38"/>
      <path id="Path_301" data-name="Path 301" d="M587.934,87.528a.8.8,0,0,1-.774-.771.776.776,0,1,1,1.552,0A.788.788,0,0,1,587.934,87.528Z" transform="translate(-451.86 -70.497)" fill="#e32238"/>
      <path id="Path_302" data-name="Path 302" d="M447.791,87.208a.672.672,0,1,0,0-.01Z" transform="translate(-345.591 -70.24)" fill="#e32238"/>
      <path id="Path_303" data-name="Path 303" d="M472.362,41.469a.764.764,0,1,1-.368-.7A.764.764,0,0,1,472.362,41.469Z" transform="translate(-363.664 -36.138)" fill="#e32238"/>
      <path id="Path_304" data-name="Path 304" d="M567.987,43.554a.767.767,0,1,1,.747-.783A.767.767,0,0,1,567.987,43.554Z" transform="translate(-436.728 -37.168)" fill="#e32238"/>
      <path id="Path_305" data-name="Path 305" d="M601.921,107.853h.691c.131,0,.242.027.242.177s-.106.2-.227.174c-.52-.1-.484.242-.484.58v1.1c0,.138,0,.271-.2.268s-.2-.135-.2-.273c0-.423-.017-.846,0-1.267.015-.293-.06-.433-.377-.406-.133,0-.358.08-.365-.15,0-.278.242-.181.389-.193S601.75,107.853,601.921,107.853Z" transform="translate(-462.354 -87.079)" fill="#302d2e"/>
    </g>
  </g>
</svg>
