<svg xmlns="http://www.w3.org/2000/svg" xmlns:xlink="http://www.w3.org/1999/xlink" width="206" height="102" viewBox="0 0 206 102">
  <defs>
    <clipPath id="clip-xforia">
      <rect width="206" height="102"/>
    </clipPath>
  </defs>
  <g id="xforia" clip-path="url(#clip-xforia)">
    <rect width="206" height="102" fill="#fff"/>
    <g id="xforia-2" data-name="xforia" transform="translate(50.612 33.365)">
      <path id="Path_362" data-name="Path 362" d="M242.4,69.713c-1.955,0-3.709-.018-5.464,0a.882.882,0,0,1-.97-.658c-.367-.9-.9-1.737-1.217-2.645a1.536,1.536,0,0,0-1.831-1.176c-.632.053-.958.138-1.029.846-.085.882-.379,1.719-.453,2.589-.068.8-.344,1.111-1.176,1.064-1.12-.065-2.249-.047-3.371,0-.679.024-.814-.194-.694-.846q1.52-8.286,2.974-16.571c.123-.717.356-1.055,1.2-1.038,2.883.065,5.77,0,8.656.029,3.495.041,5.179,2,4.723,5.467-.153,1.158-.379,2.31-.623,3.457a3.7,3.7,0,0,1-1.358,2.528c-2.369,1.4-1.381,2.939-.464,4.6C241.688,68.032,241.958,68.758,242.4,69.713Zm-7.119-9.2c2.61,0,2.61,0,3-1.96.508-2.56.508-2.56-2.207-2.56-2.351,0-2.351,0-2.778,2.1C232.806,60.516,232.806,60.516,235.28,60.516Z" transform="translate(-162.703 -42.424)" fill="#040404"/>
      <path id="Path_363" data-name="Path 363" d="M176.126,68.831c-1.126,0-2.26.088-3.374-.018a3.89,3.89,0,0,1-3.836-4.3,47.812,47.812,0,0,1,1.743-9.932,5.8,5.8,0,0,1,5.129-4.235,28.278,28.278,0,0,1,7.031-.032,3.843,3.843,0,0,1,3.768,4.353,48.015,48.015,0,0,1-1.714,9.791c-.755,2.707-2.892,4.091-5.667,4.376a30.745,30.745,0,0,1-3.08.018Zm2.4-13.841h-2.057a.911.911,0,0,0-1.026.823c-.435,2.448-.838,4.9-1.29,7.348-.138.744.153.982.835.979,1.223,0,2.445-.041,3.665,0a1.217,1.217,0,0,0,1.47-1.208c.247-1.687.588-3.36.882-5.041C181.484,54.987,181.475,54.987,178.524,54.99Z" transform="translate(-122.28 -41.598)" fill="#040404"/>
      <path id="Path_364" data-name="Path 364" d="M308.881,69.694c-.173-.55.15-.846.326-1.176,2.9-5.364,5.826-10.71,8.682-16.092a1.845,1.845,0,0,1,1.9-1.176c3.5.05,3.512,0,4.159,3.468.852,4.559,1.669,9.112,2.542,13.676.185.976.05,1.47-1.09,1.311a14.067,14.067,0,0,0-2.2,0c-1.176.029-2.44.256-2.325-1.608.032-.588-.488-.5-.867-.5-.979,0-1.963.068-2.939-.021-1.243-.112-2.21.115-2.575,1.47a.861.861,0,0,1-.991.658C311.941,69.676,310.389,69.694,308.881,69.694Zm8.818-6.851c2.672.126,2.869-.273,1.587-2.966Z" transform="translate(-221.079 -42.405)" fill="#040404"/>
      <path id="Path_365" data-name="Path 365" d="M15,56.793c2.825-3.618,5.987-6.948,8.991-10.411q6.794-7.808,13.641-15.537a7.1,7.1,0,0,1,1.381-1.308c4.259-2.772,8.524-5.508,12.809-8.253.156-.1.326-.17.508-.265.332.626-.223.835-.467,1.111Q40.6,34.881,29.3,47.59a6.1,6.1,0,0,1-1.176,1.07q-6.466,4.171-12.933,8.306A1.845,1.845,0,0,0,15,56.793Z" transform="translate(-13.611 -21.06)" fill="#fe0505"/>
      <path id="Path_366" data-name="Path 366" d="M123.6,55.974H121.25c-2.775,0-2.754,0-2.977,2.772-.053.653.1.864.758.846,1.42-.041,2.839,0,4.259-.021.62,0,.8.118.708.826-.517,3.936-.491,3.939-4.459,3.939a.818.818,0,0,1-.147,0c-1.6-.317-2.4.232-2.5,1.963-.062,1.09.062,2.645-.749,3.151s-2.272.109-3.427.244c-1.378.159-1.567-.27-1.311-1.59,1.008-5.173,1.887-10.372,2.772-15.578.153-.882.4-1.326,1.449-1.308,4.115.071,8.23.05,12.345,0,.914,0,1.281.082,1.052,1.176-.726,3.527-.673,3.548-4.238,3.548Z" transform="translate(-81.613 -42.382)" fill="#080808"/>
      <path id="Path_367" data-name="Path 367" d="M289.313,69.513c-2.6,0-2.6,0-2.128-2.645.864-4.841,1.749-9.679,2.56-14.529.156-.929.42-1.361,1.44-1.264,1.255.118,3.1-.391,3.645.25.685.82-.194,2.451-.411,3.73-.729,4.274-1.537,8.524-2.222,12.812-.2,1.276-.629,1.94-2.007,1.649a4.353,4.353,0,0,0-.876,0Z" transform="translate(-205.626 -42.224)" fill="#060606"/>
      <path id="Path_368" data-name="Path 368" d="M56.042,59.609c-1.273-2.563-2.487-5.038-3.73-7.495-.294-.561-.226-.791.447-.785,1.658.018,3.315.032,4.973,0a1.139,1.139,0,0,1,1.1.752c1.47,2.725,1.47,2.722-.553,5.044C57.574,57.922,56.851,58.71,56.042,59.609Z" transform="translate(-39.839 -42.461)" fill="#0a0a0a"/>
      <path id="Path_369" data-name="Path 369" d="M81.523,86.2l4,8.171c-2.057,0-3.921-.021-5.793,0-.9,0-.914-.758-1.176-1.261-1.176-2.272-1.176-2.287.479-4.156C79.8,88.087,80.594,87.229,81.523,86.2Z" transform="translate(-57.902 -67.082)" fill="#050505"/>
      <path id="Path_370" data-name="Path 370" d="M10.664,142.9c-.121.026-.329.1-.347.071-.1-.17.044-.215.182-.244a1.844,1.844,0,0,1,.165.173Z" transform="translate(-10.28 -106.997)" fill="#fe0505"/>
    </g>
  </g>
</svg>
